<svg width="127.33mm" height="7.5333mm" version="1.1" viewBox="0 0 127.33 7.5333" xmlns="http://www.w3.org/2000/svg" xmlns:cc="http://creativecommons.org/ns#" xmlns:dc="http://purl.org/dc/elements/1.1/" xmlns:rdf="http://www.w3.org/1999/02/22-rdf-syntax-ns#">
 <title>Site-relative URL computed by Antora</title>
 <metadata>
  <rdf:RDF>
   <cc:Work rdf:about="">
    <dc:format>image/svg+xml</dc:format>
    <dc:type rdf:resource="http://purl.org/dc/dcmitype/StillImage"/>
    <dc:title>Site-relative URL computed by Antora</dc:title>
    <dc:creator>
     <cc:Agent>
      <dc:title>Sarah White</dc:title>
     </cc:Agent>
    </dc:creator>
    <dc:publisher>
     <cc:Agent>
      <dc:title>OpenDevise Inc.</dc:title>
     </cc:Agent>
    </dc:publisher>
    <dc:subject>
     <rdf:Bag>
      <rdf:li>Antora</rdf:li>
      <rdf:li>site URL</rdf:li>
     </rdf:Bag>
    </dc:subject>
    <cc:license rdf:resource="http://creativecommons.org/licenses/by-sa/4.0/"/>
   </cc:Work>
   <cc:License rdf:about="http://creativecommons.org/licenses/by-sa/4.0/">
    <cc:permits rdf:resource="http://creativecommons.org/ns#Reproduction"/>
    <cc:permits rdf:resource="http://creativecommons.org/ns#Distribution"/>
    <cc:requires rdf:resource="http://creativecommons.org/ns#Notice"/>
    <cc:requires rdf:resource="http://creativecommons.org/ns#Attribution"/>
    <cc:permits rdf:resource="http://creativecommons.org/ns#DerivativeWorks"/>
    <cc:requires rdf:resource="http://creativecommons.org/ns#ShareAlike"/>
   </cc:License>
  </rdf:RDF>
 </metadata>
 <g transform="translate(.86037 -228.09)">
  <rect x="-.86037" y="228.09" width="127.33" height="7.533" fill="#fff"/>
  <g transform="scale(1 .99998)" fill="#242424" stroke-width=".0727px" word-spacing="0px" style="font-feature-settings:normal;font-variant-caps:normal;font-variant-ligatures:normal;font-variant-numeric:normal;line-height:0%" xml:space="preserve"><g fill="#242424" stroke-width=".0727px" style="font-feature-settings:normal;font-variant-caps:normal;font-variant-ligatures:normal;font-variant-numeric:normal;line-height:125%"><path d="M1.53 228.1L2.15 228.1L-0.23 234.91L-0.86 234.91ZM5.68 228.82L5.68 234.19L5.01 234.19L5.01 233.58Q4.78 233.9 4.42 234.06Q4.07 234.23 3.64 234.23Q3.09 234.23 2.65 233.98Q2.21 233.74 1.96 233.29Q1.71 232.85 1.71 232.27Q1.71 231.69 1.96 231.25Q2.21 230.81 2.65 230.56Q3.09 230.32 3.64 230.32Q4.06 230.32 4.4 230.47Q4.75 230.63 4.98 230.93L4.98 228.82ZM3.7 233.62Q4.06 233.62 4.36 233.45Q4.66 233.28 4.82 232.97Q4.99 232.67 4.99 232.27Q4.99 231.87 4.82 231.57Q4.66 231.26 4.36 231.09Q4.06 230.93 3.7 230.93Q3.33 230.93 3.04 231.09Q2.75 231.26 2.58 231.57Q2.41 231.87 2.41 232.27Q2.41 232.67 2.58 232.97Q2.75 233.28 3.04 233.45Q3.33 233.62 3.7 233.62ZM8.63 234.23Q8.06 234.23 7.61 233.98Q7.15 233.72 6.89 233.28Q6.64 232.83 6.64 232.27Q6.64 231.71 6.89 231.26Q7.15 230.82 7.61 230.57Q8.06 230.32 8.63 230.32Q9.2 230.32 9.66 230.57Q10.11 230.82 10.36 231.26Q10.62 231.71 10.62 232.27Q10.62 232.83 10.36 233.28Q10.11 233.72 9.66 233.98Q9.2 234.23 8.63 234.23ZM8.63 233.62Q9 233.62 9.29 233.45Q9.59 233.28 9.75 232.97Q9.92 232.67 9.92 232.27Q9.92 231.87 9.75 231.57Q9.59 231.26 9.29 231.09Q9 230.93 8.63 230.93Q8.26 230.93 7.97 231.09Q7.68 231.26 7.51 231.57Q7.34 231.87 7.34 232.27Q7.34 232.67 7.51 232.97Q7.68 233.28 7.97 233.45Q8.26 233.62 8.63 233.62ZM13.25 234.23Q12.67 234.23 12.21 233.98Q11.75 233.72 11.49 233.28Q11.23 232.83 11.23 232.27Q11.23 231.71 11.49 231.26Q11.75 230.82 12.21 230.57Q12.67 230.32 13.25 230.32Q13.77 230.32 14.18 230.53Q14.59 230.74 14.81 231.13L14.29 231.47Q14.11 231.2 13.84 231.06Q13.57 230.93 13.24 230.93Q12.87 230.93 12.57 231.09Q12.27 231.26 12.1 231.57Q11.93 231.87 11.93 232.27Q11.93 232.67 12.1 232.98Q12.27 233.29 12.57 233.46Q12.87 233.62 13.24 233.62Q13.57 233.62 13.84 233.48Q14.11 233.35 14.29 233.07L14.81 233.41Q14.59 233.8 14.18 234.02Q13.77 234.23 13.25 234.23ZM16.81 234.23Q16.34 234.23 15.91 234.1Q15.47 233.98 15.23 233.78L15.52 233.23Q15.77 233.41 16.13 233.52Q16.49 233.63 16.86 233.63Q17.77 233.63 17.77 233.11Q17.77 232.94 17.65 232.83Q17.53 232.73 17.34 232.69Q17.16 232.64 16.82 232.58Q16.35 232.51 16.06 232.41Q15.77 232.32 15.56 232.1Q15.35 231.87 15.35 231.47Q15.35 230.95 15.78 230.63Q16.22 230.32 16.95 230.32Q17.33 230.32 17.71 230.41Q18.1 230.51 18.34 230.66L18.05 231.21Q17.58 230.91 16.94 230.91Q16.5 230.91 16.27 231.06Q16.04 231.2 16.04 231.44Q16.04 231.63 16.17 231.73Q16.3 231.84 16.49 231.89Q16.68 231.94 17.03 232.01Q17.49 232.09 17.77 232.18Q18.06 232.27 18.26 232.49Q18.46 232.7 18.46 233.09Q18.46 233.61 18.02 233.92Q17.58 234.23 16.81 234.23ZM20.86 228.1L21.49 228.1L19.1 234.91L18.47 234.91ZM23.92 230.32Q24.65 230.32 25.08 230.74Q25.51 231.16 25.51 231.98L25.51 234.19L24.82 234.19L24.82 232.06Q24.82 231.5 24.55 231.22Q24.28 230.94 23.79 230.94Q23.22 230.94 22.9 231.27Q22.57 231.6 22.57 232.21L22.57 234.19L21.88 234.19L21.88 228.82L22.57 228.82L22.57 230.9Q22.79 230.62 23.14 230.47Q23.49 230.32 23.92 230.32ZM30.12 230.35L28.26 234.57Q28.02 235.15 27.69 235.39Q27.36 235.63 26.89 235.63Q26.61 235.63 26.35 235.54Q26.09 235.45 25.91 235.28L26.21 234.76Q26.5 235.04 26.89 235.04Q27.15 235.04 27.32 234.91Q27.49 234.77 27.63 234.45L27.75 234.18L26.06 230.35L26.78 230.35L28.12 233.42L29.44 230.35ZM32.8 230.32Q33.36 230.32 33.8 230.56Q34.24 230.81 34.49 231.25Q34.74 231.69 34.74 232.27Q34.74 232.85 34.49 233.29Q34.24 233.74 33.8 233.98Q33.36 234.23 32.8 234.23Q32.39 234.23 32.05 234.07Q31.7 233.91 31.46 233.61L31.46 235.59L30.77 235.59L30.77 230.35L31.44 230.35L31.44 230.96Q31.67 230.64 32.02 230.48Q32.38 230.32 32.8 230.32ZM32.74 233.62Q33.11 233.62 33.41 233.45Q33.7 233.28 33.87 232.97Q34.04 232.67 34.04 232.27Q34.04 231.87 33.87 231.57Q33.7 231.26 33.41 231.09Q33.11 230.93 32.74 230.93Q32.38 230.93 32.09 231.1Q31.8 231.27 31.63 231.57Q31.46 231.87 31.46 232.27Q31.46 232.67 31.62 232.97Q31.79 233.28 32.09 233.45Q32.38 233.62 32.74 233.62ZM39.16 232.29Q39.16 232.37 39.15 232.5L36.04 232.5Q36.11 233.01 36.49 233.31Q36.86 233.62 37.43 233.62Q38.12 233.62 38.53 233.16L38.92 233.61Q38.66 233.91 38.27 234.07Q37.88 234.23 37.41 234.23Q36.8 234.23 36.33 233.98Q35.86 233.73 35.6 233.28Q35.35 232.83 35.35 232.27Q35.35 231.71 35.6 231.27Q35.85 230.82 36.28 230.57Q36.72 230.32 37.27 230.32Q37.82 230.32 38.25 230.57Q38.68 230.82 38.92 231.27Q39.16 231.71 39.16 232.29ZM37.27 230.9Q36.77 230.9 36.43 231.21Q36.1 231.51 36.04 232L38.5 232Q38.44 231.52 38.1 231.21Q37.77 230.9 37.27 230.9ZM40.79 231Q40.97 230.66 41.33 230.49Q41.68 230.32 42.19 230.32L42.19 230.99Q42.13 230.98 42.03 230.98Q41.46 230.98 41.14 231.32Q40.82 231.66 40.82 232.28L40.82 234.19L40.13 234.19L40.13 230.35L40.79 230.35L40.79 231ZM44.33 228.1L44.95 228.1L42.57 234.91L41.94 234.91ZM48.59 233.56L48.59 234.19L44.95 234.19L44.95 233.69L47.02 231.71Q47.39 231.34 47.52 231.08Q47.65 230.82 47.65 230.55Q47.65 230.15 47.37 229.93Q47.09 229.71 46.57 229.71Q45.74 229.71 45.28 230.26L44.79 229.83Q45.09 229.47 45.57 229.27Q46.05 229.07 46.64 229.07Q47.43 229.07 47.9 229.45Q48.37 229.83 48.37 230.48Q48.37 230.88 48.2 231.24Q48.03 231.6 47.54 232.07L46 233.56ZM49.73 234.23Q49.53 234.23 49.39 234.09Q49.24 233.95 49.24 233.73Q49.24 233.52 49.39 233.38Q49.53 233.24 49.73 233.24Q49.94 233.24 50.07 233.38Q50.21 233.51 50.21 233.73Q50.21 233.95 50.07 234.09Q49.93 234.23 49.73 234.23ZM52.34 231.14Q53.43 231.14 53.94 231.55Q54.45 231.96 54.45 232.67Q54.45 233.12 54.23 233.47Q54.02 233.83 53.59 234.04Q53.16 234.24 52.53 234.24Q52 234.24 51.5 234.08Q51 233.92 50.67 233.63L51.01 233.06Q51.27 233.3 51.67 233.45Q52.08 233.6 52.52 233.6Q53.1 233.6 53.41 233.36Q53.72 233.12 53.72 232.7Q53.72 232.24 53.38 232.01Q53.03 231.77 52.19 231.77L51.04 231.77L51.31 229.12L54.17 229.12L54.17 229.75L51.92 229.75L51.78 231.14L52.34 231.14ZM56.88 228.1L57.51 228.1L55.13 234.91L54.5 234.91ZM58.81 230.32Q59.61 230.32 60.03 230.71Q60.46 231.1 60.46 231.87L60.46 234.19L59.8 234.19L59.8 233.68Q59.62 233.95 59.3 234.09Q58.98 234.23 58.54 234.23Q57.9 234.23 57.51 233.92Q57.12 233.61 57.12 233.1Q57.12 232.6 57.49 232.29Q57.86 231.98 58.66 231.98L59.76 231.98L59.76 231.84Q59.76 231.4 59.5 231.16Q59.24 230.92 58.73 230.92Q58.4 230.92 58.07 231.03Q57.74 231.14 57.52 231.33L57.23 230.81Q57.53 230.57 57.94 230.44Q58.35 230.32 58.81 230.32ZM58.66 233.69Q59.05 233.69 59.34 233.52Q59.63 233.34 59.76 233.01L59.76 232.48L58.69 232.48Q57.81 232.48 57.81 233.07Q57.81 233.36 58.03 233.53Q58.26 233.69 58.66 233.69ZM65.38 228.82L65.38 234.19L64.71 234.19L64.71 233.58Q64.48 233.9 64.13 234.06Q63.77 234.23 63.35 234.23Q62.79 234.23 62.35 233.98Q61.91 233.74 61.66 233.29Q61.41 232.85 61.41 232.27Q61.41 231.69 61.66 231.25Q61.91 230.81 62.35 230.56Q62.79 230.32 63.35 230.32Q63.76 230.32 64.11 230.47Q64.45 230.63 64.69 230.93L64.69 228.82ZM63.41 233.62Q63.77 233.62 64.06 233.45Q64.36 233.28 64.53 232.97Q64.69 232.67 64.69 232.27Q64.69 231.87 64.53 231.57Q64.36 231.26 64.06 231.09Q63.77 230.93 63.41 230.93Q63.04 230.93 62.74 231.09Q62.45 231.26 62.28 231.57Q62.11 231.87 62.11 232.27Q62.11 232.67 62.28 232.97Q62.45 233.28 62.74 233.45Q63.04 233.62 63.41 233.62ZM71.49 230.32Q72.21 230.32 72.63 230.74Q73.06 231.16 73.06 231.98L73.06 234.19L72.36 234.19L72.36 232.06Q72.36 231.5 72.11 231.22Q71.85 230.94 71.37 230.94Q70.84 230.94 70.53 231.27Q70.22 231.6 70.22 232.21L70.22 234.19L69.53 234.19L69.53 232.06Q69.53 231.5 69.27 231.22Q69.02 230.94 68.54 230.94Q68.01 230.94 67.7 231.27Q67.39 231.6 67.39 232.21L67.39 234.19L66.69 234.19L66.69 230.35L67.36 230.35L67.36 230.93Q67.57 230.63 67.91 230.47Q68.25 230.32 68.68 230.32Q69.13 230.32 69.48 230.5Q69.83 230.68 70.01 231.03Q70.23 230.69 70.62 230.51Q71 230.32 71.49 230.32ZM74.34 230.35L75.03 230.35L75.03 234.19L74.34 234.19ZM74.68 229.62Q74.48 229.62 74.35 229.49Q74.21 229.36 74.21 229.17Q74.21 228.98 74.35 228.85Q74.48 228.71 74.68 228.71Q74.89 228.71 75.02 228.84Q75.15 228.97 75.15 229.15Q75.15 229.35 75.02 229.48Q74.89 229.62 74.68 229.62ZM78.4 230.32Q79.13 230.32 79.56 230.74Q79.99 231.16 79.99 231.98L79.99 234.19L79.3 234.19L79.3 232.06Q79.3 231.5 79.03 231.22Q78.76 230.94 78.26 230.94Q77.7 230.94 77.37 231.27Q77.05 231.6 77.05 232.21L77.05 234.19L76.35 234.19L76.35 230.35L77.02 230.35L77.02 230.93Q77.23 230.64 77.59 230.48Q77.94 230.32 78.4 230.32ZM82.8 228.1L83.43 228.1L81.05 234.91L80.42 234.91ZM88.13 230.32Q88.85 230.32 89.28 230.74Q89.7 231.16 89.7 231.98L89.7 234.19L89.01 234.19L89.01 232.06Q89.01 231.5 88.75 231.22Q88.49 230.94 88.02 230.94Q87.49 230.94 87.18 231.27Q86.87 231.6 86.87 232.21L86.87 234.19L86.17 234.19L86.17 232.06Q86.17 231.5 85.92 231.22Q85.66 230.94 85.18 230.94Q84.65 230.94 84.34 231.27Q84.03 231.6 84.03 232.21L84.03 234.19L83.34 234.19L83.34 230.35L84 230.35L84 230.93Q84.21 230.63 84.55 230.47Q84.89 230.32 85.33 230.32Q85.77 230.32 86.12 230.5Q86.47 230.68 86.66 231.03Q86.87 230.69 87.26 230.51Q87.65 230.32 88.13 230.32ZM92.64 234.23Q92.07 234.23 91.62 233.98Q91.16 233.72 90.9 233.28Q90.65 232.83 90.65 232.27Q90.65 231.71 90.9 231.26Q91.16 230.82 91.62 230.57Q92.07 230.32 92.64 230.32Q93.21 230.32 93.67 230.57Q94.12 230.82 94.37 231.26Q94.63 231.71 94.63 232.27Q94.63 232.83 94.37 233.28Q94.12 233.72 93.67 233.98Q93.21 234.23 92.64 234.23ZM92.64 233.62Q93.01 233.62 93.3 233.45Q93.6 233.28 93.76 232.97Q93.93 232.67 93.93 232.27Q93.93 231.87 93.76 231.57Q93.6 231.26 93.3 231.09Q93.01 230.93 92.64 230.93Q92.27 230.93 91.98 231.09Q91.69 231.26 91.52 231.57Q91.35 231.87 91.35 232.27Q91.35 232.67 91.52 232.97Q91.69 233.28 91.98 233.45Q92.27 233.62 92.64 233.62ZM99.21 228.82L99.21 234.19L98.54 234.19L98.54 233.58Q98.31 233.9 97.96 234.06Q97.6 234.23 97.18 234.23Q96.62 234.23 96.18 233.98Q95.74 233.74 95.49 233.29Q95.24 232.85 95.24 232.27Q95.24 231.69 95.49 231.25Q95.74 230.81 96.18 230.56Q96.62 230.32 97.18 230.32Q97.59 230.32 97.93 230.47Q98.28 230.63 98.51 230.93L98.51 228.82ZM97.23 233.62Q97.6 233.62 97.89 233.45Q98.19 233.28 98.35 232.97Q98.52 232.67 98.52 232.27Q98.52 231.87 98.35 231.57Q98.19 231.26 97.89 231.09Q97.6 230.93 97.23 230.93Q96.86 230.93 96.57 231.09Q96.28 231.26 96.11 231.57Q95.94 231.87 95.94 232.27Q95.94 232.67 96.11 232.97Q96.28 233.28 96.57 233.45Q96.86 233.62 97.23 233.62ZM103.99 232.29Q103.99 232.37 103.97 232.5L100.86 232.5Q100.93 233.01 101.31 233.31Q101.69 233.62 102.25 233.62Q102.94 233.62 103.36 233.16L103.74 233.61Q103.48 233.91 103.09 234.07Q102.71 234.23 102.23 234.23Q101.62 234.23 101.15 233.98Q100.68 233.73 100.43 233.28Q100.17 232.83 100.17 232.27Q100.17 231.71 100.42 231.27Q100.67 230.82 101.11 230.57Q101.54 230.32 102.09 230.32Q102.64 230.32 103.07 230.57Q103.5 230.82 103.74 231.27Q103.99 231.71 103.99 232.29ZM102.09 230.9Q101.59 230.9 101.26 231.21Q100.92 231.51 100.86 232L103.32 232Q103.26 231.52 102.93 231.21Q102.59 230.9 102.09 230.9ZM106.05 234.23Q105.58 234.23 105.14 234.1Q104.71 233.98 104.46 233.78L104.75 233.23Q105.01 233.41 105.37 233.52Q105.73 233.63 106.1 233.63Q107.01 233.63 107.01 233.11Q107.01 232.94 106.89 232.83Q106.76 232.73 106.58 232.69Q106.39 232.64 106.05 232.58Q105.59 232.51 105.3 232.41Q105.01 232.32 104.8 232.1Q104.59 231.87 104.59 231.47Q104.59 230.95 105.02 230.63Q105.45 230.32 106.18 230.32Q106.57 230.32 106.95 230.41Q107.33 230.51 107.58 230.66L107.28 231.21Q106.81 230.91 106.18 230.91Q105.74 230.91 105.5 231.06Q105.27 231.2 105.27 231.44Q105.27 231.63 105.4 231.73Q105.53 231.84 105.72 231.89Q105.92 231.94 106.26 232.01Q106.73 232.09 107.01 232.18Q107.3 232.27 107.5 232.49Q107.7 232.7 107.7 233.09Q107.7 233.61 107.26 233.92Q106.81 234.23 106.05 234.23ZM108.74 234.23Q108.53 234.23 108.39 234.09Q108.24 233.95 108.24 233.73Q108.24 233.52 108.39 233.38Q108.53 233.24 108.74 233.24Q108.94 233.24 109.08 233.38Q109.21 233.51 109.21 233.73Q109.21 233.95 109.07 234.09Q108.93 234.23 108.74 234.23ZM112.26 230.32Q112.99 230.32 113.42 230.74Q113.85 231.16 113.85 231.98L113.85 234.19L113.15 234.19L113.15 232.06Q113.15 231.5 112.89 231.22Q112.62 230.94 112.12 230.94Q111.56 230.94 111.23 231.27Q110.91 231.6 110.91 232.21L110.91 234.19L110.21 234.19L110.21 228.82L110.91 228.82L110.91 230.9Q111.12 230.62 111.47 230.47Q111.82 230.32 112.26 230.32ZM117.29 233.96Q117.14 234.09 116.91 234.16Q116.69 234.23 116.45 234.23Q115.87 234.23 115.55 233.92Q115.24 233.61 115.24 233.03L115.24 230.93L114.59 230.93L114.59 230.35L115.24 230.35L115.24 229.52L115.93 229.52L115.93 230.35L117.03 230.35L117.03 230.93L115.93 230.93L115.93 233Q115.93 233.31 116.09 233.48Q116.24 233.64 116.53 233.64Q116.85 233.64 117.07 233.46ZM122.92 230.32Q123.64 230.32 124.07 230.74Q124.49 231.16 124.49 231.98L124.49 234.19L123.8 234.19L123.8 232.06Q123.8 231.5 123.54 231.22Q123.28 230.94 122.81 230.94Q122.28 230.94 121.97 231.27Q121.66 231.6 121.66 232.21L121.66 234.19L120.96 234.19L120.96 232.06Q120.96 231.5 120.71 231.22Q120.45 230.94 119.97 230.94Q119.44 230.94 119.13 231.27Q118.82 231.6 118.82 232.21L118.82 234.19L118.13 234.19L118.13 230.35L118.79 230.35L118.79 230.93Q119 230.63 119.34 230.47Q119.68 230.32 120.12 230.32Q120.56 230.32 120.91 230.5Q121.26 230.68 121.45 231.03Q121.66 230.69 122.05 230.51Q122.44 230.32 122.92 230.32ZM125.77 228.82L126.46 228.82L126.46 234.19L125.77 234.19Z" aria-label="/docs/hyper/2.5/admin/modes.html"/></g></g>
 </g>
</svg>