<svg width="126.83mm" height="62.994mm" version="1.1" viewBox="0 0 126.83 62.994" xmlns="http://www.w3.org/2000/svg" xmlns:cc="http://creativecommons.org/ns#" xmlns:dc="http://purl.org/dc/elements/1.1/" xmlns:rdf="http://www.w3.org/1999/02/22-rdf-syntax-ns#">
 <title>Resource URL segments for a page generated by Antora</title>
 <metadata>
  <rdf:RDF>
   <cc:Work rdf:about="">
    <dc:format>image/svg+xml</dc:format>
    <dc:type rdf:resource="http://purl.org/dc/dcmitype/StillImage"/>
    <dc:title>Resource URL segments for a page generated by Antora</dc:title>
    <dc:creator>
     <cc:Agent>
      <dc:title>Sarah White</dc:title>
     </cc:Agent>
    </dc:creator>
    <dc:publisher>
     <cc:Agent>
      <dc:title>OpenDevise Inc.</dc:title>
     </cc:Agent>
    </dc:publisher>
    <dc:subject>
     <rdf:Bag>
      <rdf:li>Antora</rdf:li>
      <rdf:li>page URL segments</rdf:li>
     </rdf:Bag>
    </dc:subject>
    <cc:license rdf:resource="http://creativecommons.org/licenses/by-sa/4.0/"/>
   </cc:Work>
   <cc:License rdf:about="http://creativecommons.org/licenses/by-sa/4.0/">
    <cc:permits rdf:resource="http://creativecommons.org/ns#Reproduction"/>
    <cc:permits rdf:resource="http://creativecommons.org/ns#Distribution"/>
    <cc:requires rdf:resource="http://creativecommons.org/ns#Notice"/>
    <cc:requires rdf:resource="http://creativecommons.org/ns#Attribution"/>
    <cc:permits rdf:resource="http://creativecommons.org/ns#DerivativeWorks"/>
    <cc:requires rdf:resource="http://creativecommons.org/ns#ShareAlike"/>
   </cc:License>
  </rdf:RDF>
 </metadata>
 <g transform="translate(3.8695e-7 -228.09)">
  <g>
   <rect x="0" y="228.09" width="126.83" height="62.994" fill="#fff"/>
   <g transform="scale(1 .99998)" fill="#242424" stroke-width=".0727px" word-spacing="0px" style="font-feature-settings:normal;font-variant-caps:normal;font-variant-ligatures:normal;font-variant-numeric:normal;line-height:0%" xml:space="preserve"><g stroke-width=".0727px" style="font-feature-settings:normal;font-variant-caps:normal;font-variant-ligatures:normal;font-variant-numeric:normal;line-height:125%"><path d="M6.49 255.71L7.12 255.71L4.73 262.52L4.1 262.52Z" aria-label="/"/><g fill="#9340a4" stroke-width=".0727px"><path d="M9.55 257.92Q10.28 257.92 10.71 258.35Q11.14 258.77 11.14 259.59L11.14 261.79L10.45 261.79L10.45 259.67Q10.45 259.11 10.18 258.83Q9.91 258.55 9.42 258.55Q8.85 258.55 8.53 258.88Q8.2 259.2 8.2 259.82L8.2 261.79L7.51 261.79L7.51 256.43L8.2 256.43L8.2 258.5Q8.42 258.23 8.77 258.08Q9.12 257.92 9.55 257.92ZM15.75 257.96L13.89 262.18Q13.65 262.76 13.32 263Q12.99 263.24 12.52 263.24Q12.24 263.24 11.98 263.15Q11.71 263.06 11.54 262.88L11.84 262.36Q12.13 262.65 12.52 262.65Q12.78 262.65 12.95 262.51Q13.12 262.38 13.25 262.05L13.38 261.79L11.69 257.96L12.41 257.96L13.75 261.03L15.07 257.96ZM18.43 257.92Q18.99 257.92 19.43 258.17Q19.87 258.42 20.12 258.86Q20.37 259.3 20.37 259.88Q20.37 260.46 20.12 260.9Q19.87 261.34 19.43 261.59Q18.99 261.84 18.43 261.84Q18.02 261.84 17.68 261.68Q17.33 261.52 17.09 261.21L17.09 263.2L16.4 263.2L16.4 257.96L17.06 257.96L17.06 258.57Q17.3 258.25 17.65 258.09Q18 257.92 18.43 257.92ZM18.37 261.23Q18.74 261.23 19.04 261.06Q19.33 260.89 19.5 260.58Q19.67 260.27 19.67 259.88Q19.67 259.48 19.5 259.17Q19.33 258.86 19.04 258.7Q18.74 258.53 18.37 258.53Q18.01 258.53 17.72 258.7Q17.43 258.87 17.26 259.18Q17.09 259.48 17.09 259.88Q17.09 260.27 17.25 260.58Q17.42 260.89 17.72 261.06Q18.01 261.23 18.37 261.23ZM24.79 259.9Q24.79 259.98 24.78 260.11L21.67 260.11Q21.74 260.61 22.11 260.92Q22.49 261.23 23.06 261.23Q23.75 261.23 24.16 260.77L24.55 261.21Q24.29 261.52 23.9 261.68Q23.51 261.84 23.04 261.84Q22.43 261.84 21.96 261.59Q21.49 261.34 21.23 260.89Q20.98 260.44 20.98 259.88Q20.98 259.32 21.23 258.87Q21.48 258.42 21.91 258.17Q22.35 257.92 22.9 257.92Q23.45 257.92 23.88 258.17Q24.31 258.42 24.55 258.87Q24.79 259.32 24.79 259.9ZM22.9 258.51Q22.4 258.51 22.06 258.81Q21.73 259.12 21.67 259.61L24.13 259.61Q24.07 259.12 23.73 258.82Q23.4 258.51 22.9 258.51ZM26.42 258.6Q26.6 258.27 26.96 258.1Q27.31 257.92 27.82 257.92L27.82 258.6Q27.76 258.59 27.66 258.59Q27.09 258.59 26.77 258.93Q26.45 259.26 26.45 259.88L26.45 261.79L25.76 261.79L25.76 257.96L26.42 257.96L26.42 258.6Z" aria-label="hyper"/></g><path d="M30.24 255.71L30.87 255.71L28.49 262.52L27.86 262.52Z" aria-label="/"/><g fill="#de4c36"><path d="M34.51 261.16L34.51 261.79L30.87 261.79L30.87 261.3L32.93 259.31Q33.31 258.95 33.44 258.69Q33.57 258.42 33.57 258.16Q33.57 257.76 33.29 257.54Q33.01 257.32 32.49 257.32Q31.65 257.32 31.2 257.87L30.71 257.44Q31 257.08 31.48 256.88Q31.97 256.67 32.56 256.67Q33.35 256.67 33.82 257.05Q34.29 257.43 34.29 258.08Q34.29 258.49 34.12 258.85Q33.95 259.21 33.46 259.67L31.91 261.16ZM35.65 261.84Q35.45 261.84 35.31 261.7Q35.16 261.55 35.16 261.34Q35.16 261.13 35.31 260.99Q35.45 260.85 35.65 260.85Q35.86 260.85 35.99 260.98Q36.13 261.12 36.13 261.34Q36.13 261.55 35.99 261.7Q35.85 261.84 35.65 261.84ZM38.26 258.75Q39.35 258.75 39.86 259.16Q40.37 259.57 40.37 260.27Q40.37 260.72 40.15 261.08Q39.94 261.44 39.51 261.64Q39.08 261.85 38.45 261.85Q37.92 261.85 37.42 261.69Q36.92 261.53 36.59 261.24L36.93 260.66Q37.19 260.91 37.59 261.06Q38 261.21 38.44 261.21Q39.01 261.21 39.33 260.96Q39.64 260.72 39.64 260.3Q39.64 259.85 39.3 259.61Q38.95 259.38 38.11 259.38L36.96 259.38L37.23 256.73L40.08 256.73L40.08 257.36L37.84 257.36L37.7 258.75L38.26 258.75Z" aria-label="2.5"/></g><path d="M42.8 255.71L43.43 255.71L41.05 262.52L40.42 262.52Z" aria-label="/"/><g fill="#b91d5e"><path d="M45.22 257.92Q46.01 257.92 46.44 258.32Q46.86 258.71 46.86 259.48L46.86 261.79L46.2 261.79L46.2 261.29Q46.03 261.55 45.71 261.7Q45.38 261.84 44.94 261.84Q44.3 261.84 43.91 261.53Q43.53 261.21 43.53 260.71Q43.53 260.2 43.89 259.89Q44.26 259.59 45.07 259.59L46.16 259.59L46.16 259.45Q46.16 259 45.9 258.76Q45.64 258.52 45.14 258.52Q44.8 258.52 44.47 258.64Q44.15 258.75 43.92 258.94L43.63 258.42Q43.93 258.18 44.34 258.05Q44.76 257.92 45.22 257.92ZM45.06 261.3Q45.46 261.3 45.75 261.12Q46.03 260.95 46.16 260.62L46.16 260.09L45.09 260.09Q44.21 260.09 44.21 260.68Q44.21 260.97 44.44 261.13Q44.66 261.3 45.06 261.3ZM51.78 256.43L51.78 261.79L51.12 261.79L51.12 261.19Q50.89 261.5 50.53 261.67Q50.18 261.84 49.75 261.84Q49.19 261.84 48.75 261.59Q48.31 261.34 48.06 260.9Q47.81 260.46 47.81 259.88Q47.81 259.3 48.06 258.86Q48.31 258.42 48.75 258.17Q49.19 257.92 49.75 257.92Q50.16 257.92 50.51 258.08Q50.86 258.24 51.09 258.54L51.09 256.43ZM49.81 261.23Q50.17 261.23 50.47 261.06Q50.76 260.89 50.93 260.58Q51.1 260.27 51.1 259.88Q51.1 259.48 50.93 259.17Q50.76 258.86 50.47 258.7Q50.17 258.53 49.81 258.53Q49.44 258.53 49.15 258.7Q48.85 258.86 48.68 259.17Q48.51 259.48 48.51 259.88Q48.51 260.27 48.68 260.58Q48.85 260.89 49.15 261.06Q49.44 261.23 49.81 261.23ZM57.89 257.92Q58.61 257.92 59.04 258.34Q59.46 258.76 59.46 259.59L59.46 261.79L58.77 261.79L58.77 259.67Q58.77 259.11 58.51 258.83Q58.25 258.55 57.78 258.55Q57.25 258.55 56.94 258.88Q56.63 259.2 56.63 259.82L56.63 261.79L55.93 261.79L55.93 259.67Q55.93 259.11 55.68 258.83Q55.42 258.55 54.94 258.55Q54.41 258.55 54.1 258.88Q53.79 259.2 53.79 259.82L53.79 261.79L53.1 261.79L53.1 257.96L53.76 257.96L53.76 258.53Q53.97 258.24 54.31 258.08Q54.65 257.92 55.09 257.92Q55.53 257.92 55.88 258.11Q56.23 258.29 56.42 258.63Q56.63 258.3 57.02 258.11Q57.41 257.92 57.89 257.92ZM60.74 257.96L61.43 257.96L61.43 261.79L60.74 261.79ZM61.09 257.22Q60.88 257.22 60.75 257.09Q60.62 256.96 60.62 256.78Q60.62 256.59 60.75 256.45Q60.88 256.32 61.09 256.32Q61.29 256.32 61.42 256.45Q61.56 256.57 61.56 256.76Q61.56 256.96 61.42 257.09Q61.29 257.22 61.09 257.22ZM64.8 257.92Q65.53 257.92 65.96 258.35Q66.39 258.77 66.39 259.59L66.39 261.79L65.7 261.79L65.7 259.67Q65.7 259.11 65.43 258.83Q65.16 258.55 64.67 258.55Q64.1 258.55 63.78 258.88Q63.45 259.2 63.45 259.82L63.45 261.79L62.76 261.79L62.76 257.96L63.42 257.96L63.42 258.54Q63.63 258.24 63.99 258.08Q64.35 257.92 64.8 257.92Z" aria-label="admin"/></g><path d="M69.21 255.71L69.84 255.71L67.45 262.52L66.82 262.52Z" aria-label="/"/><g fill="#199d4a"><path d="M75.02 257.92Q75.74 257.92 76.16 258.34Q76.59 258.76 76.59 259.59L76.59 261.79L75.89 261.79L75.89 259.67Q75.89 259.11 75.64 258.83Q75.38 258.55 74.9 258.55Q74.38 258.55 74.06 258.88Q73.75 259.2 73.75 259.82L73.75 261.79L73.06 261.79L73.06 259.67Q73.06 259.11 72.8 258.83Q72.55 258.55 72.07 258.55Q71.54 258.55 71.23 258.88Q70.92 259.2 70.92 259.82L70.92 261.79L70.23 261.79L70.23 257.96L70.89 257.96L70.89 258.53Q71.1 258.24 71.44 258.08Q71.78 257.92 72.21 257.92Q72.66 257.92 73.01 258.11Q73.36 258.29 73.54 258.63Q73.76 258.3 74.15 258.11Q74.53 257.92 75.02 257.92ZM79.53 261.84Q78.96 261.84 78.5 261.58Q78.05 261.33 77.79 260.89Q77.53 260.44 77.53 259.88Q77.53 259.31 77.79 258.87Q78.05 258.42 78.5 258.17Q78.96 257.92 79.53 257.92Q80.1 257.92 80.55 258.17Q81.01 258.42 81.26 258.87Q81.52 259.31 81.52 259.88Q81.52 260.44 81.26 260.89Q81.01 261.33 80.55 261.58Q80.1 261.84 79.53 261.84ZM79.53 261.23Q79.9 261.23 80.19 261.06Q80.48 260.89 80.65 260.58Q80.82 260.27 80.82 259.88Q80.82 259.48 80.65 259.17Q80.48 258.86 80.19 258.7Q79.9 258.53 79.53 258.53Q79.16 258.53 78.87 258.7Q78.58 258.86 78.41 259.17Q78.24 259.48 78.24 259.88Q78.24 260.27 78.41 260.58Q78.58 260.89 78.87 261.06Q79.16 261.23 79.53 261.23ZM86.1 256.43L86.1 261.79L85.43 261.79L85.43 261.19Q85.2 261.5 84.84 261.67Q84.49 261.84 84.06 261.84Q83.51 261.84 83.07 261.59Q82.62 261.34 82.38 260.9Q82.13 260.46 82.13 259.88Q82.13 259.3 82.38 258.86Q82.62 258.42 83.07 258.17Q83.51 257.92 84.06 257.92Q84.48 257.92 84.82 258.08Q85.17 258.24 85.4 258.54L85.4 256.43ZM84.12 261.23Q84.48 261.23 84.78 261.06Q85.08 260.89 85.24 260.58Q85.41 260.27 85.41 259.88Q85.41 259.48 85.24 259.17Q85.08 258.86 84.78 258.7Q84.48 258.53 84.12 258.53Q83.75 258.53 83.46 258.7Q83.17 258.86 83 259.17Q82.83 259.48 82.83 259.88Q82.83 260.27 83 260.58Q83.17 260.89 83.46 261.06Q83.75 261.23 84.12 261.23ZM90.87 259.9Q90.87 259.98 90.86 260.11L87.75 260.11Q87.82 260.61 88.2 260.92Q88.57 261.23 89.14 261.23Q89.83 261.23 90.24 260.77L90.63 261.21Q90.37 261.52 89.98 261.68Q89.59 261.84 89.12 261.84Q88.51 261.84 88.04 261.59Q87.57 261.34 87.31 260.89Q87.06 260.44 87.06 259.88Q87.06 259.32 87.31 258.87Q87.56 258.42 87.99 258.17Q88.43 257.92 88.98 257.92Q89.53 257.92 89.96 258.17Q90.39 258.42 90.63 258.87Q90.87 259.32 90.87 259.9ZM88.98 258.51Q88.48 258.51 88.14 258.81Q87.81 259.12 87.75 259.61L90.21 259.61Q90.15 259.12 89.81 258.82Q89.48 258.51 88.98 258.51ZM92.93 261.84Q92.46 261.84 92.03 261.71Q91.6 261.58 91.35 261.39L91.64 260.84Q91.89 261.02 92.25 261.13Q92.62 261.24 92.99 261.24Q93.9 261.24 93.9 260.72Q93.9 260.54 93.77 260.44Q93.65 260.34 93.47 260.29Q93.28 260.25 92.94 260.19Q92.48 260.12 92.19 260.02Q91.89 259.93 91.68 259.7Q91.47 259.48 91.47 259.07Q91.47 258.55 91.91 258.24Q92.34 257.92 93.07 257.92Q93.46 257.92 93.84 258.02Q94.22 258.11 94.47 258.27L94.17 258.82Q93.7 258.52 93.06 258.52Q92.62 258.52 92.39 258.66Q92.16 258.81 92.16 259.05Q92.16 259.23 92.29 259.34Q92.42 259.45 92.61 259.5Q92.8 259.55 93.15 259.62Q93.61 259.7 93.9 259.79Q94.19 259.88 94.39 260.09Q94.59 260.31 94.59 260.7Q94.59 261.22 94.15 261.53Q93.7 261.84 92.93 261.84Z" aria-label="modes"/></g><path d="M95.62 261.84Q95.42 261.84 95.28 261.7Q95.13 261.55 95.13 261.34Q95.13 261.13 95.28 260.99Q95.42 260.85 95.62 260.85Q95.83 260.85 95.96 260.98Q96.1 261.12 96.1 261.34Q96.1 261.55 95.96 261.7Q95.82 261.84 95.62 261.84ZM99.14 257.92Q99.88 257.92 100.31 258.35Q100.74 258.77 100.74 259.59L100.74 261.79L100.04 261.79L100.04 259.67Q100.04 259.11 99.77 258.83Q99.51 258.55 99.01 258.55Q98.44 258.55 98.12 258.88Q97.79 259.2 97.79 259.82L97.79 261.79L97.1 261.79L97.1 256.43L97.79 256.43L97.79 258.5Q98.01 258.23 98.36 258.08Q98.71 257.92 99.14 257.92ZM104.18 261.57Q104.02 261.7 103.8 261.77Q103.58 261.84 103.34 261.84Q102.76 261.84 102.44 261.53Q102.12 261.21 102.12 260.64L102.12 258.53L101.47 258.53L101.47 257.96L102.12 257.96L102.12 257.12L102.82 257.12L102.82 257.96L103.92 257.96L103.92 258.53L102.82 258.53L102.82 260.61Q102.82 260.92 102.97 261.08Q103.13 261.25 103.42 261.25Q103.74 261.25 103.96 261.07ZM109.81 257.92Q110.53 257.92 110.95 258.34Q111.38 258.76 111.38 259.59L111.38 261.79L110.68 261.79L110.68 259.67Q110.68 259.11 110.43 258.83Q110.17 258.55 109.69 258.55Q109.17 258.55 108.85 258.88Q108.54 259.2 108.54 259.82L108.54 261.79L107.85 261.79L107.85 259.67Q107.85 259.11 107.59 258.83Q107.34 258.55 106.86 258.55Q106.33 258.55 106.02 258.88Q105.71 259.2 105.71 259.82L105.71 261.79L105.02 261.79L105.02 257.96L105.68 257.96L105.68 258.53Q105.89 258.24 106.23 258.08Q106.57 257.92 107 257.92Q107.45 257.92 107.8 258.11Q108.15 258.29 108.33 258.63Q108.55 258.3 108.94 258.11Q109.32 257.92 109.81 257.92ZM112.66 256.43L113.35 256.43L113.35 261.79L112.66 261.79Z" aria-label=".html"/></g></g>
   <g fill="#9340a4" stroke-width=".0727px" word-spacing="0px" style="font-feature-settings:normal;font-variant-caps:normal;font-variant-ligatures:normal;font-variant-numeric:normal;line-height:0%" xml:space="preserve"><g text-align="center" style="font-feature-settings:normal;font-variant-caps:normal;font-variant-ligatures:normal;font-variant-numeric:normal;line-height:125%"><path d="M1.61 282.76Q1.15 282.76 0.78 282.56Q0.41 282.36 0.21 282Q0 281.65 0 281.2Q0 280.75 0.21 280.4Q0.41 280.04 0.78 279.84Q1.15 279.64 1.61 279.64Q2.03 279.64 2.35 279.81Q2.68 279.98 2.86 280.3L2.44 280.57Q2.29 280.35 2.08 280.24Q1.87 280.13 1.61 280.13Q1.31 280.13 1.07 280.26Q0.83 280.39 0.69 280.64Q0.56 280.88 0.56 281.2Q0.56 281.52 0.69 281.77Q0.83 282.01 1.07 282.15Q1.31 282.28 1.61 282.28Q1.87 282.28 2.08 282.17Q2.29 282.06 2.44 281.84L2.86 282.11Q2.68 282.42 2.35 282.59Q2.03 282.76 1.61 282.76ZM4.84 282.76Q4.38 282.76 4.02 282.56Q3.65 282.36 3.45 282Q3.25 281.65 3.25 281.2Q3.25 280.75 3.45 280.4Q3.65 280.04 4.02 279.84Q4.38 279.64 4.84 279.64Q5.29 279.64 5.65 279.84Q6.01 280.04 6.22 280.4Q6.42 280.75 6.42 281.2Q6.42 281.65 6.22 282Q6.01 282.36 5.65 282.56Q5.29 282.76 4.84 282.76ZM4.84 282.28Q5.13 282.28 5.36 282.14Q5.6 282.01 5.73 281.76Q5.86 281.52 5.86 281.2Q5.86 280.88 5.73 280.64Q5.6 280.39 5.36 280.26Q5.13 280.13 4.84 280.13Q4.54 280.13 4.31 280.26Q4.08 280.39 3.94 280.64Q3.8 280.88 3.8 281.2Q3.8 281.52 3.94 281.76Q4.08 282.01 4.31 282.14Q4.54 282.28 4.84 282.28ZM11.01 279.64Q11.59 279.64 11.92 279.98Q12.26 280.31 12.26 280.97L12.26 282.73L11.71 282.73L11.71 281.03Q11.71 280.59 11.5 280.36Q11.3 280.14 10.92 280.14Q10.5 280.14 10.25 280.4Q10 280.66 10 281.15L10 282.73L9.45 282.73L9.45 281.03Q9.45 280.59 9.24 280.36Q9.04 280.14 8.66 280.14Q8.24 280.14 7.99 280.4Q7.74 280.66 7.74 281.15L7.74 282.73L7.19 282.73L7.19 279.67L7.72 279.67L7.72 280.13Q7.89 279.89 8.16 279.77Q8.43 279.64 8.77 279.64Q9.13 279.64 9.41 279.79Q9.68 279.93 9.83 280.21Q10.01 279.94 10.32 279.79Q10.62 279.64 11.01 279.64ZM14.9 279.64Q15.35 279.64 15.7 279.84Q16.05 280.04 16.25 280.39Q16.45 280.74 16.45 281.2Q16.45 281.66 16.25 282.02Q16.05 282.37 15.7 282.57Q15.35 282.76 14.9 282.76Q14.57 282.76 14.3 282.64Q14.03 282.51 13.84 282.27L13.84 283.85L13.28 283.85L13.28 279.67L13.81 279.67L13.81 280.16Q14 279.9 14.28 279.77Q14.56 279.64 14.9 279.64ZM14.86 282.28Q15.15 282.28 15.38 282.14Q15.62 282.01 15.75 281.76Q15.89 281.52 15.89 281.2Q15.89 280.88 15.75 280.64Q15.62 280.39 15.38 280.26Q15.15 280.13 14.86 280.13Q14.57 280.13 14.33 280.26Q14.1 280.4 13.96 280.64Q13.83 280.88 13.83 281.2Q13.83 281.52 13.96 281.76Q14.09 282.01 14.33 282.14Q14.57 282.28 14.86 282.28ZM18.52 282.76Q18.07 282.76 17.7 282.56Q17.34 282.36 17.14 282Q16.93 281.65 16.93 281.2Q16.93 280.75 17.14 280.4Q17.34 280.04 17.7 279.84Q18.07 279.64 18.52 279.64Q18.98 279.64 19.34 279.84Q19.7 280.04 19.9 280.4Q20.11 280.75 20.11 281.2Q20.11 281.65 19.9 282Q19.7 282.36 19.34 282.56Q18.98 282.76 18.52 282.76ZM18.52 282.28Q18.82 282.28 19.05 282.14Q19.28 282.01 19.42 281.76Q19.55 281.52 19.55 281.2Q19.55 280.88 19.42 280.64Q19.28 280.39 19.05 280.26Q18.82 280.13 18.52 280.13Q18.23 280.13 17.99 280.26Q17.76 280.39 17.63 280.64Q17.49 280.88 17.49 281.2Q17.49 281.52 17.63 281.76Q17.76 282.01 17.99 282.14Q18.23 282.28 18.52 282.28ZM22.51 279.64Q23.09 279.64 23.43 279.98Q23.77 280.32 23.77 280.97L23.77 282.73L23.22 282.73L23.22 281.03Q23.22 280.59 23.01 280.36Q22.79 280.14 22.4 280.14Q21.95 280.14 21.69 280.4Q21.43 280.66 21.43 281.15L21.43 282.73L20.87 282.73L20.87 279.67L21.4 279.67L21.4 280.13Q21.57 279.9 21.86 279.77Q22.14 279.64 22.51 279.64ZM27.58 281.22Q27.58 281.28 27.57 281.38L25.09 281.38Q25.14 281.79 25.44 282.03Q25.75 282.28 26.19 282.28Q26.74 282.28 27.08 281.91L27.38 282.27Q27.17 282.51 26.87 282.64Q26.56 282.76 26.18 282.76Q25.69 282.76 25.32 282.56Q24.94 282.36 24.74 282.01Q24.53 281.65 24.53 281.2Q24.53 280.76 24.73 280.4Q24.93 280.04 25.28 279.84Q25.63 279.64 26.07 279.64Q26.51 279.64 26.85 279.84Q27.19 280.04 27.39 280.4Q27.58 280.76 27.58 281.22ZM26.07 280.11Q25.67 280.11 25.4 280.35Q25.13 280.59 25.09 280.99L27.05 280.99Q27 280.6 26.73 280.36Q26.47 280.11 26.07 280.11ZM29.98 279.64Q30.56 279.64 30.9 279.98Q31.24 280.32 31.24 280.97L31.24 282.73L30.69 282.73L30.69 281.03Q30.69 280.59 30.48 280.36Q30.26 280.14 29.87 280.14Q29.42 280.14 29.16 280.4Q28.9 280.66 28.9 281.15L28.9 282.73L28.34 282.73L28.34 279.67L28.88 279.67L28.88 280.13Q29.04 279.9 29.33 279.77Q29.61 279.64 29.98 279.64ZM33.99 282.55Q33.87 282.65 33.69 282.71Q33.51 282.76 33.32 282.76Q32.86 282.76 32.61 282.51Q32.35 282.27 32.35 281.81L32.35 280.13L31.83 280.13L31.83 279.67L32.35 279.67L32.35 279L32.9 279L32.9 279.67L33.78 279.67L33.78 280.13L32.9 280.13L32.9 281.78Q32.9 282.03 33.03 282.16Q33.15 282.3 33.38 282.3Q33.64 282.3 33.82 282.15Z" aria-label="component"/></g><g text-align="center" style="font-feature-settings:normal;font-variant-caps:normal;font-variant-ligatures:normal;font-variant-numeric:normal;line-height:125%"><path d="M5.17 289.97Q4.8 289.97 4.45 289.87Q4.11 289.77 3.91 289.61L4.14 289.17Q4.34 289.32 4.63 289.4Q4.92 289.49 5.21 289.49Q5.94 289.49 5.94 289.07Q5.94 288.94 5.84 288.86Q5.74 288.77 5.6 288.74Q5.45 288.7 5.18 288.65Q4.81 288.6 4.58 288.52Q4.34 288.45 4.18 288.27Q4.01 288.09 4.01 287.77Q4.01 287.35 4.36 287.1Q4.7 286.85 5.28 286.85Q5.59 286.85 5.89 286.92Q6.2 287 6.4 287.13L6.16 287.56Q5.78 287.32 5.28 287.32Q4.93 287.32 4.74 287.44Q4.56 287.55 4.56 287.74Q4.56 287.89 4.66 287.98Q4.76 288.07 4.92 288.11Q5.07 288.15 5.35 288.2Q5.72 288.26 5.94 288.33Q6.17 288.41 6.33 288.58Q6.49 288.75 6.49 289.06Q6.49 289.48 6.14 289.72Q5.78 289.97 5.17 289.97ZM9.95 288.42Q9.95 288.49 9.94 288.59L7.46 288.59Q7.51 288.99 7.81 289.24Q8.11 289.48 8.56 289.48Q9.11 289.48 9.45 289.12L9.75 289.47Q9.54 289.71 9.23 289.84Q8.93 289.97 8.55 289.97Q8.06 289.97 7.69 289.77Q7.31 289.57 7.11 289.21Q6.9 288.86 6.9 288.41Q6.9 287.96 7.1 287.6Q7.3 287.25 7.65 287.05Q8 286.85 8.44 286.85Q8.87 286.85 9.22 287.05Q9.56 287.25 9.75 287.6Q9.95 287.96 9.95 288.42ZM8.44 287.32Q8.04 287.32 7.77 287.56Q7.5 287.8 7.46 288.19L9.42 288.19Q9.37 287.81 9.1 287.56Q8.83 287.32 8.44 287.32ZM13.64 286.88L13.64 289.52Q13.64 290.32 13.24 290.7Q12.84 291.09 12.05 291.09Q11.62 291.09 11.23 290.97Q10.83 290.85 10.59 290.63L10.86 290.2Q11.07 290.39 11.39 290.5Q11.7 290.6 12.03 290.6Q12.57 290.6 12.83 290.35Q13.08 290.1 13.08 289.58L13.08 289.33Q12.89 289.57 12.6 289.69Q12.32 289.81 11.98 289.81Q11.54 289.81 11.19 289.62Q10.83 289.43 10.63 289.09Q10.43 288.76 10.43 288.33Q10.43 287.89 10.63 287.56Q10.83 287.22 11.19 287.03Q11.54 286.85 11.98 286.85Q12.33 286.85 12.62 286.98Q12.92 287.1 13.11 287.35L13.11 286.88ZM12.05 289.32Q12.35 289.32 12.58 289.2Q12.82 289.07 12.96 288.84Q13.09 288.61 13.09 288.33Q13.09 287.88 12.8 287.61Q12.51 287.33 12.05 287.33Q11.58 287.33 11.28 287.61Q10.99 287.88 10.99 288.33Q10.99 288.61 11.13 288.84Q11.26 289.07 11.5 289.2Q11.74 289.32 12.05 289.32ZM18.51 286.85Q19.09 286.85 19.43 287.18Q19.76 287.52 19.76 288.18L19.76 289.93L19.21 289.93L19.21 288.24Q19.21 287.79 19.01 287.57Q18.8 287.35 18.42 287.35Q18 287.35 17.75 287.61Q17.5 287.87 17.5 288.36L17.5 289.93L16.95 289.93L16.95 288.24Q16.95 287.79 16.75 287.57Q16.54 287.35 16.16 287.35Q15.74 287.35 15.49 287.61Q15.24 287.87 15.24 288.36L15.24 289.93L14.69 289.93L14.69 286.88L15.22 286.88L15.22 287.33Q15.39 287.1 15.66 286.97Q15.93 286.85 16.28 286.85Q16.63 286.85 16.91 286.99Q17.19 287.14 17.34 287.41Q17.51 287.15 17.82 287Q18.13 286.85 18.51 286.85ZM23.56 288.42Q23.56 288.49 23.55 288.59L21.07 288.59Q21.12 288.99 21.43 289.24Q21.73 289.48 22.18 289.48Q22.73 289.48 23.06 289.12L23.37 289.47Q23.16 289.71 22.85 289.84Q22.54 289.97 22.16 289.97Q21.68 289.97 21.3 289.77Q20.93 289.57 20.72 289.21Q20.52 288.86 20.52 288.41Q20.52 287.96 20.72 287.6Q20.92 287.25 21.27 287.05Q21.61 286.85 22.05 286.85Q22.49 286.85 22.83 287.05Q23.18 287.25 23.37 287.6Q23.56 287.96 23.56 288.42ZM22.05 287.32Q21.66 287.32 21.39 287.56Q21.12 287.8 21.07 288.19L23.03 288.19Q22.99 287.81 22.72 287.56Q22.45 287.32 22.05 287.32ZM25.96 286.85Q26.54 286.85 26.89 287.19Q27.23 287.52 27.23 288.18L27.23 289.93L26.68 289.93L26.68 288.24Q26.68 287.79 26.46 287.57Q26.25 287.35 25.85 287.35Q25.4 287.35 25.14 287.61Q24.88 287.87 24.88 288.36L24.88 289.93L24.33 289.93L24.33 286.88L24.86 286.88L24.86 287.34Q25.03 287.1 25.31 286.98Q25.6 286.85 25.96 286.85ZM29.97 289.75Q29.85 289.86 29.67 289.91Q29.5 289.97 29.3 289.97Q28.84 289.97 28.59 289.72Q28.34 289.47 28.34 289.01L28.34 287.33L27.82 287.33L27.82 286.88L28.34 286.88L28.34 286.21L28.89 286.21L28.89 286.88L29.77 286.88L29.77 287.33L28.89 287.33L28.89 288.99Q28.89 289.24 29.01 289.37Q29.14 289.5 29.37 289.5Q29.62 289.5 29.8 289.36Z" aria-label="segment"/></g></g>
  </g>
  <path d="m7.1787 265.19v5.7034h19.631v-5.7034" fill="none" stroke="#9340a4" stroke-linecap="round" stroke-linejoin="round" stroke-width=".529"/>
  <g transform="translate(-77.682 -2.9481)" fill="none" stroke="#9340a4" stroke-linecap="round" stroke-linejoin="round" stroke-width=".529">
   <path d="m94.676 274.08v3.2096"/>
   <circle cx="94.676" cy="278.06" r=".75117" stroke-dashoffset="72"/>
  </g>
  <g fill="#199d4a" stroke-width=".0727px" word-spacing="0px" style="font-feature-settings:normal;font-variant-caps:normal;font-variant-ligatures:normal;font-variant-numeric:normal;line-height:0%" xml:space="preserve"><g text-align="center" style="font-feature-settings:normal;font-variant-caps:normal;font-variant-ligatures:normal;font-variant-numeric:normal;line-height:125%"><path d="M64.86 229.91Q65 229.65 65.28 229.51Q65.57 229.37 65.97 229.37L65.97 229.91Q65.92 229.9 65.84 229.9Q65.39 229.9 65.14 230.17Q64.88 230.44 64.88 230.93L64.88 232.46L64.33 232.46L64.33 229.4L64.86 229.4L64.86 229.91ZM69.38 230.95Q69.38 231.01 69.37 231.11L66.89 231.11Q66.94 231.52 67.25 231.76Q67.55 232.01 68 232.01Q68.55 232.01 68.88 231.64L69.19 232Q68.98 232.24 68.67 232.36Q68.36 232.49 67.98 232.49Q67.5 232.49 67.12 232.29Q66.75 232.09 66.54 231.74Q66.34 231.38 66.34 230.93Q66.34 230.49 66.54 230.13Q66.74 229.77 67.08 229.57Q67.43 229.37 67.87 229.37Q68.31 229.37 68.65 229.57Q69 229.77 69.19 230.13Q69.38 230.49 69.38 230.95ZM67.87 229.84Q67.47 229.84 67.21 230.08Q66.94 230.32 66.89 230.72L68.85 230.72Q68.8 230.33 68.54 230.08Q68.27 229.84 67.87 229.84ZM70.15 228.18L70.7 228.18L70.7 232.46L70.15 232.46ZM72.87 229.37Q73.5 229.37 73.84 229.68Q74.18 230 74.18 230.61L74.18 232.46L73.65 232.46L73.65 232.05Q73.51 232.27 73.26 232.38Q73 232.49 72.65 232.49Q72.14 232.49 71.83 232.24Q71.52 232 71.52 231.59Q71.52 231.19 71.81 230.94Q72.11 230.7 72.75 230.7L73.62 230.7L73.62 230.59Q73.62 230.23 73.42 230.04Q73.21 229.85 72.81 229.85Q72.53 229.85 72.28 229.94Q72.02 230.03 71.84 230.18L71.61 229.76Q71.84 229.57 72.17 229.47Q72.5 229.37 72.87 229.37ZM72.74 232.06Q73.06 232.06 73.29 231.92Q73.52 231.78 73.62 231.52L73.62 231.1L72.77 231.1Q72.07 231.1 72.07 231.57Q72.07 231.8 72.25 231.93Q72.43 232.06 72.74 232.06ZM76.92 232.28Q76.8 232.38 76.62 232.44Q76.44 232.49 76.25 232.49Q75.79 232.49 75.54 232.24Q75.28 232 75.28 231.53L75.28 229.86L74.77 229.86L74.77 229.4L75.28 229.4L75.28 228.73L75.84 228.73L75.84 229.4L76.71 229.4L76.71 229.86L75.84 229.86L75.84 231.51Q75.84 231.76 75.96 231.89Q76.09 232.02 76.32 232.02Q76.57 232.02 76.75 231.88ZM77.59 229.4L78.14 229.4L78.14 232.46L77.59 232.46ZM77.87 228.81Q77.71 228.81 77.6 228.71Q77.49 228.61 77.49 228.46Q77.49 228.31 77.6 228.2Q77.71 228.09 77.87 228.09Q78.03 228.09 78.14 228.19Q78.24 228.29 78.24 228.44Q78.24 228.6 78.14 228.71Q78.03 228.81 77.87 228.81ZM81.9 229.4L80.56 232.46L80 232.46L78.66 229.4L79.24 229.4L80.29 231.85L81.36 229.4ZM85.1 230.95Q85.1 231.01 85.08 231.11L82.61 231.11Q82.66 231.52 82.96 231.76Q83.26 232.01 83.71 232.01Q84.26 232.01 84.59 231.64L84.9 232Q84.69 232.24 84.38 232.36Q84.08 232.49 83.7 232.49Q83.21 232.49 82.84 232.29Q82.46 232.09 82.26 231.74Q82.05 231.38 82.05 230.93Q82.05 230.49 82.25 230.13Q82.45 229.77 82.8 229.57Q83.15 229.37 83.59 229.37Q84.02 229.37 84.37 229.57Q84.71 229.77 84.9 230.13Q85.1 230.49 85.1 230.95ZM83.59 229.84Q83.19 229.84 82.92 230.08Q82.65 230.32 82.61 230.72L84.57 230.72Q84.52 230.33 84.25 230.08Q83.98 229.84 83.59 229.84ZM89.03 229.37Q89.48 229.37 89.83 229.57Q90.18 229.76 90.38 230.12Q90.58 230.47 90.58 230.93Q90.58 231.39 90.38 231.74Q90.18 232.1 89.83 232.3Q89.48 232.49 89.03 232.49Q88.7 232.49 88.43 232.36Q88.16 232.24 87.97 232L87.97 233.58L87.41 233.58L87.41 229.4L87.94 229.4L87.94 229.89Q88.13 229.63 88.41 229.5Q88.69 229.37 89.03 229.37ZM88.99 232.01Q89.28 232.01 89.51 231.87Q89.75 231.74 89.88 231.49Q90.02 231.25 90.02 230.93Q90.02 230.61 89.88 230.37Q89.75 230.12 89.51 229.99Q89.28 229.86 88.99 229.86Q88.7 229.86 88.47 229.99Q88.23 230.13 88.1 230.37Q87.96 230.61 87.96 230.93Q87.96 231.25 88.09 231.49Q88.23 231.74 88.46 231.87Q88.7 232.01 88.99 232.01ZM92.43 229.37Q93.06 229.37 93.4 229.68Q93.74 230 93.74 230.61L93.74 232.46L93.21 232.46L93.21 232.05Q93.07 232.27 92.82 232.38Q92.56 232.49 92.21 232.49Q91.7 232.49 91.39 232.24Q91.08 232 91.08 231.59Q91.08 231.19 91.37 230.94Q91.67 230.7 92.31 230.7L93.18 230.7L93.18 230.59Q93.18 230.23 92.98 230.04Q92.77 229.85 92.37 229.85Q92.09 229.85 91.83 229.94Q91.58 230.03 91.4 230.18L91.17 229.76Q91.4 229.57 91.73 229.47Q92.06 229.37 92.43 229.37ZM92.3 232.06Q92.62 232.06 92.85 231.92Q93.08 231.78 93.18 231.52L93.18 231.1L92.33 231.1Q91.63 231.1 91.63 231.57Q91.63 231.8 91.81 231.93Q91.98 232.06 92.3 232.06ZM96.48 232.28Q96.36 232.38 96.18 232.44Q96 232.49 95.81 232.49Q95.35 232.49 95.1 232.24Q94.84 232 94.84 231.53L94.84 229.86L94.33 229.86L94.33 229.4L94.84 229.4L94.84 228.73L95.4 228.73L95.4 229.4L96.27 229.4L96.27 229.86L95.4 229.86L95.4 231.51Q95.4 231.76 95.52 231.89Q95.65 232.02 95.88 232.02Q96.13 232.02 96.31 231.88ZM98.78 229.37Q99.36 229.37 99.71 229.71Q100.05 230.05 100.05 230.7L100.05 232.46L99.5 232.46L99.5 230.76Q99.5 230.32 99.28 230.09Q99.07 229.87 98.67 229.87Q98.22 229.87 97.96 230.13Q97.7 230.39 97.7 230.88L97.7 232.46L97.15 232.46L97.15 228.18L97.7 228.18L97.7 229.83Q97.88 229.61 98.16 229.49Q98.44 229.37 98.78 229.37Z" aria-label="relative path"/></g><g text-align="center" style="font-feature-settings:normal;font-variant-caps:normal;font-variant-ligatures:normal;font-variant-numeric:normal;line-height:125%"><path d="M70.4 239.7Q70.03 239.7 69.68 239.6Q69.34 239.5 69.14 239.34L69.37 238.9Q69.57 239.05 69.86 239.13Q70.15 239.22 70.45 239.22Q71.17 239.22 71.17 238.8Q71.17 238.67 71.07 238.58Q70.98 238.5 70.83 238.47Q70.68 238.43 70.41 238.38Q70.04 238.33 69.81 238.25Q69.57 238.18 69.41 238Q69.24 237.82 69.24 237.5Q69.24 237.08 69.59 236.83Q69.93 236.58 70.51 236.58Q70.82 236.58 71.13 236.65Q71.43 236.73 71.63 236.86L71.39 237.29Q71.02 237.05 70.51 237.05Q70.16 237.05 69.97 237.17Q69.79 237.28 69.79 237.47Q69.79 237.62 69.89 237.71Q70 237.79 70.15 237.84Q70.3 237.88 70.58 237.93Q70.95 237.99 71.17 238.06Q71.4 238.14 71.56 238.31Q71.72 238.48 71.72 238.79Q71.72 239.21 71.37 239.45Q71.02 239.7 70.4 239.7ZM75.18 238.15Q75.18 238.22 75.17 238.32L72.69 238.32Q72.74 238.72 73.04 238.97Q73.34 239.21 73.79 239.21Q74.34 239.21 74.68 238.84L74.98 239.2Q74.77 239.44 74.47 239.57Q74.16 239.7 73.78 239.7Q73.29 239.7 72.92 239.5Q72.54 239.3 72.34 238.94Q72.13 238.58 72.13 238.14Q72.13 237.69 72.33 237.33Q72.53 236.98 72.88 236.78Q73.23 236.58 73.67 236.58Q74.11 236.58 74.45 236.78Q74.79 236.98 74.98 237.33Q75.18 237.69 75.18 238.15ZM73.67 237.05Q73.27 237.05 73 237.29Q72.73 237.53 72.69 237.92L74.65 237.92Q74.6 237.54 74.33 237.29Q74.07 237.05 73.67 237.05ZM78.87 236.61L78.87 239.25Q78.87 240.05 78.47 240.43Q78.07 240.82 77.28 240.82Q76.85 240.82 76.46 240.7Q76.07 240.58 75.82 240.36L76.09 239.93Q76.3 240.12 76.62 240.22Q76.93 240.33 77.26 240.33Q77.8 240.33 78.06 240.08Q78.31 239.82 78.31 239.31L78.31 239.06Q78.12 239.3 77.83 239.42Q77.55 239.54 77.21 239.54Q76.77 239.54 76.42 239.35Q76.07 239.16 75.86 238.82Q75.66 238.49 75.66 238.05Q75.66 237.62 75.86 237.28Q76.07 236.95 76.42 236.76Q76.77 236.58 77.21 236.58Q77.56 236.58 77.86 236.71Q78.15 236.83 78.34 237.08L78.34 236.61ZM77.28 239.05Q77.58 239.05 77.82 238.92Q78.05 238.8 78.19 238.57Q78.33 238.34 78.33 238.05Q78.33 237.61 78.03 237.34Q77.74 237.06 77.28 237.06Q76.81 237.06 76.52 237.34Q76.22 237.61 76.22 238.05Q76.22 238.34 76.36 238.57Q76.49 238.8 76.73 238.92Q76.97 239.05 77.28 239.05ZM83.74 236.58Q84.32 236.58 84.66 236.91Q85 237.25 85 237.9L85 239.66L84.44 239.66L84.44 237.97Q84.44 237.52 84.24 237.3Q84.03 237.07 83.65 237.07Q83.23 237.07 82.98 237.34Q82.74 237.6 82.74 238.09L82.74 239.66L82.18 239.66L82.18 237.97Q82.18 237.52 81.98 237.3Q81.77 237.07 81.39 237.07Q80.97 237.07 80.72 237.34Q80.48 237.6 80.48 238.09L80.48 239.66L79.92 239.66L79.92 236.61L80.45 236.61L80.45 237.06Q80.62 236.83 80.89 236.7Q81.16 236.58 81.51 236.58Q81.86 236.58 82.14 236.72Q82.42 236.87 82.57 237.14Q82.74 236.88 83.05 236.73Q83.36 236.58 83.74 236.58ZM88.79 238.15Q88.79 238.22 88.78 238.32L86.3 238.32Q86.36 238.72 86.66 238.97Q86.96 239.21 87.41 239.21Q87.96 239.21 88.29 238.84L88.6 239.2Q88.39 239.44 88.08 239.57Q87.77 239.7 87.39 239.7Q86.91 239.7 86.53 239.5Q86.16 239.3 85.95 238.94Q85.75 238.58 85.75 238.14Q85.75 237.69 85.95 237.33Q86.15 236.98 86.5 236.78Q86.85 236.58 87.28 236.58Q87.72 236.58 88.06 236.78Q88.41 236.98 88.6 237.33Q88.79 237.69 88.79 238.15ZM87.28 237.05Q86.89 237.05 86.62 237.29Q86.35 237.53 86.3 237.92L88.26 237.92Q88.22 237.54 87.95 237.29Q87.68 237.05 87.28 237.05ZM91.19 236.58Q91.77 236.58 92.12 236.92Q92.46 237.25 92.46 237.9L92.46 239.66L91.91 239.66L91.91 237.97Q91.91 237.52 91.69 237.3Q91.48 237.07 91.08 237.07Q90.63 237.07 90.37 237.34Q90.11 237.6 90.11 238.09L90.11 239.66L89.56 239.66L89.56 236.61L90.09 236.61L90.09 237.07Q90.26 236.83 90.54 236.71Q90.83 236.58 91.19 236.58ZM95.2 239.48Q95.08 239.59 94.9 239.64Q94.73 239.7 94.54 239.7Q94.07 239.7 93.82 239.45Q93.57 239.2 93.57 238.74L93.57 237.06L93.05 237.06L93.05 236.61L93.57 236.61L93.57 235.94L94.12 235.94L94.12 236.61L95 236.61L95 237.06L94.12 237.06L94.12 238.72Q94.12 238.97 94.24 239.1Q94.37 239.23 94.6 239.23Q94.85 239.23 95.03 239.09Z" aria-label="segment"/></g></g>
  <path d="m70.218 253.82v-5.7034h23.939v5.7034" fill="none" stroke="#199d4a" stroke-linecap="round" stroke-linejoin="round" stroke-width=".529"/>
  <g transform="translate(-76.002 -2.9481)" fill="none" stroke="#199d4a" stroke-linecap="round" stroke-linejoin="round" stroke-width=".529">
   <path d="m158.19 250.83v-3.2096"/>
   <circle transform="scale(1,-1)" cx="158.19" cy="-246.85" r=".75117" stroke-dashoffset="72"/>
  </g>
  <g fill="#b91d5e" stroke-width=".0727px" word-spacing="0px" style="font-feature-settings:normal;font-variant-caps:normal;font-variant-ligatures:normal;font-variant-numeric:normal;line-height:0%" xml:space="preserve"><g text-align="center" style="font-feature-settings:normal;font-variant-caps:normal;font-variant-ligatures:normal;font-variant-numeric:normal;line-height:125%"><path d="M47.9 279.64Q48.48 279.64 48.82 279.98Q49.16 280.31 49.16 280.97L49.16 282.73L48.6 282.73L48.6 281.03Q48.6 280.59 48.4 280.36Q48.19 280.14 47.81 280.14Q47.39 280.14 47.14 280.4Q46.9 280.66 46.9 281.15L46.9 282.73L46.34 282.73L46.34 281.03Q46.34 280.59 46.14 280.36Q45.93 280.14 45.55 280.14Q45.13 280.14 44.88 280.4Q44.64 280.66 44.64 281.15L44.64 282.73L44.08 282.73L44.08 279.67L44.61 279.67L44.61 280.13Q44.78 279.89 45.05 279.77Q45.32 279.64 45.67 279.64Q46.03 279.64 46.3 279.79Q46.58 279.93 46.73 280.21Q46.9 279.94 47.21 279.79Q47.52 279.64 47.9 279.64ZM51.5 282.76Q51.05 282.76 50.68 282.56Q50.32 282.36 50.12 282Q49.91 281.65 49.91 281.2Q49.91 280.75 50.12 280.4Q50.32 280.04 50.68 279.84Q51.05 279.64 51.5 279.64Q51.96 279.64 52.32 279.84Q52.68 280.04 52.88 280.4Q53.09 280.75 53.09 281.2Q53.09 281.65 52.88 282Q52.68 282.36 52.32 282.56Q51.96 282.76 51.5 282.76ZM51.5 282.28Q51.8 282.28 52.03 282.14Q52.26 282.01 52.4 281.76Q52.53 281.52 52.53 281.2Q52.53 280.88 52.4 280.64Q52.26 280.39 52.03 280.26Q51.8 280.13 51.5 280.13Q51.21 280.13 50.97 280.26Q50.74 280.39 50.61 280.64Q50.47 280.88 50.47 281.2Q50.47 281.52 50.61 281.76Q50.74 282.01 50.97 282.14Q51.21 282.28 51.5 282.28ZM56.74 278.45L56.74 282.73L56.21 282.73L56.21 282.24Q56.02 282.5 55.74 282.63Q55.46 282.76 55.12 282.76Q54.67 282.76 54.32 282.57Q53.97 282.37 53.77 282.02Q53.57 281.66 53.57 281.2Q53.57 280.74 53.77 280.39Q53.97 280.04 54.32 279.84Q54.67 279.64 55.12 279.64Q55.44 279.64 55.72 279.77Q56 279.89 56.18 280.13L56.18 278.45ZM55.16 282.28Q55.45 282.28 55.69 282.14Q55.92 282.01 56.06 281.76Q56.19 281.52 56.19 281.2Q56.19 280.88 56.06 280.64Q55.92 280.39 55.69 280.26Q55.45 280.13 55.16 280.13Q54.87 280.13 54.63 280.26Q54.4 280.39 54.27 280.64Q54.13 280.88 54.13 281.2Q54.13 281.52 54.27 281.76Q54.4 282.01 54.63 282.14Q54.87 282.28 55.16 282.28ZM60.63 279.67L60.63 282.73L60.11 282.73L60.11 282.27Q59.94 282.5 59.67 282.63Q59.39 282.76 59.07 282.76Q58.46 282.76 58.11 282.43Q57.76 282.09 57.76 281.43L57.76 279.67L58.31 279.67L58.31 281.37Q58.31 281.81 58.52 282.04Q58.74 282.27 59.13 282.27Q59.57 282.27 59.83 282Q60.08 281.74 60.08 281.25L60.08 279.67ZM61.69 278.45L62.24 278.45L62.24 282.73L61.69 282.73ZM66.06 281.22Q66.06 281.28 66.05 281.38L63.57 281.38Q63.62 281.79 63.92 282.03Q64.22 282.28 64.67 282.28Q65.22 282.28 65.56 281.91L65.86 282.27Q65.65 282.51 65.35 282.64Q65.04 282.76 64.66 282.76Q64.17 282.76 63.8 282.56Q63.42 282.36 63.22 282.01Q63.01 281.65 63.01 281.2Q63.01 280.76 63.21 280.4Q63.41 280.04 63.76 279.84Q64.11 279.64 64.55 279.64Q64.99 279.64 65.33 279.84Q65.67 280.04 65.86 280.4Q66.06 280.76 66.06 281.22ZM64.55 280.11Q64.15 280.11 63.88 280.35Q63.61 280.59 63.57 280.99L65.53 280.99Q65.48 280.6 65.21 280.36Q64.94 280.11 64.55 280.11Z" aria-label="module"/></g><g text-align="center" style="font-feature-settings:normal;font-variant-caps:normal;font-variant-ligatures:normal;font-variant-numeric:normal;line-height:125%"><path d="M43.16 289.97Q42.78 289.97 42.44 289.87Q42.09 289.77 41.89 289.61L42.13 289.17Q42.33 289.32 42.62 289.4Q42.9 289.49 43.2 289.49Q43.92 289.49 43.92 289.07Q43.92 288.94 43.83 288.86Q43.73 288.77 43.58 288.74Q43.43 288.7 43.16 288.65Q42.79 288.6 42.56 288.52Q42.33 288.45 42.16 288.27Q41.99 288.09 41.99 287.77Q41.99 287.35 42.34 287.1Q42.68 286.85 43.27 286.85Q43.57 286.85 43.88 286.92Q44.18 287 44.38 287.13L44.14 287.56Q43.77 287.32 43.26 287.32Q42.91 287.32 42.72 287.44Q42.54 287.55 42.54 287.74Q42.54 287.89 42.64 287.98Q42.75 288.07 42.9 288.11Q43.05 288.15 43.33 288.2Q43.7 288.26 43.93 288.33Q44.15 288.41 44.32 288.58Q44.48 288.75 44.48 289.06Q44.48 289.48 44.12 289.72Q43.77 289.97 43.16 289.97ZM47.93 288.42Q47.93 288.49 47.92 288.59L45.44 288.59Q45.49 288.99 45.79 289.24Q46.1 289.48 46.55 289.48Q47.09 289.48 47.43 289.12L47.73 289.47Q47.53 289.71 47.22 289.84Q46.91 289.97 46.53 289.97Q46.05 289.97 45.67 289.77Q45.3 289.57 45.09 289.21Q44.89 288.86 44.89 288.41Q44.89 287.96 45.09 287.6Q45.28 287.25 45.63 287.05Q45.98 286.85 46.42 286.85Q46.86 286.85 47.2 287.05Q47.54 287.25 47.74 287.6Q47.93 287.96 47.93 288.42ZM46.42 287.32Q46.02 287.32 45.75 287.56Q45.49 287.8 45.44 288.19L47.4 288.19Q47.35 287.81 47.09 287.56Q46.82 287.32 46.42 287.32ZM51.62 286.88L51.62 289.52Q51.62 290.32 51.22 290.7Q50.82 291.09 50.03 291.09Q49.6 291.09 49.21 290.97Q48.82 290.85 48.58 290.63L48.84 290.2Q49.05 290.39 49.37 290.5Q49.68 290.6 50.02 290.6Q50.55 290.6 50.81 290.35Q51.07 290.1 51.07 289.58L51.07 289.33Q50.87 289.57 50.58 289.69Q50.3 289.81 49.97 289.81Q49.53 289.81 49.17 289.62Q48.82 289.43 48.62 289.09Q48.41 288.76 48.41 288.33Q48.41 287.89 48.62 287.56Q48.82 287.22 49.17 287.03Q49.53 286.85 49.97 286.85Q50.31 286.85 50.61 286.98Q50.9 287.1 51.1 287.35L51.1 286.88ZM50.03 289.32Q50.33 289.32 50.57 289.2Q50.81 289.07 50.94 288.84Q51.08 288.61 51.08 288.33Q51.08 287.88 50.78 287.61Q50.49 287.33 50.03 287.33Q49.56 287.33 49.27 287.61Q48.97 287.88 48.97 288.33Q48.97 288.61 49.11 288.84Q49.24 289.07 49.48 289.2Q49.72 289.32 50.03 289.32ZM56.5 286.85Q57.07 286.85 57.41 287.18Q57.75 287.52 57.75 288.18L57.75 289.93L57.19 289.93L57.19 288.24Q57.19 287.79 56.99 287.57Q56.78 287.35 56.4 287.35Q55.98 287.35 55.74 287.61Q55.49 287.87 55.49 288.36L55.49 289.93L54.93 289.93L54.93 288.24Q54.93 287.79 54.73 287.57Q54.53 287.35 54.14 287.35Q53.72 287.35 53.48 287.61Q53.23 287.87 53.23 288.36L53.23 289.93L52.67 289.93L52.67 286.88L53.21 286.88L53.21 287.33Q53.37 287.1 53.64 286.97Q53.91 286.85 54.26 286.85Q54.62 286.85 54.89 286.99Q55.17 287.14 55.32 287.41Q55.49 287.15 55.8 287Q56.11 286.85 56.5 286.85ZM61.55 288.42Q61.55 288.49 61.53 288.59L59.06 288.59Q59.11 288.99 59.41 289.24Q59.71 289.48 60.16 289.48Q60.71 289.48 61.04 289.12L61.35 289.47Q61.14 289.71 60.83 289.84Q60.53 289.97 60.15 289.97Q59.66 289.97 59.29 289.77Q58.91 289.57 58.71 289.21Q58.5 288.86 58.5 288.41Q58.5 287.96 58.7 287.6Q58.9 287.25 59.25 287.05Q59.6 286.85 60.04 286.85Q60.47 286.85 60.82 287.05Q61.16 287.25 61.35 287.6Q61.55 287.96 61.55 288.42ZM60.04 287.32Q59.64 287.32 59.37 287.56Q59.1 287.8 59.06 288.19L61.02 288.19Q60.97 287.81 60.7 287.56Q60.43 287.32 60.04 287.32ZM63.94 286.85Q64.53 286.85 64.87 287.19Q65.21 287.52 65.21 288.18L65.21 289.93L64.66 289.93L64.66 288.24Q64.66 287.79 64.45 287.57Q64.23 287.35 63.84 287.35Q63.39 287.35 63.13 287.61Q62.87 287.87 62.87 288.36L62.87 289.93L62.31 289.93L62.31 286.88L62.84 286.88L62.84 287.34Q63.01 287.1 63.3 286.98Q63.58 286.85 63.94 286.85ZM67.96 289.75Q67.84 289.86 67.66 289.91Q67.48 289.97 67.29 289.97Q66.83 289.97 66.57 289.72Q66.32 289.47 66.32 289.01L66.32 287.33L65.8 287.33L65.8 286.88L66.32 286.88L66.32 286.21L66.87 286.21L66.87 286.88L67.75 286.88L67.75 287.33L66.87 287.33L66.87 288.99Q66.87 289.24 67 289.37Q67.12 289.5 67.35 289.5Q67.61 289.5 67.78 289.36Z" aria-label="segment"/></g></g>
  <path d="m43.695 265.19v5.7034h22.461v-5.7034" fill="none" stroke="#b91d5e" stroke-linecap="round" stroke-linejoin="round" stroke-width=".529"/>
  <g transform="translate(-113.43 -2.9481)" fill="none" stroke="#b91d5e" stroke-linecap="round" stroke-linejoin="round" stroke-width=".529">
   <path transform="translate(-14.288)" d="m182.64 274.08v3.2096"/>
   <circle cx="168.36" cy="278.06" r=".75117" stroke-dashoffset="72"/>
  </g>
  <g fill="#de4c36" stroke-width=".0727px" word-spacing="0px" style="font-feature-settings:normal;font-variant-caps:normal;font-variant-ligatures:normal;font-variant-numeric:normal;line-height:0%" xml:space="preserve"><g text-align="center" style="font-feature-settings:normal;font-variant-caps:normal;font-variant-ligatures:normal;font-variant-numeric:normal;line-height:125%"><path d="M29.01 229.4L27.67 232.46L27.11 232.46L25.77 229.4L26.35 229.4L27.4 231.85L28.47 229.4ZM32.21 230.95Q32.21 231.01 32.19 231.11L29.71 231.11Q29.77 231.52 30.07 231.76Q30.37 232.01 30.82 232.01Q31.37 232.01 31.7 231.64L32.01 232Q31.8 232.24 31.49 232.36Q31.18 232.49 30.8 232.49Q30.32 232.49 29.95 232.29Q29.57 232.09 29.37 231.74Q29.16 231.38 29.16 230.93Q29.16 230.49 29.36 230.13Q29.56 229.77 29.91 229.57Q30.26 229.37 30.69 229.37Q31.13 229.37 31.48 229.57Q31.82 229.77 32.01 230.13Q32.21 230.49 32.21 230.95ZM30.69 229.84Q30.3 229.84 30.03 230.08Q29.76 230.32 29.71 230.72L31.67 230.72Q31.63 230.33 31.36 230.08Q31.09 229.84 30.69 229.84ZM33.5 229.91Q33.65 229.65 33.93 229.51Q34.21 229.37 34.61 229.37L34.61 229.91Q34.57 229.9 34.49 229.9Q34.04 229.9 33.78 230.17Q33.53 230.44 33.53 230.93L33.53 232.46L32.97 232.46L32.97 229.4L33.5 229.4L33.5 229.91ZM36.19 232.49Q35.82 232.49 35.47 232.39Q35.13 232.29 34.93 232.13L35.16 231.7Q35.36 231.84 35.65 231.93Q35.94 232.01 36.23 232.01Q36.96 232.01 36.96 231.6Q36.96 231.46 36.86 231.38Q36.76 231.3 36.62 231.26Q36.47 231.22 36.2 231.18Q35.83 231.12 35.6 231.04Q35.36 230.97 35.2 230.79Q35.03 230.61 35.03 230.29Q35.03 229.87 35.38 229.62Q35.72 229.37 36.3 229.37Q36.61 229.37 36.91 229.45Q37.22 229.52 37.42 229.65L37.18 230.09Q36.81 229.85 36.3 229.85Q35.95 229.85 35.76 229.96Q35.58 230.08 35.58 230.27Q35.58 230.42 35.68 230.5Q35.78 230.59 35.94 230.63Q36.09 230.67 36.37 230.72Q36.74 230.79 36.96 230.86Q37.19 230.93 37.35 231.1Q37.51 231.28 37.51 231.59Q37.51 232 37.16 232.25Q36.81 232.49 36.19 232.49ZM38.21 229.4L38.76 229.4L38.76 232.46L38.21 232.46ZM38.48 228.81Q38.32 228.81 38.21 228.71Q38.11 228.61 38.11 228.46Q38.11 228.31 38.21 228.2Q38.32 228.09 38.48 228.09Q38.64 228.09 38.75 228.19Q38.86 228.29 38.86 228.44Q38.86 228.6 38.75 228.71Q38.64 228.81 38.48 228.81ZM41.12 232.49Q40.67 232.49 40.3 232.29Q39.94 232.09 39.74 231.73Q39.53 231.38 39.53 230.93Q39.53 230.48 39.74 230.13Q39.94 229.77 40.3 229.57Q40.67 229.37 41.12 229.37Q41.58 229.37 41.94 229.57Q42.3 229.77 42.5 230.13Q42.71 230.48 42.71 230.93Q42.71 231.38 42.5 231.73Q42.3 232.09 41.94 232.29Q41.58 232.49 41.12 232.49ZM41.12 232.01Q41.42 232.01 41.65 231.87Q41.88 231.74 42.02 231.49Q42.15 231.25 42.15 230.93Q42.15 230.61 42.02 230.37Q41.88 230.12 41.65 229.99Q41.42 229.86 41.12 229.86Q40.83 229.86 40.6 229.99Q40.36 230.12 40.23 230.37Q40.09 230.61 40.09 230.93Q40.09 231.25 40.23 231.49Q40.36 231.74 40.6 231.87Q40.83 232.01 41.12 232.01ZM45.11 229.37Q45.69 229.37 46.03 229.71Q46.37 230.05 46.37 230.7L46.37 232.46L45.82 232.46L45.82 230.76Q45.82 230.32 45.61 230.09Q45.39 229.87 45 229.87Q44.55 229.87 44.29 230.13Q44.03 230.39 44.03 230.88L44.03 232.46L43.48 232.46L43.48 229.4L44.01 229.4L44.01 229.86Q44.17 229.63 44.46 229.5Q44.74 229.37 45.11 229.37Z" aria-label="version"/></g><g text-align="center" style="font-feature-settings:normal;font-variant-caps:normal;font-variant-ligatures:normal;font-variant-numeric:normal;line-height:125%"><path d="M24.56 239.7Q24.18 239.7 23.84 239.6Q23.49 239.5 23.3 239.34L23.53 238.9Q23.73 239.05 24.02 239.13Q24.3 239.22 24.6 239.22Q25.32 239.22 25.32 238.8Q25.32 238.67 25.23 238.58Q25.13 238.5 24.98 238.47Q24.83 238.43 24.56 238.38Q24.19 238.33 23.96 238.25Q23.73 238.18 23.56 238Q23.39 237.82 23.39 237.5Q23.39 237.08 23.74 236.83Q24.09 236.58 24.67 236.58Q24.97 236.58 25.28 236.65Q25.58 236.73 25.78 236.86L25.54 237.29Q25.17 237.05 24.66 237.05Q24.31 237.05 24.13 237.17Q23.94 237.28 23.94 237.47Q23.94 237.62 24.05 237.71Q24.15 237.79 24.3 237.84Q24.45 237.88 24.73 237.93Q25.1 237.99 25.33 238.06Q25.56 238.14 25.72 238.31Q25.88 238.48 25.88 238.79Q25.88 239.21 25.52 239.45Q25.17 239.7 24.56 239.7ZM29.33 238.15Q29.33 238.22 29.32 238.32L26.84 238.32Q26.89 238.72 27.2 238.97Q27.5 239.21 27.95 239.21Q28.5 239.21 28.83 238.84L29.14 239.2Q28.93 239.44 28.62 239.57Q28.31 239.7 27.93 239.7Q27.45 239.7 27.07 239.5Q26.7 239.3 26.49 238.94Q26.29 238.58 26.29 238.14Q26.29 237.69 26.49 237.33Q26.69 236.98 27.03 236.78Q27.38 236.58 27.82 236.58Q28.26 236.58 28.6 236.78Q28.95 236.98 29.14 237.33Q29.33 237.69 29.33 238.15ZM27.82 237.05Q27.42 237.05 27.16 237.29Q26.89 237.53 26.84 237.92L28.8 237.92Q28.75 237.54 28.49 237.29Q28.22 237.05 27.82 237.05ZM33.02 236.61L33.02 239.25Q33.02 240.05 32.62 240.43Q32.23 240.82 31.44 240.82Q31 240.82 30.61 240.7Q30.22 240.58 29.98 240.36L30.24 239.93Q30.46 240.12 30.77 240.22Q31.08 240.33 31.42 240.33Q31.95 240.33 32.21 240.08Q32.47 239.82 32.47 239.31L32.47 239.06Q32.27 239.3 31.99 239.42Q31.7 239.54 31.37 239.54Q30.93 239.54 30.57 239.35Q30.22 239.16 30.02 238.82Q29.82 238.49 29.82 238.05Q29.82 237.62 30.02 237.28Q30.22 236.95 30.57 236.76Q30.93 236.58 31.37 236.58Q31.71 236.58 32.01 236.71Q32.31 236.83 32.5 237.08L32.5 236.61ZM31.43 239.05Q31.73 239.05 31.97 238.92Q32.21 238.8 32.34 238.57Q32.48 238.34 32.48 238.05Q32.48 237.61 32.18 237.34Q31.89 237.06 31.43 237.06Q30.96 237.06 30.67 237.34Q30.37 237.61 30.37 238.05Q30.37 238.34 30.51 238.57Q30.65 238.8 30.88 238.92Q31.12 239.05 31.43 239.05ZM37.9 236.58Q38.47 236.58 38.81 236.91Q39.15 237.25 39.15 237.9L39.15 239.66L38.6 239.66L38.6 237.97Q38.6 237.52 38.39 237.3Q38.19 237.07 37.81 237.07Q37.38 237.07 37.14 237.34Q36.89 237.6 36.89 238.09L36.89 239.66L36.34 239.66L36.34 237.97Q36.34 237.52 36.13 237.3Q35.93 237.07 35.55 237.07Q35.12 237.07 34.88 237.34Q34.63 237.6 34.63 238.09L34.63 239.66L34.08 239.66L34.08 236.61L34.61 236.61L34.61 237.06Q34.77 236.83 35.04 236.7Q35.32 236.58 35.66 236.58Q36.02 236.58 36.3 236.72Q36.57 236.87 36.72 237.14Q36.89 236.88 37.2 236.73Q37.51 236.58 37.9 236.58ZM42.95 238.15Q42.95 238.22 42.94 238.32L40.46 238.32Q40.51 238.72 40.81 238.97Q41.11 239.21 41.56 239.21Q42.11 239.21 42.45 238.84L42.75 239.2Q42.54 239.44 42.24 239.57Q41.93 239.7 41.55 239.7Q41.06 239.7 40.69 239.5Q40.31 239.3 40.11 238.94Q39.9 238.58 39.9 238.14Q39.9 237.69 40.1 237.33Q40.3 236.98 40.65 236.78Q41 236.58 41.44 236.58Q41.88 236.58 42.22 236.78Q42.56 236.98 42.75 237.33Q42.95 237.69 42.95 238.15ZM41.44 237.05Q41.04 237.05 40.77 237.29Q40.5 237.53 40.46 237.92L42.42 237.92Q42.37 237.54 42.1 237.29Q41.83 237.05 41.44 237.05ZM45.35 236.58Q45.93 236.58 46.27 236.92Q46.61 237.25 46.61 237.9L46.61 239.66L46.06 239.66L46.06 237.97Q46.06 237.52 45.85 237.3Q45.63 237.07 45.24 237.07Q44.79 237.07 44.53 237.34Q44.27 237.6 44.27 238.09L44.27 239.66L43.71 239.66L43.71 236.61L44.24 236.61L44.24 237.07Q44.41 236.83 44.7 236.71Q44.98 236.58 45.35 236.58ZM49.36 239.48Q49.24 239.59 49.06 239.64Q48.88 239.7 48.69 239.7Q48.23 239.7 47.97 239.45Q47.72 239.2 47.72 238.74L47.72 237.06L47.2 237.06L47.2 236.61L47.72 236.61L47.72 235.94L48.27 235.94L48.27 236.61L49.15 236.61L49.15 237.06L48.27 237.06L48.27 238.72Q48.27 238.97 48.4 239.1Q48.52 239.23 48.75 239.23Q49.01 239.23 49.18 239.09Z" aria-label="segment"/></g></g>
  <path d="m31.664 253.82v-5.7034h9.3247v5.7034" fill="none" stroke="#de4c36" stroke-linecap="round" stroke-linejoin="round" stroke-width=".529"/>
  <g transform="translate(-157.61 -2.9481)" fill="none" stroke="#de4c36" stroke-linecap="round" stroke-linejoin="round" stroke-width=".529">
   <path transform="translate(13.131)" d="m180.81 250.83v-3.2096"/>
   <circle transform="scale(1,-1)" cx="193.94" cy="-246.85" r=".75117" stroke-dashoffset="72"/>
  </g>
  <g fill="#242424" stroke-width=".0727px" word-spacing="0px" style="font-feature-settings:normal;font-variant-caps:normal;font-variant-ligatures:normal;font-variant-numeric:normal;line-height:0%" xml:space="preserve"><g text-align="center" style="font-feature-settings:normal;font-variant-caps:normal;font-variant-ligatures:normal;font-variant-numeric:normal;line-height:125%"><path d="M85.48 279.64Q86.06 279.64 86.41 279.98Q86.75 280.32 86.75 280.97L86.75 282.73L86.2 282.73L86.2 281.03Q86.2 280.59 85.98 280.36Q85.77 280.14 85.37 280.14Q84.92 280.14 84.66 280.4Q84.4 280.66 84.4 281.15L84.4 282.73L83.85 282.73L83.85 278.45L84.4 278.45L84.4 280.1Q84.58 279.89 84.86 279.76Q85.14 279.64 85.48 279.64ZM89.49 282.55Q89.37 282.65 89.19 282.71Q89.01 282.76 88.82 282.76Q88.36 282.76 88.11 282.51Q87.86 282.27 87.86 281.81L87.86 280.13L87.34 280.13L87.34 279.67L87.86 279.67L87.86 279L88.41 279L88.41 279.67L89.29 279.67L89.29 280.13L88.41 280.13L88.41 281.78Q88.41 282.03 88.53 282.16Q88.66 282.3 88.89 282.3Q89.14 282.3 89.32 282.15ZM93.98 279.64Q94.56 279.64 94.9 279.98Q95.23 280.31 95.23 280.97L95.23 282.73L94.68 282.73L94.68 281.03Q94.68 280.59 94.48 280.36Q94.27 280.14 93.89 280.14Q93.47 280.14 93.22 280.4Q92.98 280.66 92.98 281.15L92.98 282.73L92.42 282.73L92.42 281.03Q92.42 280.59 92.22 280.36Q92.01 280.14 91.63 280.14Q91.21 280.14 90.96 280.4Q90.72 280.66 90.72 281.15L90.72 282.73L90.16 282.73L90.16 279.67L90.69 279.67L90.69 280.13Q90.86 279.89 91.13 279.77Q91.4 279.64 91.75 279.64Q92.1 279.64 92.38 279.79Q92.66 279.93 92.81 280.21Q92.98 279.94 93.29 279.79Q93.6 279.64 93.98 279.64ZM96.26 278.45L96.81 278.45L96.81 282.73L96.26 282.73ZM102.18 281.22Q102.18 281.28 102.16 281.38L99.69 281.38Q99.74 281.79 100.04 282.03Q100.34 282.28 100.79 282.28Q101.34 282.28 101.67 281.91L101.98 282.27Q101.77 282.51 101.46 282.64Q101.16 282.76 100.77 282.76Q100.29 282.76 99.92 282.56Q99.54 282.36 99.34 282.01Q99.13 281.65 99.13 281.2Q99.13 280.76 99.33 280.4Q99.53 280.04 99.88 279.84Q100.23 279.64 100.67 279.64Q101.1 279.64 101.45 279.84Q101.79 280.04 101.98 280.4Q102.18 280.76 102.18 281.22ZM100.67 280.11Q100.27 280.11 100 280.35Q99.73 280.59 99.69 280.99L101.65 280.99Q101.6 280.6 101.33 280.36Q101.06 280.11 100.67 280.11ZM104.8 282.73L103.92 281.56L103.03 282.73L102.41 282.73L103.62 281.17L102.47 279.67L103.09 279.67L103.93 280.77L104.76 279.67L105.37 279.67L104.22 281.17L105.43 282.73ZM107.76 282.55Q107.63 282.65 107.46 282.71Q107.28 282.76 107.09 282.76Q106.63 282.76 106.37 282.51Q106.12 282.27 106.12 281.81L106.12 280.13L105.6 280.13L105.6 279.67L106.12 279.67L106.12 279L106.67 279L106.67 279.67L107.55 279.67L107.55 280.13L106.67 280.13L106.67 281.78Q106.67 282.03 106.8 282.16Q106.92 282.3 107.15 282.3Q107.4 282.3 107.58 282.15ZM111.08 281.22Q111.08 281.28 111.07 281.38L108.59 281.38Q108.64 281.79 108.95 282.03Q109.25 282.28 109.7 282.28Q110.25 282.28 110.58 281.91L110.89 282.27Q110.68 282.51 110.37 282.64Q110.06 282.76 109.68 282.76Q109.2 282.76 108.82 282.56Q108.45 282.36 108.24 282.01Q108.04 281.65 108.04 281.2Q108.04 280.76 108.24 280.4Q108.44 280.04 108.78 279.84Q109.13 279.64 109.57 279.64Q110.01 279.64 110.35 279.84Q110.7 280.04 110.89 280.4Q111.08 280.76 111.08 281.22ZM109.57 280.11Q109.17 280.11 108.91 280.35Q108.64 280.59 108.59 280.99L110.55 280.99Q110.51 280.6 110.24 280.36Q109.97 280.11 109.57 280.11ZM113.48 279.64Q114.06 279.64 114.41 279.98Q114.75 280.32 114.75 280.97L114.75 282.73L114.2 282.73L114.2 281.03Q114.2 280.59 113.98 280.36Q113.77 280.14 113.37 280.14Q112.92 280.14 112.66 280.4Q112.4 280.66 112.4 281.15L112.4 282.73L111.85 282.73L111.85 279.67L112.38 279.67L112.38 280.13Q112.55 279.9 112.83 279.77Q113.12 279.64 113.48 279.64ZM116.65 282.76Q116.28 282.76 115.93 282.66Q115.58 282.56 115.39 282.4L115.62 281.97Q115.82 282.11 116.11 282.2Q116.4 282.28 116.69 282.28Q117.42 282.28 117.42 281.87Q117.42 281.73 117.32 281.65Q117.22 281.57 117.07 281.53Q116.93 281.49 116.66 281.45Q116.29 281.39 116.05 281.32Q115.82 281.24 115.65 281.06Q115.49 280.88 115.49 280.56Q115.49 280.15 115.83 279.89Q116.18 279.64 116.76 279.64Q117.07 279.64 117.37 279.72Q117.68 279.79 117.87 279.92L117.64 280.36Q117.26 280.12 116.75 280.12Q116.4 280.12 116.22 280.23Q116.03 280.35 116.03 280.54Q116.03 280.69 116.14 280.77Q116.24 280.86 116.39 280.9Q116.55 280.94 116.82 280.99Q117.19 281.06 117.42 281.13Q117.65 281.2 117.81 281.37Q117.97 281.55 117.97 281.86Q117.97 282.27 117.62 282.52Q117.26 282.76 116.65 282.76ZM118.66 279.67L119.22 279.67L119.22 282.73L118.66 282.73ZM118.94 279.08Q118.78 279.08 118.67 278.98Q118.56 278.88 118.56 278.73Q118.56 278.58 118.67 278.47Q118.78 278.36 118.94 278.36Q119.1 278.36 119.21 278.46Q119.31 278.57 119.31 278.72Q119.31 278.87 119.21 278.98Q119.1 279.08 118.94 279.08ZM121.58 282.76Q121.12 282.76 120.76 282.56Q120.4 282.36 120.19 282Q119.99 281.65 119.99 281.2Q119.99 280.75 120.19 280.4Q120.4 280.04 120.76 279.84Q121.12 279.64 121.58 279.64Q122.04 279.64 122.4 279.84Q122.76 280.04 122.96 280.4Q123.16 280.75 123.16 281.2Q123.16 281.65 122.96 282Q122.76 282.36 122.4 282.56Q122.04 282.76 121.58 282.76ZM121.58 282.28Q121.87 282.28 122.11 282.14Q122.34 282.01 122.47 281.76Q122.61 281.52 122.61 281.2Q122.61 280.88 122.47 280.64Q122.34 280.39 122.11 280.26Q121.87 280.13 121.58 280.13Q121.29 280.13 121.05 280.26Q120.82 280.39 120.68 280.64Q120.55 280.88 120.55 281.2Q120.55 281.52 120.68 281.76Q120.82 282.01 121.05 282.14Q121.29 282.28 121.58 282.28ZM125.56 279.64Q126.15 279.64 126.49 279.98Q126.83 280.32 126.83 280.97L126.83 282.73L126.28 282.73L126.28 281.03Q126.28 280.59 126.06 280.36Q125.85 280.14 125.45 280.14Q125 280.14 124.74 280.4Q124.48 280.66 124.48 281.15L124.48 282.73L123.93 282.73L123.93 279.67L124.46 279.67L124.46 280.13Q124.63 279.9 124.91 279.77Q125.2 279.64 125.56 279.64Z" aria-label="html extension"/></g><g text-align="center" style="font-feature-settings:normal;font-variant-caps:normal;font-variant-ligatures:normal;font-variant-numeric:normal;line-height:125%"><path d="M99.94 289.97Q99.57 289.97 99.22 289.87Q98.88 289.77 98.68 289.61L98.91 289.17Q99.11 289.32 99.4 289.4Q99.69 289.49 99.98 289.49Q100.71 289.49 100.71 289.07Q100.71 288.94 100.61 288.86Q100.51 288.77 100.37 288.74Q100.22 288.7 99.95 288.65Q99.58 288.6 99.35 288.52Q99.11 288.45 98.94 288.27Q98.78 288.09 98.78 287.77Q98.78 287.35 99.12 287.1Q99.47 286.85 100.05 286.85Q100.36 286.85 100.66 286.92Q100.97 287 101.16 287.13L100.93 287.56Q100.55 287.32 100.05 287.32Q99.69 287.32 99.51 287.44Q99.32 287.55 99.32 287.74Q99.32 287.89 99.43 287.98Q99.53 288.07 99.69 288.11Q99.84 288.15 100.11 288.2Q100.48 288.26 100.71 288.33Q100.94 288.41 101.1 288.58Q101.26 288.75 101.26 289.06Q101.26 289.48 100.91 289.72Q100.55 289.97 99.94 289.97ZM103.67 289.75Q103.55 289.86 103.37 289.91Q103.19 289.97 103 289.97Q102.54 289.97 102.29 289.72Q102.03 289.47 102.03 289.01L102.03 287.33L101.52 287.33L101.52 286.88L102.03 286.88L102.03 286.21L102.59 286.21L102.59 286.88L103.46 286.88L103.46 287.33L102.59 287.33L102.59 288.99Q102.59 289.24 102.71 289.37Q102.84 289.5 103.07 289.5Q103.32 289.5 103.5 289.36ZM106.99 286.88L105.5 290.24Q105.31 290.71 105.05 290.9Q104.78 291.09 104.42 291.09Q104.19 291.09 103.98 291.01Q103.77 290.94 103.63 290.8L103.87 290.39Q104.1 290.61 104.42 290.61Q104.62 290.61 104.75 290.51Q104.89 290.4 105 290.14L105.1 289.93L103.75 286.88L104.32 286.88L105.39 289.32L106.44 286.88ZM107.51 285.66L108.06 285.66L108.06 289.93L107.51 289.93ZM111.87 288.42Q111.87 288.49 111.86 288.59L109.38 288.59Q109.44 288.99 109.74 289.24Q110.04 289.48 110.49 289.48Q111.04 289.48 111.37 289.12L111.68 289.47Q111.47 289.71 111.16 289.84Q110.85 289.97 110.47 289.97Q109.99 289.97 109.61 289.77Q109.24 289.57 109.04 289.21Q108.83 288.86 108.83 288.41Q108.83 287.96 109.03 287.6Q109.23 287.25 109.58 287.05Q109.93 286.85 110.36 286.85Q110.8 286.85 111.15 287.05Q111.49 287.25 111.68 287.6Q111.87 287.96 111.87 288.42ZM110.36 287.32Q109.97 287.32 109.7 287.56Q109.43 287.8 109.38 288.19L111.34 288.19Q111.3 287.81 111.03 287.56Q110.76 287.32 110.36 287.32Z" aria-label="style"/></g></g>
  <path d="m97.37 265.19v5.7034h15.94v-5.7034" fill="none" stroke="#242424" stroke-linecap="round" stroke-linejoin="round" stroke-width=".529"/>
  <g transform="translate(-76.923 -2.9481)" fill="none" stroke="#242424" stroke-linecap="round" stroke-linejoin="round" stroke-width=".529">
   <path d="m182.26 274.08v3.2096"/>
   <circle cx="182.26" cy="278.06" r=".75117" stroke-dashoffset="72"/>
  </g>
 </g>
</svg>