<svg width="201.37mm" height="7.5333mm" version="1.1" viewBox="0 0 201.37 7.5333" xmlns="http://www.w3.org/2000/svg" xmlns:cc="http://creativecommons.org/ns#" xmlns:dc="http://purl.org/dc/elements/1.1/" xmlns:rdf="http://www.w3.org/1999/02/22-rdf-syntax-ns#">
 <title>Absolute URL published by Antora</title>
 <metadata>
  <rdf:RDF>
   <cc:Work rdf:about="">
    <dc:format>image/svg+xml</dc:format>
    <dc:type rdf:resource="http://purl.org/dc/dcmitype/StillImage"/>
    <dc:title>Absolute URL published by Antora</dc:title>
    <dc:creator>
     <cc:Agent>
      <dc:title>Sarah White</dc:title>
     </cc:Agent>
    </dc:creator>
    <dc:publisher>
     <cc:Agent>
      <dc:title>OpenDevise Inc.</dc:title>
     </cc:Agent>
    </dc:publisher>
    <dc:subject>
     <rdf:Bag>
      <rdf:li>Antora</rdf:li>
      <rdf:li>site URL</rdf:li>
     </rdf:Bag>
    </dc:subject>
    <cc:license rdf:resource="http://creativecommons.org/licenses/by-sa/4.0/"/>
   </cc:Work>
   <cc:License rdf:about="http://creativecommons.org/licenses/by-sa/4.0/">
    <cc:permits rdf:resource="http://creativecommons.org/ns#Reproduction"/>
    <cc:permits rdf:resource="http://creativecommons.org/ns#Distribution"/>
    <cc:requires rdf:resource="http://creativecommons.org/ns#Notice"/>
    <cc:requires rdf:resource="http://creativecommons.org/ns#Attribution"/>
    <cc:permits rdf:resource="http://creativecommons.org/ns#DerivativeWorks"/>
    <cc:requires rdf:resource="http://creativecommons.org/ns#ShareAlike"/>
   </cc:License>
  </rdf:RDF>
 </metadata>
 <g transform="translate(0 -228.09)">
  <rect y="228.09" width="201.37" height="7.533" fill="#fff"/>
  <g transform="scale(1 .99998)" fill="#242424" stroke-width=".0727px" word-spacing="0px" style="font-feature-settings:normal;font-variant-caps:normal;font-variant-ligatures:normal;font-variant-numeric:normal;line-height:0%" xml:space="preserve"><g fill="#242424" stroke-width=".0727px" style="font-feature-settings:normal;font-variant-caps:normal;font-variant-ligatures:normal;font-variant-numeric:normal;line-height:125%"><path d="M2.05 230.32Q2.78 230.32 3.21 230.74Q3.64 231.16 3.64 231.98L3.64 234.19L2.94 234.19L2.94 232.06Q2.94 231.5 2.68 231.22Q2.41 230.94 1.91 230.94Q1.34 230.94 1.02 231.27Q0.69 231.6 0.69 232.21L0.69 234.19L0 234.19L0 228.82L0.69 228.82L0.69 230.9Q0.91 230.62 1.26 230.47Q1.61 230.32 2.05 230.32ZM7.08 233.96Q6.93 234.09 6.7 234.16Q6.48 234.23 6.24 234.23Q5.66 234.23 5.34 233.92Q5.02 233.61 5.02 233.03L5.02 230.93L4.37 230.93L4.37 230.35L5.02 230.35L5.02 229.52L5.72 229.52L5.72 230.35L6.82 230.35L6.82 230.93L5.72 230.93L5.72 233Q5.72 233.31 5.87 233.48Q6.03 233.64 6.32 233.64Q6.64 233.64 6.86 233.46ZM9.98 233.96Q9.83 234.09 9.6 234.16Q9.38 234.23 9.14 234.23Q8.56 234.23 8.24 233.92Q7.92 233.61 7.92 233.03L7.92 230.93L7.27 230.93L7.27 230.35L7.92 230.35L7.92 229.52L8.62 229.52L8.62 230.35L9.72 230.35L9.72 230.93L8.62 230.93L8.62 233Q8.62 233.31 8.77 233.48Q8.93 233.64 9.22 233.64Q9.54 233.64 9.76 233.46ZM12.85 230.32Q13.4 230.32 13.85 230.56Q14.29 230.81 14.54 231.25Q14.78 231.69 14.78 232.27Q14.78 232.85 14.54 233.29Q14.29 233.74 13.85 233.98Q13.4 234.23 12.85 234.23Q12.44 234.23 12.09 234.07Q11.75 233.91 11.51 233.61L11.51 235.59L10.82 235.59L10.82 230.35L11.48 230.35L11.48 230.96Q11.71 230.64 12.07 230.48Q12.42 230.32 12.85 230.32ZM12.79 233.62Q13.16 233.62 13.45 233.45Q13.74 233.28 13.91 232.97Q14.08 232.67 14.08 232.27Q14.08 231.87 13.91 231.57Q13.74 231.26 13.45 231.09Q13.16 230.93 12.79 230.93Q12.43 230.93 12.14 231.1Q11.84 231.27 11.67 231.57Q11.5 231.87 11.5 232.27Q11.5 232.67 11.67 232.97Q11.84 233.28 12.13 233.45Q12.43 233.62 12.79 233.62ZM16.85 234.23Q16.38 234.23 15.94 234.1Q15.51 233.98 15.26 233.78L15.55 233.23Q15.8 233.41 16.17 233.52Q16.53 233.63 16.9 233.63Q17.81 233.63 17.81 233.11Q17.81 232.94 17.68 232.83Q17.56 232.73 17.38 232.69Q17.19 232.64 16.85 232.58Q16.39 232.51 16.1 232.41Q15.8 232.32 15.59 232.1Q15.39 231.87 15.39 231.47Q15.39 230.95 15.82 230.63Q16.25 230.32 16.98 230.32Q17.37 230.32 17.75 230.41Q18.13 230.51 18.38 230.66L18.08 231.21Q17.61 230.91 16.98 230.91Q16.53 230.91 16.3 231.06Q16.07 231.2 16.07 231.44Q16.07 231.63 16.2 231.73Q16.33 231.84 16.52 231.89Q16.72 231.94 17.06 232.01Q17.53 232.09 17.81 232.18Q18.1 232.27 18.3 232.49Q18.5 232.7 18.5 233.09Q18.5 233.61 18.06 233.92Q17.61 234.23 16.85 234.23ZM19.53 231.31Q19.33 231.31 19.19 231.17Q19.04 231.03 19.04 230.81Q19.04 230.6 19.19 230.46Q19.33 230.32 19.53 230.32Q19.74 230.32 19.87 230.46Q20.01 230.59 20.01 230.81Q20.01 231.03 19.87 231.17Q19.73 231.31 19.53 231.31ZM19.53 234.23Q19.33 234.23 19.19 234.09Q19.04 233.95 19.04 233.73Q19.04 233.52 19.19 233.38Q19.33 233.24 19.53 233.24Q19.74 233.24 19.87 233.38Q20.01 233.51 20.01 233.73Q20.01 233.95 19.87 234.09Q19.73 234.23 19.53 234.23ZM22.88 228.1L23.51 228.1L21.13 234.91L20.5 234.91ZM24.94 228.1L25.56 228.1L23.18 234.91L22.55 234.91ZM28.93 232.29Q28.93 232.37 28.92 232.5L25.81 232.5Q25.88 233.01 26.26 233.31Q26.63 233.62 27.2 233.62Q27.89 233.62 28.3 233.16L28.69 233.61Q28.43 233.91 28.04 234.07Q27.65 234.23 27.18 234.23Q26.57 234.23 26.1 233.98Q25.63 233.73 25.37 233.28Q25.12 232.83 25.12 232.27Q25.12 231.71 25.37 231.27Q25.62 230.82 26.05 230.57Q26.49 230.32 27.04 230.32Q27.59 230.32 28.02 230.57Q28.45 230.82 28.69 231.27Q28.93 231.71 28.93 232.29ZM27.04 230.9Q26.54 230.9 26.2 231.21Q25.87 231.51 25.81 232L28.27 232Q28.21 231.52 27.87 231.21Q27.54 230.9 27.04 230.9ZM32.23 234.19L31.12 232.72L30 234.19L29.23 234.19L30.74 232.23L29.3 230.35L30.08 230.35L31.13 231.73L32.18 230.35L32.94 230.35L31.49 232.23L33.02 234.19ZM35.1 230.32Q35.9 230.32 36.32 230.71Q36.74 231.1 36.74 231.87L36.74 234.19L36.08 234.19L36.08 233.68Q35.91 233.95 35.59 234.09Q35.27 234.23 34.83 234.23Q34.18 234.23 33.8 233.92Q33.41 233.61 33.41 233.1Q33.41 232.6 33.78 232.29Q34.15 231.98 34.95 231.98L36.05 231.98L36.05 231.84Q36.05 231.4 35.79 231.16Q35.53 230.92 35.02 230.92Q34.68 230.92 34.36 231.03Q34.03 231.14 33.81 231.33L33.52 230.81Q33.81 230.57 34.23 230.44Q34.64 230.32 35.1 230.32ZM34.94 233.69Q35.34 233.69 35.63 233.52Q35.92 233.34 36.05 233.01L36.05 232.48L34.98 232.48Q34.1 232.48 34.1 233.07Q34.1 233.36 34.32 233.53Q34.54 233.69 34.94 233.69ZM42.82 230.32Q43.55 230.32 43.97 230.74Q44.39 231.16 44.39 231.98L44.39 234.19L43.7 234.19L43.7 232.06Q43.7 231.5 43.44 231.22Q43.18 230.94 42.71 230.94Q42.18 230.94 41.87 231.27Q41.56 231.6 41.56 232.21L41.56 234.19L40.86 234.19L40.86 232.06Q40.86 231.5 40.61 231.22Q40.35 230.94 39.87 230.94Q39.34 230.94 39.03 231.27Q38.72 231.6 38.72 232.21L38.72 234.19L38.03 234.19L38.03 230.35L38.69 230.35L38.69 230.93Q38.9 230.63 39.24 230.47Q39.58 230.32 40.02 230.32Q40.47 230.32 40.81 230.5Q41.16 230.68 41.35 231.03Q41.56 230.69 41.95 230.51Q42.34 230.32 42.82 230.32ZM47.7 230.32Q48.26 230.32 48.7 230.56Q49.14 230.81 49.39 231.25Q49.64 231.69 49.64 232.27Q49.64 232.85 49.39 233.29Q49.14 233.74 48.7 233.98Q48.26 234.23 47.7 234.23Q47.29 234.23 46.95 234.07Q46.6 233.91 46.36 233.61L46.36 235.59L45.67 235.59L45.67 230.35L46.34 230.35L46.34 230.96Q46.57 230.64 46.92 230.48Q47.28 230.32 47.7 230.32ZM47.64 233.62Q48.01 233.62 48.31 233.45Q48.6 233.28 48.77 232.97Q48.94 232.67 48.94 232.27Q48.94 231.87 48.77 231.57Q48.6 231.26 48.31 231.09Q48.01 230.93 47.64 230.93Q47.28 230.93 46.99 231.1Q46.7 231.27 46.53 231.57Q46.36 231.87 46.36 232.27Q46.36 232.67 46.52 232.97Q46.69 233.28 46.99 233.45Q47.28 233.62 47.64 233.62ZM50.6 228.82L51.3 228.82L51.3 234.19L50.6 234.19ZM56.08 232.29Q56.08 232.37 56.07 232.5L52.96 232.5Q53.02 233.01 53.4 233.31Q53.78 233.62 54.35 233.62Q55.03 233.62 55.45 233.16L55.84 233.61Q55.58 233.91 55.19 234.07Q54.8 234.23 54.32 234.23Q53.72 234.23 53.25 233.98Q52.78 233.73 52.52 233.28Q52.26 232.83 52.26 232.27Q52.26 231.71 52.51 231.27Q52.76 230.82 53.2 230.57Q53.64 230.32 54.19 230.32Q54.74 230.32 55.17 230.57Q55.6 230.82 55.84 231.27Q56.08 231.71 56.08 232.29ZM54.19 230.9Q53.69 230.9 53.35 231.21Q53.02 231.51 52.96 232L55.42 232Q55.36 231.52 55.02 231.21Q54.69 230.9 54.19 230.9ZM57.21 234.23Q57.01 234.23 56.86 234.09Q56.72 233.95 56.72 233.73Q56.72 233.52 56.86 233.38Q57.01 233.24 57.21 233.24Q57.41 233.24 57.55 233.38Q57.69 233.51 57.69 233.73Q57.69 233.95 57.55 234.09Q57.4 234.23 57.21 234.23ZM60.27 234.23Q59.68 234.23 59.22 233.98Q58.76 233.72 58.5 233.28Q58.24 232.83 58.24 232.27Q58.24 231.71 58.5 231.26Q58.76 230.82 59.22 230.57Q59.68 230.32 60.27 230.32Q60.79 230.32 61.2 230.53Q61.61 230.74 61.83 231.13L61.3 231.47Q61.12 231.2 60.85 231.06Q60.59 230.93 60.26 230.93Q59.88 230.93 59.58 231.09Q59.28 231.26 59.11 231.57Q58.94 231.87 58.94 232.27Q58.94 232.67 59.11 232.98Q59.28 233.29 59.58 233.46Q59.88 233.62 60.26 233.62Q60.59 233.62 60.85 233.48Q61.12 233.35 61.3 233.07L61.83 233.41Q61.61 233.8 61.2 234.02Q60.79 234.23 60.27 234.23ZM64.31 234.23Q63.74 234.23 63.28 233.98Q62.83 233.72 62.57 233.28Q62.31 232.83 62.31 232.27Q62.31 231.71 62.57 231.26Q62.83 230.82 63.28 230.57Q63.74 230.32 64.31 230.32Q64.88 230.32 65.33 230.57Q65.78 230.82 66.04 231.26Q66.3 231.71 66.3 232.27Q66.3 232.83 66.04 233.28Q65.78 233.72 65.33 233.98Q64.88 234.23 64.31 234.23ZM64.31 233.62Q64.68 233.62 64.97 233.45Q65.26 233.28 65.43 232.97Q65.6 232.67 65.6 232.27Q65.6 231.87 65.43 231.57Q65.26 231.26 64.97 231.09Q64.68 230.93 64.31 230.93Q63.94 230.93 63.65 231.09Q63.35 231.26 63.18 231.57Q63.01 231.87 63.01 232.27Q63.01 232.67 63.18 232.97Q63.35 233.28 63.65 233.45Q63.94 233.62 64.31 233.62ZM72.05 230.32Q72.78 230.32 73.2 230.74Q73.62 231.16 73.62 231.98L73.62 234.19L72.93 234.19L72.93 232.06Q72.93 231.5 72.67 231.22Q72.41 230.94 71.94 230.94Q71.41 230.94 71.1 231.27Q70.79 231.6 70.79 232.21L70.79 234.19L70.09 234.19L70.09 232.06Q70.09 231.5 69.84 231.22Q69.58 230.94 69.1 230.94Q68.57 230.94 68.26 231.27Q67.95 231.6 67.95 232.21L67.95 234.19L67.26 234.19L67.26 230.35L67.92 230.35L67.92 230.93Q68.13 230.63 68.47 230.47Q68.81 230.32 69.25 230.32Q69.7 230.32 70.04 230.5Q70.39 230.68 70.58 231.03Q70.79 230.69 71.18 230.51Q71.57 230.32 72.05 230.32ZM76.43 228.1L77.06 228.1L74.67 234.91L74.04 234.91ZM80.58 228.82L80.58 234.19L79.91 234.19L79.91 233.58Q79.68 233.9 79.33 234.06Q78.97 234.23 78.54 234.23Q77.99 234.23 77.55 233.98Q77.11 233.74 76.86 233.29Q76.61 232.85 76.61 232.27Q76.61 231.69 76.86 231.25Q77.11 230.81 77.55 230.56Q77.99 230.32 78.54 230.32Q78.96 230.32 79.3 230.47Q79.65 230.63 79.88 230.93L79.88 228.82ZM78.6 233.62Q78.96 233.62 79.26 233.45Q79.56 233.28 79.72 232.97Q79.89 232.67 79.89 232.27Q79.89 231.87 79.72 231.57Q79.56 231.26 79.26 231.09Q78.96 230.93 78.6 230.93Q78.23 230.93 77.94 231.09Q77.65 231.26 77.48 231.57Q77.31 231.87 77.31 232.27Q77.31 232.67 77.48 232.97Q77.65 233.28 77.94 233.45Q78.23 233.62 78.6 233.62ZM83.53 234.23Q82.96 234.23 82.51 233.98Q82.05 233.72 81.79 233.28Q81.54 232.83 81.54 232.27Q81.54 231.71 81.79 231.26Q82.05 230.82 82.51 230.57Q82.96 230.32 83.53 230.32Q84.1 230.32 84.56 230.57Q85.01 230.82 85.26 231.26Q85.52 231.71 85.52 232.27Q85.52 232.83 85.26 233.28Q85.01 233.72 84.56 233.98Q84.1 234.23 83.53 234.23ZM83.53 233.62Q83.9 233.62 84.19 233.45Q84.49 233.28 84.65 232.97Q84.82 232.67 84.82 232.27Q84.82 231.87 84.65 231.57Q84.49 231.26 84.19 231.09Q83.9 230.93 83.53 230.93Q83.16 230.93 82.87 231.09Q82.58 231.26 82.41 231.57Q82.24 231.87 82.24 232.27Q82.24 232.67 82.41 232.97Q82.58 233.28 82.87 233.45Q83.16 233.62 83.53 233.62ZM88.15 234.23Q87.57 234.23 87.11 233.98Q86.65 233.72 86.39 233.28Q86.13 232.83 86.13 232.27Q86.13 231.71 86.39 231.26Q86.65 230.82 87.11 230.57Q87.57 230.32 88.15 230.32Q88.67 230.32 89.08 230.53Q89.49 230.74 89.71 231.13L89.19 231.47Q89.01 231.2 88.74 231.06Q88.47 230.93 88.15 230.93Q87.77 230.93 87.47 231.09Q87.17 231.26 87 231.57Q86.83 231.87 86.83 232.27Q86.83 232.67 87 232.98Q87.17 233.29 87.47 233.46Q87.77 233.62 88.15 233.62Q88.47 233.62 88.74 233.48Q89.01 233.35 89.19 233.07L89.71 233.41Q89.49 233.8 89.08 234.02Q88.67 234.23 88.15 234.23ZM91.71 234.23Q91.24 234.23 90.81 234.1Q90.37 233.98 90.13 233.78L90.42 233.23Q90.67 233.41 91.03 233.52Q91.39 233.63 91.76 233.63Q92.67 233.63 92.67 233.11Q92.67 232.94 92.55 232.83Q92.43 232.73 92.24 232.69Q92.06 232.64 91.72 232.58Q91.25 232.51 90.96 232.41Q90.67 232.32 90.46 232.1Q90.25 231.87 90.25 231.47Q90.25 230.95 90.68 230.63Q91.12 230.32 91.85 230.32Q92.23 230.32 92.61 230.41Q93 230.51 93.24 230.66L92.95 231.21Q92.48 230.91 91.84 230.91Q91.4 230.91 91.17 231.06Q90.94 231.2 90.94 231.44Q90.94 231.63 91.07 231.73Q91.2 231.84 91.39 231.89Q91.58 231.94 91.93 232.01Q92.39 232.09 92.68 232.18Q92.96 232.27 93.16 232.49Q93.37 232.7 93.37 233.09Q93.37 233.61 92.92 233.92Q92.48 234.23 91.71 234.23ZM95.76 228.1L96.39 228.1L94 234.91L93.37 234.91ZM98.82 230.32Q99.55 230.32 99.98 230.74Q100.41 231.16 100.41 231.98L100.41 234.19L99.72 234.19L99.72 232.06Q99.72 231.5 99.45 231.22Q99.19 230.94 98.69 230.94Q98.12 230.94 97.8 231.27Q97.47 231.6 97.47 232.21L97.47 234.19L96.78 234.19L96.78 228.82L97.47 228.82L97.47 230.9Q97.69 230.62 98.04 230.47Q98.39 230.32 98.82 230.32ZM105.02 230.35L103.16 234.57Q102.92 235.15 102.59 235.39Q102.26 235.63 101.8 235.63Q101.51 235.63 101.25 235.54Q100.99 235.45 100.81 235.28L101.11 234.76Q101.41 235.04 101.8 235.04Q102.05 235.04 102.22 234.91Q102.39 234.77 102.53 234.45L102.65 234.18L100.96 230.35L101.68 230.35L103.02 233.42L104.34 230.35ZM107.7 230.32Q108.26 230.32 108.7 230.56Q109.14 230.81 109.39 231.25Q109.64 231.69 109.64 232.27Q109.64 232.85 109.39 233.29Q109.14 233.74 108.7 233.98Q108.26 234.23 107.7 234.23Q107.29 234.23 106.95 234.07Q106.6 233.91 106.36 233.61L106.36 235.59L105.67 235.59L105.67 230.35L106.34 230.35L106.34 230.96Q106.57 230.64 106.92 230.48Q107.28 230.32 107.7 230.32ZM107.64 233.62Q108.01 233.62 108.31 233.45Q108.6 233.28 108.77 232.97Q108.94 232.67 108.94 232.27Q108.94 231.87 108.77 231.57Q108.6 231.26 108.31 231.09Q108.01 230.93 107.64 230.93Q107.28 230.93 106.99 231.1Q106.7 231.27 106.53 231.57Q106.36 231.87 106.36 232.27Q106.36 232.67 106.52 232.97Q106.69 233.28 106.99 233.45Q107.28 233.62 107.64 233.62ZM114.06 232.29Q114.06 232.37 114.05 232.5L110.94 232.5Q111.01 233.01 111.39 233.31Q111.77 233.62 112.33 233.62Q113.02 233.62 113.44 233.16L113.82 233.61Q113.56 233.91 113.17 234.07Q112.78 234.23 112.31 234.23Q111.7 234.23 111.23 233.98Q110.76 233.73 110.5 233.28Q110.25 232.83 110.25 232.27Q110.25 231.71 110.5 231.27Q110.75 230.82 111.18 230.57Q111.62 230.32 112.17 230.32Q112.72 230.32 113.15 230.57Q113.58 230.82 113.82 231.27Q114.06 231.71 114.06 232.29ZM112.17 230.9Q111.67 230.9 111.34 231.21Q111 231.51 110.94 232L113.4 232Q113.34 231.52 113.01 231.21Q112.67 230.9 112.17 230.9ZM115.69 231Q115.87 230.66 116.23 230.49Q116.58 230.32 117.09 230.32L117.09 230.99Q117.03 230.98 116.93 230.98Q116.36 230.98 116.04 231.32Q115.72 231.66 115.72 232.28L115.72 234.19L115.03 234.19L115.03 230.35L115.69 230.35L115.69 231ZM119.23 228.1L119.86 228.1L117.47 234.91L116.84 234.91ZM123.49 233.56L123.49 234.19L119.86 234.19L119.86 233.69L121.92 231.71Q122.29 231.34 122.42 231.08Q122.55 230.82 122.55 230.55Q122.55 230.15 122.27 229.93Q122 229.71 121.48 229.71Q120.64 229.71 120.18 230.26L119.69 229.83Q119.99 229.47 120.47 229.27Q120.95 229.07 121.54 229.07Q122.34 229.07 122.81 229.45Q123.28 229.83 123.28 230.48Q123.28 230.88 123.1 231.24Q122.93 231.6 122.44 232.07L120.9 233.56ZM124.63 234.23Q124.43 234.23 124.29 234.09Q124.14 233.95 124.14 233.73Q124.14 233.52 124.29 233.38Q124.43 233.24 124.63 233.24Q124.84 233.24 124.97 233.38Q125.11 233.51 125.11 233.73Q125.11 233.95 124.97 234.09Q124.83 234.23 124.63 234.23ZM127.24 231.14Q128.33 231.14 128.84 231.55Q129.35 231.96 129.35 232.67Q129.35 233.12 129.14 233.47Q128.92 233.83 128.49 234.04Q128.06 234.24 127.43 234.24Q126.9 234.24 126.4 234.08Q125.9 233.92 125.57 233.63L125.91 233.06Q126.17 233.3 126.57 233.45Q126.98 233.6 127.43 233.6Q128 233.6 128.31 233.36Q128.63 233.12 128.63 232.7Q128.63 232.24 128.28 232.01Q127.93 231.77 127.09 231.77L125.94 231.77L126.21 229.12L129.07 229.12L129.07 229.75L126.82 229.75L126.68 231.14L127.24 231.14ZM131.78 228.1L132.41 228.1L130.03 234.91L129.4 234.91ZM133.72 230.32Q134.51 230.32 134.93 230.71Q135.36 231.1 135.36 231.87L135.36 234.19L134.7 234.19L134.7 233.68Q134.52 233.95 134.2 234.09Q133.88 234.23 133.44 234.23Q132.8 234.23 132.41 233.92Q132.02 233.61 132.02 233.1Q132.02 232.6 132.39 232.29Q132.76 231.98 133.56 231.98L134.66 231.98L134.66 231.84Q134.66 231.4 134.4 231.16Q134.14 230.92 133.64 230.92Q133.3 230.92 132.97 231.03Q132.65 231.14 132.42 231.33L132.13 230.81Q132.43 230.57 132.84 230.44Q133.25 230.32 133.72 230.32ZM133.56 233.69Q133.95 233.69 134.24 233.52Q134.53 233.34 134.66 233.01L134.66 232.48L133.59 232.48Q132.71 232.48 132.71 233.07Q132.71 233.36 132.93 233.53Q133.16 233.69 133.56 233.69ZM140.28 228.82L140.28 234.19L139.61 234.19L139.61 233.58Q139.38 233.9 139.03 234.06Q138.67 234.23 138.25 234.23Q137.69 234.23 137.25 233.98Q136.81 233.74 136.56 233.29Q136.31 232.85 136.31 232.27Q136.31 231.69 136.56 231.25Q136.81 230.81 137.25 230.56Q137.69 230.32 138.25 230.32Q138.66 230.32 139.01 230.47Q139.35 230.63 139.59 230.93L139.59 228.82ZM138.31 233.62Q138.67 233.62 138.96 233.45Q139.26 233.28 139.43 232.97Q139.59 232.67 139.59 232.27Q139.59 231.87 139.43 231.57Q139.26 231.26 138.96 231.09Q138.67 230.93 138.31 230.93Q137.94 230.93 137.64 231.09Q137.35 231.26 137.18 231.57Q137.01 231.87 137.01 232.27Q137.01 232.67 137.18 232.97Q137.35 233.28 137.64 233.45Q137.94 233.62 138.31 233.62ZM146.39 230.32Q147.11 230.32 147.53 230.74Q147.96 231.16 147.96 231.98L147.96 234.19L147.26 234.19L147.26 232.06Q147.26 231.5 147.01 231.22Q146.75 230.94 146.27 230.94Q145.75 230.94 145.43 231.27Q145.12 231.6 145.12 232.21L145.12 234.19L144.43 234.19L144.43 232.06Q144.43 231.5 144.17 231.22Q143.92 230.94 143.44 230.94Q142.91 230.94 142.6 231.27Q142.29 231.6 142.29 232.21L142.29 234.19L141.6 234.19L141.6 230.35L142.26 230.35L142.26 230.93Q142.47 230.63 142.81 230.47Q143.15 230.32 143.58 230.32Q144.03 230.32 144.38 230.5Q144.73 230.68 144.91 231.03Q145.13 230.69 145.52 230.51Q145.9 230.32 146.39 230.32ZM149.24 230.35L149.93 230.35L149.93 234.19L149.24 234.19ZM149.58 229.62Q149.38 229.62 149.25 229.49Q149.11 229.36 149.11 229.17Q149.11 228.98 149.25 228.85Q149.38 228.71 149.58 228.71Q149.79 228.71 149.92 228.84Q150.05 228.97 150.05 229.15Q150.05 229.35 149.92 229.48Q149.79 229.62 149.58 229.62ZM153.3 230.32Q154.03 230.32 154.46 230.74Q154.89 231.16 154.89 231.98L154.89 234.19L154.2 234.19L154.2 232.06Q154.2 231.5 153.93 231.22Q153.66 230.94 153.16 230.94Q152.6 230.94 152.27 231.27Q151.95 231.6 151.95 232.21L151.95 234.19L151.25 234.19L151.25 230.35L151.92 230.35L151.92 230.93Q152.13 230.64 152.49 230.48Q152.85 230.32 153.3 230.32ZM157.7 228.1L158.33 228.1L155.95 234.91L155.32 234.91ZM163.03 230.32Q163.75 230.32 164.18 230.74Q164.6 231.16 164.6 231.98L164.6 234.19L163.91 234.19L163.91 232.06Q163.91 231.5 163.65 231.22Q163.39 230.94 162.92 230.94Q162.39 230.94 162.08 231.27Q161.77 231.6 161.77 232.21L161.77 234.19L161.07 234.19L161.07 232.06Q161.07 231.5 160.82 231.22Q160.56 230.94 160.08 230.94Q159.55 230.94 159.24 231.27Q158.93 231.6 158.93 232.21L158.93 234.19L158.24 234.19L158.24 230.35L158.9 230.35L158.9 230.93Q159.11 230.63 159.45 230.47Q159.79 230.32 160.23 230.32Q160.68 230.32 161.02 230.5Q161.37 230.68 161.56 231.03Q161.77 230.69 162.16 230.51Q162.55 230.32 163.03 230.32ZM167.54 234.23Q166.97 234.23 166.52 233.98Q166.06 233.72 165.8 233.28Q165.55 232.83 165.55 232.27Q165.55 231.71 165.8 231.26Q166.06 230.82 166.52 230.57Q166.97 230.32 167.54 230.32Q168.11 230.32 168.57 230.57Q169.02 230.82 169.27 231.26Q169.53 231.71 169.53 232.27Q169.53 232.83 169.27 233.28Q169.02 233.72 168.57 233.98Q168.11 234.23 167.54 234.23ZM167.54 233.62Q167.91 233.62 168.2 233.45Q168.5 233.28 168.66 232.97Q168.83 232.67 168.83 232.27Q168.83 231.87 168.66 231.57Q168.5 231.26 168.2 231.09Q167.91 230.93 167.54 230.93Q167.17 230.93 166.88 231.09Q166.59 231.26 166.42 231.57Q166.25 231.87 166.25 232.27Q166.25 232.67 166.42 232.97Q166.59 233.28 166.88 233.45Q167.17 233.62 167.54 233.62ZM174.11 228.82L174.11 234.19L173.44 234.19L173.44 233.58Q173.21 233.9 172.86 234.06Q172.5 234.23 172.08 234.23Q171.52 234.23 171.08 233.98Q170.64 233.74 170.39 233.29Q170.14 232.85 170.14 232.27Q170.14 231.69 170.39 231.25Q170.64 230.81 171.08 230.56Q171.52 230.32 172.08 230.32Q172.49 230.32 172.84 230.47Q173.18 230.63 173.41 230.93L173.41 228.82ZM172.13 233.62Q172.5 233.62 172.79 233.45Q173.09 233.28 173.25 232.97Q173.42 232.67 173.42 232.27Q173.42 231.87 173.25 231.57Q173.09 231.26 172.79 231.09Q172.5 230.93 172.13 230.93Q171.77 230.93 171.47 231.09Q171.18 231.26 171.01 231.57Q170.84 231.87 170.84 232.27Q170.84 232.67 171.01 232.97Q171.18 233.28 171.47 233.45Q171.77 233.62 172.13 233.62ZM178.89 232.29Q178.89 232.37 178.87 232.5L175.76 232.5Q175.83 233.01 176.21 233.31Q176.59 233.62 177.15 233.62Q177.84 233.62 178.26 233.16L178.64 233.61Q178.38 233.91 177.99 234.07Q177.61 234.23 177.13 234.23Q176.52 234.23 176.05 233.98Q175.58 233.73 175.33 233.28Q175.07 232.83 175.07 232.27Q175.07 231.71 175.32 231.27Q175.57 230.82 176.01 230.57Q176.44 230.32 176.99 230.32Q177.54 230.32 177.97 230.57Q178.4 230.82 178.64 231.27Q178.89 231.71 178.89 232.29ZM176.99 230.9Q176.49 230.9 176.16 231.21Q175.82 231.51 175.76 232L178.22 232Q178.16 231.52 177.83 231.21Q177.49 230.9 176.99 230.9ZM180.95 234.23Q180.48 234.23 180.04 234.1Q179.61 233.98 179.36 233.78L179.65 233.23Q179.91 233.41 180.27 233.52Q180.63 233.63 181 233.63Q181.91 233.63 181.91 233.11Q181.91 232.94 181.79 232.83Q181.66 232.73 181.48 232.69Q181.29 232.64 180.95 232.58Q180.49 232.51 180.2 232.41Q179.91 232.32 179.7 232.1Q179.49 231.87 179.49 231.47Q179.49 230.95 179.92 230.63Q180.35 230.32 181.08 230.32Q181.47 230.32 181.85 230.41Q182.23 230.51 182.48 230.66L182.18 231.21Q181.71 230.91 181.08 230.91Q180.64 230.91 180.41 231.06Q180.17 231.2 180.17 231.44Q180.17 231.63 180.3 231.73Q180.43 231.84 180.63 231.89Q180.82 231.94 181.16 232.01Q181.63 232.09 181.91 232.18Q182.2 232.27 182.4 232.49Q182.6 232.7 182.6 233.09Q182.6 233.61 182.16 233.92Q181.71 234.23 180.95 234.23ZM183.64 234.23Q183.43 234.23 183.29 234.09Q183.15 233.95 183.15 233.73Q183.15 233.52 183.29 233.38Q183.43 233.24 183.64 233.24Q183.84 233.24 183.98 233.38Q184.11 233.51 184.11 233.73Q184.11 233.95 183.97 234.09Q183.83 234.23 183.64 234.23ZM187.16 230.32Q187.89 230.32 188.32 230.74Q188.75 231.16 188.75 231.98L188.75 234.19L188.05 234.19L188.05 232.06Q188.05 231.5 187.79 231.22Q187.52 230.94 187.02 230.94Q186.46 230.94 186.13 231.27Q185.81 231.6 185.81 232.21L185.81 234.19L185.11 234.19L185.11 228.82L185.81 228.82L185.81 230.9Q186.02 230.62 186.37 230.47Q186.72 230.32 187.16 230.32ZM192.19 233.96Q192.04 234.09 191.81 234.16Q191.59 234.23 191.35 234.23Q190.77 234.23 190.45 233.92Q190.14 233.61 190.14 233.03L190.14 230.93L189.49 230.93L189.49 230.35L190.14 230.35L190.14 229.52L190.83 229.52L190.83 230.35L191.93 230.35L191.93 230.93L190.83 230.93L190.83 233Q190.83 233.31 190.99 233.48Q191.14 233.64 191.43 233.64Q191.75 233.64 191.97 233.46ZM197.82 230.32Q198.54 230.32 198.97 230.74Q199.39 231.16 199.39 231.98L199.39 234.19L198.7 234.19L198.7 232.06Q198.7 231.5 198.44 231.22Q198.18 230.94 197.71 230.94Q197.18 230.94 196.87 231.27Q196.56 231.6 196.56 232.21L196.56 234.19L195.86 234.19L195.86 232.06Q195.86 231.5 195.61 231.22Q195.35 230.94 194.87 230.94Q194.34 230.94 194.03 231.27Q193.72 231.6 193.72 232.21L193.72 234.19L193.03 234.19L193.03 230.35L193.69 230.35L193.69 230.93Q193.9 230.63 194.24 230.47Q194.58 230.32 195.02 230.32Q195.46 230.32 195.81 230.5Q196.16 230.68 196.35 231.03Q196.56 230.69 196.95 230.51Q197.34 230.32 197.82 230.32ZM200.67 228.82L201.36 228.82L201.36 234.19L200.67 234.19Z" aria-label="https://example.com/docs/hyper/2.5/admin/modes.html"/></g></g>
 </g>
</svg>