<svg width="107.99mm" height="7.5333mm" version="1.1" viewBox="0 0 107.99 7.5333" xmlns="http://www.w3.org/2000/svg" xmlns:cc="http://creativecommons.org/ns#" xmlns:dc="http://purl.org/dc/elements/1.1/" xmlns:rdf="http://www.w3.org/1999/02/22-rdf-syntax-ns#">
 <title>Resource URL for a page generated by Antora</title>
 <metadata>
  <rdf:RDF>
   <cc:Work rdf:about="">
    <dc:format>image/svg+xml</dc:format>
    <dc:type rdf:resource="http://purl.org/dc/dcmitype/StillImage"/>
    <dc:title>Resource URL for a page generated by Antora</dc:title>
    <dc:creator>
     <cc:Agent>
      <dc:title>Sarah White</dc:title>
     </cc:Agent>
    </dc:creator>
    <dc:publisher>
     <cc:Agent>
      <dc:title>OpenDevise Inc.</dc:title>
     </cc:Agent>
    </dc:publisher>
    <dc:subject>
     <rdf:Bag>
      <rdf:li>Antora</rdf:li>
      <rdf:li>resource URL</rdf:li>
     </rdf:Bag>
    </dc:subject>
    <cc:license rdf:resource="http://creativecommons.org/licenses/by-sa/4.0/"/>
   </cc:Work>
   <cc:License rdf:about="http://creativecommons.org/licenses/by-sa/4.0/">
    <cc:permits rdf:resource="http://creativecommons.org/ns#Reproduction"/>
    <cc:permits rdf:resource="http://creativecommons.org/ns#Distribution"/>
    <cc:requires rdf:resource="http://creativecommons.org/ns#Notice"/>
    <cc:requires rdf:resource="http://creativecommons.org/ns#Attribution"/>
    <cc:permits rdf:resource="http://creativecommons.org/ns#DerivativeWorks"/>
    <cc:requires rdf:resource="http://creativecommons.org/ns#ShareAlike"/>
   </cc:License>
  </rdf:RDF>
 </metadata>
 <g transform="translate(2.0981e-8 -155.6)">
  <rect y="155.6" width="107.99" height="7.533" fill="#fff"/>
  <g transform="scale(1 .99998)" fill="#242424" stroke-width=".0727px" word-spacing="0px" style="font-feature-settings:normal;font-variant-caps:normal;font-variant-ligatures:normal;font-variant-numeric:normal;line-height:0%" xml:space="preserve"><g fill="#242424" stroke-width=".0727px" style="font-feature-settings:normal;font-variant-caps:normal;font-variant-ligatures:normal;font-variant-numeric:normal;line-height:125%"><path d="M2.39 155.6L3.01 155.6L0.63 162.41L0 162.41ZM5.45 157.82Q6.18 157.82 6.61 158.24Q7.04 158.67 7.04 159.48L7.04 161.69L6.35 161.69L6.35 159.56Q6.35 159.01 6.08 158.73Q5.81 158.44 5.31 158.44Q4.75 158.44 4.42 158.77Q4.1 159.1 4.1 159.72L4.1 161.69L3.41 161.69L3.41 156.32L4.1 156.32L4.1 158.4Q4.32 158.12 4.67 157.97Q5.02 157.82 5.45 157.82ZM11.65 157.86L9.79 162.07Q9.54 162.66 9.21 162.9Q8.89 163.14 8.42 163.14Q8.14 163.14 7.88 163.04Q7.61 162.95 7.44 162.78L7.74 162.26Q8.03 162.54 8.42 162.54Q8.68 162.54 8.85 162.41Q9.02 162.27 9.15 161.95L9.28 161.68L7.58 157.86L8.31 157.86L9.64 160.92L10.97 157.86ZM14.33 157.82Q14.89 157.82 15.33 158.07Q15.77 158.31 16.02 158.75Q16.27 159.2 16.27 159.77Q16.27 160.35 16.02 160.8Q15.77 161.24 15.33 161.49Q14.89 161.73 14.33 161.73Q13.92 161.73 13.57 161.57Q13.23 161.41 12.99 161.11L12.99 163.09L12.3 163.09L12.3 157.86L12.96 157.86L12.96 158.46Q13.19 158.15 13.55 157.98Q13.9 157.82 14.33 157.82ZM14.27 161.13Q14.64 161.13 14.93 160.96Q15.23 160.79 15.4 160.48Q15.57 160.17 15.57 159.77Q15.57 159.38 15.4 159.07Q15.23 158.76 14.93 158.59Q14.64 158.43 14.27 158.43Q13.91 158.43 13.62 158.6Q13.32 158.77 13.15 159.07Q12.98 159.38 12.98 159.77Q12.98 160.17 13.15 160.48Q13.32 160.79 13.61 160.96Q13.91 161.13 14.27 161.13ZM20.69 159.8Q20.69 159.87 20.68 160L17.57 160Q17.63 160.51 18.01 160.82Q18.39 161.13 18.96 161.13Q19.64 161.13 20.06 160.66L20.45 161.11Q20.19 161.41 19.8 161.57Q19.41 161.73 18.93 161.73Q18.33 161.73 17.86 161.48Q17.39 161.23 17.13 160.79Q16.87 160.34 16.87 159.77Q16.87 159.22 17.12 158.77Q17.37 158.32 17.81 158.07Q18.25 157.82 18.8 157.82Q19.35 157.82 19.78 158.07Q20.21 158.32 20.45 158.77Q20.69 159.22 20.69 159.8ZM18.8 158.41Q18.3 158.41 17.96 158.71Q17.63 159.01 17.57 159.51L20.03 159.51Q19.97 159.02 19.63 158.71Q19.3 158.41 18.8 158.41ZM22.32 158.5Q22.5 158.17 22.85 157.99Q23.21 157.82 23.71 157.82L23.71 158.49Q23.66 158.49 23.55 158.49Q22.99 158.49 22.67 158.82Q22.35 159.16 22.35 159.78L22.35 161.69L21.65 161.69L21.65 157.86L22.32 157.86L22.32 158.5ZM25.85 155.6L26.48 155.6L24.1 162.41L23.47 162.41ZM30.12 161.06L30.12 161.69L26.48 161.69L26.48 161.2L28.54 159.21Q28.92 158.85 29.05 158.58Q29.18 158.32 29.18 158.05Q29.18 157.66 28.9 157.43Q28.62 157.21 28.1 157.21Q27.26 157.21 26.81 157.76L26.32 157.34Q26.61 156.98 27.09 156.77Q27.57 156.57 28.17 156.57Q28.96 156.57 29.43 156.95Q29.9 157.33 29.9 157.98Q29.9 158.39 29.73 158.75Q29.56 159.11 29.07 159.57L27.52 161.06ZM31.26 161.73Q31.06 161.73 30.91 161.59Q30.77 161.45 30.77 161.23Q30.77 161.02 30.91 160.88Q31.06 160.74 31.26 160.74Q31.46 160.74 31.6 160.88Q31.74 161.02 31.74 161.23Q31.74 161.45 31.6 161.59Q31.46 161.73 31.26 161.73ZM33.87 158.65Q34.96 158.65 35.47 159.05Q35.98 159.46 35.98 160.17Q35.98 160.62 35.76 160.98Q35.55 161.34 35.12 161.54Q34.69 161.75 34.06 161.75Q33.52 161.75 33.03 161.58Q32.53 161.42 32.2 161.13L32.53 160.56Q32.79 160.81 33.2 160.96Q33.6 161.1 34.05 161.1Q34.62 161.1 34.94 160.86Q35.25 160.62 35.25 160.2Q35.25 159.74 34.91 159.51Q34.56 159.27 33.72 159.27L32.57 159.27L32.84 156.63L35.69 156.63L35.69 157.26L33.45 157.26L33.31 158.65L33.87 158.65ZM38.41 155.6L39.04 155.6L36.66 162.41L36.03 162.41ZM40.34 157.82Q41.14 157.82 41.56 158.21Q41.98 158.6 41.98 159.38L41.98 161.69L41.33 161.69L41.33 161.18Q41.15 161.45 40.83 161.59Q40.51 161.73 40.07 161.73Q39.42 161.73 39.04 161.42Q38.65 161.11 38.65 160.6Q38.65 160.1 39.02 159.79Q39.39 159.48 40.19 159.48L41.29 159.48L41.29 159.35Q41.29 158.9 41.03 158.66Q40.77 158.42 40.26 158.42Q39.92 158.42 39.6 158.53Q39.27 158.65 39.05 158.83L38.76 158.31Q39.06 158.07 39.47 157.95Q39.88 157.82 40.34 157.82ZM40.18 161.2Q40.58 161.2 40.87 161.02Q41.16 160.84 41.29 160.52L41.29 159.98L40.22 159.98Q39.34 159.98 39.34 160.58Q39.34 160.87 39.56 161.03Q39.79 161.2 40.18 161.2ZM46.91 156.32L46.91 161.69L46.24 161.69L46.24 161.08Q46.01 161.4 45.66 161.57Q45.3 161.73 44.88 161.73Q44.32 161.73 43.88 161.49Q43.44 161.24 43.19 160.8Q42.94 160.35 42.94 159.77Q42.94 159.2 43.19 158.75Q43.44 158.31 43.88 158.07Q44.32 157.82 44.88 157.82Q45.29 157.82 45.63 157.98Q45.98 158.13 46.21 158.44L46.21 156.32ZM44.93 161.13Q45.29 161.13 45.59 160.96Q45.89 160.79 46.05 160.48Q46.22 160.17 46.22 159.77Q46.22 159.38 46.05 159.07Q45.89 158.76 45.59 158.59Q45.29 158.43 44.93 158.43Q44.56 158.43 44.27 158.59Q43.98 158.76 43.81 159.07Q43.64 159.38 43.64 159.77Q43.64 160.17 43.81 160.48Q43.98 160.79 44.27 160.96Q44.56 161.13 44.93 161.13ZM53.02 157.82Q53.74 157.82 54.16 158.24Q54.58 158.66 54.58 159.48L54.58 161.69L53.89 161.69L53.89 159.56Q53.89 159.01 53.63 158.73Q53.38 158.44 52.9 158.44Q52.37 158.44 52.06 158.77Q51.75 159.1 51.75 159.72L51.75 161.69L51.06 161.69L51.06 159.56Q51.06 159.01 50.8 158.73Q50.54 158.44 50.07 158.44Q49.54 158.44 49.23 158.77Q48.92 159.1 48.92 159.72L48.92 161.69L48.22 161.69L48.22 157.86L48.89 157.86L48.89 158.43Q49.1 158.13 49.44 157.98Q49.78 157.82 50.21 157.82Q50.66 157.82 51.01 158Q51.35 158.18 51.54 158.53Q51.76 158.2 52.14 158.01Q52.53 157.82 53.02 157.82ZM55.86 157.86L56.56 157.86L56.56 161.69L55.86 161.69ZM56.21 157.12Q56.01 157.12 55.88 156.99Q55.74 156.86 55.74 156.67Q55.74 156.48 55.88 156.35Q56.01 156.22 56.21 156.22Q56.41 156.22 56.55 156.34Q56.68 156.47 56.68 156.66Q56.68 156.85 56.55 156.99Q56.41 157.12 56.21 157.12ZM59.93 157.82Q60.66 157.82 61.09 158.24Q61.52 158.67 61.52 159.48L61.52 161.69L60.82 161.69L60.82 159.56Q60.82 159.01 60.56 158.73Q60.29 158.44 59.79 158.44Q59.23 158.44 58.9 158.77Q58.58 159.1 58.58 159.72L58.58 161.69L57.88 161.69L57.88 157.86L58.55 157.86L58.55 158.44Q58.76 158.14 59.11 157.98Q59.47 157.82 59.93 157.82ZM64.33 155.6L64.96 155.6L62.57 162.41L61.94 162.41ZM69.66 157.82Q70.38 157.82 70.81 158.24Q71.23 158.66 71.23 159.48L71.23 161.69L70.53 161.69L70.53 159.56Q70.53 159.01 70.28 158.73Q70.02 158.44 69.54 158.44Q69.02 158.44 68.7 158.77Q68.39 159.1 68.39 159.72L68.39 161.69L67.7 161.69L67.7 159.56Q67.7 159.01 67.44 158.73Q67.19 158.44 66.71 158.44Q66.18 158.44 65.87 158.77Q65.56 159.1 65.56 159.72L65.56 161.69L64.87 161.69L64.87 157.86L65.53 157.86L65.53 158.43Q65.74 158.13 66.08 157.98Q66.42 157.82 66.85 157.82Q67.3 157.82 67.65 158Q68 158.18 68.18 158.53Q68.4 158.2 68.79 158.01Q69.17 157.82 69.66 157.82ZM74.17 161.73Q73.6 161.73 73.14 161.48Q72.69 161.23 72.43 160.78Q72.18 160.34 72.18 159.77Q72.18 159.21 72.43 158.76Q72.69 158.32 73.14 158.07Q73.6 157.82 74.17 157.82Q74.74 157.82 75.19 158.07Q75.65 158.32 75.9 158.76Q76.16 159.21 76.16 159.77Q76.16 160.34 75.9 160.78Q75.65 161.23 75.19 161.48Q74.74 161.73 74.17 161.73ZM74.17 161.13Q74.54 161.13 74.83 160.96Q75.12 160.79 75.29 160.48Q75.46 160.17 75.46 159.77Q75.46 159.38 75.29 159.07Q75.12 158.76 74.83 158.59Q74.54 158.43 74.17 158.43Q73.8 158.43 73.51 158.59Q73.22 158.76 73.05 159.07Q72.88 159.38 72.88 159.77Q72.88 160.17 73.05 160.48Q73.22 160.79 73.51 160.96Q73.8 161.13 74.17 161.13ZM80.74 156.32L80.74 161.69L80.07 161.69L80.07 161.08Q79.84 161.4 79.48 161.57Q79.13 161.73 78.7 161.73Q78.15 161.73 77.71 161.49Q77.26 161.24 77.02 160.8Q76.77 160.35 76.77 159.77Q76.77 159.2 77.02 158.75Q77.26 158.31 77.71 158.07Q78.15 157.82 78.7 157.82Q79.12 157.82 79.46 157.98Q79.81 158.13 80.04 158.44L80.04 156.32ZM78.76 161.13Q79.12 161.13 79.42 160.96Q79.72 160.79 79.88 160.48Q80.05 160.17 80.05 159.77Q80.05 159.38 79.88 159.07Q79.72 158.76 79.42 158.59Q79.12 158.43 78.76 158.43Q78.39 158.43 78.1 158.59Q77.81 158.76 77.64 159.07Q77.47 159.38 77.47 159.77Q77.47 160.17 77.64 160.48Q77.81 160.79 78.1 160.96Q78.39 161.13 78.76 161.13ZM85.51 159.8Q85.51 159.87 85.5 160L82.39 160Q82.46 160.51 82.84 160.82Q83.21 161.13 83.78 161.13Q84.47 161.13 84.89 160.66L85.27 161.11Q85.01 161.41 84.62 161.57Q84.23 161.73 83.76 161.73Q83.15 161.73 82.68 161.48Q82.21 161.23 81.95 160.79Q81.7 160.34 81.7 159.77Q81.7 159.22 81.95 158.77Q82.2 158.32 82.63 158.07Q83.07 157.82 83.62 157.82Q84.17 157.82 84.6 158.07Q85.03 158.32 85.27 158.77Q85.51 159.22 85.51 159.8ZM83.62 158.41Q83.12 158.41 82.78 158.71Q82.45 159.01 82.39 159.51L84.85 159.51Q84.79 159.02 84.45 158.71Q84.12 158.41 83.62 158.41ZM87.57 161.73Q87.1 161.73 86.67 161.61Q86.24 161.48 85.99 161.28L86.28 160.73Q86.53 160.92 86.89 161.02Q87.26 161.13 87.63 161.13Q88.54 161.13 88.54 160.61Q88.54 160.44 88.41 160.34Q88.29 160.24 88.11 160.19Q87.92 160.14 87.58 160.08Q87.12 160.01 86.83 159.92Q86.53 159.82 86.32 159.6Q86.11 159.38 86.11 158.97Q86.11 158.45 86.55 158.14Q86.98 157.82 87.71 157.82Q88.1 157.82 88.48 157.92Q88.86 158.01 89.11 158.17L88.81 158.72Q88.34 158.41 87.7 158.41Q87.26 158.41 87.03 158.56Q86.8 158.7 86.8 158.94Q86.8 159.13 86.93 159.24Q87.06 159.35 87.25 159.4Q87.44 159.45 87.79 159.51Q88.25 159.59 88.54 159.68Q88.83 159.77 89.03 159.99Q89.23 160.21 89.23 160.6Q89.23 161.12 88.79 161.43Q88.34 161.73 87.57 161.73ZM90.26 161.73Q90.06 161.73 89.92 161.59Q89.77 161.45 89.77 161.23Q89.77 161.02 89.92 160.88Q90.06 160.74 90.26 160.74Q90.47 160.74 90.6 160.88Q90.74 161.02 90.74 161.23Q90.74 161.45 90.6 161.59Q90.46 161.73 90.26 161.73ZM93.78 157.82Q94.52 157.82 94.95 158.24Q95.38 158.67 95.38 159.48L95.38 161.69L94.68 161.69L94.68 159.56Q94.68 159.01 94.41 158.73Q94.15 158.44 93.65 158.44Q93.08 158.44 92.76 158.77Q92.43 159.1 92.43 159.72L92.43 161.69L91.74 161.69L91.74 156.32L92.43 156.32L92.43 158.4Q92.65 158.12 93 157.97Q93.35 157.82 93.78 157.82ZM98.82 161.47Q98.67 161.6 98.44 161.66Q98.22 161.73 97.98 161.73Q97.4 161.73 97.08 161.42Q96.76 161.11 96.76 160.53L96.76 158.43L96.11 158.43L96.11 157.86L96.76 157.86L96.76 157.02L97.46 157.02L97.46 157.86L98.56 157.86L98.56 158.43L97.46 158.43L97.46 160.5Q97.46 160.81 97.61 160.98Q97.77 161.15 98.06 161.15Q98.38 161.15 98.6 160.97ZM104.45 157.82Q105.17 157.82 105.59 158.24Q106.02 158.66 106.02 159.48L106.02 161.69L105.32 161.69L105.32 159.56Q105.32 159.01 105.07 158.73Q104.81 158.44 104.33 158.44Q103.81 158.44 103.49 158.77Q103.18 159.1 103.18 159.72L103.18 161.69L102.49 161.69L102.49 159.56Q102.49 159.01 102.23 158.73Q101.98 158.44 101.5 158.44Q100.97 158.44 100.66 158.77Q100.35 159.1 100.35 159.72L100.35 161.69L99.66 161.69L99.66 157.86L100.32 157.86L100.32 158.43Q100.53 158.13 100.87 157.98Q101.21 157.82 101.64 157.82Q102.09 157.82 102.44 158Q102.79 158.18 102.97 158.53Q103.19 158.2 103.58 158.01Q103.96 157.82 104.45 157.82ZM107.3 156.32L107.99 156.32L107.99 161.69L107.3 161.69Z" aria-label="/hyper/2.5/admin/modes.html"/></g></g>
 </g>
</svg>