<svg width="158.03mm" height="62.994mm" version="1.1" viewBox="0 0 158.03 62.994" xmlns="http://www.w3.org/2000/svg" xmlns:cc="http://creativecommons.org/ns#" xmlns:dc="http://purl.org/dc/elements/1.1/" xmlns:rdf="http://www.w3.org/1999/02/22-rdf-syntax-ns#">
 <title>Resource URL segments for an image page generated by Antora</title>
 <metadata>
  <rdf:RDF>
   <cc:Work rdf:about="">
    <dc:format>image/svg+xml</dc:format>
    <dc:type rdf:resource="http://purl.org/dc/dcmitype/StillImage"/>
    <dc:title>Resource URL segments for an image page generated by Antora</dc:title>
    <dc:creator>
     <cc:Agent>
      <dc:title>Sarah White</dc:title>
     </cc:Agent>
    </dc:creator>
    <dc:publisher>
     <cc:Agent>
      <dc:title>OpenDevise Inc.</dc:title>
     </cc:Agent>
    </dc:publisher>
    <dc:subject>
     <rdf:Bag>
      <rdf:li>Antora</rdf:li>
      <rdf:li>image URL segments</rdf:li>
     </rdf:Bag>
    </dc:subject>
    <cc:license rdf:resource="http://creativecommons.org/licenses/by-sa/4.0/"/>
   </cc:Work>
   <cc:License rdf:about="http://creativecommons.org/licenses/by-sa/4.0/">
    <cc:permits rdf:resource="http://creativecommons.org/ns#Reproduction"/>
    <cc:permits rdf:resource="http://creativecommons.org/ns#Distribution"/>
    <cc:requires rdf:resource="http://creativecommons.org/ns#Notice"/>
    <cc:requires rdf:resource="http://creativecommons.org/ns#Attribution"/>
    <cc:permits rdf:resource="http://creativecommons.org/ns#DerivativeWorks"/>
    <cc:requires rdf:resource="http://creativecommons.org/ns#ShareAlike"/>
   </cc:License>
  </rdf:RDF>
 </metadata>
 <g transform="translate(3.8695e-7 -228.09)">
  <g>
   <rect y="228.09" width="158.03" height="62.994" fill="#fff"/>
   <g transform="scale(1 .99998)" fill="#242424" stroke-width=".0727px" word-spacing="0px" style="font-feature-settings:normal;font-variant-caps:normal;font-variant-ligatures:normal;font-variant-numeric:normal;line-height:0%" xml:space="preserve"><g stroke-width=".0727px" style="font-feature-settings:normal;font-variant-caps:normal;font-variant-ligatures:normal;font-variant-numeric:normal;line-height:125%"><path d="M6.49 255.71L7.12 255.71L4.73 262.52L4.1 262.52Z" aria-label="/"/><g fill="#9340a4" stroke-width=".0727px"><path d="M9.55 257.92Q10.28 257.92 10.71 258.35Q11.14 258.77 11.14 259.59L11.14 261.79L10.45 261.79L10.45 259.67Q10.45 259.11 10.18 258.83Q9.91 258.55 9.42 258.55Q8.85 258.55 8.53 258.88Q8.2 259.2 8.2 259.82L8.2 261.79L7.51 261.79L7.51 256.43L8.2 256.43L8.2 258.5Q8.42 258.23 8.77 258.08Q9.12 257.92 9.55 257.92ZM15.75 257.96L13.89 262.18Q13.65 262.76 13.32 263Q12.99 263.24 12.52 263.24Q12.24 263.24 11.98 263.15Q11.71 263.06 11.54 262.88L11.84 262.36Q12.13 262.65 12.52 262.65Q12.78 262.65 12.95 262.51Q13.12 262.38 13.25 262.05L13.38 261.79L11.69 257.96L12.41 257.96L13.75 261.03L15.07 257.96ZM18.43 257.92Q18.99 257.92 19.43 258.17Q19.87 258.42 20.12 258.86Q20.37 259.3 20.37 259.88Q20.37 260.46 20.12 260.9Q19.87 261.34 19.43 261.59Q18.99 261.84 18.43 261.84Q18.02 261.84 17.68 261.68Q17.33 261.52 17.09 261.21L17.09 263.2L16.4 263.2L16.4 257.96L17.06 257.96L17.06 258.57Q17.3 258.25 17.65 258.09Q18 257.92 18.43 257.92ZM18.37 261.23Q18.74 261.23 19.04 261.06Q19.33 260.89 19.5 260.58Q19.67 260.27 19.67 259.88Q19.67 259.48 19.5 259.17Q19.33 258.86 19.04 258.7Q18.74 258.53 18.37 258.53Q18.01 258.53 17.72 258.7Q17.43 258.87 17.26 259.18Q17.09 259.48 17.09 259.88Q17.09 260.27 17.25 260.58Q17.42 260.89 17.72 261.06Q18.01 261.23 18.37 261.23ZM24.79 259.9Q24.79 259.98 24.78 260.11L21.67 260.11Q21.74 260.61 22.11 260.92Q22.49 261.23 23.06 261.23Q23.75 261.23 24.16 260.77L24.55 261.21Q24.29 261.52 23.9 261.68Q23.51 261.84 23.04 261.84Q22.43 261.84 21.96 261.59Q21.49 261.34 21.23 260.89Q20.98 260.44 20.98 259.88Q20.98 259.32 21.23 258.87Q21.48 258.42 21.91 258.17Q22.35 257.92 22.9 257.92Q23.45 257.92 23.88 258.17Q24.31 258.42 24.55 258.87Q24.79 259.32 24.79 259.9ZM22.9 258.51Q22.4 258.51 22.06 258.81Q21.73 259.12 21.67 259.61L24.13 259.61Q24.07 259.12 23.73 258.82Q23.4 258.51 22.9 258.51ZM26.42 258.6Q26.6 258.27 26.96 258.1Q27.31 257.92 27.82 257.92L27.82 258.6Q27.76 258.59 27.66 258.59Q27.09 258.59 26.77 258.93Q26.45 259.26 26.45 259.88L26.45 261.79L25.76 261.79L25.76 257.96L26.42 257.96L26.42 258.6Z" aria-label="hyper"/></g><path d="M30.24 255.71L30.87 255.71L28.49 262.52L27.86 262.52Z" aria-label="/"/><g fill="#de4c36"><path d="M34.51 261.16L34.51 261.79L30.87 261.79L30.87 261.3L32.93 259.31Q33.31 258.95 33.44 258.69Q33.57 258.42 33.57 258.16Q33.57 257.76 33.29 257.54Q33.01 257.32 32.49 257.32Q31.65 257.32 31.2 257.87L30.71 257.44Q31 257.08 31.48 256.88Q31.97 256.67 32.56 256.67Q33.35 256.67 33.82 257.05Q34.29 257.43 34.29 258.08Q34.29 258.49 34.12 258.85Q33.95 259.21 33.46 259.67L31.91 261.16ZM35.65 261.84Q35.45 261.84 35.31 261.7Q35.16 261.55 35.16 261.34Q35.16 261.13 35.31 260.99Q35.45 260.85 35.65 260.85Q35.86 260.85 35.99 260.98Q36.13 261.12 36.13 261.34Q36.13 261.55 35.99 261.7Q35.85 261.84 35.65 261.84ZM38.26 258.75Q39.35 258.75 39.86 259.16Q40.37 259.57 40.37 260.27Q40.37 260.72 40.15 261.08Q39.94 261.44 39.51 261.64Q39.08 261.85 38.45 261.85Q37.92 261.85 37.42 261.69Q36.92 261.53 36.59 261.24L36.93 260.66Q37.19 260.91 37.59 261.06Q38 261.21 38.44 261.21Q39.01 261.21 39.33 260.96Q39.64 260.72 39.64 260.3Q39.64 259.85 39.3 259.61Q38.95 259.38 38.11 259.38L36.96 259.38L37.23 256.73L40.08 256.73L40.08 257.36L37.84 257.36L37.7 258.75L38.26 258.75Z" aria-label="2.5"/></g><path d="M42.8 255.71L43.43 255.71L41.05 262.52L40.42 262.52Z" aria-label="/"/><g fill="#b91d5e"><path d="M45.22 257.92Q46.01 257.92 46.44 258.32Q46.86 258.71 46.86 259.48L46.86 261.79L46.2 261.79L46.2 261.29Q46.03 261.55 45.71 261.7Q45.38 261.84 44.94 261.84Q44.3 261.84 43.91 261.53Q43.53 261.21 43.53 260.71Q43.53 260.2 43.89 259.89Q44.26 259.59 45.07 259.59L46.16 259.59L46.16 259.45Q46.16 259 45.9 258.76Q45.64 258.52 45.14 258.52Q44.8 258.52 44.47 258.64Q44.15 258.75 43.92 258.94L43.63 258.42Q43.93 258.18 44.34 258.05Q44.76 257.92 45.22 257.92ZM45.06 261.3Q45.46 261.3 45.75 261.12Q46.03 260.95 46.16 260.62L46.16 260.09L45.09 260.09Q44.21 260.09 44.21 260.68Q44.21 260.97 44.44 261.13Q44.66 261.3 45.06 261.3ZM51.78 256.43L51.78 261.79L51.12 261.79L51.12 261.19Q50.89 261.5 50.53 261.67Q50.18 261.84 49.75 261.84Q49.19 261.84 48.75 261.59Q48.31 261.34 48.06 260.9Q47.81 260.46 47.81 259.88Q47.81 259.3 48.06 258.86Q48.31 258.42 48.75 258.17Q49.19 257.92 49.75 257.92Q50.16 257.92 50.51 258.08Q50.86 258.24 51.09 258.54L51.09 256.43ZM49.81 261.23Q50.17 261.23 50.47 261.06Q50.76 260.89 50.93 260.58Q51.1 260.27 51.1 259.88Q51.1 259.48 50.93 259.17Q50.76 258.86 50.47 258.7Q50.17 258.53 49.81 258.53Q49.44 258.53 49.15 258.7Q48.85 258.86 48.68 259.17Q48.51 259.48 48.51 259.88Q48.51 260.27 48.68 260.58Q48.85 260.89 49.15 261.06Q49.44 261.23 49.81 261.23ZM57.89 257.92Q58.61 257.92 59.04 258.34Q59.46 258.76 59.46 259.59L59.46 261.79L58.77 261.79L58.77 259.67Q58.77 259.11 58.51 258.83Q58.25 258.55 57.78 258.55Q57.25 258.55 56.94 258.88Q56.63 259.2 56.63 259.82L56.63 261.79L55.93 261.79L55.93 259.67Q55.93 259.11 55.68 258.83Q55.42 258.55 54.94 258.55Q54.41 258.55 54.1 258.88Q53.79 259.2 53.79 259.82L53.79 261.79L53.1 261.79L53.1 257.96L53.76 257.96L53.76 258.53Q53.97 258.24 54.31 258.08Q54.65 257.92 55.09 257.92Q55.53 257.92 55.88 258.11Q56.23 258.29 56.42 258.63Q56.63 258.3 57.02 258.11Q57.41 257.92 57.89 257.92ZM60.74 257.96L61.43 257.96L61.43 261.79L60.74 261.79ZM61.09 257.22Q60.88 257.22 60.75 257.09Q60.62 256.96 60.62 256.78Q60.62 256.59 60.75 256.45Q60.88 256.32 61.09 256.32Q61.29 256.32 61.42 256.45Q61.56 256.57 61.56 256.76Q61.56 256.96 61.42 257.09Q61.29 257.22 61.09 257.22ZM64.8 257.92Q65.53 257.92 65.96 258.35Q66.39 258.77 66.39 259.59L66.39 261.79L65.7 261.79L65.7 259.67Q65.7 259.11 65.43 258.83Q65.16 258.55 64.67 258.55Q64.1 258.55 63.78 258.88Q63.45 259.2 63.45 259.82L63.45 261.79L62.76 261.79L62.76 257.96L63.42 257.96L63.42 258.54Q63.63 258.24 63.99 258.08Q64.35 257.92 64.8 257.92Z" aria-label="admin"/></g><path d="M69.21 255.71L69.84 255.71L67.45 262.52L66.82 262.52Z" aria-label="/"/><g fill="#2471dd"><path d="M69.57 261.79L73.18 261.79L73.18 262.24L69.57 262.24ZM73.84 257.96L74.53 257.96L74.53 261.79L73.84 261.79ZM74.19 257.22Q73.99 257.22 73.85 257.09Q73.72 256.96 73.72 256.78Q73.72 256.59 73.85 256.45Q73.99 256.32 74.19 256.32Q74.39 256.32 74.52 256.45Q74.66 256.57 74.66 256.76Q74.66 256.96 74.52 257.09Q74.39 257.22 74.19 257.22ZM80.65 257.92Q81.37 257.92 81.8 258.34Q82.22 258.76 82.22 259.59L82.22 261.79L81.53 261.79L81.53 259.67Q81.53 259.11 81.27 258.83Q81.01 258.55 80.54 258.55Q80.01 258.55 79.7 258.88Q79.39 259.2 79.39 259.82L79.39 261.79L78.69 261.79L78.69 259.67Q78.69 259.11 78.44 258.83Q78.18 258.55 77.7 258.55Q77.17 258.55 76.86 258.88Q76.55 259.2 76.55 259.82L76.55 261.79L75.86 261.79L75.86 257.96L76.52 257.96L76.52 258.53Q76.73 258.24 77.07 258.08Q77.41 257.92 77.85 257.92Q78.29 257.92 78.64 258.11Q78.99 258.29 79.18 258.63Q79.39 258.3 79.78 258.11Q80.17 257.92 80.65 257.92ZM84.89 257.92Q85.69 257.92 86.11 258.32Q86.54 258.71 86.54 259.48L86.54 261.79L85.88 261.79L85.88 261.29Q85.7 261.55 85.38 261.7Q85.06 261.84 84.62 261.84Q83.98 261.84 83.59 261.53Q83.2 261.21 83.2 260.71Q83.2 260.2 83.57 259.89Q83.94 259.59 84.74 259.59L85.84 259.59L85.84 259.45Q85.84 259 85.58 258.76Q85.32 258.52 84.82 258.52Q84.48 258.52 84.15 258.64Q83.82 258.75 83.6 258.94L83.31 258.42Q83.61 258.18 84.02 258.05Q84.43 257.92 84.89 257.92ZM84.74 261.3Q85.13 261.3 85.42 261.12Q85.71 260.95 85.84 260.62L85.84 260.09L84.77 260.09Q83.89 260.09 83.89 260.68Q83.89 260.97 84.11 261.13Q84.34 261.3 84.74 261.3ZM91.51 257.96L91.51 261.27Q91.51 262.28 91.01 262.76Q90.51 263.24 89.52 263.24Q88.98 263.24 88.49 263.09Q88 262.94 87.69 262.67L88.03 262.13Q88.29 262.36 88.69 262.5Q89.08 262.63 89.5 262.63Q90.17 262.63 90.49 262.31Q90.82 262 90.82 261.34L90.82 261.04Q90.57 261.34 90.21 261.49Q89.85 261.63 89.44 261.63Q88.89 261.63 88.44 261.4Q88 261.16 87.74 260.74Q87.49 260.32 87.49 259.78Q87.49 259.23 87.74 258.81Q88 258.39 88.44 258.16Q88.89 257.92 89.44 257.92Q89.87 257.92 90.24 258.08Q90.61 258.24 90.85 258.55L90.85 257.96ZM89.51 261.03Q89.89 261.03 90.19 260.87Q90.49 260.71 90.66 260.42Q90.83 260.14 90.83 259.78Q90.83 259.22 90.46 258.88Q90.09 258.53 89.51 258.53Q88.93 258.53 88.56 258.88Q88.19 259.22 88.19 259.78Q88.19 260.14 88.36 260.42Q88.53 260.71 88.83 260.87Q89.13 261.03 89.51 261.03ZM96.3 259.9Q96.3 259.98 96.28 260.11L93.17 260.11Q93.24 260.61 93.62 260.92Q94 261.23 94.56 261.23Q95.25 261.23 95.67 260.77L96.05 261.21Q95.79 261.52 95.4 261.68Q95.02 261.84 94.54 261.84Q93.93 261.84 93.46 261.59Q92.99 261.34 92.74 260.89Q92.48 260.44 92.48 259.88Q92.48 259.32 92.73 258.87Q92.98 258.42 93.42 258.17Q93.85 257.92 94.4 257.92Q94.95 257.92 95.38 258.17Q95.81 258.42 96.05 258.87Q96.3 259.32 96.3 259.9ZM94.4 258.51Q93.9 258.51 93.57 258.81Q93.23 259.12 93.17 259.61L95.63 259.61Q95.57 259.12 95.24 258.82Q94.9 258.51 94.4 258.51ZM98.36 261.84Q97.89 261.84 97.45 261.71Q97.02 261.58 96.77 261.39L97.06 260.84Q97.32 261.02 97.68 261.13Q98.04 261.24 98.41 261.24Q99.32 261.24 99.32 260.72Q99.32 260.54 99.2 260.44Q99.07 260.34 98.89 260.29Q98.7 260.25 98.36 260.19Q97.9 260.12 97.61 260.02Q97.32 259.93 97.11 259.7Q96.9 259.48 96.9 259.07Q96.9 258.55 97.33 258.24Q97.76 257.92 98.49 257.92Q98.88 257.92 99.26 258.02Q99.64 258.11 99.89 258.27L99.59 258.82Q99.12 258.52 98.49 258.52Q98.05 258.52 97.81 258.66Q97.58 258.81 97.58 259.05Q97.58 259.23 97.71 259.34Q97.84 259.45 98.04 259.5Q98.23 259.55 98.57 259.62Q99.04 259.7 99.32 259.79Q99.61 259.88 99.81 260.09Q100.01 260.31 100.01 260.7Q100.01 261.22 99.57 261.53Q99.12 261.84 98.36 261.84Z" aria-label="_images"/></g><path d="M102.41 255.71L103.03 255.71L100.65 262.52L100.02 262.52Z" aria-label="/"/><g fill="#199d4a"><path d="M107.04 256.43L107.04 261.79L106.37 261.79L106.37 261.19Q106.14 261.5 105.79 261.67Q105.43 261.84 105.01 261.84Q104.45 261.84 104.01 261.59Q103.57 261.34 103.32 260.9Q103.07 260.46 103.07 259.88Q103.07 259.3 103.32 258.86Q103.57 258.42 104.01 258.17Q104.45 257.92 105.01 257.92Q105.42 257.92 105.77 258.08Q106.11 258.24 106.35 258.54L106.35 256.43ZM105.07 261.23Q105.43 261.23 105.72 261.06Q106.02 260.89 106.19 260.58Q106.35 260.27 106.35 259.88Q106.35 259.48 106.19 259.17Q106.02 258.86 105.72 258.7Q105.43 258.53 105.07 258.53Q104.7 258.53 104.4 258.7Q104.11 258.86 103.94 259.17Q103.77 259.48 103.77 259.88Q103.77 260.27 103.94 260.58Q104.11 260.89 104.4 261.06Q104.7 261.23 105.07 261.23ZM109.75 257.92Q110.55 257.92 110.97 258.32Q111.39 258.71 111.39 259.48L111.39 261.79L110.73 261.79L110.73 261.29Q110.56 261.55 110.24 261.7Q109.92 261.84 109.48 261.84Q108.83 261.84 108.45 261.53Q108.06 261.21 108.06 260.71Q108.06 260.2 108.43 259.89Q108.8 259.59 109.6 259.59L110.7 259.59L110.7 259.45Q110.7 259 110.44 258.76Q110.18 258.52 109.67 258.52Q109.33 258.52 109.01 258.64Q108.68 258.75 108.46 258.94L108.17 258.42Q108.46 258.18 108.88 258.05Q109.29 257.92 109.75 257.92ZM109.59 261.3Q109.99 261.3 110.28 261.12Q110.57 260.95 110.7 260.62L110.7 260.09L109.63 260.09Q108.75 260.09 108.75 260.68Q108.75 260.97 108.97 261.13Q109.19 261.3 109.59 261.3ZM113.78 261.84Q113.31 261.84 112.87 261.71Q112.44 261.58 112.19 261.39L112.48 260.84Q112.74 261.02 113.1 261.13Q113.46 261.24 113.83 261.24Q114.74 261.24 114.74 260.72Q114.74 260.54 114.62 260.44Q114.49 260.34 114.31 260.29Q114.13 260.25 113.79 260.19Q113.32 260.12 113.03 260.02Q112.74 259.93 112.53 259.7Q112.32 259.48 112.32 259.07Q112.32 258.55 112.75 258.24Q113.19 257.92 113.92 257.92Q114.3 257.92 114.68 258.02Q115.06 258.11 115.31 258.27L115.01 258.82Q114.54 258.52 113.91 258.52Q113.47 258.52 113.24 258.66Q113 258.81 113 259.05Q113 259.23 113.13 259.34Q113.26 259.45 113.46 259.5Q113.65 259.55 113.99 259.62Q114.46 259.7 114.74 259.79Q115.03 259.88 115.23 260.09Q115.43 260.31 115.43 260.7Q115.43 261.22 114.99 261.53Q114.54 261.84 113.78 261.84ZM118.35 257.92Q119.08 257.92 119.51 258.35Q119.94 258.77 119.94 259.59L119.94 261.79L119.24 261.79L119.24 259.67Q119.24 259.11 118.98 258.83Q118.71 258.55 118.21 258.55Q117.65 258.55 117.32 258.88Q117 259.2 117 259.82L117 261.79L116.3 261.79L116.3 256.43L117 256.43L117 258.5Q117.21 258.23 117.56 258.08Q117.91 257.92 118.35 257.92ZM123.26 257.92Q123.81 257.92 124.25 258.17Q124.69 258.42 124.94 258.86Q125.19 259.3 125.19 259.88Q125.19 260.46 124.94 260.9Q124.69 261.34 124.25 261.59Q123.81 261.84 123.26 261.84Q122.83 261.84 122.48 261.67Q122.12 261.5 121.89 261.19L121.89 261.79L121.22 261.79L121.22 256.43L121.92 256.43L121.92 258.54Q122.15 258.24 122.5 258.08Q122.84 257.92 123.26 257.92ZM123.2 261.23Q123.57 261.23 123.86 261.06Q124.15 260.89 124.32 260.58Q124.49 260.27 124.49 259.88Q124.49 259.48 124.32 259.17Q124.15 258.86 123.86 258.7Q123.57 258.53 123.2 258.53Q122.84 258.53 122.54 258.7Q122.24 258.86 122.08 259.17Q121.91 259.48 121.91 259.88Q121.91 260.27 122.08 260.58Q122.24 260.89 122.54 261.06Q122.84 261.23 123.2 261.23ZM127.8 261.84Q127.23 261.84 126.77 261.58Q126.31 261.33 126.06 260.89Q125.8 260.44 125.8 259.88Q125.8 259.31 126.06 258.87Q126.31 258.42 126.77 258.17Q127.23 257.92 127.8 257.92Q128.37 257.92 128.82 258.17Q129.27 258.42 129.53 258.87Q129.78 259.31 129.78 259.88Q129.78 260.44 129.53 260.89Q129.27 261.33 128.82 261.58Q128.37 261.84 127.8 261.84ZM127.8 261.23Q128.17 261.23 128.46 261.06Q128.75 260.89 128.92 260.58Q129.08 260.27 129.08 259.88Q129.08 259.48 128.92 259.17Q128.75 258.86 128.46 258.7Q128.17 258.53 127.8 258.53Q127.43 258.53 127.14 258.7Q126.84 258.86 126.67 259.17Q126.5 259.48 126.5 259.88Q126.5 260.27 126.67 260.58Q126.84 260.89 127.14 261.06Q127.43 261.23 127.8 261.23ZM132.11 257.92Q132.9 257.92 133.32 258.32Q133.75 258.71 133.75 259.48L133.75 261.79L133.09 261.79L133.09 261.29Q132.92 261.55 132.59 261.7Q132.27 261.84 131.83 261.84Q131.19 261.84 130.8 261.53Q130.41 261.21 130.41 260.71Q130.41 260.2 130.78 259.89Q131.15 259.59 131.95 259.59L133.05 259.59L133.05 259.45Q133.05 259 132.79 258.76Q132.53 258.52 132.03 258.52Q131.69 258.52 131.36 258.64Q131.04 258.75 130.81 258.94L130.52 258.42Q130.82 258.18 131.23 258.05Q131.64 257.92 132.11 257.92ZM131.95 261.3Q132.34 261.3 132.63 261.12Q132.92 260.95 133.05 260.62L133.05 260.09L131.98 260.09Q131.1 260.09 131.1 260.68Q131.1 260.97 131.32 261.13Q131.55 261.3 131.95 261.3ZM135.7 258.6Q135.88 258.27 136.23 258.1Q136.59 257.92 137.09 257.92L137.09 258.6Q137.04 258.59 136.94 258.59Q136.37 258.59 136.05 258.93Q135.73 259.26 135.73 259.88L135.73 261.79L135.03 261.79L135.03 257.96L135.7 257.96L135.7 258.6ZM141.53 256.43L141.53 261.79L140.86 261.79L140.86 261.19Q140.63 261.5 140.28 261.67Q139.92 261.84 139.49 261.84Q138.94 261.84 138.5 261.59Q138.06 261.34 137.81 260.9Q137.56 260.46 137.56 259.88Q137.56 259.3 137.81 258.86Q138.06 258.42 138.5 258.17Q138.94 257.92 139.49 257.92Q139.91 257.92 140.25 258.08Q140.6 258.24 140.83 258.54L140.83 256.43ZM139.55 261.23Q139.91 261.23 140.21 261.06Q140.51 260.89 140.67 260.58Q140.84 260.27 140.84 259.88Q140.84 259.48 140.67 259.17Q140.51 258.86 140.21 258.7Q139.91 258.53 139.55 258.53Q139.18 258.53 138.89 258.7Q138.6 258.86 138.43 259.17Q138.26 259.48 138.26 259.88Q138.26 260.27 138.43 260.58Q138.6 260.89 138.89 261.06Q139.18 261.23 139.55 261.23ZM143.01 261.84Q142.81 261.84 142.66 261.7Q142.52 261.55 142.52 261.34Q142.52 261.13 142.66 260.99Q142.81 260.85 143.01 260.85Q143.21 260.85 143.35 260.98Q143.49 261.12 143.49 261.34Q143.49 261.55 143.34 261.7Q143.2 261.84 143.01 261.84ZM146.51 257.92Q147.07 257.92 147.51 258.17Q147.95 258.42 148.2 258.86Q148.45 259.3 148.45 259.88Q148.45 260.46 148.2 260.9Q147.95 261.34 147.51 261.59Q147.07 261.84 146.51 261.84Q146.1 261.84 145.76 261.68Q145.42 261.52 145.18 261.21L145.18 263.2L144.48 263.2L144.48 257.96L145.15 257.96L145.15 258.57Q145.38 258.25 145.73 258.09Q146.09 257.92 146.51 257.92ZM146.46 261.23Q146.83 261.23 147.12 261.06Q147.41 260.89 147.58 260.58Q147.75 260.27 147.75 259.88Q147.75 259.48 147.58 259.17Q147.41 258.86 147.12 258.7Q146.83 258.53 146.46 258.53Q146.1 258.53 145.8 258.7Q145.51 258.87 145.34 259.18Q145.17 259.48 145.17 259.88Q145.17 260.27 145.34 260.58Q145.5 260.89 145.8 261.06Q146.1 261.23 146.46 261.23ZM151.46 257.92Q152.19 257.92 152.62 258.35Q153.05 258.77 153.05 259.59L153.05 261.79L152.36 261.79L152.36 259.67Q152.36 259.11 152.09 258.83Q151.82 258.55 151.32 258.55Q150.76 258.55 150.43 258.88Q150.11 259.2 150.11 259.82L150.11 261.79L149.41 261.79L149.41 257.96L150.08 257.96L150.08 258.54Q150.29 258.24 150.65 258.08Q151 257.92 151.46 257.92ZM158.02 257.96L158.02 261.27Q158.02 262.28 157.53 262.76Q157.03 263.24 156.04 263.24Q155.49 263.24 155 263.09Q154.51 262.94 154.21 262.67L154.54 262.13Q154.81 262.36 155.2 262.5Q155.6 262.63 156.01 262.63Q156.69 262.63 157.01 262.31Q157.33 262 157.33 261.34L157.33 261.04Q157.08 261.34 156.73 261.49Q156.37 261.63 155.95 261.63Q155.4 261.63 154.96 261.4Q154.51 261.16 154.26 260.74Q154 260.32 154 259.78Q154 259.23 154.26 258.81Q154.51 258.39 154.96 258.16Q155.4 257.92 155.95 257.92Q156.38 257.92 156.76 258.08Q157.13 258.24 157.37 258.55L157.37 257.96ZM156.03 261.03Q156.4 261.03 156.7 260.87Q157 260.71 157.17 260.42Q157.34 260.14 157.34 259.78Q157.34 259.22 156.98 258.88Q156.61 258.53 156.03 258.53Q155.44 258.53 155.07 258.88Q154.71 259.22 154.71 259.78Q154.71 260.14 154.88 260.42Q155.05 260.71 155.35 260.87Q155.65 261.03 156.03 261.03Z" aria-label="dashboard.png"/></g></g></g>
   <g fill="#9340a4" stroke-width=".0727px" word-spacing="0px" style="font-feature-settings:normal;font-variant-caps:normal;font-variant-ligatures:normal;font-variant-numeric:normal;line-height:0%" xml:space="preserve"><g text-align="center" style="font-feature-settings:normal;font-variant-caps:normal;font-variant-ligatures:normal;font-variant-numeric:normal;line-height:125%"><path d="M1.61 282.76Q1.15 282.76 0.78 282.56Q0.41 282.36 0.21 282Q0 281.65 0 281.2Q0 280.75 0.21 280.4Q0.41 280.04 0.78 279.84Q1.15 279.64 1.61 279.64Q2.03 279.64 2.35 279.81Q2.68 279.98 2.86 280.3L2.44 280.57Q2.29 280.35 2.08 280.24Q1.87 280.13 1.61 280.13Q1.31 280.13 1.07 280.26Q0.83 280.39 0.69 280.64Q0.56 280.88 0.56 281.2Q0.56 281.52 0.69 281.77Q0.83 282.01 1.07 282.15Q1.31 282.28 1.61 282.28Q1.87 282.28 2.08 282.17Q2.29 282.06 2.44 281.84L2.86 282.11Q2.68 282.42 2.35 282.59Q2.03 282.76 1.61 282.76ZM4.84 282.76Q4.38 282.76 4.02 282.56Q3.65 282.36 3.45 282Q3.25 281.65 3.25 281.2Q3.25 280.75 3.45 280.4Q3.65 280.04 4.02 279.84Q4.38 279.64 4.84 279.64Q5.29 279.64 5.65 279.84Q6.01 280.04 6.22 280.4Q6.42 280.75 6.42 281.2Q6.42 281.65 6.22 282Q6.01 282.36 5.65 282.56Q5.29 282.76 4.84 282.76ZM4.84 282.28Q5.13 282.28 5.36 282.14Q5.6 282.01 5.73 281.76Q5.86 281.52 5.86 281.2Q5.86 280.88 5.73 280.64Q5.6 280.39 5.36 280.26Q5.13 280.13 4.84 280.13Q4.54 280.13 4.31 280.26Q4.08 280.39 3.94 280.64Q3.8 280.88 3.8 281.2Q3.8 281.52 3.94 281.76Q4.08 282.01 4.31 282.14Q4.54 282.28 4.84 282.28ZM11.01 279.64Q11.59 279.64 11.92 279.98Q12.26 280.31 12.26 280.97L12.26 282.73L11.71 282.73L11.71 281.03Q11.71 280.59 11.5 280.36Q11.3 280.14 10.92 280.14Q10.5 280.14 10.25 280.4Q10 280.66 10 281.15L10 282.73L9.45 282.73L9.45 281.03Q9.45 280.59 9.24 280.36Q9.04 280.14 8.66 280.14Q8.24 280.14 7.99 280.4Q7.74 280.66 7.74 281.15L7.74 282.73L7.19 282.73L7.19 279.67L7.72 279.67L7.72 280.13Q7.89 279.89 8.16 279.77Q8.43 279.64 8.77 279.64Q9.13 279.64 9.41 279.79Q9.68 279.93 9.83 280.21Q10.01 279.94 10.32 279.79Q10.62 279.64 11.01 279.64ZM14.9 279.64Q15.35 279.64 15.7 279.84Q16.05 280.04 16.25 280.39Q16.45 280.74 16.45 281.2Q16.45 281.66 16.25 282.02Q16.05 282.37 15.7 282.57Q15.35 282.76 14.9 282.76Q14.57 282.76 14.3 282.64Q14.03 282.51 13.84 282.27L13.84 283.85L13.28 283.85L13.28 279.67L13.81 279.67L13.81 280.16Q14 279.9 14.28 279.77Q14.56 279.64 14.9 279.64ZM14.86 282.28Q15.15 282.28 15.38 282.14Q15.62 282.01 15.75 281.76Q15.89 281.52 15.89 281.2Q15.89 280.88 15.75 280.64Q15.62 280.39 15.38 280.26Q15.15 280.13 14.86 280.13Q14.57 280.13 14.33 280.26Q14.1 280.4 13.96 280.64Q13.83 280.88 13.83 281.2Q13.83 281.52 13.96 281.76Q14.09 282.01 14.33 282.14Q14.57 282.28 14.86 282.28ZM18.52 282.76Q18.07 282.76 17.7 282.56Q17.34 282.36 17.14 282Q16.93 281.65 16.93 281.2Q16.93 280.75 17.14 280.4Q17.34 280.04 17.7 279.84Q18.07 279.64 18.52 279.64Q18.98 279.64 19.34 279.84Q19.7 280.04 19.9 280.4Q20.11 280.75 20.11 281.2Q20.11 281.65 19.9 282Q19.7 282.36 19.34 282.56Q18.98 282.76 18.52 282.76ZM18.52 282.28Q18.82 282.28 19.05 282.14Q19.28 282.01 19.42 281.76Q19.55 281.52 19.55 281.2Q19.55 280.88 19.42 280.64Q19.28 280.39 19.05 280.26Q18.82 280.13 18.52 280.13Q18.23 280.13 17.99 280.26Q17.76 280.39 17.63 280.64Q17.49 280.88 17.49 281.2Q17.49 281.52 17.63 281.76Q17.76 282.01 17.99 282.14Q18.23 282.28 18.52 282.28ZM22.51 279.64Q23.09 279.64 23.43 279.98Q23.77 280.32 23.77 280.97L23.77 282.73L23.22 282.73L23.22 281.03Q23.22 280.59 23.01 280.36Q22.79 280.14 22.4 280.14Q21.95 280.14 21.69 280.4Q21.43 280.66 21.43 281.15L21.43 282.73L20.87 282.73L20.87 279.67L21.4 279.67L21.4 280.13Q21.57 279.9 21.86 279.77Q22.14 279.64 22.51 279.64ZM27.58 281.22Q27.58 281.28 27.57 281.38L25.09 281.38Q25.14 281.79 25.44 282.03Q25.75 282.28 26.19 282.28Q26.74 282.28 27.08 281.91L27.38 282.27Q27.17 282.51 26.87 282.64Q26.56 282.76 26.18 282.76Q25.69 282.76 25.32 282.56Q24.94 282.36 24.74 282.01Q24.53 281.65 24.53 281.2Q24.53 280.76 24.73 280.4Q24.93 280.04 25.28 279.84Q25.63 279.64 26.07 279.64Q26.51 279.64 26.85 279.84Q27.19 280.04 27.39 280.4Q27.58 280.76 27.58 281.22ZM26.07 280.11Q25.67 280.11 25.4 280.35Q25.13 280.59 25.09 280.99L27.05 280.99Q27 280.6 26.73 280.36Q26.47 280.11 26.07 280.11ZM29.98 279.64Q30.56 279.64 30.9 279.98Q31.24 280.32 31.24 280.97L31.24 282.73L30.69 282.73L30.69 281.03Q30.69 280.59 30.48 280.36Q30.26 280.14 29.87 280.14Q29.42 280.14 29.16 280.4Q28.9 280.66 28.9 281.15L28.9 282.73L28.34 282.73L28.34 279.67L28.88 279.67L28.88 280.13Q29.04 279.9 29.33 279.77Q29.61 279.64 29.98 279.64ZM33.99 282.55Q33.87 282.65 33.69 282.71Q33.51 282.76 33.32 282.76Q32.86 282.76 32.61 282.51Q32.35 282.27 32.35 281.81L32.35 280.13L31.83 280.13L31.83 279.67L32.35 279.67L32.35 279L32.9 279L32.9 279.67L33.78 279.67L33.78 280.13L32.9 280.13L32.9 281.78Q32.9 282.03 33.03 282.16Q33.15 282.3 33.38 282.3Q33.64 282.3 33.82 282.15Z" aria-label="component"/></g><g text-align="center" style="font-feature-settings:normal;font-variant-caps:normal;font-variant-ligatures:normal;font-variant-numeric:normal;line-height:125%"><path d="M5.17 289.97Q4.8 289.97 4.45 289.87Q4.11 289.77 3.91 289.61L4.14 289.17Q4.34 289.32 4.63 289.4Q4.92 289.49 5.21 289.49Q5.94 289.49 5.94 289.07Q5.94 288.94 5.84 288.86Q5.74 288.77 5.6 288.74Q5.45 288.7 5.18 288.65Q4.81 288.6 4.58 288.52Q4.34 288.45 4.18 288.27Q4.01 288.09 4.01 287.77Q4.01 287.35 4.36 287.1Q4.7 286.85 5.28 286.85Q5.59 286.85 5.89 286.92Q6.2 287 6.4 287.13L6.16 287.56Q5.78 287.32 5.28 287.32Q4.93 287.32 4.74 287.44Q4.56 287.55 4.56 287.74Q4.56 287.89 4.66 287.98Q4.76 288.07 4.92 288.11Q5.07 288.15 5.35 288.2Q5.72 288.26 5.94 288.33Q6.17 288.41 6.33 288.58Q6.49 288.75 6.49 289.06Q6.49 289.48 6.14 289.72Q5.78 289.97 5.17 289.97ZM9.95 288.42Q9.95 288.49 9.94 288.59L7.46 288.59Q7.51 288.99 7.81 289.24Q8.11 289.48 8.56 289.48Q9.11 289.48 9.45 289.12L9.75 289.47Q9.54 289.71 9.23 289.84Q8.93 289.97 8.55 289.97Q8.06 289.97 7.69 289.77Q7.31 289.57 7.11 289.21Q6.9 288.86 6.9 288.41Q6.9 287.96 7.1 287.6Q7.3 287.25 7.65 287.05Q8 286.85 8.44 286.85Q8.87 286.85 9.22 287.05Q9.56 287.25 9.75 287.6Q9.95 287.96 9.95 288.42ZM8.44 287.32Q8.04 287.32 7.77 287.56Q7.5 287.8 7.46 288.19L9.42 288.19Q9.37 287.81 9.1 287.56Q8.83 287.32 8.44 287.32ZM13.64 286.88L13.64 289.52Q13.64 290.32 13.24 290.7Q12.84 291.09 12.05 291.09Q11.62 291.09 11.23 290.97Q10.83 290.85 10.59 290.63L10.86 290.2Q11.07 290.39 11.39 290.5Q11.7 290.6 12.03 290.6Q12.57 290.6 12.83 290.35Q13.08 290.1 13.08 289.58L13.08 289.33Q12.89 289.57 12.6 289.69Q12.32 289.81 11.98 289.81Q11.54 289.81 11.19 289.62Q10.83 289.43 10.63 289.09Q10.43 288.76 10.43 288.33Q10.43 287.89 10.63 287.56Q10.83 287.22 11.19 287.03Q11.54 286.85 11.98 286.85Q12.33 286.85 12.62 286.98Q12.92 287.1 13.11 287.35L13.11 286.88ZM12.05 289.32Q12.35 289.32 12.58 289.2Q12.82 289.07 12.96 288.84Q13.09 288.61 13.09 288.33Q13.09 287.88 12.8 287.61Q12.51 287.33 12.05 287.33Q11.58 287.33 11.28 287.61Q10.99 287.88 10.99 288.33Q10.99 288.61 11.13 288.84Q11.26 289.07 11.5 289.2Q11.74 289.32 12.05 289.32ZM18.51 286.85Q19.09 286.85 19.43 287.18Q19.76 287.52 19.76 288.18L19.76 289.93L19.21 289.93L19.21 288.24Q19.21 287.79 19.01 287.57Q18.8 287.35 18.42 287.35Q18 287.35 17.75 287.61Q17.5 287.87 17.5 288.36L17.5 289.93L16.95 289.93L16.95 288.24Q16.95 287.79 16.75 287.57Q16.54 287.35 16.16 287.35Q15.74 287.35 15.49 287.61Q15.24 287.87 15.24 288.36L15.24 289.93L14.69 289.93L14.69 286.88L15.22 286.88L15.22 287.33Q15.39 287.1 15.66 286.97Q15.93 286.85 16.28 286.85Q16.63 286.85 16.91 286.99Q17.19 287.14 17.34 287.41Q17.51 287.15 17.82 287Q18.13 286.85 18.51 286.85ZM23.56 288.42Q23.56 288.49 23.55 288.59L21.07 288.59Q21.12 288.99 21.43 289.24Q21.73 289.48 22.18 289.48Q22.73 289.48 23.06 289.12L23.37 289.47Q23.16 289.71 22.85 289.84Q22.54 289.97 22.16 289.97Q21.68 289.97 21.3 289.77Q20.93 289.57 20.72 289.21Q20.52 288.86 20.52 288.41Q20.52 287.96 20.72 287.6Q20.92 287.25 21.27 287.05Q21.61 286.85 22.05 286.85Q22.49 286.85 22.83 287.05Q23.18 287.25 23.37 287.6Q23.56 287.96 23.56 288.42ZM22.05 287.32Q21.66 287.32 21.39 287.56Q21.12 287.8 21.07 288.19L23.03 288.19Q22.99 287.81 22.72 287.56Q22.45 287.32 22.05 287.32ZM25.96 286.85Q26.54 286.85 26.89 287.19Q27.23 287.52 27.23 288.18L27.23 289.93L26.68 289.93L26.68 288.24Q26.68 287.79 26.46 287.57Q26.25 287.35 25.85 287.35Q25.4 287.35 25.14 287.61Q24.88 287.87 24.88 288.36L24.88 289.93L24.33 289.93L24.33 286.88L24.86 286.88L24.86 287.34Q25.03 287.1 25.31 286.98Q25.6 286.85 25.96 286.85ZM29.97 289.75Q29.85 289.86 29.67 289.91Q29.5 289.97 29.3 289.97Q28.84 289.97 28.59 289.72Q28.34 289.47 28.34 289.01L28.34 287.33L27.82 287.33L27.82 286.88L28.34 286.88L28.34 286.21L28.89 286.21L28.89 286.88L29.77 286.88L29.77 287.33L28.89 287.33L28.89 288.99Q28.89 289.24 29.01 289.37Q29.14 289.5 29.37 289.5Q29.62 289.5 29.8 289.36Z" aria-label="segment"/></g></g>
  </g>
  <path d="m7.1787 265.19v5.7034h19.631v-5.7034" fill="none" stroke="#9340a4" stroke-linecap="round" stroke-linejoin="round" stroke-width=".529"/>
  <g transform="translate(-77.682 -2.9481)" fill="none" stroke="#9340a4" stroke-linecap="round" stroke-linejoin="round" stroke-width=".529">
   <path d="m94.676 274.08v3.2096"/>
   <circle cx="94.676" cy="278.06" r=".75117" stroke-dashoffset="72"/>
  </g>
  <g fill="#b91d5e" stroke-width=".0727px" word-spacing="0px" style="font-feature-settings:normal;font-variant-caps:normal;font-variant-ligatures:normal;font-variant-numeric:normal;line-height:0%" xml:space="preserve"><g text-align="center" style="font-feature-settings:normal;font-variant-caps:normal;font-variant-ligatures:normal;font-variant-numeric:normal;line-height:125%"><path d="M47.9 279.64Q48.48 279.64 48.82 279.98Q49.16 280.31 49.16 280.97L49.16 282.73L48.6 282.73L48.6 281.03Q48.6 280.59 48.4 280.36Q48.19 280.14 47.81 280.14Q47.39 280.14 47.14 280.4Q46.9 280.66 46.9 281.15L46.9 282.73L46.34 282.73L46.34 281.03Q46.34 280.59 46.14 280.36Q45.93 280.14 45.55 280.14Q45.13 280.14 44.88 280.4Q44.64 280.66 44.64 281.15L44.64 282.73L44.08 282.73L44.08 279.67L44.61 279.67L44.61 280.13Q44.78 279.89 45.05 279.77Q45.32 279.64 45.67 279.64Q46.03 279.64 46.3 279.79Q46.58 279.93 46.73 280.21Q46.9 279.94 47.21 279.79Q47.52 279.64 47.9 279.64ZM51.5 282.76Q51.05 282.76 50.68 282.56Q50.32 282.36 50.12 282Q49.91 281.65 49.91 281.2Q49.91 280.75 50.12 280.4Q50.32 280.04 50.68 279.84Q51.05 279.64 51.5 279.64Q51.96 279.64 52.32 279.84Q52.68 280.04 52.88 280.4Q53.09 280.75 53.09 281.2Q53.09 281.65 52.88 282Q52.68 282.36 52.32 282.56Q51.96 282.76 51.5 282.76ZM51.5 282.28Q51.8 282.28 52.03 282.14Q52.26 282.01 52.4 281.76Q52.53 281.52 52.53 281.2Q52.53 280.88 52.4 280.64Q52.26 280.39 52.03 280.26Q51.8 280.13 51.5 280.13Q51.21 280.13 50.97 280.26Q50.74 280.39 50.61 280.64Q50.47 280.88 50.47 281.2Q50.47 281.52 50.61 281.76Q50.74 282.01 50.97 282.14Q51.21 282.28 51.5 282.28ZM56.74 278.45L56.74 282.73L56.21 282.73L56.21 282.24Q56.02 282.5 55.74 282.63Q55.46 282.76 55.12 282.76Q54.67 282.76 54.32 282.57Q53.97 282.37 53.77 282.02Q53.57 281.66 53.57 281.2Q53.57 280.74 53.77 280.39Q53.97 280.04 54.32 279.84Q54.67 279.64 55.12 279.64Q55.44 279.64 55.72 279.77Q56 279.89 56.18 280.13L56.18 278.45ZM55.16 282.28Q55.45 282.28 55.69 282.14Q55.92 282.01 56.06 281.76Q56.19 281.52 56.19 281.2Q56.19 280.88 56.06 280.64Q55.92 280.39 55.69 280.26Q55.45 280.13 55.16 280.13Q54.87 280.13 54.63 280.26Q54.4 280.39 54.27 280.64Q54.13 280.88 54.13 281.2Q54.13 281.52 54.27 281.76Q54.4 282.01 54.63 282.14Q54.87 282.28 55.16 282.28ZM60.63 279.67L60.63 282.73L60.11 282.73L60.11 282.27Q59.94 282.5 59.67 282.63Q59.39 282.76 59.07 282.76Q58.46 282.76 58.11 282.43Q57.76 282.09 57.76 281.43L57.76 279.67L58.31 279.67L58.31 281.37Q58.31 281.81 58.52 282.04Q58.74 282.27 59.13 282.27Q59.57 282.27 59.83 282Q60.08 281.74 60.08 281.25L60.08 279.67ZM61.69 278.45L62.24 278.45L62.24 282.73L61.69 282.73ZM66.06 281.22Q66.06 281.28 66.05 281.38L63.57 281.38Q63.62 281.79 63.92 282.03Q64.22 282.28 64.67 282.28Q65.22 282.28 65.56 281.91L65.86 282.27Q65.65 282.51 65.35 282.64Q65.04 282.76 64.66 282.76Q64.17 282.76 63.8 282.56Q63.42 282.36 63.22 282.01Q63.01 281.65 63.01 281.2Q63.01 280.76 63.21 280.4Q63.41 280.04 63.76 279.84Q64.11 279.64 64.55 279.64Q64.99 279.64 65.33 279.84Q65.67 280.04 65.86 280.4Q66.06 280.76 66.06 281.22ZM64.55 280.11Q64.15 280.11 63.88 280.35Q63.61 280.59 63.57 280.99L65.53 280.99Q65.48 280.6 65.21 280.36Q64.94 280.11 64.55 280.11Z" aria-label="module"/></g><g text-align="center" style="font-feature-settings:normal;font-variant-caps:normal;font-variant-ligatures:normal;font-variant-numeric:normal;line-height:125%"><path d="M43.16 289.97Q42.78 289.97 42.44 289.87Q42.09 289.77 41.89 289.61L42.13 289.17Q42.33 289.32 42.62 289.4Q42.9 289.49 43.2 289.49Q43.92 289.49 43.92 289.07Q43.92 288.94 43.83 288.86Q43.73 288.77 43.58 288.74Q43.43 288.7 43.16 288.65Q42.79 288.6 42.56 288.52Q42.33 288.45 42.16 288.27Q41.99 288.09 41.99 287.77Q41.99 287.35 42.34 287.1Q42.68 286.85 43.27 286.85Q43.57 286.85 43.88 286.92Q44.18 287 44.38 287.13L44.14 287.56Q43.77 287.32 43.26 287.32Q42.91 287.32 42.72 287.44Q42.54 287.55 42.54 287.74Q42.54 287.89 42.64 287.98Q42.75 288.07 42.9 288.11Q43.05 288.15 43.33 288.2Q43.7 288.26 43.93 288.33Q44.15 288.41 44.32 288.58Q44.48 288.75 44.48 289.06Q44.48 289.48 44.12 289.72Q43.77 289.97 43.16 289.97ZM47.93 288.42Q47.93 288.49 47.92 288.59L45.44 288.59Q45.49 288.99 45.79 289.24Q46.1 289.48 46.55 289.48Q47.09 289.48 47.43 289.12L47.73 289.47Q47.53 289.71 47.22 289.84Q46.91 289.97 46.53 289.97Q46.05 289.97 45.67 289.77Q45.3 289.57 45.09 289.21Q44.89 288.86 44.89 288.41Q44.89 287.96 45.09 287.6Q45.28 287.25 45.63 287.05Q45.98 286.85 46.42 286.85Q46.86 286.85 47.2 287.05Q47.54 287.25 47.74 287.6Q47.93 287.96 47.93 288.42ZM46.42 287.32Q46.02 287.32 45.75 287.56Q45.49 287.8 45.44 288.19L47.4 288.19Q47.35 287.81 47.09 287.56Q46.82 287.32 46.42 287.32ZM51.62 286.88L51.62 289.52Q51.62 290.32 51.22 290.7Q50.82 291.09 50.03 291.09Q49.6 291.09 49.21 290.97Q48.82 290.85 48.58 290.63L48.84 290.2Q49.05 290.39 49.37 290.5Q49.68 290.6 50.02 290.6Q50.55 290.6 50.81 290.35Q51.07 290.1 51.07 289.58L51.07 289.33Q50.87 289.57 50.58 289.69Q50.3 289.81 49.97 289.81Q49.53 289.81 49.17 289.62Q48.82 289.43 48.62 289.09Q48.41 288.76 48.41 288.33Q48.41 287.89 48.62 287.56Q48.82 287.22 49.17 287.03Q49.53 286.85 49.97 286.85Q50.31 286.85 50.61 286.98Q50.9 287.1 51.1 287.35L51.1 286.88ZM50.03 289.32Q50.33 289.32 50.57 289.2Q50.81 289.07 50.94 288.84Q51.08 288.61 51.08 288.33Q51.08 287.88 50.78 287.61Q50.49 287.33 50.03 287.33Q49.56 287.33 49.27 287.61Q48.97 287.88 48.97 288.33Q48.97 288.61 49.11 288.84Q49.24 289.07 49.48 289.2Q49.72 289.32 50.03 289.32ZM56.5 286.85Q57.07 286.85 57.41 287.18Q57.75 287.52 57.75 288.18L57.75 289.93L57.19 289.93L57.19 288.24Q57.19 287.79 56.99 287.57Q56.78 287.35 56.4 287.35Q55.98 287.35 55.74 287.61Q55.49 287.87 55.49 288.36L55.49 289.93L54.93 289.93L54.93 288.24Q54.93 287.79 54.73 287.57Q54.53 287.35 54.14 287.35Q53.72 287.35 53.48 287.61Q53.23 287.87 53.23 288.36L53.23 289.93L52.67 289.93L52.67 286.88L53.21 286.88L53.21 287.33Q53.37 287.1 53.64 286.97Q53.91 286.85 54.26 286.85Q54.62 286.85 54.89 286.99Q55.17 287.14 55.32 287.41Q55.49 287.15 55.8 287Q56.11 286.85 56.5 286.85ZM61.55 288.42Q61.55 288.49 61.53 288.59L59.06 288.59Q59.11 288.99 59.41 289.24Q59.71 289.48 60.16 289.48Q60.71 289.48 61.04 289.12L61.35 289.47Q61.14 289.71 60.83 289.84Q60.53 289.97 60.15 289.97Q59.66 289.97 59.29 289.77Q58.91 289.57 58.71 289.21Q58.5 288.86 58.5 288.41Q58.5 287.96 58.7 287.6Q58.9 287.25 59.25 287.05Q59.6 286.85 60.04 286.85Q60.47 286.85 60.82 287.05Q61.16 287.25 61.35 287.6Q61.55 287.96 61.55 288.42ZM60.04 287.32Q59.64 287.32 59.37 287.56Q59.1 287.8 59.06 288.19L61.02 288.19Q60.97 287.81 60.7 287.56Q60.43 287.32 60.04 287.32ZM63.94 286.85Q64.53 286.85 64.87 287.19Q65.21 287.52 65.21 288.18L65.21 289.93L64.66 289.93L64.66 288.24Q64.66 287.79 64.45 287.57Q64.23 287.35 63.84 287.35Q63.39 287.35 63.13 287.61Q62.87 287.87 62.87 288.36L62.87 289.93L62.31 289.93L62.31 286.88L62.84 286.88L62.84 287.34Q63.01 287.1 63.3 286.98Q63.58 286.85 63.94 286.85ZM67.96 289.75Q67.84 289.86 67.66 289.91Q67.48 289.97 67.29 289.97Q66.83 289.97 66.57 289.72Q66.32 289.47 66.32 289.01L66.32 287.33L65.8 287.33L65.8 286.88L66.32 286.88L66.32 286.21L66.87 286.21L66.87 286.88L67.75 286.88L67.75 287.33L66.87 287.33L66.87 288.99Q66.87 289.24 67 289.37Q67.12 289.5 67.35 289.5Q67.61 289.5 67.78 289.36Z" aria-label="segment"/></g></g>
  <path d="m43.695 265.19v5.7034h22.461v-5.7034" fill="none" stroke="#b91d5e" stroke-linecap="round" stroke-linejoin="round" stroke-width=".529"/>
  <g transform="translate(-113.43 -2.9481)" fill="none" stroke="#b91d5e" stroke-linecap="round" stroke-linejoin="round" stroke-width=".529">
   <path transform="translate(-14.288)" d="m182.64 274.08v3.2096"/>
   <circle cx="168.36" cy="278.06" r=".75117" stroke-dashoffset="72"/>
  </g>
  <g>
   <g fill="#199d4a" stroke-width=".0727px" word-spacing="0px" style="font-feature-settings:normal;font-variant-caps:normal;font-variant-ligatures:normal;font-variant-numeric:normal;line-height:0%" xml:space="preserve"><g text-align="center" style="font-feature-settings:normal;font-variant-caps:normal;font-variant-ligatures:normal;font-variant-numeric:normal;line-height:125%"><path d="M113.14 280.19Q113.29 279.92 113.57 279.78Q113.85 279.64 114.26 279.64L114.26 280.18Q114.21 280.17 114.13 280.17Q113.68 280.17 113.42 280.44Q113.17 280.71 113.17 281.21L113.17 282.73L112.61 282.73L112.61 279.67L113.14 279.67L113.14 280.19ZM117.67 281.22Q117.67 281.28 117.66 281.38L115.18 281.38Q115.23 281.79 115.53 282.03Q115.84 282.28 116.29 282.28Q116.83 282.28 117.17 281.91L117.47 282.27Q117.27 282.51 116.96 282.64Q116.65 282.76 116.27 282.76Q115.78 282.76 115.41 282.56Q115.03 282.36 114.83 282.01Q114.63 281.65 114.63 281.2Q114.63 280.76 114.82 280.4Q115.02 280.04 115.37 279.84Q115.72 279.64 116.16 279.64Q116.6 279.64 116.94 279.84Q117.28 280.04 117.48 280.4Q117.67 280.76 117.67 281.22ZM116.16 280.11Q115.76 280.11 115.49 280.35Q115.22 280.59 115.18 280.99L117.14 280.99Q117.09 280.6 116.82 280.36Q116.56 280.11 116.16 280.11ZM118.44 278.45L118.99 278.45L118.99 282.73L118.44 282.73ZM121.16 279.64Q121.79 279.64 122.13 279.95Q122.47 280.27 122.47 280.88L122.47 282.73L121.94 282.73L121.94 282.32Q121.8 282.54 121.55 282.65Q121.29 282.76 120.94 282.76Q120.42 282.76 120.12 282.51Q119.81 282.27 119.81 281.86Q119.81 281.46 120.1 281.21Q120.4 280.97 121.04 280.97L121.91 280.97L121.91 280.86Q121.91 280.5 121.7 280.31Q121.5 280.12 121.09 280.12Q120.82 280.12 120.56 280.21Q120.3 280.3 120.12 280.45L119.89 280.04Q120.13 279.85 120.46 279.74Q120.79 279.64 121.16 279.64ZM121.03 282.34Q121.35 282.34 121.58 282.19Q121.81 282.05 121.91 281.79L121.91 281.37L121.06 281.37Q120.36 281.37 120.36 281.84Q120.36 282.07 120.53 282.2Q120.71 282.34 121.03 282.34ZM125.21 282.55Q125.09 282.65 124.91 282.71Q124.73 282.76 124.54 282.76Q124.08 282.76 123.83 282.51Q123.57 282.27 123.57 281.81L123.57 280.13L123.05 280.13L123.05 279.67L123.57 279.67L123.57 279L124.13 279L124.13 279.67L125 279.67L125 280.13L124.13 280.13L124.13 281.78Q124.13 282.03 124.25 282.16Q124.37 282.3 124.6 282.3Q124.86 282.3 125.04 282.15ZM125.88 279.67L126.43 279.67L126.43 282.73L125.88 282.73ZM126.15 279.08Q125.99 279.08 125.89 278.98Q125.78 278.88 125.78 278.73Q125.78 278.58 125.89 278.47Q125.99 278.36 126.15 278.36Q126.32 278.36 126.42 278.46Q126.53 278.57 126.53 278.72Q126.53 278.87 126.42 278.98Q126.32 279.08 126.15 279.08ZM130.19 279.67L128.85 282.73L128.29 282.73L126.95 279.67L127.53 279.67L128.58 282.12L129.65 279.67ZM133.38 281.22Q133.38 281.28 133.37 281.38L130.89 281.38Q130.95 281.79 131.25 282.03Q131.55 282.28 132 282.28Q132.55 282.28 132.88 281.91L133.19 282.27Q132.98 282.51 132.67 282.64Q132.36 282.76 131.98 282.76Q131.5 282.76 131.12 282.56Q130.75 282.36 130.54 282.01Q130.34 281.65 130.34 281.2Q130.34 280.76 130.54 280.4Q130.74 280.04 131.09 279.84Q131.44 279.64 131.87 279.64Q132.31 279.64 132.65 279.84Q133 280.04 133.19 280.4Q133.38 280.76 133.38 281.22ZM131.87 280.11Q131.48 280.11 131.21 280.35Q130.94 280.59 130.89 280.99L132.85 280.99Q132.81 280.6 132.54 280.36Q132.27 280.11 131.87 280.11ZM137.32 279.64Q137.76 279.64 138.12 279.84Q138.47 280.04 138.67 280.39Q138.87 280.74 138.87 281.2Q138.87 281.66 138.67 282.02Q138.47 282.37 138.12 282.57Q137.76 282.76 137.32 282.76Q136.99 282.76 136.72 282.64Q136.44 282.51 136.25 282.27L136.25 283.85L135.7 283.85L135.7 279.67L136.23 279.67L136.23 280.16Q136.42 279.9 136.7 279.77Q136.98 279.64 137.32 279.64ZM137.27 282.28Q137.57 282.28 137.8 282.14Q138.04 282.01 138.17 281.76Q138.31 281.52 138.31 281.2Q138.31 280.88 138.17 280.64Q138.04 280.39 137.8 280.26Q137.57 280.13 137.27 280.13Q136.99 280.13 136.75 280.26Q136.52 280.4 136.38 280.64Q136.25 280.88 136.25 281.2Q136.25 281.52 136.38 281.76Q136.51 282.01 136.75 282.14Q136.99 282.28 137.27 282.28ZM140.72 279.64Q141.35 279.64 141.69 279.95Q142.03 280.27 142.03 280.88L142.03 282.73L141.5 282.73L141.5 282.32Q141.36 282.54 141.11 282.65Q140.85 282.76 140.5 282.76Q139.98 282.76 139.68 282.51Q139.37 282.27 139.37 281.86Q139.37 281.46 139.66 281.21Q139.96 280.97 140.6 280.97L141.47 280.97L141.47 280.86Q141.47 280.5 141.26 280.31Q141.06 280.12 140.65 280.12Q140.38 280.12 140.12 280.21Q139.86 280.3 139.68 280.45L139.45 280.04Q139.69 279.85 140.02 279.74Q140.35 279.64 140.72 279.64ZM140.59 282.34Q140.91 282.34 141.14 282.19Q141.37 282.05 141.47 281.79L141.47 281.37L140.62 281.37Q139.92 281.37 139.92 281.84Q139.92 282.07 140.09 282.2Q140.27 282.34 140.59 282.34ZM144.77 282.55Q144.65 282.65 144.47 282.71Q144.29 282.76 144.1 282.76Q143.64 282.76 143.39 282.51Q143.13 282.27 143.13 281.81L143.13 280.13L142.61 280.13L142.61 279.67L143.13 279.67L143.13 279L143.69 279L143.69 279.67L144.56 279.67L144.56 280.13L143.69 280.13L143.69 281.78Q143.69 282.03 143.81 282.16Q143.93 282.3 144.16 282.3Q144.42 282.3 144.6 282.15ZM147.07 279.64Q147.65 279.64 147.99 279.98Q148.34 280.32 148.34 280.97L148.34 282.73L147.78 282.73L147.78 281.03Q147.78 280.59 147.57 280.36Q147.36 280.14 146.96 280.14Q146.51 280.14 146.25 280.4Q145.99 280.66 145.99 281.15L145.99 282.73L145.44 282.73L145.44 278.45L145.99 278.45L145.99 280.1Q146.16 279.89 146.44 279.76Q146.72 279.64 147.07 279.64Z" aria-label="relative path"/></g><g text-align="center" style="font-feature-settings:normal;font-variant-caps:normal;font-variant-ligatures:normal;font-variant-numeric:normal;line-height:125%"><path d="M118.69 289.97Q118.32 289.97 117.97 289.87Q117.63 289.77 117.43 289.61L117.66 289.17Q117.86 289.32 118.15 289.4Q118.44 289.49 118.73 289.49Q119.46 289.49 119.46 289.07Q119.46 288.94 119.36 288.86Q119.26 288.77 119.12 288.74Q118.97 288.7 118.7 288.65Q118.33 288.6 118.1 288.52Q117.86 288.45 117.7 288.27Q117.53 288.09 117.53 287.77Q117.53 287.35 117.87 287.1Q118.22 286.85 118.8 286.85Q119.11 286.85 119.41 286.92Q119.72 287 119.91 287.13L119.68 287.56Q119.3 287.32 118.8 287.32Q118.44 287.32 118.26 287.44Q118.08 287.55 118.08 287.74Q118.08 287.89 118.18 287.98Q118.28 288.07 118.44 288.11Q118.59 288.15 118.87 288.2Q119.23 288.26 119.46 288.33Q119.69 288.41 119.85 288.58Q120.01 288.75 120.01 289.06Q120.01 289.48 119.66 289.72Q119.3 289.97 118.69 289.97ZM123.47 288.42Q123.47 288.49 123.45 288.59L120.98 288.59Q121.03 288.99 121.33 289.24Q121.63 289.48 122.08 289.48Q122.63 289.48 122.96 289.12L123.27 289.47Q123.06 289.71 122.75 289.84Q122.45 289.97 122.06 289.97Q121.58 289.97 121.21 289.77Q120.83 289.57 120.63 289.21Q120.42 288.86 120.42 288.41Q120.42 287.96 120.62 287.6Q120.82 287.25 121.17 287.05Q121.52 286.85 121.96 286.85Q122.39 286.85 122.74 287.05Q123.08 287.25 123.27 287.6Q123.47 287.96 123.47 288.42ZM121.96 287.32Q121.56 287.32 121.29 287.56Q121.02 287.8 120.98 288.19L122.94 288.19Q122.89 287.81 122.62 287.56Q122.35 287.32 121.96 287.32ZM127.16 286.88L127.16 289.52Q127.16 290.32 126.76 290.7Q126.36 291.09 125.57 291.09Q125.14 291.09 124.75 290.97Q124.35 290.85 124.11 290.63L124.38 290.2Q124.59 290.39 124.9 290.5Q125.22 290.6 125.55 290.6Q126.09 290.6 126.35 290.35Q126.6 290.1 126.6 289.58L126.6 289.33Q126.41 289.57 126.12 289.69Q125.83 289.81 125.5 289.81Q125.06 289.81 124.71 289.62Q124.35 289.43 124.15 289.09Q123.95 288.76 123.95 288.33Q123.95 287.89 124.15 287.56Q124.35 287.22 124.71 287.03Q125.06 286.85 125.5 286.85Q125.85 286.85 126.14 286.98Q126.44 287.1 126.63 287.35L126.63 286.88ZM125.56 289.32Q125.86 289.32 126.1 289.2Q126.34 289.07 126.48 288.84Q126.61 288.61 126.61 288.33Q126.61 287.88 126.32 287.61Q126.03 287.33 125.56 287.33Q125.1 287.33 124.8 287.61Q124.51 287.88 124.51 288.33Q124.51 288.61 124.64 288.84Q124.78 289.07 125.02 289.2Q125.26 289.32 125.56 289.32ZM132.03 286.85Q132.61 286.85 132.95 287.18Q133.28 287.52 133.28 288.18L133.28 289.93L132.73 289.93L132.73 288.24Q132.73 287.79 132.52 287.57Q132.32 287.35 131.94 287.35Q131.52 287.35 131.27 287.61Q131.02 287.87 131.02 288.36L131.02 289.93L130.47 289.93L130.47 288.24Q130.47 287.79 130.27 287.57Q130.06 287.35 129.68 287.35Q129.26 287.35 129.01 287.61Q128.76 287.87 128.76 288.36L128.76 289.93L128.21 289.93L128.21 286.88L128.74 286.88L128.74 287.33Q128.91 287.1 129.18 286.97Q129.45 286.85 129.8 286.85Q130.15 286.85 130.43 286.99Q130.71 287.14 130.86 287.41Q131.03 287.15 131.34 287Q131.65 286.85 132.03 286.85ZM137.08 288.42Q137.08 288.49 137.07 288.59L134.59 288.59Q134.64 288.99 134.95 289.24Q135.25 289.48 135.7 289.48Q136.25 289.48 136.58 289.12L136.89 289.47Q136.68 289.71 136.37 289.84Q136.06 289.97 135.68 289.97Q135.2 289.97 134.82 289.77Q134.45 289.57 134.24 289.21Q134.04 288.86 134.04 288.41Q134.04 287.96 134.24 287.6Q134.44 287.25 134.78 287.05Q135.13 286.85 135.57 286.85Q136.01 286.85 136.35 287.05Q136.7 287.25 136.89 287.6Q137.08 287.96 137.08 288.42ZM135.57 287.32Q135.17 287.32 134.91 287.56Q134.64 287.8 134.59 288.19L136.55 288.19Q136.51 287.81 136.24 287.56Q135.97 287.32 135.57 287.32ZM139.48 286.85Q140.06 286.85 140.41 287.19Q140.75 287.52 140.75 288.18L140.75 289.93L140.19 289.93L140.19 288.24Q140.19 287.79 139.98 287.57Q139.77 287.35 139.37 287.35Q138.92 287.35 138.66 287.61Q138.4 287.87 138.4 288.36L138.4 289.93L137.85 289.93L137.85 286.88L138.38 286.88L138.38 287.34Q138.55 287.1 138.83 286.98Q139.12 286.85 139.48 286.85ZM143.49 289.75Q143.37 289.86 143.19 289.91Q143.01 289.97 142.82 289.97Q142.36 289.97 142.11 289.72Q141.86 289.47 141.86 289.01L141.86 287.33L141.34 287.33L141.34 286.88L141.86 286.88L141.86 286.21L142.41 286.21L142.41 286.88L143.28 286.88L143.28 287.33L142.41 287.33L142.41 288.99Q142.41 289.24 142.53 289.37Q142.66 289.5 142.89 289.5Q143.14 289.5 143.32 289.36Z" aria-label="segment"/></g></g>
   <path d="m103.19 265.19v5.7034h54.54v-5.7034" fill="none" stroke="#199d4a" stroke-linecap="round" stroke-linejoin="round" stroke-width=".529"/>
   <g transform="translate(-51.803 -2.9481)" fill="none" stroke="#199d4a" stroke-linecap="round" stroke-linejoin="round" stroke-width=".529">
    <path d="m182.26 274.08v3.2096"/>
    <circle cx="182.26" cy="278.06" r=".75117" stroke-dashoffset="72"/>
   </g>
  </g>
  <g transform="translate(-.59973)">
   <g fill="#de4c36" stroke-width=".0727px" word-spacing="0px" style="font-feature-settings:normal;font-variant-caps:normal;font-variant-ligatures:normal;font-variant-numeric:normal;line-height:0%" xml:space="preserve"><g text-align="center" style="font-feature-settings:normal;font-variant-caps:normal;font-variant-ligatures:normal;font-variant-numeric:normal;line-height:125%"><path d="M29.01 229.4L27.67 232.46L27.11 232.46L25.77 229.4L26.35 229.4L27.4 231.85L28.47 229.4ZM32.21 230.95Q32.21 231.01 32.19 231.11L29.71 231.11Q29.77 231.52 30.07 231.76Q30.37 232.01 30.82 232.01Q31.37 232.01 31.7 231.64L32.01 232Q31.8 232.24 31.49 232.36Q31.18 232.49 30.8 232.49Q30.32 232.49 29.95 232.29Q29.57 232.09 29.37 231.74Q29.16 231.38 29.16 230.93Q29.16 230.49 29.36 230.13Q29.56 229.77 29.91 229.57Q30.26 229.37 30.69 229.37Q31.13 229.37 31.48 229.57Q31.82 229.77 32.01 230.13Q32.21 230.49 32.21 230.95ZM30.69 229.84Q30.3 229.84 30.03 230.08Q29.76 230.32 29.71 230.72L31.67 230.72Q31.63 230.33 31.36 230.08Q31.09 229.84 30.69 229.84ZM33.5 229.91Q33.65 229.65 33.93 229.51Q34.21 229.37 34.61 229.37L34.61 229.91Q34.57 229.9 34.49 229.9Q34.04 229.9 33.78 230.17Q33.53 230.44 33.53 230.93L33.53 232.46L32.97 232.46L32.97 229.4L33.5 229.4L33.5 229.91ZM36.19 232.49Q35.82 232.49 35.47 232.39Q35.13 232.29 34.93 232.13L35.16 231.7Q35.36 231.84 35.65 231.93Q35.94 232.01 36.23 232.01Q36.96 232.01 36.96 231.6Q36.96 231.46 36.86 231.38Q36.76 231.3 36.62 231.26Q36.47 231.22 36.2 231.18Q35.83 231.12 35.6 231.04Q35.36 230.97 35.2 230.79Q35.03 230.61 35.03 230.29Q35.03 229.87 35.38 229.62Q35.72 229.37 36.3 229.37Q36.61 229.37 36.91 229.45Q37.22 229.52 37.42 229.65L37.18 230.09Q36.81 229.85 36.3 229.85Q35.95 229.85 35.76 229.96Q35.58 230.08 35.58 230.27Q35.58 230.42 35.68 230.5Q35.78 230.59 35.94 230.63Q36.09 230.67 36.37 230.72Q36.74 230.79 36.96 230.86Q37.19 230.93 37.35 231.1Q37.51 231.28 37.51 231.59Q37.51 232 37.16 232.25Q36.81 232.49 36.19 232.49ZM38.21 229.4L38.76 229.4L38.76 232.46L38.21 232.46ZM38.48 228.81Q38.32 228.81 38.21 228.71Q38.11 228.61 38.11 228.46Q38.11 228.31 38.21 228.2Q38.32 228.09 38.48 228.09Q38.64 228.09 38.75 228.19Q38.86 228.29 38.86 228.44Q38.86 228.6 38.75 228.71Q38.64 228.81 38.48 228.81ZM41.12 232.49Q40.67 232.49 40.3 232.29Q39.94 232.09 39.74 231.73Q39.53 231.38 39.53 230.93Q39.53 230.48 39.74 230.13Q39.94 229.77 40.3 229.57Q40.67 229.37 41.12 229.37Q41.58 229.37 41.94 229.57Q42.3 229.77 42.5 230.13Q42.71 230.48 42.71 230.93Q42.71 231.38 42.5 231.73Q42.3 232.09 41.94 232.29Q41.58 232.49 41.12 232.49ZM41.12 232.01Q41.42 232.01 41.65 231.87Q41.88 231.74 42.02 231.49Q42.15 231.25 42.15 230.93Q42.15 230.61 42.02 230.37Q41.88 230.12 41.65 229.99Q41.42 229.86 41.12 229.86Q40.83 229.86 40.6 229.99Q40.36 230.12 40.23 230.37Q40.09 230.61 40.09 230.93Q40.09 231.25 40.23 231.49Q40.36 231.74 40.6 231.87Q40.83 232.01 41.12 232.01ZM45.11 229.37Q45.69 229.37 46.03 229.71Q46.37 230.05 46.37 230.7L46.37 232.46L45.82 232.46L45.82 230.76Q45.82 230.32 45.61 230.09Q45.39 229.87 45 229.87Q44.55 229.87 44.29 230.13Q44.03 230.39 44.03 230.88L44.03 232.46L43.48 232.46L43.48 229.4L44.01 229.4L44.01 229.86Q44.17 229.63 44.46 229.5Q44.74 229.37 45.11 229.37Z" aria-label="version"/></g><g text-align="center" style="font-feature-settings:normal;font-variant-caps:normal;font-variant-ligatures:normal;font-variant-numeric:normal;line-height:125%"><path d="M24.56 239.7Q24.18 239.7 23.84 239.6Q23.49 239.5 23.3 239.34L23.53 238.9Q23.73 239.05 24.02 239.13Q24.3 239.22 24.6 239.22Q25.32 239.22 25.32 238.8Q25.32 238.67 25.23 238.58Q25.13 238.5 24.98 238.47Q24.83 238.43 24.56 238.38Q24.19 238.33 23.96 238.25Q23.73 238.18 23.56 238Q23.39 237.82 23.39 237.5Q23.39 237.08 23.74 236.83Q24.09 236.58 24.67 236.58Q24.97 236.58 25.28 236.65Q25.58 236.73 25.78 236.86L25.54 237.29Q25.17 237.05 24.66 237.05Q24.31 237.05 24.13 237.17Q23.94 237.28 23.94 237.47Q23.94 237.62 24.05 237.71Q24.15 237.79 24.3 237.84Q24.45 237.88 24.73 237.93Q25.1 237.99 25.33 238.06Q25.56 238.14 25.72 238.31Q25.88 238.48 25.88 238.79Q25.88 239.21 25.52 239.45Q25.17 239.7 24.56 239.7ZM29.33 238.15Q29.33 238.22 29.32 238.32L26.84 238.32Q26.89 238.72 27.2 238.97Q27.5 239.21 27.95 239.21Q28.5 239.21 28.83 238.84L29.14 239.2Q28.93 239.44 28.62 239.57Q28.31 239.7 27.93 239.7Q27.45 239.7 27.07 239.5Q26.7 239.3 26.49 238.94Q26.29 238.58 26.29 238.14Q26.29 237.69 26.49 237.33Q26.69 236.98 27.03 236.78Q27.38 236.58 27.82 236.58Q28.26 236.58 28.6 236.78Q28.95 236.98 29.14 237.33Q29.33 237.69 29.33 238.15ZM27.82 237.05Q27.42 237.05 27.16 237.29Q26.89 237.53 26.84 237.92L28.8 237.92Q28.75 237.54 28.49 237.29Q28.22 237.05 27.82 237.05ZM33.02 236.61L33.02 239.25Q33.02 240.05 32.62 240.43Q32.23 240.82 31.44 240.82Q31 240.82 30.61 240.7Q30.22 240.58 29.98 240.36L30.24 239.93Q30.46 240.12 30.77 240.22Q31.08 240.33 31.42 240.33Q31.95 240.33 32.21 240.08Q32.47 239.82 32.47 239.31L32.47 239.06Q32.27 239.3 31.99 239.42Q31.7 239.54 31.37 239.54Q30.93 239.54 30.57 239.35Q30.22 239.16 30.02 238.82Q29.82 238.49 29.82 238.05Q29.82 237.62 30.02 237.28Q30.22 236.95 30.57 236.76Q30.93 236.58 31.37 236.58Q31.71 236.58 32.01 236.71Q32.31 236.83 32.5 237.08L32.5 236.61ZM31.43 239.05Q31.73 239.05 31.97 238.92Q32.21 238.8 32.34 238.57Q32.48 238.34 32.48 238.05Q32.48 237.61 32.18 237.34Q31.89 237.06 31.43 237.06Q30.96 237.06 30.67 237.34Q30.37 237.61 30.37 238.05Q30.37 238.34 30.51 238.57Q30.65 238.8 30.88 238.92Q31.12 239.05 31.43 239.05ZM37.9 236.58Q38.47 236.58 38.81 236.91Q39.15 237.25 39.15 237.9L39.15 239.66L38.6 239.66L38.6 237.97Q38.6 237.52 38.39 237.3Q38.19 237.07 37.81 237.07Q37.38 237.07 37.14 237.34Q36.89 237.6 36.89 238.09L36.89 239.66L36.34 239.66L36.34 237.97Q36.34 237.52 36.13 237.3Q35.93 237.07 35.55 237.07Q35.12 237.07 34.88 237.34Q34.63 237.6 34.63 238.09L34.63 239.66L34.08 239.66L34.08 236.61L34.61 236.61L34.61 237.06Q34.77 236.83 35.04 236.7Q35.32 236.58 35.66 236.58Q36.02 236.58 36.3 236.72Q36.57 236.87 36.72 237.14Q36.89 236.88 37.2 236.73Q37.51 236.58 37.9 236.58ZM42.95 238.15Q42.95 238.22 42.94 238.32L40.46 238.32Q40.51 238.72 40.81 238.97Q41.11 239.21 41.56 239.21Q42.11 239.21 42.45 238.84L42.75 239.2Q42.54 239.44 42.24 239.57Q41.93 239.7 41.55 239.7Q41.06 239.7 40.69 239.5Q40.31 239.3 40.11 238.94Q39.9 238.58 39.9 238.14Q39.9 237.69 40.1 237.33Q40.3 236.98 40.65 236.78Q41 236.58 41.44 236.58Q41.88 236.58 42.22 236.78Q42.56 236.98 42.75 237.33Q42.95 237.69 42.95 238.15ZM41.44 237.05Q41.04 237.05 40.77 237.29Q40.5 237.53 40.46 237.92L42.42 237.92Q42.37 237.54 42.1 237.29Q41.83 237.05 41.44 237.05ZM45.35 236.58Q45.93 236.58 46.27 236.92Q46.61 237.25 46.61 237.9L46.61 239.66L46.06 239.66L46.06 237.97Q46.06 237.52 45.85 237.3Q45.63 237.07 45.24 237.07Q44.79 237.07 44.53 237.34Q44.27 237.6 44.27 238.09L44.27 239.66L43.71 239.66L43.71 236.61L44.24 236.61L44.24 237.07Q44.41 236.83 44.7 236.71Q44.98 236.58 45.35 236.58ZM49.36 239.48Q49.24 239.59 49.06 239.64Q48.88 239.7 48.69 239.7Q48.23 239.7 47.97 239.45Q47.72 239.2 47.72 238.74L47.72 237.06L47.2 237.06L47.2 236.61L47.72 236.61L47.72 235.94L48.27 235.94L48.27 236.61L49.15 236.61L49.15 237.06L48.27 237.06L48.27 238.72Q48.27 238.97 48.4 239.1Q48.52 239.23 48.75 239.23Q49.01 239.23 49.18 239.09Z" aria-label="segment"/></g></g>
   <path d="m31.664 253.82v-5.7034h9.3247v5.7034" fill="none" stroke="#de4c36" stroke-linecap="round" stroke-linejoin="round" stroke-width=".529"/>
   <g transform="translate(-157.61 -2.9481)" fill="none" stroke="#de4c36" stroke-linecap="round" stroke-linejoin="round" stroke-width=".529">
    <path transform="translate(13.131)" d="m180.81 250.83v-3.2096"/>
    <circle transform="scale(1,-1)" cx="193.94" cy="-246.85" r=".75117" stroke-dashoffset="72"/>
   </g>
  </g>
  <g>
   <g fill="#2471dd" stroke-width=".0727px" word-spacing="0px" style="font-feature-settings:normal;font-variant-caps:normal;font-variant-ligatures:normal;font-variant-numeric:normal;line-height:0%" xml:space="preserve"><g text-align="center" style="font-feature-settings:normal;font-variant-caps:normal;font-variant-ligatures:normal;font-variant-numeric:normal;line-height:125%"><path d="M77.77 228.6Q77.27 228.6 77.27 229.14L77.27 229.4L78.16 229.4L78.16 229.86L77.28 229.86L77.28 232.46L76.73 232.46L76.73 229.86L76.21 229.86L76.21 229.4L76.73 229.4L76.73 229.13Q76.73 228.68 76.99 228.41Q77.26 228.14 77.74 228.14Q77.92 228.14 78.08 228.19Q78.24 228.24 78.36 228.32L78.19 228.74Q78 228.6 77.77 228.6ZM79.74 229.37Q80.37 229.37 80.71 229.68Q81.05 230 81.05 230.61L81.05 232.46L80.52 232.46L80.52 232.05Q80.38 232.27 80.13 232.38Q79.87 232.49 79.52 232.49Q79 232.49 78.7 232.24Q78.39 232 78.39 231.59Q78.39 231.19 78.68 230.94Q78.98 230.7 79.62 230.7L80.49 230.7L80.49 230.59Q80.49 230.23 80.28 230.04Q80.08 229.85 79.67 229.85Q79.4 229.85 79.14 229.94Q78.88 230.03 78.71 230.18L78.47 229.76Q78.71 229.57 79.04 229.47Q79.37 229.37 79.74 229.37ZM79.61 232.06Q79.93 232.06 80.16 231.92Q80.39 231.78 80.49 231.52L80.49 231.1L79.64 231.1Q78.94 231.1 78.94 231.57Q78.94 231.8 79.11 231.93Q79.29 232.06 79.61 232.06ZM85.89 229.37Q86.47 229.37 86.81 229.71Q87.14 230.04 87.14 230.7L87.14 232.46L86.59 232.46L86.59 230.76Q86.59 230.32 86.39 230.09Q86.18 229.87 85.8 229.87Q85.38 229.87 85.13 230.13Q84.88 230.39 84.88 230.88L84.88 232.46L84.33 232.46L84.33 230.76Q84.33 230.32 84.13 230.09Q83.92 229.87 83.54 229.87Q83.12 229.87 82.87 230.13Q82.63 230.39 82.63 230.88L82.63 232.46L82.07 232.46L82.07 229.4L82.6 229.4L82.6 229.86Q82.77 229.62 83.04 229.5Q83.31 229.37 83.66 229.37Q84.01 229.37 84.29 229.52Q84.57 229.66 84.72 229.94Q84.89 229.67 85.2 229.52Q85.51 229.37 85.89 229.37ZM88.16 229.4L88.72 229.4L88.72 232.46L88.16 232.46ZM88.44 228.81Q88.28 228.81 88.17 228.71Q88.07 228.61 88.07 228.46Q88.07 228.31 88.17 228.2Q88.28 228.09 88.44 228.09Q88.6 228.09 88.71 228.19Q88.82 228.29 88.82 228.44Q88.82 228.6 88.71 228.71Q88.6 228.81 88.44 228.81ZM89.77 228.18L90.33 228.18L90.33 232.46L89.77 232.46ZM94.09 229.4L92.6 232.76Q92.41 233.23 92.15 233.42Q91.88 233.61 91.51 233.61Q91.29 233.61 91.08 233.54Q90.87 233.47 90.73 233.33L90.97 232.91Q91.2 233.14 91.51 233.14Q91.72 233.14 91.85 233.03Q91.99 232.92 92.1 232.66L92.19 232.45L90.85 229.4L91.42 229.4L92.49 231.85L93.54 229.4Z" aria-label="family"/></g><g text-align="center" style="font-feature-settings:normal;font-variant-caps:normal;font-variant-ligatures:normal;font-variant-numeric:normal;line-height:125%"><path d="M73.33 239.7Q72.95 239.7 72.61 239.6Q72.26 239.5 72.07 239.34L72.3 238.9Q72.5 239.05 72.79 239.13Q73.08 239.22 73.37 239.22Q74.1 239.22 74.1 238.8Q74.1 238.67 74 238.58Q73.9 238.5 73.75 238.47Q73.61 238.43 73.34 238.38Q72.97 238.33 72.73 238.25Q72.5 238.18 72.33 238Q72.17 237.82 72.17 237.5Q72.17 237.08 72.51 236.83Q72.86 236.58 73.44 236.58Q73.74 236.58 74.05 236.65Q74.36 236.73 74.55 236.86L74.32 237.29Q73.94 237.05 73.43 237.05Q73.08 237.05 72.9 237.17Q72.71 237.28 72.71 237.47Q72.71 237.62 72.82 237.71Q72.92 237.79 73.07 237.84Q73.23 237.88 73.5 237.93Q73.87 237.99 74.1 238.06Q74.33 238.14 74.49 238.31Q74.65 238.48 74.65 238.79Q74.65 239.21 74.3 239.45Q73.94 239.7 73.33 239.7ZM78.1 238.15Q78.1 238.22 78.09 238.32L75.61 238.32Q75.66 238.72 75.97 238.97Q76.27 239.21 76.72 239.21Q77.27 239.21 77.6 238.84L77.91 239.2Q77.7 239.44 77.39 239.57Q77.08 239.7 76.7 239.7Q76.22 239.7 75.84 239.5Q75.47 239.3 75.26 238.94Q75.06 238.58 75.06 238.14Q75.06 237.69 75.26 237.33Q75.46 236.98 75.81 236.78Q76.15 236.58 76.59 236.58Q77.03 236.58 77.37 236.78Q77.72 236.98 77.91 237.33Q78.1 237.69 78.1 238.15ZM76.59 237.05Q76.19 237.05 75.93 237.29Q75.66 237.53 75.61 237.92L77.57 237.92Q77.53 237.54 77.26 237.29Q76.99 237.05 76.59 237.05ZM81.79 236.61L81.79 239.25Q81.79 240.05 81.39 240.43Q81 240.82 80.21 240.82Q79.77 240.82 79.38 240.7Q78.99 240.58 78.75 240.36L79.01 239.93Q79.23 240.12 79.54 240.22Q79.86 240.33 80.19 240.33Q80.73 240.33 80.98 240.08Q81.24 239.82 81.24 239.31L81.24 239.06Q81.04 239.3 80.76 239.42Q80.47 239.54 80.14 239.54Q79.7 239.54 79.34 239.35Q78.99 239.16 78.79 238.82Q78.59 238.49 78.59 238.05Q78.59 237.62 78.79 237.28Q78.99 236.95 79.34 236.76Q79.7 236.58 80.14 236.58Q80.48 236.58 80.78 236.71Q81.08 236.83 81.27 237.08L81.27 236.61ZM80.2 239.05Q80.5 239.05 80.74 238.92Q80.98 238.8 81.11 238.57Q81.25 238.34 81.25 238.05Q81.25 237.61 80.96 237.34Q80.66 237.06 80.2 237.06Q79.73 237.06 79.44 237.34Q79.15 237.61 79.15 238.05Q79.15 238.34 79.28 238.57Q79.42 238.8 79.66 238.92Q79.9 239.05 80.2 239.05ZM86.67 236.58Q87.25 236.58 87.58 236.91Q87.92 237.25 87.92 237.9L87.92 239.66L87.37 239.66L87.37 237.97Q87.37 237.52 87.16 237.3Q86.96 237.07 86.58 237.07Q86.16 237.07 85.91 237.34Q85.66 237.6 85.66 238.09L85.66 239.66L85.11 239.66L85.11 237.97Q85.11 237.52 84.9 237.3Q84.7 237.07 84.32 237.07Q83.9 237.07 83.65 237.34Q83.4 237.6 83.4 238.09L83.4 239.66L82.85 239.66L82.85 236.61L83.38 236.61L83.38 237.06Q83.54 236.83 83.82 236.7Q84.09 236.58 84.43 236.58Q84.79 236.58 85.07 236.72Q85.34 236.87 85.49 237.14Q85.67 236.88 85.97 236.73Q86.28 236.58 86.67 236.58ZM91.72 238.15Q91.72 238.22 91.71 238.32L89.23 238.32Q89.28 238.72 89.58 238.97Q89.89 239.21 90.34 239.21Q90.88 239.21 91.22 238.84L91.52 239.2Q91.32 239.44 91.01 239.57Q90.7 239.7 90.32 239.7Q89.83 239.7 89.46 239.5Q89.08 239.3 88.88 238.94Q88.68 238.58 88.68 238.14Q88.68 237.69 88.87 237.33Q89.07 236.98 89.42 236.78Q89.77 236.58 90.21 236.58Q90.65 236.58 90.99 236.78Q91.33 236.98 91.53 237.33Q91.72 237.69 91.72 238.15ZM90.21 237.05Q89.81 237.05 89.54 237.29Q89.27 237.53 89.23 237.92L91.19 237.92Q91.14 237.54 90.87 237.29Q90.61 237.05 90.21 237.05ZM94.12 236.58Q94.7 236.58 95.04 236.92Q95.39 237.25 95.39 237.9L95.39 239.66L94.83 239.66L94.83 237.97Q94.83 237.52 94.62 237.3Q94.41 237.07 94.01 237.07Q93.56 237.07 93.3 237.34Q93.04 237.6 93.04 238.09L93.04 239.66L92.49 239.66L92.49 236.61L93.02 236.61L93.02 237.07Q93.18 236.83 93.47 236.71Q93.75 236.58 94.12 236.58ZM98.13 239.48Q98.01 239.59 97.83 239.64Q97.65 239.7 97.46 239.7Q97 239.7 96.75 239.45Q96.49 239.2 96.49 238.74L96.49 237.06L95.97 237.06L95.97 236.61L96.49 236.61L96.49 235.94L97.05 235.94L97.05 236.61L97.92 236.61L97.92 237.06L97.05 237.06L97.05 238.72Q97.05 238.97 97.17 239.1Q97.29 239.23 97.52 239.23Q97.78 239.23 97.96 239.09Z" aria-label="segment"/></g></g>
   <path d="m70.218 253.82v-5.7034h29.76v5.7034" fill="none" stroke="#2471dd" stroke-linecap="round" stroke-linejoin="round" stroke-width=".529"/>
   <g transform="translate(-73.091 -2.9481)" fill="none" stroke="#2471dd" stroke-linecap="round" stroke-linejoin="round" stroke-width=".529">
    <path d="m158.19 250.83v-3.2096"/>
    <circle transform="scale(1,-1)" cx="158.19" cy="-246.85" r=".75117" stroke-dashoffset="72"/>
   </g>
  </g>
 </g>
</svg>