<svg width="35.073mm" height="7.49mm" version="1.1" viewBox="0 0 35.073 7.49" xmlns="http://www.w3.org/2000/svg" xmlns:cc="http://creativecommons.org/ns#" xmlns:dc="http://purl.org/dc/elements/1.1/" xmlns:rdf="http://www.w3.org/1999/02/22-rdf-syntax-ns#">
 <title>Root-relative site URL in Antora</title>
 <metadata>
  <rdf:RDF>
   <cc:Work rdf:about="">
    <dc:format>image/svg+xml</dc:format>
    <dc:type rdf:resource="http://purl.org/dc/dcmitype/StillImage"/>
    <dc:title>Root-relative site URL in Antora</dc:title>
    <dc:creator>
     <cc:Agent>
      <dc:title>Sarah White</dc:title>
     </cc:Agent>
    </dc:creator>
    <dc:publisher>
     <cc:Agent>
      <dc:title>OpenDevise Inc.</dc:title>
     </cc:Agent>
    </dc:publisher>
    <dc:subject>
     <rdf:Bag>
      <rdf:li>Antora</rdf:li>
      <rdf:li>site URL</rdf:li>
     </rdf:Bag>
    </dc:subject>
    <cc:license rdf:resource="http://creativecommons.org/licenses/by-sa/4.0/"/>
   </cc:Work>
   <cc:License rdf:about="http://creativecommons.org/licenses/by-sa/4.0/">
    <cc:permits rdf:resource="http://creativecommons.org/ns#Reproduction"/>
    <cc:permits rdf:resource="http://creativecommons.org/ns#Distribution"/>
    <cc:requires rdf:resource="http://creativecommons.org/ns#Notice"/>
    <cc:requires rdf:resource="http://creativecommons.org/ns#Attribution"/>
    <cc:permits rdf:resource="http://creativecommons.org/ns#DerivativeWorks"/>
    <cc:requires rdf:resource="http://creativecommons.org/ns#ShareAlike"/>
   </cc:License>
  </rdf:RDF>
 </metadata>
 <g transform="translate(0 -228.09)">
  <rect y="228.09" width="35.073" height="7.49" fill="#fff"/>
  <g transform="scale(1 .99998)" fill="#242424" stroke-width=".0727px" word-spacing="0px" style="font-feature-settings:normal;font-variant-caps:normal;font-variant-ligatures:normal;font-variant-numeric:normal;line-height:0%" xml:space="preserve"><g fill="#242424" stroke-width=".0727px" style="font-feature-settings:normal;font-variant-caps:normal;font-variant-ligatures:normal;font-variant-numeric:normal;line-height:125%"><path d="M2.39 228.1L3.01 228.1L0.63 234.91L0 234.91ZM4.95 230.32Q5.51 230.32 5.95 230.56Q6.39 230.81 6.64 231.25Q6.89 231.69 6.89 232.27Q6.89 232.85 6.64 233.29Q6.39 233.74 5.95 233.98Q5.51 234.23 4.95 234.23Q4.54 234.23 4.2 234.07Q3.85 233.91 3.61 233.61L3.61 235.59L2.92 235.59L2.92 230.35L3.59 230.35L3.59 230.96Q3.82 230.64 4.17 230.48Q4.53 230.32 4.95 230.32ZM4.89 233.62Q5.26 233.62 5.56 233.45Q5.85 233.28 6.02 232.97Q6.19 232.67 6.19 232.27Q6.19 231.87 6.02 231.57Q5.85 231.26 5.56 231.09Q5.26 230.93 4.89 230.93Q4.53 230.93 4.24 231.1Q3.95 231.27 3.78 231.57Q3.61 231.87 3.61 232.27Q3.61 232.67 3.77 232.97Q3.94 233.28 4.24 233.45Q4.53 233.62 4.89 233.62ZM8.52 231Q8.7 230.66 9.05 230.49Q9.41 230.32 9.91 230.32L9.91 230.99Q9.85 230.98 9.75 230.98Q9.19 230.98 8.87 231.32Q8.55 231.66 8.55 232.28L8.55 234.19L7.85 234.19L7.85 230.35L8.52 230.35L8.52 231ZM12.37 234.23Q11.8 234.23 11.34 233.98Q10.89 233.72 10.63 233.28Q10.37 232.83 10.37 232.27Q10.37 231.71 10.63 231.26Q10.89 230.82 11.34 230.57Q11.8 230.32 12.37 230.32Q12.94 230.32 13.39 230.57Q13.85 230.82 14.1 231.26Q14.36 231.71 14.36 232.27Q14.36 232.83 14.1 233.28Q13.85 233.72 13.39 233.98Q12.94 234.23 12.37 234.23ZM12.37 233.62Q12.74 233.62 13.03 233.45Q13.32 233.28 13.49 232.97Q13.66 232.67 13.66 232.27Q13.66 231.87 13.49 231.57Q13.32 231.26 13.03 231.09Q12.74 230.93 12.37 230.93Q12 230.93 11.71 231.09Q11.42 231.26 11.25 231.57Q11.08 231.87 11.08 232.27Q11.08 232.67 11.25 232.97Q11.42 233.28 11.71 233.45Q12 233.62 12.37 233.62ZM18.93 228.82L18.93 234.19L18.27 234.19L18.27 233.58Q18.04 233.9 17.68 234.06Q17.33 234.23 16.9 234.23Q16.35 234.23 15.91 233.98Q15.46 233.74 15.22 233.29Q14.97 232.85 14.97 232.27Q14.97 231.69 15.22 231.25Q15.46 230.81 15.91 230.56Q16.35 230.32 16.9 230.32Q17.32 230.32 17.66 230.47Q18.01 230.63 18.24 230.93L18.24 228.82ZM16.96 233.62Q17.32 233.62 17.62 233.45Q17.92 233.28 18.08 232.97Q18.25 232.67 18.25 232.27Q18.25 231.87 18.08 231.57Q17.92 231.26 17.62 231.09Q17.32 230.93 16.96 230.93Q16.59 230.93 16.3 231.09Q16.01 231.26 15.84 231.57Q15.67 231.87 15.67 232.27Q15.67 232.67 15.84 232.97Q16.01 233.28 16.3 233.45Q16.59 233.62 16.96 233.62ZM23.82 230.35L23.82 234.19L23.16 234.19L23.16 233.61Q22.95 233.9 22.61 234.07Q22.27 234.23 21.86 234.23Q21.1 234.23 20.66 233.81Q20.21 233.38 20.21 232.56L20.21 230.35L20.91 230.35L20.91 232.48Q20.91 233.04 21.18 233.32Q21.44 233.61 21.94 233.61Q22.49 233.61 22.81 233.27Q23.13 232.94 23.13 232.34L23.13 230.35ZM26.82 234.23Q26.23 234.23 25.77 233.98Q25.31 233.72 25.05 233.28Q24.79 232.83 24.79 232.27Q24.79 231.71 25.05 231.26Q25.31 230.82 25.77 230.57Q26.23 230.32 26.82 230.32Q27.34 230.32 27.74 230.53Q28.15 230.74 28.38 231.13L27.85 231.47Q27.67 231.2 27.4 231.06Q27.13 230.93 26.81 230.93Q26.43 230.93 26.13 231.09Q25.83 231.26 25.66 231.57Q25.49 231.87 25.49 232.27Q25.49 232.67 25.66 232.98Q25.83 233.29 26.13 233.46Q26.43 233.62 26.81 233.62Q27.13 233.62 27.4 233.48Q27.67 233.35 27.85 233.07L28.38 233.41Q28.15 233.8 27.74 234.02Q27.34 234.23 26.82 234.23ZM31.48 233.96Q31.33 234.09 31.1 234.16Q30.88 234.23 30.64 234.23Q30.06 234.23 29.74 233.92Q29.43 233.61 29.43 233.03L29.43 230.93L28.77 230.93L28.77 230.35L29.43 230.35L29.43 229.52L30.12 229.52L30.12 230.35L31.22 230.35L31.22 230.93L30.12 230.93L30.12 233Q30.12 233.31 30.27 233.48Q30.43 233.64 30.72 233.64Q31.04 233.64 31.26 233.46ZM33.42 234.23Q32.95 234.23 32.51 234.1Q32.08 233.98 31.83 233.78L32.12 233.23Q32.38 233.41 32.74 233.52Q33.1 233.63 33.47 233.63Q34.38 233.63 34.38 233.11Q34.38 232.94 34.25 232.83Q34.13 232.73 33.95 232.69Q33.76 232.64 33.42 232.58Q32.96 232.51 32.67 232.41Q32.38 232.32 32.17 232.1Q31.96 231.87 31.96 231.47Q31.96 230.95 32.39 230.63Q32.82 230.32 33.55 230.32Q33.94 230.32 34.32 230.41Q34.7 230.51 34.95 230.66L34.65 231.21Q34.18 230.91 33.55 230.91Q33.11 230.91 32.87 231.06Q32.64 231.2 32.64 231.44Q32.64 231.63 32.77 231.73Q32.9 231.84 33.09 231.89Q33.29 231.94 33.63 232.01Q34.1 232.09 34.38 232.18Q34.67 232.27 34.87 232.49Q35.07 232.7 35.07 233.09Q35.07 233.61 34.63 233.92Q34.18 234.23 33.42 234.23Z" aria-label="/products"/></g></g>
 </g>
</svg>