<svg width="92.45mm" height="7.49mm" version="1.1" viewBox="0 0 92.45 7.49" xmlns="http://www.w3.org/2000/svg" xmlns:cc="http://creativecommons.org/ns#" xmlns:dc="http://purl.org/dc/elements/1.1/" xmlns:rdf="http://www.w3.org/1999/02/22-rdf-syntax-ns#">
 <title>Absolute site URL for Antora</title>
 <metadata>
  <rdf:RDF>
   <cc:Work rdf:about="">
    <dc:format>image/svg+xml</dc:format>
    <dc:type rdf:resource="http://purl.org/dc/dcmitype/StillImage"/>
    <dc:title>Absolute site URL for Antora</dc:title>
    <dc:creator>
     <cc:Agent>
      <dc:title>Sarah White</dc:title>
     </cc:Agent>
    </dc:creator>
    <dc:publisher>
     <cc:Agent>
      <dc:title>OpenDevise Inc.</dc:title>
     </cc:Agent>
    </dc:publisher>
    <dc:subject>
     <rdf:Bag>
      <rdf:li>Antora</rdf:li>
      <rdf:li>site URL</rdf:li>
     </rdf:Bag>
    </dc:subject>
    <cc:license rdf:resource="http://creativecommons.org/licenses/by-sa/4.0/"/>
   </cc:Work>
   <cc:License rdf:about="http://creativecommons.org/licenses/by-sa/4.0/">
    <cc:permits rdf:resource="http://creativecommons.org/ns#Reproduction"/>
    <cc:permits rdf:resource="http://creativecommons.org/ns#Distribution"/>
    <cc:requires rdf:resource="http://creativecommons.org/ns#Notice"/>
    <cc:requires rdf:resource="http://creativecommons.org/ns#Attribution"/>
    <cc:permits rdf:resource="http://creativecommons.org/ns#DerivativeWorks"/>
    <cc:requires rdf:resource="http://creativecommons.org/ns#ShareAlike"/>
   </cc:License>
  </rdf:RDF>
 </metadata>
 <g transform="translate(0 -228.09)">
  <rect y="228.09" width="92.45" height="7.49" fill="#fff"/>
  <g transform="scale(1 .99998)" fill="#242424" stroke-width=".0727px" word-spacing="0px" style="font-feature-settings:normal;font-variant-caps:normal;font-variant-ligatures:normal;font-variant-numeric:normal;line-height:0%" xml:space="preserve"><g fill="#242424" stroke-width=".0727px" style="font-feature-settings:normal;font-variant-caps:normal;font-variant-ligatures:normal;font-variant-numeric:normal;line-height:125%"><path d="M2.05 230.32Q2.78 230.32 3.21 230.74Q3.64 231.16 3.64 231.98L3.64 234.19L2.94 234.19L2.94 232.06Q2.94 231.5 2.68 231.22Q2.41 230.94 1.91 230.94Q1.34 230.94 1.02 231.27Q0.69 231.6 0.69 232.21L0.69 234.19L0 234.19L0 228.82L0.69 228.82L0.69 230.9Q0.91 230.62 1.26 230.47Q1.61 230.32 2.05 230.32ZM7.08 233.96Q6.93 234.09 6.7 234.16Q6.48 234.23 6.24 234.23Q5.66 234.23 5.34 233.92Q5.02 233.61 5.02 233.03L5.02 230.93L4.37 230.93L4.37 230.35L5.02 230.35L5.02 229.52L5.72 229.52L5.72 230.35L6.82 230.35L6.82 230.93L5.72 230.93L5.72 233Q5.72 233.31 5.87 233.48Q6.03 233.64 6.32 233.64Q6.64 233.64 6.86 233.46ZM9.98 233.96Q9.83 234.09 9.6 234.16Q9.38 234.23 9.14 234.23Q8.56 234.23 8.24 233.92Q7.92 233.61 7.92 233.03L7.92 230.93L7.27 230.93L7.27 230.35L7.92 230.35L7.92 229.52L8.62 229.52L8.62 230.35L9.72 230.35L9.72 230.93L8.62 230.93L8.62 233Q8.62 233.31 8.77 233.48Q8.93 233.64 9.22 233.64Q9.54 233.64 9.76 233.46ZM12.85 230.32Q13.4 230.32 13.85 230.56Q14.29 230.81 14.54 231.25Q14.78 231.69 14.78 232.27Q14.78 232.85 14.54 233.29Q14.29 233.74 13.85 233.98Q13.4 234.23 12.85 234.23Q12.44 234.23 12.09 234.07Q11.75 233.91 11.51 233.61L11.51 235.59L10.82 235.59L10.82 230.35L11.48 230.35L11.48 230.96Q11.71 230.64 12.07 230.48Q12.42 230.32 12.85 230.32ZM12.79 233.62Q13.16 233.62 13.45 233.45Q13.74 233.28 13.91 232.97Q14.08 232.67 14.08 232.27Q14.08 231.87 13.91 231.57Q13.74 231.26 13.45 231.09Q13.16 230.93 12.79 230.93Q12.43 230.93 12.14 231.1Q11.84 231.27 11.67 231.57Q11.5 231.87 11.5 232.27Q11.5 232.67 11.67 232.97Q11.84 233.28 12.13 233.45Q12.43 233.62 12.79 233.62ZM16.85 234.23Q16.38 234.23 15.94 234.1Q15.51 233.98 15.26 233.78L15.55 233.23Q15.8 233.41 16.17 233.52Q16.53 233.63 16.9 233.63Q17.81 233.63 17.81 233.11Q17.81 232.94 17.68 232.83Q17.56 232.73 17.38 232.69Q17.19 232.64 16.85 232.58Q16.39 232.51 16.1 232.41Q15.8 232.32 15.59 232.1Q15.39 231.87 15.39 231.47Q15.39 230.95 15.82 230.63Q16.25 230.32 16.98 230.32Q17.37 230.32 17.75 230.41Q18.13 230.51 18.38 230.66L18.08 231.21Q17.61 230.91 16.98 230.91Q16.53 230.91 16.3 231.06Q16.07 231.2 16.07 231.44Q16.07 231.63 16.2 231.73Q16.33 231.84 16.52 231.89Q16.72 231.94 17.06 232.01Q17.53 232.09 17.81 232.18Q18.1 232.27 18.3 232.49Q18.5 232.7 18.5 233.09Q18.5 233.61 18.06 233.92Q17.61 234.23 16.85 234.23ZM19.53 231.31Q19.33 231.31 19.19 231.17Q19.04 231.03 19.04 230.81Q19.04 230.6 19.19 230.46Q19.33 230.32 19.53 230.32Q19.74 230.32 19.87 230.46Q20.01 230.59 20.01 230.81Q20.01 231.03 19.87 231.17Q19.73 231.31 19.53 231.31ZM19.53 234.23Q19.33 234.23 19.19 234.09Q19.04 233.95 19.04 233.73Q19.04 233.52 19.19 233.38Q19.33 233.24 19.53 233.24Q19.74 233.24 19.87 233.38Q20.01 233.51 20.01 233.73Q20.01 233.95 19.87 234.09Q19.73 234.23 19.53 234.23ZM22.88 228.1L23.51 228.1L21.13 234.91L20.5 234.91ZM24.94 228.1L25.56 228.1L23.18 234.91L22.55 234.91ZM29.09 228.82L29.09 234.19L28.42 234.19L28.42 233.58Q28.19 233.9 27.83 234.06Q27.48 234.23 27.05 234.23Q26.5 234.23 26.06 233.98Q25.62 233.74 25.37 233.29Q25.12 232.85 25.12 232.27Q25.12 231.69 25.37 231.25Q25.62 230.81 26.06 230.56Q26.5 230.32 27.05 230.32Q27.47 230.32 27.81 230.47Q28.16 230.63 28.39 230.93L28.39 228.82ZM27.11 233.62Q27.47 233.62 27.77 233.45Q28.07 233.28 28.23 232.97Q28.4 232.67 28.4 232.27Q28.4 231.87 28.23 231.57Q28.07 231.26 27.77 231.09Q27.47 230.93 27.11 230.93Q26.74 230.93 26.45 231.09Q26.16 231.26 25.99 231.57Q25.82 231.87 25.82 232.27Q25.82 232.67 25.99 232.97Q26.16 233.28 26.45 233.45Q26.74 233.62 27.11 233.62ZM32.04 234.23Q31.47 234.23 31.02 233.98Q30.56 233.72 30.3 233.28Q30.05 232.83 30.05 232.27Q30.05 231.71 30.3 231.26Q30.56 230.82 31.02 230.57Q31.47 230.32 32.04 230.32Q32.61 230.32 33.07 230.57Q33.52 230.82 33.77 231.26Q34.03 231.71 34.03 232.27Q34.03 232.83 33.77 233.28Q33.52 233.72 33.07 233.98Q32.61 234.23 32.04 234.23ZM32.04 233.62Q32.41 233.62 32.7 233.45Q33 233.28 33.16 232.97Q33.33 232.67 33.33 232.27Q33.33 231.87 33.16 231.57Q33 231.26 32.7 231.09Q32.41 230.93 32.04 230.93Q31.67 230.93 31.38 231.09Q31.09 231.26 30.92 231.57Q30.75 231.87 30.75 232.27Q30.75 232.67 30.92 232.97Q31.09 233.28 31.38 233.45Q31.67 233.62 32.04 233.62ZM36.66 234.23Q36.08 234.23 35.62 233.98Q35.16 233.72 34.9 233.28Q34.64 232.83 34.64 232.27Q34.64 231.71 34.9 231.26Q35.16 230.82 35.62 230.57Q36.08 230.32 36.66 230.32Q37.18 230.32 37.59 230.53Q38 230.74 38.22 231.13L37.7 231.47Q37.52 231.2 37.25 231.06Q36.98 230.93 36.66 230.93Q36.28 230.93 35.98 231.09Q35.68 231.26 35.51 231.57Q35.34 231.87 35.34 232.27Q35.34 232.67 35.51 232.98Q35.68 233.29 35.98 233.46Q36.28 233.62 36.66 233.62Q36.98 233.62 37.25 233.48Q37.52 233.35 37.7 233.07L38.22 233.41Q38 233.8 37.59 234.02Q37.18 234.23 36.66 234.23ZM40.22 234.23Q39.75 234.23 39.32 234.1Q38.88 233.98 38.64 233.78L38.93 233.23Q39.18 233.41 39.54 233.52Q39.9 233.63 40.27 233.63Q41.18 233.63 41.18 233.11Q41.18 232.94 41.06 232.83Q40.94 232.73 40.75 232.69Q40.57 232.64 40.23 232.58Q39.76 232.51 39.47 232.41Q39.18 232.32 38.97 232.1Q38.76 231.87 38.76 231.47Q38.76 230.95 39.19 230.63Q39.63 230.32 40.36 230.32Q40.74 230.32 41.12 230.41Q41.51 230.51 41.75 230.66L41.46 231.21Q40.99 230.91 40.35 230.91Q39.91 230.91 39.68 231.06Q39.45 231.2 39.45 231.44Q39.45 231.63 39.58 231.73Q39.71 231.84 39.9 231.89Q40.09 231.94 40.44 232.01Q40.9 232.09 41.18 232.18Q41.47 232.27 41.67 232.49Q41.87 232.7 41.87 233.09Q41.87 233.61 41.43 233.92Q40.99 234.23 40.22 234.23ZM42.91 234.23Q42.71 234.23 42.56 234.09Q42.42 233.95 42.42 233.73Q42.42 233.52 42.56 233.38Q42.71 233.24 42.91 233.24Q43.11 233.24 43.25 233.38Q43.39 233.51 43.39 233.73Q43.39 233.95 43.25 234.09Q43.1 234.23 42.91 234.23ZM47.76 232.29Q47.76 232.37 47.75 232.5L44.64 232.5Q44.7 233.01 45.08 233.31Q45.46 233.62 46.02 233.62Q46.71 233.62 47.13 233.16L47.51 233.61Q47.25 233.91 46.87 234.07Q46.48 234.23 46 234.23Q45.4 234.23 44.93 233.98Q44.46 233.73 44.2 233.28Q43.94 232.83 43.94 232.27Q43.94 231.71 44.19 231.27Q44.44 230.82 44.88 230.57Q45.32 230.32 45.87 230.32Q46.42 230.32 46.85 230.57Q47.28 230.82 47.52 231.27Q47.76 231.71 47.76 232.29ZM45.87 230.9Q45.37 230.9 45.03 231.21Q44.69 231.51 44.64 232L47.09 232Q47.04 231.52 46.7 231.21Q46.36 230.9 45.87 230.9ZM51.06 234.19L49.95 232.72L48.83 234.19L48.06 234.19L49.57 232.23L48.13 230.35L48.9 230.35L49.96 231.73L51.01 230.35L51.77 230.35L50.32 232.23L51.84 234.19ZM53.93 230.32Q54.72 230.32 55.15 230.71Q55.57 231.1 55.57 231.87L55.57 234.19L54.91 234.19L54.91 233.68Q54.74 233.95 54.42 234.09Q54.09 234.23 53.65 234.23Q53.01 234.23 52.62 233.92Q52.24 233.61 52.24 233.1Q52.24 232.6 52.6 232.29Q52.97 231.98 53.78 231.98L54.87 231.98L54.87 231.84Q54.87 231.4 54.61 231.16Q54.35 230.92 53.85 230.92Q53.51 230.92 53.18 231.03Q52.86 231.14 52.63 231.33L52.34 230.81Q52.64 230.57 53.05 230.44Q53.46 230.32 53.93 230.32ZM53.77 233.69Q54.17 233.69 54.45 233.52Q54.74 233.34 54.87 233.01L54.87 232.48L53.8 232.48Q52.92 232.48 52.92 233.07Q52.92 233.36 53.15 233.53Q53.37 233.69 53.77 233.69ZM61.65 230.32Q62.37 230.32 62.79 230.74Q63.22 231.16 63.22 231.98L63.22 234.19L62.52 234.19L62.52 232.06Q62.52 231.5 62.27 231.22Q62.01 230.94 61.53 230.94Q61.01 230.94 60.69 231.27Q60.38 231.6 60.38 232.21L60.38 234.19L59.69 234.19L59.69 232.06Q59.69 231.5 59.43 231.22Q59.18 230.94 58.7 230.94Q58.17 230.94 57.86 231.27Q57.55 231.6 57.55 232.21L57.55 234.19L56.86 234.19L56.86 230.35L57.52 230.35L57.52 230.93Q57.73 230.63 58.07 230.47Q58.41 230.32 58.84 230.32Q59.29 230.32 59.64 230.5Q59.99 230.68 60.17 231.03Q60.39 230.69 60.78 230.51Q61.16 230.32 61.65 230.32ZM66.53 230.32Q67.09 230.32 67.53 230.56Q67.97 230.81 68.22 231.25Q68.47 231.69 68.47 232.27Q68.47 232.85 68.22 233.29Q67.97 233.74 67.53 233.98Q67.09 234.23 66.53 234.23Q66.12 234.23 65.77 234.07Q65.43 233.91 65.19 233.61L65.19 235.59L64.5 235.59L64.5 230.35L65.16 230.35L65.16 230.96Q65.39 230.64 65.75 230.48Q66.1 230.32 66.53 230.32ZM66.47 233.62Q66.84 233.62 67.13 233.45Q67.43 233.28 67.6 232.97Q67.76 232.67 67.76 232.27Q67.76 231.87 67.6 231.57Q67.43 231.26 67.13 231.09Q66.84 230.93 66.47 230.93Q66.11 230.93 65.82 231.1Q65.52 231.27 65.35 231.57Q65.18 231.87 65.18 232.27Q65.18 232.67 65.35 232.97Q65.52 233.28 65.81 233.45Q66.11 233.62 66.47 233.62ZM69.43 228.82L70.12 228.82L70.12 234.19L69.43 234.19ZM74.91 232.29Q74.91 232.37 74.89 232.5L71.78 232.5Q71.85 233.01 72.23 233.31Q72.61 233.62 73.17 233.62Q73.86 233.62 74.28 233.16L74.66 233.61Q74.4 233.91 74.02 234.07Q73.63 234.23 73.15 234.23Q72.54 234.23 72.07 233.98Q71.6 233.73 71.35 233.28Q71.09 232.83 71.09 232.27Q71.09 231.71 71.34 231.27Q71.59 230.82 72.03 230.57Q72.46 230.32 73.01 230.32Q73.56 230.32 73.99 230.57Q74.42 230.82 74.67 231.27Q74.91 231.71 74.91 232.29ZM73.01 230.9Q72.51 230.9 72.18 231.21Q71.84 231.51 71.78 232L74.24 232Q74.18 231.52 73.85 231.21Q73.51 230.9 73.01 230.9ZM76.04 234.23Q75.83 234.23 75.69 234.09Q75.54 233.95 75.54 233.73Q75.54 233.52 75.69 233.38Q75.83 233.24 76.04 233.24Q76.24 233.24 76.38 233.38Q76.51 233.51 76.51 233.73Q76.51 233.95 76.37 234.09Q76.23 234.23 76.04 234.23ZM79.09 234.23Q78.51 234.23 78.05 233.98Q77.59 233.72 77.33 233.28Q77.07 232.83 77.07 232.27Q77.07 231.71 77.33 231.26Q77.59 230.82 78.05 230.57Q78.51 230.32 79.09 230.32Q79.61 230.32 80.02 230.53Q80.43 230.74 80.66 231.13L80.13 231.47Q79.95 231.2 79.68 231.06Q79.41 230.93 79.09 230.93Q78.71 230.93 78.41 231.09Q78.11 231.26 77.94 231.57Q77.77 231.87 77.77 232.27Q77.77 232.67 77.94 232.98Q78.11 233.29 78.41 233.46Q78.71 233.62 79.09 233.62Q79.41 233.62 79.68 233.48Q79.95 233.35 80.13 233.07L80.66 233.41Q80.43 233.8 80.02 234.02Q79.61 234.23 79.09 234.23ZM83.14 234.23Q82.56 234.23 82.11 233.98Q81.65 233.72 81.4 233.28Q81.14 232.83 81.14 232.27Q81.14 231.71 81.4 231.26Q81.65 230.82 82.11 230.57Q82.56 230.32 83.14 230.32Q83.71 230.32 84.16 230.57Q84.61 230.82 84.87 231.26Q85.12 231.71 85.12 232.27Q85.12 232.83 84.87 233.28Q84.61 233.72 84.16 233.98Q83.71 234.23 83.14 234.23ZM83.14 233.62Q83.5 233.62 83.8 233.45Q84.09 233.28 84.26 232.97Q84.42 232.67 84.42 232.27Q84.42 231.87 84.26 231.57Q84.09 231.26 83.8 231.09Q83.5 230.93 83.14 230.93Q82.77 230.93 82.47 231.09Q82.18 231.26 82.01 231.57Q81.84 231.87 81.84 232.27Q81.84 232.67 82.01 232.97Q82.18 233.28 82.47 233.45Q82.77 233.62 83.14 233.62ZM90.88 230.32Q91.6 230.32 92.02 230.74Q92.45 231.16 92.45 231.98L92.45 234.19L91.75 234.19L91.75 232.06Q91.75 231.5 91.5 231.22Q91.24 230.94 90.76 230.94Q90.24 230.94 89.92 231.27Q89.61 231.6 89.61 232.21L89.61 234.19L88.92 234.19L88.92 232.06Q88.92 231.5 88.66 231.22Q88.41 230.94 87.93 230.94Q87.4 230.94 87.09 231.27Q86.78 231.6 86.78 232.21L86.78 234.19L86.09 234.19L86.09 230.35L86.75 230.35L86.75 230.93Q86.96 230.63 87.3 230.47Q87.64 230.32 88.07 230.32Q88.52 230.32 88.87 230.5Q89.22 230.68 89.4 231.03Q89.62 230.69 90.01 230.51Q90.39 230.32 90.88 230.32Z" aria-label="https://docs.example.com"/></g></g>
 </g>
</svg>