<svg width="93.368mm" height="7.49mm" version="1.1" viewBox="0 0 93.368 7.49" xmlns="http://www.w3.org/2000/svg" xmlns:cc="http://creativecommons.org/ns#" xmlns:dc="http://purl.org/dc/elements/1.1/" xmlns:rdf="http://www.w3.org/1999/02/22-rdf-syntax-ns#">
 <title>Absolute site URL with subpath</title>
 <metadata>
  <rdf:RDF>
   <cc:Work rdf:about="">
    <dc:format>image/svg+xml</dc:format>
    <dc:type rdf:resource="http://purl.org/dc/dcmitype/StillImage"/>
    <dc:title>Absolute site URL with subpath</dc:title>
    <dc:creator>
     <cc:Agent>
      <dc:title>Sarah White</dc:title>
     </cc:Agent>
    </dc:creator>
    <dc:publisher>
     <cc:Agent>
      <dc:title>OpenDevise Inc.</dc:title>
     </cc:Agent>
    </dc:publisher>
    <dc:subject>
     <rdf:Bag>
      <rdf:li>Antora</rdf:li>
      <rdf:li>site URL</rdf:li>
     </rdf:Bag>
    </dc:subject>
    <cc:license rdf:resource="http://creativecommons.org/licenses/by-sa/4.0/"/>
   </cc:Work>
   <cc:License rdf:about="http://creativecommons.org/licenses/by-sa/4.0/">
    <cc:permits rdf:resource="http://creativecommons.org/ns#Reproduction"/>
    <cc:permits rdf:resource="http://creativecommons.org/ns#Distribution"/>
    <cc:requires rdf:resource="http://creativecommons.org/ns#Notice"/>
    <cc:requires rdf:resource="http://creativecommons.org/ns#Attribution"/>
    <cc:permits rdf:resource="http://creativecommons.org/ns#DerivativeWorks"/>
    <cc:requires rdf:resource="http://creativecommons.org/ns#ShareAlike"/>
   </cc:License>
  </rdf:RDF>
 </metadata>
 <g transform="translate(0 -228.09)">
  <rect y="228.09" width="93.368" height="7.49" fill="#fff"/>
  <g transform="scale(1 .99998)" fill="#242424" stroke-width=".0727px" word-spacing="0px" style="font-feature-settings:normal;font-variant-caps:normal;font-variant-ligatures:normal;font-variant-numeric:normal;line-height:0%" xml:space="preserve"><g fill="#242424" stroke-width=".0727px" style="font-feature-settings:normal;font-variant-caps:normal;font-variant-ligatures:normal;font-variant-numeric:normal;line-height:125%"><path d="M2.05 230.32Q2.78 230.32 3.21 230.74Q3.64 231.16 3.64 231.98L3.64 234.19L2.94 234.19L2.94 232.06Q2.94 231.5 2.68 231.22Q2.41 230.94 1.91 230.94Q1.34 230.94 1.02 231.27Q0.69 231.6 0.69 232.21L0.69 234.19L0 234.19L0 228.82L0.69 228.82L0.69 230.9Q0.91 230.62 1.26 230.47Q1.61 230.32 2.05 230.32ZM7.08 233.96Q6.93 234.09 6.7 234.16Q6.48 234.23 6.24 234.23Q5.66 234.23 5.34 233.92Q5.02 233.61 5.02 233.03L5.02 230.93L4.37 230.93L4.37 230.35L5.02 230.35L5.02 229.52L5.72 229.52L5.72 230.35L6.82 230.35L6.82 230.93L5.72 230.93L5.72 233Q5.72 233.31 5.87 233.48Q6.03 233.64 6.32 233.64Q6.64 233.64 6.86 233.46ZM9.98 233.96Q9.83 234.09 9.6 234.16Q9.38 234.23 9.14 234.23Q8.56 234.23 8.24 233.92Q7.92 233.61 7.92 233.03L7.92 230.93L7.27 230.93L7.27 230.35L7.92 230.35L7.92 229.52L8.62 229.52L8.62 230.35L9.72 230.35L9.72 230.93L8.62 230.93L8.62 233Q8.62 233.31 8.77 233.48Q8.93 233.64 9.22 233.64Q9.54 233.64 9.76 233.46ZM12.85 230.32Q13.4 230.32 13.85 230.56Q14.29 230.81 14.54 231.25Q14.78 231.69 14.78 232.27Q14.78 232.85 14.54 233.29Q14.29 233.74 13.85 233.98Q13.4 234.23 12.85 234.23Q12.44 234.23 12.09 234.07Q11.75 233.91 11.51 233.61L11.51 235.59L10.82 235.59L10.82 230.35L11.48 230.35L11.48 230.96Q11.71 230.64 12.07 230.48Q12.42 230.32 12.85 230.32ZM12.79 233.62Q13.16 233.62 13.45 233.45Q13.74 233.28 13.91 232.97Q14.08 232.67 14.08 232.27Q14.08 231.87 13.91 231.57Q13.74 231.26 13.45 231.09Q13.16 230.93 12.79 230.93Q12.43 230.93 12.14 231.1Q11.84 231.27 11.67 231.57Q11.5 231.87 11.5 232.27Q11.5 232.67 11.67 232.97Q11.84 233.28 12.13 233.45Q12.43 233.62 12.79 233.62ZM16.85 234.23Q16.38 234.23 15.94 234.1Q15.51 233.98 15.26 233.78L15.55 233.23Q15.8 233.41 16.17 233.52Q16.53 233.63 16.9 233.63Q17.81 233.63 17.81 233.11Q17.81 232.94 17.68 232.83Q17.56 232.73 17.38 232.69Q17.19 232.64 16.85 232.58Q16.39 232.51 16.1 232.41Q15.8 232.32 15.59 232.1Q15.39 231.87 15.39 231.47Q15.39 230.95 15.82 230.63Q16.25 230.32 16.98 230.32Q17.37 230.32 17.75 230.41Q18.13 230.51 18.38 230.66L18.08 231.21Q17.61 230.91 16.98 230.91Q16.53 230.91 16.3 231.06Q16.07 231.2 16.07 231.44Q16.07 231.63 16.2 231.73Q16.33 231.84 16.52 231.89Q16.72 231.94 17.06 232.01Q17.53 232.09 17.81 232.18Q18.1 232.27 18.3 232.49Q18.5 232.7 18.5 233.09Q18.5 233.61 18.06 233.92Q17.61 234.23 16.85 234.23ZM19.53 231.31Q19.33 231.31 19.19 231.17Q19.04 231.03 19.04 230.81Q19.04 230.6 19.19 230.46Q19.33 230.32 19.53 230.32Q19.74 230.32 19.87 230.46Q20.01 230.59 20.01 230.81Q20.01 231.03 19.87 231.17Q19.73 231.31 19.53 231.31ZM19.53 234.23Q19.33 234.23 19.19 234.09Q19.04 233.95 19.04 233.73Q19.04 233.52 19.19 233.38Q19.33 233.24 19.53 233.24Q19.74 233.24 19.87 233.38Q20.01 233.51 20.01 233.73Q20.01 233.95 19.87 234.09Q19.73 234.23 19.53 234.23ZM22.88 228.1L23.51 228.1L21.13 234.91L20.5 234.91ZM24.94 228.1L25.56 228.1L23.18 234.91L22.55 234.91ZM28.93 232.29Q28.93 232.37 28.92 232.5L25.81 232.5Q25.88 233.01 26.26 233.31Q26.63 233.62 27.2 233.62Q27.89 233.62 28.3 233.16L28.69 233.61Q28.43 233.91 28.04 234.07Q27.65 234.23 27.18 234.23Q26.57 234.23 26.1 233.98Q25.63 233.73 25.37 233.28Q25.12 232.83 25.12 232.27Q25.12 231.71 25.37 231.27Q25.62 230.82 26.05 230.57Q26.49 230.32 27.04 230.32Q27.59 230.32 28.02 230.57Q28.45 230.82 28.69 231.27Q28.93 231.71 28.93 232.29ZM27.04 230.9Q26.54 230.9 26.2 231.21Q25.87 231.51 25.81 232L28.27 232Q28.21 231.52 27.87 231.21Q27.54 230.9 27.04 230.9ZM32.23 234.19L31.12 232.72L30 234.19L29.23 234.19L30.74 232.23L29.3 230.35L30.08 230.35L31.13 231.73L32.18 230.35L32.94 230.35L31.49 232.23L33.02 234.19ZM35.1 230.32Q35.9 230.32 36.32 230.71Q36.74 231.1 36.74 231.87L36.74 234.19L36.08 234.19L36.08 233.68Q35.91 233.95 35.59 234.09Q35.27 234.23 34.83 234.23Q34.18 234.23 33.8 233.92Q33.41 233.61 33.41 233.1Q33.41 232.6 33.78 232.29Q34.15 231.98 34.95 231.98L36.05 231.98L36.05 231.84Q36.05 231.4 35.79 231.16Q35.53 230.92 35.02 230.92Q34.68 230.92 34.36 231.03Q34.03 231.14 33.81 231.33L33.52 230.81Q33.81 230.57 34.23 230.44Q34.64 230.32 35.1 230.32ZM34.94 233.69Q35.34 233.69 35.63 233.52Q35.92 233.34 36.05 233.01L36.05 232.48L34.98 232.48Q34.1 232.48 34.1 233.07Q34.1 233.36 34.32 233.53Q34.54 233.69 34.94 233.69ZM42.82 230.32Q43.55 230.32 43.97 230.74Q44.39 231.16 44.39 231.98L44.39 234.19L43.7 234.19L43.7 232.06Q43.7 231.5 43.44 231.22Q43.18 230.94 42.71 230.94Q42.18 230.94 41.87 231.27Q41.56 231.6 41.56 232.21L41.56 234.19L40.86 234.19L40.86 232.06Q40.86 231.5 40.61 231.22Q40.35 230.94 39.87 230.94Q39.34 230.94 39.03 231.27Q38.72 231.6 38.72 232.21L38.72 234.19L38.03 234.19L38.03 230.35L38.69 230.35L38.69 230.93Q38.9 230.63 39.24 230.47Q39.58 230.32 40.02 230.32Q40.47 230.32 40.81 230.5Q41.16 230.68 41.35 231.03Q41.56 230.69 41.95 230.51Q42.34 230.32 42.82 230.32ZM47.7 230.32Q48.26 230.32 48.7 230.56Q49.14 230.81 49.39 231.25Q49.64 231.69 49.64 232.27Q49.64 232.85 49.39 233.29Q49.14 233.74 48.7 233.98Q48.26 234.23 47.7 234.23Q47.29 234.23 46.95 234.07Q46.6 233.91 46.36 233.61L46.36 235.59L45.67 235.59L45.67 230.35L46.34 230.35L46.34 230.96Q46.57 230.64 46.92 230.48Q47.28 230.32 47.7 230.32ZM47.64 233.62Q48.01 233.62 48.31 233.45Q48.6 233.28 48.77 232.97Q48.94 232.67 48.94 232.27Q48.94 231.87 48.77 231.57Q48.6 231.26 48.31 231.09Q48.01 230.93 47.64 230.93Q47.28 230.93 46.99 231.1Q46.7 231.27 46.53 231.57Q46.36 231.87 46.36 232.27Q46.36 232.67 46.52 232.97Q46.69 233.28 46.99 233.45Q47.28 233.62 47.64 233.62ZM50.6 228.82L51.3 228.82L51.3 234.19L50.6 234.19ZM56.08 232.29Q56.08 232.37 56.07 232.5L52.96 232.5Q53.02 233.01 53.4 233.31Q53.78 233.62 54.35 233.62Q55.03 233.62 55.45 233.16L55.84 233.61Q55.58 233.91 55.19 234.07Q54.8 234.23 54.32 234.23Q53.72 234.23 53.25 233.98Q52.78 233.73 52.52 233.28Q52.26 232.83 52.26 232.27Q52.26 231.71 52.51 231.27Q52.76 230.82 53.2 230.57Q53.64 230.32 54.19 230.32Q54.74 230.32 55.17 230.57Q55.6 230.82 55.84 231.27Q56.08 231.71 56.08 232.29ZM54.19 230.9Q53.69 230.9 53.35 231.21Q53.02 231.51 52.96 232L55.42 232Q55.36 231.52 55.02 231.21Q54.69 230.9 54.19 230.9ZM57.21 234.23Q57.01 234.23 56.86 234.09Q56.72 233.95 56.72 233.73Q56.72 233.52 56.86 233.38Q57.01 233.24 57.21 233.24Q57.41 233.24 57.55 233.38Q57.69 233.51 57.69 233.73Q57.69 233.95 57.55 234.09Q57.4 234.23 57.21 234.23ZM60.27 234.23Q59.68 234.23 59.22 233.98Q58.76 233.72 58.5 233.28Q58.24 232.83 58.24 232.27Q58.24 231.71 58.5 231.26Q58.76 230.82 59.22 230.57Q59.68 230.32 60.27 230.32Q60.79 230.32 61.2 230.53Q61.61 230.74 61.83 231.13L61.3 231.47Q61.12 231.2 60.85 231.06Q60.59 230.93 60.26 230.93Q59.88 230.93 59.58 231.09Q59.28 231.26 59.11 231.57Q58.94 231.87 58.94 232.27Q58.94 232.67 59.11 232.98Q59.28 233.29 59.58 233.46Q59.88 233.62 60.26 233.62Q60.59 233.62 60.85 233.48Q61.12 233.35 61.3 233.07L61.83 233.41Q61.61 233.8 61.2 234.02Q60.79 234.23 60.27 234.23ZM64.31 234.23Q63.74 234.23 63.28 233.98Q62.83 233.72 62.57 233.28Q62.31 232.83 62.31 232.27Q62.31 231.71 62.57 231.26Q62.83 230.82 63.28 230.57Q63.74 230.32 64.31 230.32Q64.88 230.32 65.33 230.57Q65.78 230.82 66.04 231.26Q66.3 231.71 66.3 232.27Q66.3 232.83 66.04 233.28Q65.78 233.72 65.33 233.98Q64.88 234.23 64.31 234.23ZM64.31 233.62Q64.68 233.62 64.97 233.45Q65.26 233.28 65.43 232.97Q65.6 232.67 65.6 232.27Q65.6 231.87 65.43 231.57Q65.26 231.26 64.97 231.09Q64.68 230.93 64.31 230.93Q63.94 230.93 63.65 231.09Q63.35 231.26 63.18 231.57Q63.01 231.87 63.01 232.27Q63.01 232.67 63.18 232.97Q63.35 233.28 63.65 233.45Q63.94 233.62 64.31 233.62ZM72.05 230.32Q72.78 230.32 73.2 230.74Q73.62 231.16 73.62 231.98L73.62 234.19L72.93 234.19L72.93 232.06Q72.93 231.5 72.67 231.22Q72.41 230.94 71.94 230.94Q71.41 230.94 71.1 231.27Q70.79 231.6 70.79 232.21L70.79 234.19L70.09 234.19L70.09 232.06Q70.09 231.5 69.84 231.22Q69.58 230.94 69.1 230.94Q68.57 230.94 68.26 231.27Q67.95 231.6 67.95 232.21L67.95 234.19L67.26 234.19L67.26 230.35L67.92 230.35L67.92 230.93Q68.13 230.63 68.47 230.47Q68.81 230.32 69.25 230.32Q69.7 230.32 70.04 230.5Q70.39 230.68 70.58 231.03Q70.79 230.69 71.18 230.51Q71.57 230.32 72.05 230.32ZM76.43 228.1L77.06 228.1L74.67 234.91L74.04 234.91ZM80.58 228.82L80.58 234.19L79.91 234.19L79.91 233.58Q79.68 233.9 79.33 234.06Q78.97 234.23 78.54 234.23Q77.99 234.23 77.55 233.98Q77.11 233.74 76.86 233.29Q76.61 232.85 76.61 232.27Q76.61 231.69 76.86 231.25Q77.11 230.81 77.55 230.56Q77.99 230.32 78.54 230.32Q78.96 230.32 79.3 230.47Q79.65 230.63 79.88 230.93L79.88 228.82ZM78.6 233.62Q78.96 233.62 79.26 233.45Q79.56 233.28 79.72 232.97Q79.89 232.67 79.89 232.27Q79.89 231.87 79.72 231.57Q79.56 231.26 79.26 231.09Q78.96 230.93 78.6 230.93Q78.23 230.93 77.94 231.09Q77.65 231.26 77.48 231.57Q77.31 231.87 77.31 232.27Q77.31 232.67 77.48 232.97Q77.65 233.28 77.94 233.45Q78.23 233.62 78.6 233.62ZM83.53 234.23Q82.96 234.23 82.51 233.98Q82.05 233.72 81.79 233.28Q81.54 232.83 81.54 232.27Q81.54 231.71 81.79 231.26Q82.05 230.82 82.51 230.57Q82.96 230.32 83.53 230.32Q84.1 230.32 84.56 230.57Q85.01 230.82 85.26 231.26Q85.52 231.71 85.52 232.27Q85.52 232.83 85.26 233.28Q85.01 233.72 84.56 233.98Q84.1 234.23 83.53 234.23ZM83.53 233.62Q83.9 233.62 84.19 233.45Q84.49 233.28 84.65 232.97Q84.82 232.67 84.82 232.27Q84.82 231.87 84.65 231.57Q84.49 231.26 84.19 231.09Q83.9 230.93 83.53 230.93Q83.16 230.93 82.87 231.09Q82.58 231.26 82.41 231.57Q82.24 231.87 82.24 232.27Q82.24 232.67 82.41 232.97Q82.58 233.28 82.87 233.45Q83.16 233.62 83.53 233.62ZM88.15 234.23Q87.57 234.23 87.11 233.98Q86.65 233.72 86.39 233.28Q86.13 232.83 86.13 232.27Q86.13 231.71 86.39 231.26Q86.65 230.82 87.11 230.57Q87.57 230.32 88.15 230.32Q88.67 230.32 89.08 230.53Q89.49 230.74 89.71 231.13L89.19 231.47Q89.01 231.2 88.74 231.06Q88.47 230.93 88.15 230.93Q87.77 230.93 87.47 231.09Q87.17 231.26 87 231.57Q86.83 231.87 86.83 232.27Q86.83 232.67 87 232.98Q87.17 233.29 87.47 233.46Q87.77 233.62 88.15 233.62Q88.47 233.62 88.74 233.48Q89.01 233.35 89.19 233.07L89.71 233.41Q89.49 233.8 89.08 234.02Q88.67 234.23 88.15 234.23ZM91.71 234.23Q91.24 234.23 90.81 234.1Q90.37 233.98 90.13 233.78L90.42 233.23Q90.67 233.41 91.03 233.52Q91.39 233.63 91.76 233.63Q92.67 233.63 92.67 233.11Q92.67 232.94 92.55 232.83Q92.43 232.73 92.24 232.69Q92.06 232.64 91.72 232.58Q91.25 232.51 90.96 232.41Q90.67 232.32 90.46 232.1Q90.25 231.87 90.25 231.47Q90.25 230.95 90.68 230.63Q91.12 230.32 91.85 230.32Q92.23 230.32 92.61 230.41Q93 230.51 93.24 230.66L92.95 231.21Q92.48 230.91 91.84 230.91Q91.4 230.91 91.17 231.06Q90.94 231.2 90.94 231.44Q90.94 231.63 91.07 231.73Q91.2 231.84 91.39 231.89Q91.58 231.94 91.93 232.01Q92.39 232.09 92.68 232.18Q92.96 232.27 93.16 232.49Q93.37 232.7 93.37 233.09Q93.37 233.61 92.92 233.92Q92.48 234.23 91.71 234.23Z" aria-label="https://example.com/docs"/></g></g>
 </g>
</svg>