<svg width="80mm" height="40mm" version="1.1" viewBox="0 0 80 40" xmlns="http://www.w3.org/2000/svg" xmlns:cc="http://creativecommons.org/ns#" xmlns:dc="http://purl.org/dc/elements/1.1/" xmlns:rdf="http://www.w3.org/1999/02/22-rdf-syntax-ns#">
 <title>Image for AsciiDoc block image macro example</title>
 <metadata>
  <rdf:RDF>
   <cc:Work rdf:about="">
    <dc:format>image/svg+xml</dc:format>
    <dc:type rdf:resource="http://purl.org/dc/dcmitype/StillImage"/>
    <dc:title>Image for AsciiDoc block image macro example</dc:title>
    <dc:creator>
     <cc:Agent>
      <dc:title>Sarah White</dc:title>
     </cc:Agent>
    </dc:creator>
    <dc:publisher>
     <cc:Agent>
      <dc:title>OpenDevise Inc.</dc:title>
     </cc:Agent>
    </dc:publisher>
    <cc:license rdf:resource="http://creativecommons.org/licenses/by-sa/4.0/"/>
   </cc:Work>
   <cc:License rdf:about="http://creativecommons.org/licenses/by-sa/4.0/">
    <cc:permits rdf:resource="http://creativecommons.org/ns#Reproduction"/>
    <cc:permits rdf:resource="http://creativecommons.org/ns#Distribution"/>
    <cc:requires rdf:resource="http://creativecommons.org/ns#Notice"/>
    <cc:requires rdf:resource="http://creativecommons.org/ns#Attribution"/>
    <cc:permits rdf:resource="http://creativecommons.org/ns#DerivativeWorks"/>
    <cc:requires rdf:resource="http://creativecommons.org/ns#ShareAlike"/>
   </cc:License>
  </rdf:RDF>
 </metadata>
 <rect width="80" height="40" fill="#333" stroke-width="0"/>
 <g fill="#ffcc00" stroke-width=".26458" text-align="center" word-spacing="0px" style="line-height:1.25" xml:space="preserve"><g><path d="M28.36 4.99Q28.47 4.99 28.52 5.06Q28.58 5.13 28.58 5.24Q28.58 5.32 28.56 5.4L27.42 9.16Q27.38 9.27 27.31 9.33Q27.23 9.4 27.13 9.4Q27.03 9.4 26.95 9.33Q26.87 9.27 26.84 9.17L26 5.92L25.14 9.16Q25.1 9.27 25.03 9.33Q24.95 9.4 24.85 9.4Q24.75 9.4 24.67 9.34Q24.59 9.27 24.56 9.17L23.42 5.4Q23.4 5.32 23.4 5.24Q23.4 5.13 23.46 5.06Q23.53 4.99 23.64 4.99Q23.74 4.99 23.82 5.05Q23.9 5.1 23.93 5.21L24.86 8.43L25.71 5.24Q25.73 5.16 25.81 5.1Q25.89 5.05 25.99 5.05Q26.09 5.05 26.17 5.1Q26.24 5.15 26.27 5.24L27.13 8.45L28.07 5.18Q28.1 5.08 28.17 5.03Q28.24 4.99 28.36 4.99ZM31.3 7.81Q31.3 7.91 31.23 7.98Q31.16 8.05 31.04 8.05L28.9 8.05Q28.96 8.45 29.26 8.69Q29.55 8.94 29.98 8.94Q30.15 8.94 30.33 8.87Q30.52 8.81 30.64 8.72Q30.71 8.66 30.82 8.66Q30.93 8.66 30.99 8.71Q31.09 8.8 31.09 8.91Q31.09 9.01 31 9.08Q30.81 9.23 30.53 9.32Q30.24 9.42 29.98 9.42Q29.52 9.42 29.15 9.22Q28.78 9.02 28.58 8.66Q28.37 8.31 28.37 7.86Q28.37 7.41 28.57 7.05Q28.76 6.69 29.11 6.49Q29.46 6.29 29.9 6.29Q30.33 6.29 30.65 6.48Q30.96 6.67 31.13 7.02Q31.3 7.36 31.3 7.81ZM29.9 6.77Q29.48 6.77 29.23 7Q28.97 7.22 28.9 7.6L30.78 7.6Q30.73 7.22 30.5 7Q30.27 6.77 29.9 6.77ZM32.77 9.4Q32.53 9.4 32.33 9.27Q32.14 9.13 32.03 8.89Q31.92 8.65 31.92 8.35L31.92 5.27Q31.92 5.15 32 5.07Q32.08 4.99 32.21 4.99Q32.33 4.99 32.41 5.07Q32.49 5.15 32.49 5.27L32.49 8.35Q32.49 8.56 32.57 8.7Q32.65 8.83 32.77 8.83L32.91 8.83Q33.02 8.83 33.09 8.91Q33.16 8.99 33.16 9.12Q33.16 9.24 33.06 9.32Q32.95 9.4 32.78 9.4L32.77 9.4ZM34.96 9.42Q34.51 9.42 34.16 9.22Q33.8 9.01 33.6 8.66Q33.4 8.3 33.4 7.86Q33.4 7.41 33.6 7.05Q33.79 6.69 34.14 6.49Q34.49 6.29 34.93 6.29Q35.6 6.29 36.04 6.8Q36.09 6.86 36.09 6.94Q36.09 7.07 35.97 7.15Q35.91 7.19 35.84 7.19Q35.71 7.19 35.62 7.09Q35.48 6.94 35.31 6.87Q35.15 6.8 34.93 6.8Q34.5 6.8 34.23 7.09Q33.95 7.38 33.95 7.86Q33.95 8.16 34.08 8.4Q34.21 8.64 34.44 8.78Q34.67 8.91 34.96 8.91Q35.34 8.91 35.58 8.71Q35.69 8.64 35.79 8.64Q35.87 8.64 35.94 8.69Q36.04 8.78 36.04 8.89Q36.04 8.97 35.98 9.04Q35.57 9.42 34.96 9.42ZM38.35 9.42Q37.9 9.42 37.54 9.22Q37.19 9.02 36.99 8.66Q36.79 8.31 36.79 7.86Q36.79 7.4 36.99 7.04Q37.19 6.69 37.54 6.49Q37.9 6.29 38.35 6.29Q38.8 6.29 39.15 6.49Q39.5 6.69 39.7 7.04Q39.9 7.4 39.9 7.86Q39.9 8.31 39.71 8.66Q39.51 9.02 39.16 9.22Q38.8 9.42 38.35 9.42ZM38.35 8.91Q38.64 8.91 38.87 8.78Q39.1 8.64 39.22 8.4Q39.35 8.16 39.35 7.86Q39.35 7.55 39.22 7.31Q39.1 7.07 38.87 6.93Q38.64 6.8 38.35 6.8Q38.06 6.8 37.84 6.93Q37.61 7.07 37.48 7.31Q37.35 7.55 37.35 7.86Q37.35 8.16 37.48 8.4Q37.61 8.64 37.84 8.78Q38.06 8.91 38.35 8.91ZM44.01 6.28Q44.5 6.28 44.8 6.6Q45.1 6.93 45.1 7.5L45.1 9.12Q45.1 9.24 45.02 9.32Q44.94 9.4 44.81 9.4Q44.69 9.4 44.61 9.32Q44.53 9.24 44.53 9.12L44.53 7.5Q44.53 7.16 44.35 6.98Q44.18 6.8 43.89 6.8Q43.6 6.8 43.41 7Q43.22 7.21 43.22 7.52L43.22 9.12Q43.22 9.24 43.14 9.32Q43.06 9.4 42.94 9.4Q42.81 9.4 42.73 9.32Q42.65 9.24 42.65 9.12L42.65 7.5Q42.65 7.16 42.48 6.98Q42.3 6.8 42.02 6.8Q41.72 6.8 41.53 7Q41.34 7.21 41.34 7.52L41.34 9.12Q41.34 9.24 41.26 9.32Q41.18 9.4 41.05 9.4Q40.93 9.4 40.84 9.32Q40.76 9.24 40.76 9.12L40.76 6.6Q40.76 6.47 40.84 6.4Q40.93 6.32 41.05 6.32Q41.17 6.32 41.25 6.39Q41.33 6.47 41.34 6.59Q41.48 6.45 41.69 6.36Q41.89 6.28 42.13 6.28Q42.42 6.28 42.64 6.4Q42.87 6.51 43.02 6.73Q43.19 6.52 43.44 6.4Q43.7 6.28 44.01 6.28ZM48.83 7.81Q48.83 7.91 48.75 7.98Q48.68 8.05 48.57 8.05L46.42 8.05Q46.49 8.45 46.78 8.69Q47.08 8.94 47.51 8.94Q47.68 8.94 47.86 8.87Q48.04 8.81 48.16 8.72Q48.24 8.66 48.35 8.66Q48.46 8.66 48.52 8.71Q48.62 8.8 48.62 8.91Q48.62 9.01 48.53 9.08Q48.34 9.23 48.05 9.32Q47.77 9.42 47.51 9.42Q47.04 9.42 46.68 9.22Q46.31 9.02 46.1 8.66Q45.9 8.31 45.9 7.86Q45.9 7.41 46.09 7.05Q46.29 6.69 46.63 6.49Q46.98 6.29 47.42 6.29Q47.86 6.29 48.17 6.48Q48.49 6.67 48.66 7.02Q48.83 7.36 48.83 7.81ZM47.42 6.77Q47.01 6.77 46.75 7Q46.5 7.22 46.43 7.6L48.31 7.6Q48.26 7.22 48.03 7Q47.79 6.77 47.42 6.77ZM52.53 8.83Q52.63 8.83 52.7 8.91Q52.77 8.99 52.77 9.12Q52.77 9.24 52.68 9.32Q52.59 9.4 52.44 9.4L52.34 9.4Q52.06 9.4 51.83 9.25Q51.6 9.11 51.48 8.86Q51.35 8.61 51.35 8.3L51.35 6.91L51.09 6.91Q50.97 6.91 50.89 6.84Q50.82 6.77 50.82 6.67Q50.82 6.56 50.89 6.49Q50.97 6.42 51.09 6.42L51.35 6.42L51.35 5.61Q51.35 5.49 51.42 5.41Q51.5 5.33 51.63 5.33Q51.75 5.33 51.83 5.41Q51.91 5.49 51.91 5.61L51.91 6.42L52.39 6.42Q52.51 6.42 52.58 6.49Q52.65 6.56 52.65 6.67Q52.65 6.77 52.58 6.84Q52.51 6.91 52.39 6.91L51.91 6.91L51.91 8.3Q51.91 8.53 52.03 8.68Q52.16 8.83 52.34 8.83L52.53 8.83ZM54.88 9.42Q54.43 9.42 54.07 9.22Q53.72 9.02 53.52 8.66Q53.32 8.31 53.32 7.86Q53.32 7.4 53.52 7.04Q53.72 6.69 54.07 6.49Q54.43 6.29 54.88 6.29Q55.32 6.29 55.68 6.49Q56.03 6.69 56.23 7.04Q56.43 7.4 56.43 7.86Q56.43 8.31 56.23 8.66Q56.04 9.02 55.68 9.22Q55.33 9.42 54.88 9.42ZM54.88 8.91Q55.17 8.91 55.4 8.78Q55.62 8.64 55.75 8.4Q55.88 8.16 55.88 7.86Q55.88 7.55 55.75 7.31Q55.62 7.07 55.4 6.93Q55.17 6.8 54.88 6.8Q54.59 6.8 54.36 6.93Q54.13 7.07 54 7.31Q53.87 7.55 53.87 7.86Q53.87 8.16 54 8.4Q54.13 8.64 54.36 8.78Q54.59 8.91 54.88 8.91Z" aria-label="Welcome to"/></g><g><path d="M22.52 16.45Q22.4 16.45 22.31 16.37Q22.23 16.28 22.23 16.16L22.23 12.34Q22.23 12.21 22.31 12.13Q22.4 12.05 22.52 12.05L25.07 12.05Q25.2 12.05 25.28 12.12Q25.36 12.2 25.36 12.32Q25.36 12.44 25.28 12.51Q25.2 12.59 25.07 12.59L22.82 12.59L22.82 13.96L24.44 13.96Q24.56 13.96 24.64 14.03Q24.72 14.11 24.72 14.23Q24.72 14.35 24.64 14.42Q24.56 14.5 24.44 14.5L22.82 14.5L22.82 16.16Q22.82 16.28 22.73 16.37Q22.65 16.45 22.52 16.45ZM27.57 13.33Q27.87 13.33 28.04 13.42Q28.21 13.51 28.21 13.65Q28.21 13.69 28.2 13.7Q28.15 13.89 27.97 13.89Q27.95 13.89 27.89 13.87Q27.66 13.83 27.52 13.83Q27.12 13.83 26.87 14.02Q26.62 14.21 26.62 14.52L26.62 16.17Q26.62 16.31 26.55 16.38Q26.48 16.45 26.34 16.45Q26.2 16.45 26.13 16.38Q26.06 16.31 26.06 16.17L26.06 13.65Q26.06 13.51 26.13 13.44Q26.2 13.37 26.34 13.37Q26.62 13.37 26.62 13.65L26.62 13.76Q26.79 13.56 27.04 13.44Q27.29 13.33 27.57 13.33ZM31.34 14.86Q31.34 14.97 31.27 15.04Q31.2 15.11 31.08 15.11L28.94 15.11Q29 15.51 29.3 15.75Q29.59 15.99 30.02 15.99Q30.19 15.99 30.38 15.93Q30.56 15.87 30.68 15.78Q30.76 15.71 30.86 15.71Q30.97 15.71 31.03 15.77Q31.14 15.86 31.14 15.96Q31.14 16.06 31.05 16.13Q30.85 16.28 30.57 16.38Q30.28 16.48 30.02 16.48Q29.56 16.48 29.19 16.28Q28.83 16.08 28.62 15.72Q28.41 15.36 28.41 14.91Q28.41 14.46 28.61 14.1Q28.8 13.74 29.15 13.54Q29.5 13.34 29.94 13.34Q30.37 13.34 30.69 13.54Q31.01 13.73 31.17 14.07Q31.34 14.42 31.34 14.86ZM29.94 13.83Q29.53 13.83 29.27 14.05Q29.01 14.28 28.95 14.66L30.82 14.66Q30.77 14.28 30.54 14.05Q30.31 13.83 29.94 13.83ZM33.48 13.34Q33.91 13.34 34.27 13.55Q34.62 13.76 34.82 14.11Q35.03 14.47 35.03 14.91L35.03 17.49Q35.03 17.62 34.95 17.7Q34.87 17.77 34.74 17.77Q34.62 17.77 34.54 17.7Q34.45 17.62 34.45 17.49L34.45 15.96Q34.26 16.21 33.97 16.34Q33.69 16.48 33.36 16.48Q32.96 16.48 32.63 16.27Q32.3 16.07 32.11 15.71Q31.92 15.35 31.92 14.91Q31.92 14.47 32.12 14.11Q32.33 13.76 32.68 13.55Q33.04 13.34 33.48 13.34ZM33.48 15.97Q33.76 15.97 33.99 15.83Q34.22 15.69 34.35 15.45Q34.48 15.21 34.48 14.91Q34.48 14.61 34.35 14.37Q34.22 14.13 33.99 13.99Q33.76 13.85 33.48 13.85Q33.2 13.85 32.97 13.99Q32.74 14.13 32.61 14.37Q32.47 14.61 32.47 14.91Q32.47 15.21 32.61 15.45Q32.74 15.69 32.97 15.83Q33.2 15.97 33.48 15.97ZM38.59 13.36Q38.72 13.36 38.8 13.44Q38.88 13.52 38.88 13.65L38.88 16.17Q38.88 16.29 38.8 16.37Q38.72 16.45 38.59 16.45Q38.47 16.45 38.39 16.37Q38.3 16.29 38.3 16.17L38.3 16.1Q38.12 16.28 37.87 16.38Q37.63 16.48 37.34 16.48Q36.95 16.48 36.64 16.31Q36.33 16.14 36.16 15.82Q35.98 15.49 35.98 15.04L35.98 13.65Q35.98 13.52 36.07 13.44Q36.15 13.36 36.27 13.36Q36.4 13.36 36.48 13.44Q36.56 13.52 36.56 13.65L36.56 15.04Q36.56 15.49 36.81 15.73Q37.05 15.96 37.46 15.96Q37.69 15.96 37.89 15.87Q38.08 15.77 38.19 15.61Q38.3 15.44 38.3 15.24L38.3 13.65Q38.3 13.52 38.39 13.44Q38.47 13.36 38.59 13.36ZM42.67 14.86Q42.67 14.97 42.59 15.04Q42.52 15.11 42.41 15.11L40.26 15.11Q40.32 15.51 40.62 15.75Q40.92 15.99 41.35 15.99Q41.52 15.99 41.7 15.93Q41.88 15.87 42 15.78Q42.08 15.71 42.19 15.71Q42.29 15.71 42.36 15.77Q42.46 15.86 42.46 15.96Q42.46 16.06 42.37 16.13Q42.18 16.28 41.89 16.38Q41.61 16.48 41.35 16.48Q40.88 16.48 40.52 16.28Q40.15 16.08 39.94 15.72Q39.74 15.36 39.74 14.91Q39.74 14.46 39.93 14.1Q40.13 13.74 40.47 13.54Q40.82 13.34 41.26 13.34Q41.7 13.34 42.01 13.54Q42.33 13.73 42.5 14.07Q42.67 14.42 42.67 14.86ZM41.26 13.83Q40.85 13.83 40.59 14.05Q40.34 14.28 40.27 14.66L42.15 14.66Q42.1 14.28 41.87 14.05Q41.63 13.83 41.26 13.83ZM44.94 13.34Q45.33 13.34 45.64 13.51Q45.95 13.68 46.12 14Q46.3 14.33 46.3 14.78L46.3 16.17Q46.3 16.3 46.21 16.38Q46.13 16.46 46.01 16.46Q45.88 16.46 45.8 16.38Q45.72 16.3 45.72 16.17L45.72 14.78Q45.72 14.33 45.48 14.09Q45.23 13.86 44.82 13.86Q44.59 13.86 44.39 13.95Q44.2 14.05 44.09 14.21Q43.98 14.38 43.98 14.58L43.98 16.17Q43.98 16.3 43.9 16.38Q43.82 16.46 43.69 16.46Q43.56 16.46 43.48 16.38Q43.4 16.3 43.4 16.17L43.4 13.65Q43.4 13.52 43.48 13.44Q43.56 13.37 43.69 13.37Q43.82 13.37 43.9 13.44Q43.98 13.52 43.98 13.65L43.98 13.72Q44.16 13.54 44.41 13.44Q44.65 13.34 44.94 13.34ZM48.65 16.48Q48.2 16.48 47.85 16.27Q47.49 16.07 47.29 15.71Q47.09 15.35 47.09 14.91Q47.09 14.46 47.29 14.1Q47.48 13.74 47.83 13.54Q48.18 13.34 48.62 13.34Q49.29 13.34 49.73 13.85Q49.78 13.91 49.78 14Q49.78 14.12 49.66 14.21Q49.6 14.25 49.53 14.25Q49.4 14.25 49.31 14.14Q49.17 13.99 49 13.92Q48.84 13.85 48.62 13.85Q48.19 13.85 47.92 14.14Q47.65 14.43 47.65 14.91Q47.65 15.22 47.77 15.46Q47.9 15.7 48.13 15.83Q48.36 15.97 48.65 15.97Q49.03 15.97 49.27 15.77Q49.38 15.69 49.48 15.69Q49.56 15.69 49.63 15.74Q49.73 15.83 49.73 15.95Q49.73 16.03 49.67 16.1Q49.26 16.48 48.65 16.48ZM53 13.39Q53.18 13.46 53.18 13.61Q53.18 13.67 53.14 13.75L51.42 17.63Q51.35 17.81 51.2 17.81Q51.14 17.81 51.06 17.77Q50.89 17.7 50.89 17.55Q50.89 17.49 50.92 17.42L51.49 16.15L50.22 13.74Q50.19 13.69 50.19 13.62Q50.19 13.55 50.24 13.48Q50.28 13.42 50.35 13.39Q50.41 13.37 50.47 13.37Q50.63 13.37 50.7 13.52L51.74 15.58L52.65 13.53Q52.72 13.37 52.87 13.37Q52.94 13.37 53 13.39ZM57.17 13.98Q57.45 14.15 57.61 14.44Q57.77 14.72 57.77 15.08Q57.77 15.46 57.6 15.77Q57.43 16.09 57.14 16.27Q56.84 16.45 56.47 16.45Q56.11 16.45 55.81 16.27Q55.51 16.09 55.34 15.78Q55.17 15.48 55.17 15.09Q55.17 14.74 55.33 14.45Q55.49 14.16 55.77 13.98Q55.58 13.83 55.47 13.61Q55.36 13.39 55.36 13.13Q55.36 12.82 55.5 12.56Q55.65 12.3 55.91 12.16Q56.16 12.01 56.48 12.01Q56.79 12.01 57.05 12.16Q57.3 12.3 57.44 12.55Q57.59 12.81 57.59 13.12Q57.59 13.39 57.48 13.61Q57.36 13.83 57.17 13.98ZM55.91 13.13Q55.91 13.38 56.08 13.56Q56.24 13.73 56.47 13.73Q56.71 13.73 56.87 13.55Q57.03 13.37 57.03 13.11Q57.03 12.86 56.87 12.7Q56.71 12.54 56.47 12.54Q56.23 12.54 56.07 12.7Q55.91 12.87 55.91 13.13ZM57.21 15.08Q57.21 14.75 57 14.53Q56.79 14.3 56.47 14.3Q56.15 14.3 55.94 14.53Q55.73 14.76 55.73 15.1Q55.73 15.33 55.83 15.52Q55.93 15.71 56.09 15.82Q56.26 15.93 56.47 15.93Q56.68 15.93 56.85 15.82Q57.01 15.7 57.11 15.51Q57.21 15.31 57.21 15.08Z" aria-label="Frequency 8"/></g></g>
 <g transform="translate(1.7473)">
  <g fill="#ffffff" stroke-width=".26458" text-align="center" word-spacing="0px" style="line-height:1.25" xml:space="preserve"><g fill="#ffffff" stroke-width=".26458"><path d="M2.91 33.23Q2.82 33.23 2.75 33.16Q2.69 33.1 2.69 33.01L2.69 30.14Q2.69 30.04 2.75 29.98Q2.82 29.92 2.91 29.92L4.82 29.92Q4.92 29.92 4.98 29.98Q5.04 30.04 5.04 30.13Q5.04 30.22 4.98 30.27Q4.92 30.33 4.82 30.33L3.13 30.33L3.13 31.36L4.35 31.36Q4.44 31.36 4.5 31.41Q4.56 31.47 4.56 31.56Q4.56 31.65 4.5 31.71Q4.44 31.76 4.35 31.76L3.13 31.76L3.13 32.82L4.82 32.82Q4.92 32.82 4.98 32.88Q5.04 32.93 5.04 33.02Q5.04 33.11 4.98 33.17Q4.92 33.23 4.82 33.23L2.91 33.23ZM6.76 30.89Q7.05 30.89 7.29 31.02Q7.52 31.15 7.65 31.39Q7.78 31.63 7.78 31.97L7.78 33.02Q7.78 33.11 7.72 33.17Q7.66 33.23 7.57 33.23Q7.47 33.23 7.41 33.17Q7.35 33.11 7.35 33.02L7.35 31.97Q7.35 31.63 7.17 31.46Q6.98 31.28 6.68 31.28Q6.5 31.28 6.35 31.35Q6.21 31.42 6.13 31.55Q6.04 31.67 6.04 31.82L6.04 33.02Q6.04 33.11 5.98 33.17Q5.92 33.23 5.83 33.23Q5.73 33.23 5.67 33.17Q5.61 33.11 5.61 33.02L5.61 31.13Q5.61 31.03 5.67 30.97Q5.73 30.91 5.83 30.91Q5.92 30.91 5.98 30.97Q6.04 31.03 6.04 31.13L6.04 31.17Q6.18 31.04 6.36 30.97Q6.55 30.89 6.76 30.89ZM9.48 32.8Q9.56 32.8 9.61 32.86Q9.67 32.92 9.67 33.02Q9.67 33.11 9.6 33.17Q9.53 33.23 9.42 33.23L9.34 33.23Q9.13 33.23 8.96 33.12Q8.79 33.01 8.69 32.83Q8.6 32.64 8.6 32.41L8.6 31.36L8.4 31.36Q8.31 31.36 8.26 31.31Q8.2 31.26 8.2 31.18Q8.2 31.1 8.26 31.05Q8.31 31 8.4 31L8.6 31L8.6 30.39Q8.6 30.29 8.65 30.23Q8.71 30.18 8.81 30.18Q8.9 30.18 8.96 30.23Q9.02 30.29 9.02 30.39L9.02 31L9.38 31Q9.47 31 9.52 31.05Q9.58 31.1 9.58 31.18Q9.58 31.26 9.52 31.31Q9.47 31.36 9.38 31.36L9.02 31.36L9.02 32.41Q9.02 32.58 9.11 32.69Q9.21 32.8 9.34 32.8L9.48 32.8ZM12.27 32.03Q12.27 32.11 12.22 32.17Q12.16 32.22 12.08 32.22L10.47 32.22Q10.52 32.52 10.74 32.7Q10.96 32.88 11.28 32.88Q11.41 32.88 11.55 32.83Q11.69 32.79 11.77 32.72Q11.83 32.67 11.91 32.67Q11.99 32.67 12.04 32.72Q12.12 32.78 12.12 32.86Q12.12 32.94 12.05 32.99Q11.91 33.1 11.69 33.17Q11.48 33.24 11.28 33.24Q10.94 33.24 10.66 33.09Q10.39 32.94 10.23 32.68Q10.08 32.41 10.08 32.07Q10.08 31.73 10.22 31.46Q10.37 31.2 10.63 31.05Q10.89 30.9 11.22 30.9Q11.55 30.9 11.78 31.04Q12.02 31.18 12.15 31.44Q12.27 31.7 12.27 32.03ZM11.22 31.26Q10.91 31.26 10.72 31.43Q10.53 31.6 10.48 31.88L11.88 31.88Q11.85 31.6 11.67 31.43Q11.5 31.26 11.22 31.26ZM13.96 30.89Q14.18 30.89 14.31 30.95Q14.44 31.02 14.44 31.12Q14.44 31.15 14.43 31.17Q14.4 31.3 14.26 31.3Q14.24 31.3 14.2 31.29Q14.03 31.26 13.93 31.26Q13.62 31.26 13.43 31.4Q13.25 31.54 13.25 31.78L13.25 33.02Q13.25 33.12 13.19 33.17Q13.14 33.23 13.04 33.23Q12.93 33.23 12.88 33.18Q12.82 33.12 12.82 33.02L12.82 31.12Q12.82 31.02 12.88 30.97Q12.93 30.91 13.04 30.91Q13.25 30.91 13.25 31.12L13.25 31.2Q13.37 31.06 13.56 30.97Q13.75 30.89 13.96 30.89ZM17.89 30.93Q18.02 30.98 18.02 31.1Q18.02 31.14 18 31.2L16.7 34.11Q16.65 34.24 16.54 34.24Q16.49 34.24 16.44 34.22Q16.31 34.16 16.31 34.05Q16.31 34 16.33 33.95L16.76 33L15.8 31.19Q15.78 31.15 15.78 31.1Q15.78 31.05 15.82 31Q15.85 30.95 15.91 30.93Q15.94 30.91 15.99 30.91Q16.11 30.91 16.17 31.03L16.94 32.57L17.63 31.04Q17.68 30.91 17.79 30.91Q17.85 30.91 17.89 30.93ZM19.37 33.24Q19.03 33.24 18.76 33.09Q18.5 32.94 18.35 32.68Q18.2 32.41 18.2 32.07Q18.2 31.73 18.35 31.46Q18.5 31.2 18.76 31.05Q19.03 30.9 19.37 30.9Q19.7 30.9 19.97 31.05Q20.23 31.2 20.38 31.46Q20.53 31.73 20.53 32.07Q20.53 32.41 20.39 32.68Q20.24 32.94 19.97 33.09Q19.71 33.24 19.37 33.24ZM19.37 32.86Q19.59 32.86 19.76 32.76Q19.93 32.66 20.02 32.48Q20.12 32.3 20.12 32.07Q20.12 31.84 20.02 31.66Q19.93 31.48 19.76 31.38Q19.59 31.28 19.37 31.28Q19.15 31.28 18.98 31.38Q18.81 31.48 18.71 31.66Q18.62 31.84 18.62 32.07Q18.62 32.3 18.71 32.48Q18.81 32.66 18.98 32.76Q19.15 32.86 19.37 32.86ZM23.09 30.91Q23.18 30.91 23.24 30.97Q23.3 31.03 23.3 31.12L23.3 33.01Q23.3 33.11 23.24 33.17Q23.18 33.23 23.09 33.23Q22.99 33.23 22.93 33.17Q22.87 33.11 22.87 33.01L22.87 32.97Q22.73 33.1 22.55 33.18Q22.36 33.25 22.15 33.25Q21.86 33.25 21.63 33.12Q21.39 33 21.26 32.75Q21.13 32.51 21.13 32.17L21.13 31.12Q21.13 31.03 21.19 30.97Q21.25 30.91 21.35 30.91Q21.44 30.91 21.5 30.97Q21.56 31.03 21.56 31.12L21.56 32.17Q21.56 32.51 21.75 32.68Q21.93 32.86 22.24 32.86Q22.41 32.86 22.56 32.79Q22.71 32.72 22.79 32.59Q22.87 32.47 22.87 32.32L22.87 31.12Q22.87 31.03 22.93 30.97Q22.99 30.91 23.09 30.91ZM25.2 30.89Q25.42 30.89 25.55 30.95Q25.68 31.02 25.68 31.12Q25.68 31.15 25.67 31.17Q25.63 31.3 25.5 31.3Q25.48 31.3 25.44 31.29Q25.27 31.26 25.16 31.26Q24.86 31.26 24.67 31.4Q24.49 31.54 24.49 31.78L24.49 33.02Q24.49 33.12 24.43 33.17Q24.38 33.23 24.28 33.23Q24.17 33.23 24.12 33.18Q24.06 33.12 24.06 33.02L24.06 31.12Q24.06 31.02 24.12 30.97Q24.17 30.91 24.28 30.91Q24.49 30.91 24.49 31.12L24.49 31.2Q24.61 31.06 24.8 30.97Q24.99 30.89 25.2 30.89ZM28.41 33.24Q28.08 33.24 27.81 33.09Q27.54 32.94 27.39 32.67Q27.24 32.4 27.24 32.07Q27.24 31.73 27.39 31.46Q27.54 31.2 27.8 31.05Q28.06 30.9 28.39 30.9Q28.89 30.9 29.22 31.28Q29.26 31.32 29.26 31.39Q29.26 31.48 29.17 31.54Q29.13 31.57 29.07 31.57Q28.97 31.57 28.91 31.5Q28.8 31.38 28.68 31.33Q28.55 31.28 28.39 31.28Q28.06 31.28 27.86 31.49Q27.66 31.71 27.66 32.07Q27.66 32.3 27.75 32.48Q27.85 32.66 28.02 32.76Q28.19 32.86 28.41 32.86Q28.7 32.86 28.88 32.72Q28.96 32.66 29.03 32.66Q29.09 32.66 29.14 32.69Q29.22 32.76 29.22 32.85Q29.22 32.91 29.17 32.96Q28.87 33.24 28.41 33.24ZM30.96 33.24Q30.62 33.24 30.35 33.09Q30.08 32.94 29.94 32.68Q29.79 32.41 29.79 32.07Q29.79 31.73 29.94 31.46Q30.08 31.2 30.35 31.05Q30.62 30.9 30.96 30.9Q31.29 30.9 31.55 31.05Q31.82 31.2 31.97 31.46Q32.12 31.73 32.12 32.07Q32.12 32.41 31.97 32.68Q31.82 32.94 31.56 33.09Q31.29 33.24 30.96 33.24ZM30.96 32.86Q31.17 32.86 31.34 32.76Q31.51 32.66 31.61 32.48Q31.71 32.3 31.71 32.07Q31.71 31.84 31.61 31.66Q31.51 31.48 31.34 31.38Q31.17 31.28 30.96 31.28Q30.74 31.28 30.57 31.38Q30.4 31.48 30.3 31.66Q30.2 31.84 30.2 32.07Q30.2 32.3 30.3 32.48Q30.4 32.66 30.57 32.76Q30.74 32.86 30.96 32.86ZM33.81 33.24Q33.47 33.24 33.21 33.09Q32.94 32.94 32.79 32.68Q32.64 32.41 32.64 32.07Q32.64 31.73 32.79 31.46Q32.94 31.2 33.21 31.05Q33.47 30.9 33.81 30.9Q34.15 30.9 34.41 31.05Q34.68 31.2 34.83 31.46Q34.98 31.73 34.98 32.07Q34.98 32.41 34.83 32.68Q34.68 32.94 34.42 33.09Q34.15 33.24 33.81 33.24ZM33.81 32.86Q34.03 32.86 34.2 32.76Q34.37 32.66 34.47 32.48Q34.56 32.3 34.56 32.07Q34.56 31.84 34.47 31.66Q34.37 31.48 34.2 31.38Q34.03 31.28 33.81 31.28Q33.6 31.28 33.43 31.38Q33.25 31.48 33.16 31.66Q33.06 31.84 33.06 32.07Q33.06 32.3 33.16 32.48Q33.25 32.66 33.43 32.76Q33.6 32.86 33.81 32.86ZM36.76 30.89Q36.98 30.89 37.11 30.95Q37.23 31.02 37.23 31.12Q37.23 31.15 37.23 31.17Q37.19 31.3 37.06 31.3Q37.04 31.3 37 31.29Q36.83 31.26 36.72 31.26Q36.42 31.26 36.23 31.4Q36.04 31.54 36.04 31.78L36.04 33.02Q36.04 33.12 35.99 33.17Q35.94 33.23 35.83 33.23Q35.73 33.23 35.68 33.18Q35.62 33.12 35.62 33.02L35.62 31.12Q35.62 31.02 35.68 30.97Q35.73 30.91 35.83 30.91Q36.04 30.91 36.04 31.12L36.04 31.2Q36.17 31.06 36.36 30.97Q36.54 30.89 36.76 30.89ZM39.51 29.92Q39.6 29.92 39.66 29.98Q39.72 30.04 39.72 30.14L39.72 32.07Q39.72 32.4 39.57 32.67Q39.41 32.94 39.15 33.09Q38.88 33.24 38.56 33.24Q38.23 33.24 37.96 33.09Q37.7 32.94 37.54 32.67Q37.39 32.4 37.39 32.07Q37.39 31.74 37.53 31.47Q37.67 31.2 37.92 31.05Q38.17 30.9 38.47 30.9Q38.72 30.9 38.93 31Q39.14 31.1 39.29 31.28L39.29 30.14Q39.29 30.04 39.35 29.98Q39.41 29.92 39.51 29.92ZM38.56 32.86Q38.77 32.86 38.94 32.76Q39.11 32.66 39.21 32.47Q39.31 32.29 39.31 32.07Q39.31 31.84 39.21 31.66Q39.11 31.48 38.94 31.38Q38.77 31.28 38.56 31.28Q38.35 31.28 38.18 31.38Q38 31.48 37.9 31.66Q37.81 31.84 37.81 32.07Q37.81 32.29 37.9 32.47Q38 32.66 38.18 32.76Q38.35 32.86 38.56 32.86ZM40.74 33.23Q40.65 33.23 40.59 33.17Q40.53 33.11 40.53 33.01L40.53 31.13Q40.53 31.03 40.59 30.97Q40.65 30.91 40.74 30.91Q40.84 30.91 40.9 30.97Q40.96 31.03 40.96 31.13L40.96 33.01Q40.96 33.11 40.9 33.17Q40.84 33.23 40.74 33.23ZM40.74 30.54Q40.63 30.54 40.55 30.45Q40.46 30.37 40.46 30.26Q40.46 30.14 40.55 30.06Q40.63 29.98 40.74 29.98Q40.86 29.98 40.94 30.06Q41.02 30.14 41.02 30.26Q41.02 30.37 40.94 30.45Q40.86 30.54 40.74 30.54ZM42.91 30.89Q43.21 30.89 43.44 31.02Q43.67 31.15 43.8 31.39Q43.94 31.63 43.94 31.97L43.94 33.02Q43.94 33.11 43.87 33.17Q43.81 33.23 43.72 33.23Q43.63 33.23 43.56 33.17Q43.5 33.11 43.5 33.02L43.5 31.97Q43.5 31.63 43.32 31.46Q43.13 31.28 42.83 31.28Q42.65 31.28 42.51 31.35Q42.36 31.42 42.28 31.55Q42.2 31.67 42.2 31.82L42.2 33.02Q42.2 33.11 42.14 33.17Q42.08 33.23 41.98 33.23Q41.89 33.23 41.82 33.17Q41.76 33.11 41.76 33.02L41.76 31.13Q41.76 31.03 41.82 30.97Q41.89 30.91 41.98 30.91Q42.08 30.91 42.14 30.97Q42.2 31.03 42.2 31.13L42.2 31.17Q42.33 31.04 42.52 30.97Q42.7 30.89 42.91 30.89ZM45.7 30.9Q46.03 30.9 46.29 31.05Q46.56 31.2 46.71 31.47Q46.86 31.74 46.86 32.07L46.86 33.02Q46.86 33.11 46.8 33.17Q46.74 33.23 46.65 33.23Q46.56 33.23 46.49 33.17Q46.43 33.11 46.43 33.02L46.43 32.86Q46.28 33.04 46.07 33.14Q45.86 33.24 45.62 33.24Q45.31 33.24 45.06 33.09Q44.82 32.94 44.67 32.67Q44.53 32.4 44.53 32.07Q44.53 31.74 44.68 31.47Q44.84 31.2 45.11 31.05Q45.37 30.9 45.7 30.9ZM45.7 32.86Q45.91 32.86 46.08 32.76Q46.25 32.66 46.35 32.48Q46.45 32.3 46.45 32.07Q46.45 31.85 46.35 31.67Q46.25 31.48 46.08 31.38Q45.91 31.28 45.7 31.28Q45.49 31.28 45.32 31.38Q45.15 31.48 45.05 31.67Q44.95 31.85 44.95 32.07Q44.95 32.3 45.05 32.48Q45.15 32.66 45.32 32.76Q45.49 32.86 45.7 32.86ZM48.49 32.8Q48.57 32.8 48.62 32.86Q48.68 32.92 48.68 33.02Q48.68 33.11 48.61 33.17Q48.54 33.23 48.43 33.23L48.35 33.23Q48.14 33.23 47.97 33.12Q47.8 33.01 47.7 32.83Q47.61 32.64 47.61 32.41L47.61 31.36L47.41 31.36Q47.32 31.36 47.27 31.31Q47.21 31.26 47.21 31.18Q47.21 31.1 47.27 31.05Q47.32 31 47.41 31L47.61 31L47.61 30.39Q47.61 30.29 47.66 30.23Q47.72 30.18 47.82 30.18Q47.91 30.18 47.97 30.23Q48.03 30.29 48.03 30.39L48.03 31L48.39 31Q48.48 31 48.53 31.05Q48.59 31.1 48.59 31.18Q48.59 31.26 48.53 31.31Q48.48 31.36 48.39 31.36L48.03 31.36L48.03 32.41Q48.03 32.58 48.12 32.69Q48.21 32.8 48.35 32.8L48.49 32.8ZM51.28 32.03Q51.28 32.11 51.23 32.17Q51.17 32.22 51.09 32.22L49.48 32.22Q49.53 32.52 49.75 32.7Q49.97 32.88 50.29 32.88Q50.42 32.88 50.56 32.83Q50.7 32.79 50.78 32.72Q50.84 32.67 50.92 32.67Q51 32.67 51.05 32.72Q51.13 32.78 51.13 32.86Q51.13 32.94 51.06 32.99Q50.92 33.1 50.7 33.17Q50.49 33.24 50.29 33.24Q49.95 33.24 49.67 33.09Q49.4 32.94 49.24 32.68Q49.09 32.41 49.09 32.07Q49.09 31.73 49.23 31.46Q49.38 31.2 49.64 31.05Q49.9 30.9 50.23 30.9Q50.56 30.9 50.79 31.04Q51.03 31.18 51.16 31.44Q51.28 31.7 51.28 32.03ZM50.23 31.26Q49.92 31.26 49.73 31.43Q49.54 31.6 49.48 31.88L50.89 31.88Q50.86 31.6 50.68 31.43Q50.51 31.26 50.23 31.26ZM52.68 33.24Q52.39 33.24 52.13 33.16Q51.88 33.07 51.74 32.92Q51.68 32.87 51.68 32.79Q51.68 32.69 51.77 32.63Q51.85 32.57 51.91 32.57Q52 32.57 52.08 32.64Q52.16 32.73 52.32 32.8Q52.48 32.86 52.66 32.86Q52.9 32.86 53.03 32.78Q53.17 32.7 53.17 32.57Q53.17 32.44 53.04 32.35Q52.91 32.26 52.59 32.2Q51.78 32.05 51.78 31.53Q51.78 31.33 51.9 31.18Q52.02 31.04 52.22 30.97Q52.42 30.9 52.65 30.9Q52.92 30.9 53.14 30.98Q53.36 31.07 53.49 31.23Q53.54 31.3 53.54 31.37Q53.54 31.44 53.47 31.5Q53.42 31.53 53.35 31.53Q53.24 31.53 53.15 31.45Q53.05 31.35 52.93 31.31Q52.81 31.27 52.64 31.27Q52.44 31.27 52.32 31.34Q52.19 31.4 52.19 31.52Q52.19 31.61 52.24 31.66Q52.28 31.72 52.4 31.77Q52.52 31.82 52.74 31.86Q53.2 31.96 53.39 32.12Q53.59 32.29 53.59 32.55Q53.59 32.75 53.48 32.9Q53.38 33.06 53.17 33.15Q52.96 33.24 52.68 33.24ZM57.04 31.56Q57.16 31.64 57.16 31.75Q57.16 31.88 57.04 31.95L55.48 32.89Q55.43 32.91 55.37 32.91Q55.29 32.91 55.22 32.85Q55.15 32.79 55.15 32.7Q55.15 32.58 55.26 32.51L56.53 31.75L55.26 30.99Q55.15 30.93 55.15 30.8Q55.15 30.71 55.22 30.66Q55.28 30.6 55.37 30.6Q55.42 30.6 55.48 30.62L57.04 31.56Z" aria-label="Enter your coordinates &gt; "/></g></g>
  <rect x="58.436" y="29.922" width="16" height="4" fill="#fff" stroke-width="0"/>
 </g>
</svg>