<svg width="180.28mm" height="61.9mm" version="1.1" viewBox="0 0 180.28 61.9" xmlns="http://www.w3.org/2000/svg" xmlns:cc="http://creativecommons.org/ns#" xmlns:dc="http://purl.org/dc/elements/1.1/" xmlns:rdf="http://www.w3.org/1999/02/22-rdf-syntax-ns#">
 <title>Fully qualified Antora resource ID</title>
 <metadata>
  <rdf:RDF>
   <cc:Work rdf:about="">
    <dc:format>image/svg+xml</dc:format>
    <dc:type rdf:resource="http://purl.org/dc/dcmitype/StillImage"/>
    <dc:title>Fully qualified Antora resource ID</dc:title>
    <dc:creator>
     <cc:Agent>
      <dc:title>Sarah White</dc:title>
     </cc:Agent>
    </dc:creator>
    <dc:publisher>
     <cc:Agent>
      <dc:title>OpenDevise Inc.</dc:title>
     </cc:Agent>
    </dc:publisher>
    <dc:subject>
     <rdf:Bag>
      <rdf:li>Antora resource ID</rdf:li>
     </rdf:Bag>
    </dc:subject>
    <cc:license rdf:resource="http://creativecommons.org/licenses/by-sa/4.0/"/>
   </cc:Work>
   <cc:License rdf:about="http://creativecommons.org/licenses/by-sa/4.0/">
    <cc:permits rdf:resource="http://creativecommons.org/ns#Reproduction"/>
    <cc:permits rdf:resource="http://creativecommons.org/ns#Distribution"/>
    <cc:requires rdf:resource="http://creativecommons.org/ns#Notice"/>
    <cc:requires rdf:resource="http://creativecommons.org/ns#Attribution"/>
    <cc:permits rdf:resource="http://creativecommons.org/ns#DerivativeWorks"/>
    <cc:requires rdf:resource="http://creativecommons.org/ns#ShareAlike"/>
   </cc:License>
  </rdf:RDF>
 </metadata>
 <g transform="translate(3.8721e-7 -228.09)">
  <g>
   <rect y="228.09" width="180.28" height="61.9" fill="#fff"/>
   <g transform="scale(1 .99998)" fill="#242424" stroke-width=".0727px" word-spacing="0px" style="font-feature-settings:normal;font-variant-caps:normal;font-variant-ligatures:normal;font-variant-numeric:normal;line-height:0%" xml:space="preserve"><g stroke-width=".0727px" style="font-feature-settings:normal;font-variant-caps:normal;font-variant-ligatures:normal;font-variant-numeric:normal;line-height:125%"><g fill="#de4c36"><path d="M4.06 257.96L2.39 261.79L1.68 261.79L0 257.96L0.72 257.96L2.04 261.03L3.38 257.96ZM8.07 259.9Q8.07 259.98 8.05 260.11L4.95 260.11Q5.01 260.61 5.39 260.92Q5.77 261.23 6.33 261.23Q7.02 261.23 7.44 260.77L7.82 261.21Q7.56 261.52 7.18 261.68Q6.79 261.84 6.31 261.84Q5.7 261.84 5.23 261.59Q4.76 261.34 4.51 260.89Q4.25 260.44 4.25 259.88Q4.25 259.32 4.5 258.87Q4.75 258.42 5.19 258.17Q5.62 257.92 6.17 257.92Q6.72 257.92 7.15 258.17Q7.58 258.42 7.83 258.87Q8.07 259.32 8.07 259.9ZM6.17 258.51Q5.68 258.51 5.34 258.81Q5 259.12 4.95 259.61L7.4 259.61Q7.35 259.12 7.01 258.82Q6.67 258.51 6.17 258.51ZM9.7 258.6Q9.88 258.27 10.23 258.1Q10.58 257.92 11.09 257.92L11.09 258.6Q11.03 258.59 10.93 258.59Q10.37 258.59 10.05 258.93Q9.72 259.26 9.72 259.88L9.72 261.79L9.03 261.79L9.03 257.96L9.7 257.96L9.7 258.6ZM13.07 261.84Q12.6 261.84 12.17 261.71Q11.73 261.58 11.49 261.39L11.78 260.84Q12.03 261.02 12.39 261.13Q12.75 261.24 13.12 261.24Q14.03 261.24 14.03 260.72Q14.03 260.54 13.91 260.44Q13.79 260.34 13.6 260.29Q13.42 260.25 13.08 260.19Q12.62 260.12 12.32 260.02Q12.03 259.93 11.82 259.7Q11.61 259.48 11.61 259.07Q11.61 258.55 12.04 258.24Q12.48 257.92 13.21 257.92Q13.59 257.92 13.98 258.02Q14.36 258.11 14.6 258.27L14.31 258.82Q13.84 258.52 13.2 258.52Q12.76 258.52 12.53 258.66Q12.3 258.81 12.3 259.05Q12.3 259.23 12.43 259.34Q12.56 259.45 12.75 259.5Q12.94 259.55 13.29 259.62Q13.75 259.7 14.04 259.79Q14.32 259.88 14.52 260.09Q14.73 260.31 14.73 260.7Q14.73 261.22 14.28 261.53Q13.84 261.84 13.07 261.84ZM15.59 257.96L16.29 257.96L16.29 261.79L15.59 261.79ZM15.94 257.22Q15.74 257.22 15.61 257.09Q15.47 256.96 15.47 256.78Q15.47 256.59 15.61 256.45Q15.74 256.32 15.94 256.32Q16.14 256.32 16.28 256.45Q16.41 256.57 16.41 256.76Q16.41 256.96 16.28 257.09Q16.14 257.22 15.94 257.22ZM19.25 261.84Q18.68 261.84 18.23 261.58Q17.77 261.33 17.51 260.89Q17.26 260.44 17.26 259.88Q17.26 259.31 17.51 258.87Q17.77 258.42 18.23 258.17Q18.68 257.92 19.25 257.92Q19.82 257.92 20.28 258.17Q20.73 258.42 20.98 258.87Q21.24 259.31 21.24 259.88Q21.24 260.44 20.98 260.89Q20.73 261.33 20.28 261.58Q19.82 261.84 19.25 261.84ZM19.25 261.23Q19.62 261.23 19.91 261.06Q20.21 260.89 20.37 260.58Q20.54 260.27 20.54 259.88Q20.54 259.48 20.37 259.17Q20.21 258.86 19.91 258.7Q19.62 258.53 19.25 258.53Q18.88 258.53 18.59 258.7Q18.3 258.86 18.13 259.17Q17.96 259.48 17.96 259.88Q17.96 260.27 18.13 260.58Q18.3 260.89 18.59 261.06Q18.88 261.23 19.25 261.23ZM24.25 257.92Q24.98 257.92 25.41 258.35Q25.84 258.77 25.84 259.59L25.84 261.79L25.15 261.79L25.15 259.67Q25.15 259.11 24.88 258.83Q24.61 258.55 24.11 258.55Q23.55 258.55 23.22 258.88Q22.9 259.2 22.9 259.82L22.9 261.79L22.2 261.79L22.2 257.96L22.87 257.96L22.87 258.54Q23.08 258.24 23.44 258.08Q23.79 257.92 24.25 257.92ZM30.23 256.68Q31.2 256.68 31.97 257.08Q32.74 257.48 33.17 258.21Q33.6 258.93 33.6 259.86Q33.6 260.78 33.26 261.31Q32.92 261.84 32.31 261.84Q31.96 261.84 31.74 261.66Q31.51 261.48 31.44 261.15Q31.23 261.48 30.87 261.66Q30.52 261.84 30.07 261.84Q29.56 261.84 29.16 261.6Q28.75 261.36 28.53 260.94Q28.3 260.51 28.3 259.98Q28.3 259.45 28.53 259.03Q28.75 258.6 29.16 258.37Q29.56 258.13 30.07 258.13Q30.49 258.13 30.83 258.29Q31.17 258.45 31.39 258.75L31.39 258.16L32.02 258.16L32.02 260.77Q32.02 261.03 32.14 261.16Q32.25 261.29 32.43 261.29Q32.75 261.29 32.93 260.91Q33.11 260.54 33.11 259.86Q33.11 259.06 32.74 258.45Q32.38 257.84 31.73 257.5Q31.07 257.16 30.23 257.16Q29.37 257.16 28.72 257.51Q28.07 257.87 27.7 258.5Q27.34 259.14 27.34 259.96Q27.34 260.78 27.7 261.42Q28.06 262.05 28.71 262.41Q29.35 262.77 30.2 262.77Q30.55 262.77 30.92 262.69Q31.29 262.61 31.59 262.45L31.75 262.91Q31.44 263.08 31.02 263.17Q30.6 263.25 30.2 263.25Q29.21 263.25 28.44 262.83Q27.67 262.41 27.24 261.66Q26.82 260.9 26.82 259.96Q26.82 259.01 27.25 258.26Q27.68 257.52 28.45 257.1Q29.23 256.68 30.23 256.68ZM30.17 261.27Q30.52 261.27 30.8 261.11Q31.08 260.95 31.24 260.66Q31.41 260.37 31.41 259.98Q31.41 259.59 31.24 259.29Q31.08 259 30.8 258.85Q30.52 258.69 30.17 258.69Q29.62 258.69 29.28 259.04Q28.94 259.39 28.94 259.98Q28.94 260.56 29.28 260.92Q29.63 261.27 30.17 261.27Z" aria-label="version@"/></g><g fill="#9340a4"><path d="M36.27 261.84Q35.69 261.84 35.23 261.58Q34.77 261.33 34.51 260.89Q34.25 260.44 34.25 259.88Q34.25 259.31 34.51 258.87Q34.77 258.42 35.23 258.17Q35.69 257.92 36.27 257.92Q36.79 257.92 37.2 258.13Q37.61 258.34 37.83 258.74L37.31 259.08Q37.13 258.81 36.86 258.67Q36.59 258.53 36.26 258.53Q35.89 258.53 35.59 258.7Q35.29 258.86 35.12 259.17Q34.95 259.48 34.95 259.88Q34.95 260.28 35.12 260.59Q35.29 260.9 35.59 261.06Q35.89 261.23 36.26 261.23Q36.59 261.23 36.86 261.09Q37.13 260.95 37.31 260.68L37.83 261.01Q37.61 261.41 37.2 261.62Q36.79 261.84 36.27 261.84ZM40.31 261.84Q39.74 261.84 39.29 261.58Q38.83 261.33 38.57 260.89Q38.32 260.44 38.32 259.88Q38.32 259.31 38.57 258.87Q38.83 258.42 39.29 258.17Q39.74 257.92 40.31 257.92Q40.88 257.92 41.34 258.17Q41.79 258.42 42.04 258.87Q42.3 259.31 42.3 259.88Q42.3 260.44 42.04 260.89Q41.79 261.33 41.34 261.58Q40.88 261.84 40.31 261.84ZM40.31 261.23Q40.68 261.23 40.97 261.06Q41.27 260.89 41.43 260.58Q41.6 260.27 41.6 259.88Q41.6 259.48 41.43 259.17Q41.27 258.86 40.97 258.7Q40.68 258.53 40.31 258.53Q39.94 258.53 39.65 258.7Q39.36 258.86 39.19 259.17Q39.02 259.48 39.02 259.88Q39.02 260.27 39.19 260.58Q39.36 260.89 39.65 261.06Q39.94 261.23 40.31 261.23ZM48.06 257.92Q48.78 257.92 49.2 258.34Q49.63 258.76 49.63 259.59L49.63 261.79L48.93 261.79L48.93 259.67Q48.93 259.11 48.67 258.83Q48.42 258.55 47.94 258.55Q47.41 258.55 47.1 258.88Q46.79 259.2 46.79 259.82L46.79 261.79L46.1 261.79L46.1 259.67Q46.1 259.11 45.84 258.83Q45.58 258.55 45.11 258.55Q44.58 258.55 44.27 258.88Q43.96 259.2 43.96 259.82L43.96 261.79L43.26 261.79L43.26 257.96L43.93 257.96L43.93 258.53Q44.14 258.24 44.48 258.08Q44.82 257.92 45.25 257.92Q45.7 257.92 46.05 258.11Q46.39 258.29 46.58 258.63Q46.8 258.3 47.19 258.11Q47.57 257.92 48.06 257.92ZM52.94 257.92Q53.49 257.92 53.93 258.17Q54.38 258.42 54.62 258.86Q54.87 259.3 54.87 259.88Q54.87 260.46 54.62 260.9Q54.38 261.34 53.93 261.59Q53.49 261.84 52.94 261.84Q52.52 261.84 52.18 261.68Q51.84 261.52 51.6 261.21L51.6 263.2L50.91 263.2L50.91 257.96L51.57 257.96L51.57 258.57Q51.8 258.25 52.16 258.09Q52.51 257.92 52.94 257.92ZM52.88 261.23Q53.25 261.23 53.54 261.06Q53.83 260.89 54 260.58Q54.17 260.27 54.17 259.88Q54.17 259.48 54 259.17Q53.83 258.86 53.54 258.7Q53.25 258.53 52.88 258.53Q52.52 258.53 52.22 258.7Q51.93 258.87 51.76 259.18Q51.59 259.48 51.59 259.88Q51.59 260.27 51.76 260.58Q51.92 260.89 52.22 261.06Q52.52 261.23 52.88 261.23ZM57.48 261.84Q56.91 261.84 56.45 261.58Q55.99 261.33 55.74 260.89Q55.48 260.44 55.48 259.88Q55.48 259.31 55.74 258.87Q55.99 258.42 56.45 258.17Q56.91 257.92 57.48 257.92Q58.05 257.92 58.5 258.17Q58.95 258.42 59.21 258.87Q59.47 259.31 59.47 259.88Q59.47 260.44 59.21 260.89Q58.95 261.33 58.5 261.58Q58.05 261.84 57.48 261.84ZM57.48 261.23Q57.85 261.23 58.14 261.06Q58.43 260.89 58.6 260.58Q58.76 260.27 58.76 259.88Q58.76 259.48 58.6 259.17Q58.43 258.86 58.14 258.7Q57.85 258.53 57.48 258.53Q57.11 258.53 56.82 258.7Q56.52 258.86 56.35 259.17Q56.18 259.48 56.18 259.88Q56.18 260.27 56.35 260.58Q56.52 260.89 56.82 261.06Q57.11 261.23 57.48 261.23ZM62.47 257.92Q63.2 257.92 63.63 258.35Q64.06 258.77 64.06 259.59L64.06 261.79L63.37 261.79L63.37 259.67Q63.37 259.11 63.1 258.83Q62.83 258.55 62.34 258.55Q61.77 258.55 61.45 258.88Q61.12 259.2 61.12 259.82L61.12 261.79L60.43 261.79L60.43 257.96L61.09 257.96L61.09 258.54Q61.3 258.24 61.66 258.08Q62.02 257.92 62.47 257.92ZM68.83 259.9Q68.83 259.98 68.82 260.11L65.71 260.11Q65.78 260.61 66.16 260.92Q66.54 261.23 67.1 261.23Q67.79 261.23 68.21 260.77L68.59 261.21Q68.33 261.52 67.94 261.68Q67.56 261.84 67.08 261.84Q66.47 261.84 66 261.59Q65.53 261.34 65.27 260.89Q65.02 260.44 65.02 259.88Q65.02 259.32 65.27 258.87Q65.52 258.42 65.95 258.17Q66.39 257.92 66.94 257.92Q67.49 257.92 67.92 258.17Q68.35 258.42 68.59 258.87Q68.83 259.32 68.83 259.9ZM66.94 258.51Q66.44 258.51 66.11 258.81Q65.77 259.12 65.71 259.61L68.17 259.61Q68.11 259.12 67.78 258.82Q67.44 258.51 66.94 258.51ZM71.84 257.92Q72.57 257.92 73 258.35Q73.43 258.77 73.43 259.59L73.43 261.79L72.74 261.79L72.74 259.67Q72.74 259.11 72.47 258.83Q72.2 258.55 71.71 258.55Q71.14 258.55 70.82 258.88Q70.49 259.2 70.49 259.82L70.49 261.79L69.8 261.79L69.8 257.96L70.46 257.96L70.46 258.54Q70.67 258.24 71.03 258.08Q71.39 257.92 71.84 257.92ZM76.87 261.57Q76.72 261.7 76.5 261.77Q76.27 261.84 76.04 261.84Q75.46 261.84 75.14 261.53Q74.82 261.21 74.82 260.64L74.82 258.53L74.17 258.53L74.17 257.96L74.82 257.96L74.82 257.12L75.52 257.12L75.52 257.96L76.61 257.96L76.61 258.53L75.52 258.53L75.52 260.61Q75.52 260.92 75.67 261.08Q75.83 261.25 76.12 261.25Q76.43 261.25 76.66 261.07ZM77.88 258.92Q77.68 258.92 77.53 258.77Q77.39 258.63 77.39 258.42Q77.39 258.21 77.53 258.07Q77.68 257.92 77.88 257.92Q78.08 257.92 78.22 258.06Q78.36 258.2 78.36 258.42Q78.36 258.63 78.22 258.77Q78.07 258.92 77.88 258.92ZM77.88 261.84Q77.68 261.84 77.53 261.7Q77.39 261.55 77.39 261.34Q77.39 261.13 77.53 260.99Q77.68 260.85 77.88 260.85Q78.08 260.85 78.22 260.98Q78.36 261.12 78.36 261.34Q78.36 261.55 78.22 261.7Q78.07 261.84 77.88 261.84Z" aria-label="component:"/></g><g fill="#b91d5e"><path d="M84.15 257.92Q84.87 257.92 85.29 258.34Q85.72 258.76 85.72 259.59L85.72 261.79L85.02 261.79L85.02 259.67Q85.02 259.11 84.77 258.83Q84.51 258.55 84.03 258.55Q83.5 258.55 83.19 258.88Q82.88 259.2 82.88 259.82L82.88 261.79L82.19 261.79L82.19 259.67Q82.19 259.11 81.93 258.83Q81.68 258.55 81.2 258.55Q80.67 258.55 80.36 258.88Q80.05 259.2 80.05 259.82L80.05 261.79L79.35 261.79L79.35 257.96L80.02 257.96L80.02 258.53Q80.23 258.24 80.57 258.08Q80.91 257.92 81.34 257.92Q81.79 257.92 82.14 258.11Q82.48 258.29 82.67 258.63Q82.89 258.3 83.28 258.11Q83.66 257.92 84.15 257.92ZM88.66 261.84Q88.09 261.84 87.63 261.58Q87.18 261.33 86.92 260.89Q86.66 260.44 86.66 259.88Q86.66 259.31 86.92 258.87Q87.18 258.42 87.63 258.17Q88.09 257.92 88.66 257.92Q89.23 257.92 89.68 258.17Q90.13 258.42 90.39 258.87Q90.65 259.31 90.65 259.88Q90.65 260.44 90.39 260.89Q90.13 261.33 89.68 261.58Q89.23 261.84 88.66 261.84ZM88.66 261.23Q89.03 261.23 89.32 261.06Q89.61 260.89 89.78 260.58Q89.95 260.27 89.95 259.88Q89.95 259.48 89.78 259.17Q89.61 258.86 89.32 258.7Q89.03 258.53 88.66 258.53Q88.29 258.53 88 258.7Q87.7 258.86 87.53 259.17Q87.36 259.48 87.36 259.88Q87.36 260.27 87.53 260.58Q87.7 260.89 88 261.06Q88.29 261.23 88.66 261.23ZM95.22 256.43L95.22 261.79L94.56 261.79L94.56 261.19Q94.33 261.5 93.97 261.67Q93.62 261.84 93.19 261.84Q92.64 261.84 92.19 261.59Q91.75 261.34 91.5 260.9Q91.25 260.46 91.25 259.88Q91.25 259.3 91.5 258.86Q91.75 258.42 92.19 258.17Q92.64 257.92 93.19 257.92Q93.6 257.92 93.95 258.08Q94.3 258.24 94.53 258.54L94.53 256.43ZM93.25 261.23Q93.61 261.23 93.91 261.06Q94.2 260.89 94.37 260.58Q94.54 260.27 94.54 259.88Q94.54 259.48 94.37 259.17Q94.2 258.86 93.91 258.7Q93.61 258.53 93.25 258.53Q92.88 258.53 92.59 258.7Q92.3 258.86 92.13 259.17Q91.96 259.48 91.96 259.88Q91.96 260.27 92.13 260.58Q92.3 260.89 92.59 261.06Q92.88 261.23 93.25 261.23ZM100.11 257.96L100.11 261.79L99.45 261.79L99.45 261.21Q99.24 261.51 98.9 261.67Q98.56 261.84 98.15 261.84Q97.39 261.84 96.94 261.41Q96.5 260.99 96.5 260.17L96.5 257.96L97.2 257.96L97.2 260.09Q97.2 260.64 97.46 260.93Q97.73 261.21 98.23 261.21Q98.78 261.21 99.1 260.88Q99.42 260.55 99.42 259.94L99.42 257.96ZM101.43 256.43L102.13 256.43L102.13 261.79L101.43 261.79ZM106.91 259.9Q106.91 259.98 106.9 260.11L103.79 260.11Q103.86 260.61 104.24 260.92Q104.62 261.23 105.18 261.23Q105.87 261.23 106.29 260.77L106.67 261.21Q106.41 261.52 106.02 261.68Q105.63 261.84 105.16 261.84Q104.55 261.84 104.08 261.59Q103.61 261.34 103.35 260.89Q103.1 260.44 103.1 259.88Q103.1 259.32 103.35 258.87Q103.6 258.42 104.03 258.17Q104.47 257.92 105.02 257.92Q105.57 257.92 106 258.17Q106.43 258.42 106.67 258.87Q106.91 259.32 106.91 259.9ZM105.02 258.51Q104.52 258.51 104.19 258.81Q103.85 259.12 103.79 259.61L106.25 259.61Q106.19 259.12 105.86 258.82Q105.52 258.51 105.02 258.51ZM108.04 258.92Q107.84 258.92 107.7 258.77Q107.55 258.63 107.55 258.42Q107.55 258.21 107.7 258.07Q107.84 257.92 108.04 257.92Q108.24 257.92 108.38 258.06Q108.52 258.2 108.52 258.42Q108.52 258.63 108.38 258.77Q108.24 258.92 108.04 258.92ZM108.04 261.84Q107.84 261.84 107.7 261.7Q107.55 261.55 107.55 261.34Q107.55 261.13 107.7 260.99Q107.84 260.85 108.04 260.85Q108.24 260.85 108.38 260.98Q108.52 261.12 108.52 261.34Q108.52 261.55 108.38 261.7Q108.24 261.84 108.04 261.84Z" aria-label="module:"/></g><g fill="#2471dd"><path d="M110.92 256.96Q110.3 256.96 110.3 257.63L110.3 257.96L111.41 257.96L111.41 258.53L110.31 258.53L110.31 261.79L109.62 261.79L109.62 258.53L108.97 258.53L108.97 257.96L109.62 257.96L109.62 257.62Q109.62 257.05 109.95 256.72Q110.28 256.38 110.88 256.38Q111.11 256.38 111.32 256.44Q111.52 256.5 111.66 256.61L111.45 257.14Q111.22 256.96 110.92 256.96ZM113.39 257.92Q114.19 257.92 114.61 258.32Q115.03 258.71 115.03 259.48L115.03 261.79L114.38 261.79L114.38 261.29Q114.2 261.55 113.88 261.7Q113.56 261.84 113.12 261.84Q112.47 261.84 112.09 261.53Q111.7 261.21 111.7 260.71Q111.7 260.2 112.07 259.89Q112.44 259.59 113.24 259.59L114.34 259.59L114.34 259.45Q114.34 259 114.08 258.76Q113.82 258.52 113.31 258.52Q112.97 258.52 112.65 258.64Q112.32 258.75 112.1 258.94L111.81 258.42Q112.11 258.18 112.52 258.05Q112.93 257.92 113.39 257.92ZM113.23 261.3Q113.63 261.3 113.92 261.12Q114.21 260.95 114.34 260.62L114.34 260.09L113.27 260.09Q112.39 260.09 112.39 260.68Q112.39 260.97 112.61 261.13Q112.84 261.3 113.23 261.3ZM121.11 257.92Q121.84 257.92 122.26 258.34Q122.68 258.76 122.68 259.59L122.68 261.79L121.99 261.79L121.99 259.67Q121.99 259.11 121.73 258.83Q121.48 258.55 121 258.55Q120.47 258.55 120.16 258.88Q119.85 259.2 119.85 259.82L119.85 261.79L119.15 261.79L119.15 259.67Q119.15 259.11 118.9 258.83Q118.64 258.55 118.16 258.55Q117.64 258.55 117.33 258.88Q117.01 259.2 117.01 259.82L117.01 261.79L116.32 261.79L116.32 257.96L116.99 257.96L116.99 258.53Q117.2 258.24 117.53 258.08Q117.87 257.92 118.31 257.92Q118.76 257.92 119.1 258.11Q119.45 258.29 119.64 258.63Q119.86 258.3 120.24 258.11Q120.63 257.92 121.11 257.92ZM123.96 257.96L124.66 257.96L124.66 261.79L123.96 261.79ZM124.31 257.22Q124.11 257.22 123.97 257.09Q123.84 256.96 123.84 256.78Q123.84 256.59 123.97 256.45Q124.11 256.32 124.31 256.32Q124.51 256.32 124.65 256.45Q124.78 256.57 124.78 256.76Q124.78 256.96 124.65 257.09Q124.51 257.22 124.31 257.22ZM125.98 256.43L126.67 256.43L126.67 261.79L125.98 261.79ZM131.39 257.96L129.53 262.18Q129.28 262.76 128.95 263Q128.63 263.24 128.16 263.24Q127.88 263.24 127.62 263.15Q127.35 263.06 127.18 262.88L127.48 262.36Q127.77 262.65 128.16 262.65Q128.42 262.65 128.59 262.51Q128.76 262.38 128.89 262.05L129.02 261.79L127.32 257.96L128.05 257.96L129.38 261.03L130.71 257.96ZM135.52 260.41Q135.52 260.98 135.09 261.38Q134.66 261.78 133.85 261.84L133.85 262.66L133.38 262.66L133.38 261.84Q132.85 261.81 132.38 261.64Q131.91 261.47 131.63 261.21L131.89 260.65Q132.15 260.89 132.55 261.04Q132.95 261.2 133.38 261.23L133.38 259.55Q132.88 259.43 132.54 259.28Q132.2 259.14 131.98 258.86Q131.75 258.58 131.75 258.12Q131.75 257.55 132.16 257.15Q132.58 256.75 133.38 256.69L133.38 255.86L133.85 255.86L133.85 256.68Q134.26 256.7 134.64 256.81Q135.03 256.93 135.31 257.12L135.07 257.7Q134.49 257.33 133.85 257.3L133.85 258.98Q134.37 259.11 134.71 259.25Q135.05 259.39 135.29 259.67Q135.52 259.95 135.52 260.41ZM132.46 258.09Q132.46 258.4 132.7 258.58Q132.93 258.75 133.38 258.86L133.38 257.3Q132.92 257.36 132.69 257.57Q132.46 257.79 132.46 258.09ZM133.85 261.22Q134.33 261.18 134.57 260.97Q134.81 260.77 134.81 260.46Q134.81 260.14 134.56 259.97Q134.32 259.8 133.85 259.67L133.85 261.22Z" aria-label="family$"/></g><g fill="#199d4a"><path d="M137.14 258.6Q137.32 258.27 137.68 258.1Q138.03 257.92 138.54 257.92L138.54 258.6Q138.48 258.59 138.38 258.59Q137.81 258.59 137.49 258.93Q137.17 259.26 137.17 259.88L137.17 261.79L136.48 261.79L136.48 257.96L137.14 257.96L137.14 258.6ZM142.82 259.9Q142.82 259.98 142.8 260.11L139.69 260.11Q139.76 260.61 140.14 260.92Q140.52 261.23 141.08 261.23Q141.77 261.23 142.19 260.77L142.57 261.21Q142.31 261.52 141.92 261.68Q141.54 261.84 141.06 261.84Q140.45 261.84 139.98 261.59Q139.51 261.34 139.26 260.89Q139 260.44 139 259.88Q139 259.32 139.25 258.87Q139.5 258.42 139.94 258.17Q140.37 257.92 140.92 257.92Q141.47 257.92 141.9 258.17Q142.33 258.42 142.58 258.87Q142.82 259.32 142.82 259.9ZM140.92 258.51Q140.42 258.51 140.09 258.81Q139.75 259.12 139.69 259.61L142.15 259.61Q142.09 259.12 141.76 258.82Q141.42 258.51 140.92 258.51ZM144.88 261.84Q144.41 261.84 143.97 261.71Q143.54 261.58 143.29 261.39L143.58 260.84Q143.84 261.02 144.2 261.13Q144.56 261.24 144.93 261.24Q145.84 261.24 145.84 260.72Q145.84 260.54 145.72 260.44Q145.59 260.34 145.41 260.29Q145.22 260.25 144.89 260.19Q144.42 260.12 144.13 260.02Q143.84 259.93 143.63 259.7Q143.42 259.48 143.42 259.07Q143.42 258.55 143.85 258.24Q144.29 257.92 145.02 257.92Q145.4 257.92 145.78 258.02Q146.16 258.11 146.41 258.27L146.11 258.82Q145.64 258.52 145.01 258.52Q144.57 258.52 144.34 258.66Q144.1 258.81 144.1 259.05Q144.1 259.23 144.23 259.34Q144.36 259.45 144.56 259.5Q144.75 259.55 145.09 259.62Q145.56 259.7 145.84 259.79Q146.13 259.88 146.33 260.09Q146.53 260.31 146.53 260.7Q146.53 261.22 146.09 261.53Q145.64 261.84 144.88 261.84ZM149.04 261.84Q148.47 261.84 148.02 261.58Q147.56 261.33 147.3 260.89Q147.05 260.44 147.05 259.88Q147.05 259.31 147.3 258.87Q147.56 258.42 148.02 258.17Q148.47 257.92 149.04 257.92Q149.61 257.92 150.07 258.17Q150.52 258.42 150.77 258.87Q151.03 259.31 151.03 259.88Q151.03 260.44 150.77 260.89Q150.52 261.33 150.07 261.58Q149.61 261.84 149.04 261.84ZM149.04 261.23Q149.41 261.23 149.7 261.06Q150 260.89 150.16 260.58Q150.33 260.27 150.33 259.88Q150.33 259.48 150.16 259.17Q150 258.86 149.7 258.7Q149.41 258.53 149.04 258.53Q148.67 258.53 148.38 258.7Q148.09 258.86 147.92 259.17Q147.75 259.48 147.75 259.88Q147.75 260.27 147.92 260.58Q148.09 260.89 148.38 261.06Q148.67 261.23 149.04 261.23ZM155.56 257.96L155.56 261.79L154.91 261.79L154.91 261.21Q154.7 261.51 154.35 261.67Q154.01 261.84 153.6 261.84Q152.84 261.84 152.4 261.41Q151.96 260.99 151.96 260.17L151.96 257.96L152.65 257.96L152.65 260.09Q152.65 260.64 152.92 260.93Q153.19 261.21 153.68 261.21Q154.23 261.21 154.55 260.88Q154.87 260.55 154.87 259.94L154.87 257.96ZM157.55 258.6Q157.73 258.27 158.09 258.1Q158.44 257.92 158.95 257.92L158.95 258.6Q158.89 258.59 158.79 258.59Q158.22 258.59 157.9 258.93Q157.58 259.26 157.58 259.88L157.58 261.79L156.89 261.79L156.89 257.96L157.55 257.96L157.55 258.6ZM161.43 261.84Q160.85 261.84 160.39 261.58Q159.93 261.33 159.67 260.89Q159.41 260.44 159.41 259.88Q159.41 259.31 159.67 258.87Q159.93 258.42 160.39 258.17Q160.85 257.92 161.43 257.92Q161.95 257.92 162.36 258.13Q162.77 258.34 163 258.74L162.47 259.08Q162.29 258.81 162.02 258.67Q161.75 258.53 161.43 258.53Q161.05 258.53 160.75 258.7Q160.45 258.86 160.28 259.17Q160.11 259.48 160.11 259.88Q160.11 260.28 160.28 260.59Q160.45 260.9 160.75 261.06Q161.05 261.23 161.43 261.23Q161.75 261.23 162.02 261.09Q162.29 260.95 162.47 260.68L163 261.01Q162.77 261.41 162.36 261.62Q161.95 261.84 161.43 261.84ZM167.3 259.9Q167.3 259.98 167.28 260.11L164.17 260.11Q164.24 260.61 164.62 260.92Q165 261.23 165.56 261.23Q166.25 261.23 166.67 260.77L167.05 261.21Q166.79 261.52 166.4 261.68Q166.02 261.84 165.54 261.84Q164.93 261.84 164.46 261.59Q163.99 261.34 163.74 260.89Q163.48 260.44 163.48 259.88Q163.48 259.32 163.73 258.87Q163.98 258.42 164.42 258.17Q164.85 257.92 165.4 257.92Q165.95 257.92 166.38 258.17Q166.81 258.42 167.06 258.87Q167.3 259.32 167.3 259.9ZM165.4 258.51Q164.9 258.51 164.57 258.81Q164.23 259.12 164.17 259.61L166.63 259.61Q166.57 259.12 166.24 258.82Q165.9 258.51 165.4 258.51ZM168.43 261.84Q168.22 261.84 168.08 261.7Q167.93 261.55 167.93 261.34Q167.93 261.13 168.08 260.99Q168.22 260.85 168.43 260.85Q168.63 260.85 168.77 260.98Q168.9 261.12 168.9 261.34Q168.9 261.55 168.76 261.7Q168.62 261.84 168.43 261.84ZM173.28 259.9Q173.28 259.98 173.26 260.11L170.15 260.11Q170.22 260.61 170.6 260.92Q170.98 261.23 171.54 261.23Q172.23 261.23 172.65 260.77L173.03 261.21Q172.77 261.52 172.38 261.68Q172 261.84 171.52 261.84Q170.91 261.84 170.44 261.59Q169.97 261.34 169.72 260.89Q169.46 260.44 169.46 259.88Q169.46 259.32 169.71 258.87Q169.96 258.42 170.4 258.17Q170.83 257.92 171.38 257.92Q171.93 257.92 172.36 258.17Q172.79 258.42 173.03 258.87Q173.28 259.32 173.28 259.9ZM171.38 258.51Q170.88 258.51 170.55 258.81Q170.21 259.12 170.15 259.61L172.61 259.61Q172.55 259.12 172.22 258.82Q171.88 258.51 171.38 258.51ZM176.57 261.79L175.47 260.33L174.35 261.79L173.57 261.79L175.08 259.83L173.65 257.96L174.42 257.96L175.47 259.34L176.52 257.96L177.28 257.96L175.84 259.83L177.36 261.79ZM180.28 261.57Q180.12 261.7 179.9 261.77Q179.67 261.84 179.44 261.84Q178.86 261.84 178.54 261.53Q178.22 261.21 178.22 260.64L178.22 258.53L177.57 258.53L177.57 257.96L178.22 257.96L178.22 257.12L178.92 257.12L178.92 257.96L180.01 257.96L180.01 258.53L178.92 258.53L178.92 260.61Q178.92 260.92 179.07 261.08Q179.23 261.25 179.52 261.25Q179.83 261.25 180.06 261.07Z" aria-label="resource.ext"/></g></g></g>
   <g fill="#9340a4" stroke-width=".0727px" word-spacing="0px" style="font-feature-settings:normal;font-variant-caps:normal;font-variant-ligatures:normal;font-variant-numeric:normal;line-height:0%" xml:space="preserve"><g text-align="center" style="font-feature-settings:normal;font-variant-caps:normal;font-variant-ligatures:normal;font-variant-numeric:normal;line-height:125%"><path d="M40.88 282.76Q40.41 282.76 40.05 282.56Q39.68 282.36 39.47 282Q39.27 281.65 39.27 281.2Q39.27 280.75 39.47 280.4Q39.68 280.04 40.05 279.84Q40.41 279.64 40.88 279.64Q41.3 279.64 41.62 279.81Q41.95 279.98 42.13 280.3L41.7 280.57Q41.56 280.35 41.35 280.24Q41.13 280.13 40.87 280.13Q40.57 280.13 40.34 280.26Q40.1 280.39 39.96 280.64Q39.83 280.88 39.83 281.2Q39.83 281.52 39.96 281.77Q40.1 282.01 40.34 282.15Q40.57 282.28 40.87 282.28Q41.13 282.28 41.35 282.17Q41.56 282.06 41.7 281.84L42.13 282.11Q41.95 282.42 41.62 282.59Q41.3 282.76 40.88 282.76ZM44.1 282.76Q43.65 282.76 43.28 282.56Q42.92 282.36 42.72 282Q42.51 281.65 42.51 281.2Q42.51 280.75 42.72 280.4Q42.92 280.04 43.28 279.84Q43.65 279.64 44.1 279.64Q44.56 279.64 44.92 279.84Q45.28 280.04 45.48 280.4Q45.69 280.75 45.69 281.2Q45.69 281.65 45.48 282Q45.28 282.36 44.92 282.56Q44.56 282.76 44.1 282.76ZM44.1 282.28Q44.4 282.28 44.63 282.14Q44.86 282.01 45 281.76Q45.13 281.52 45.13 281.2Q45.13 280.88 45 280.64Q44.86 280.39 44.63 280.26Q44.4 280.13 44.1 280.13Q43.81 280.13 43.58 280.26Q43.34 280.39 43.21 280.64Q43.07 280.88 43.07 281.2Q43.07 281.52 43.21 281.76Q43.34 282.01 43.58 282.14Q43.81 282.28 44.1 282.28ZM50.28 279.64Q50.85 279.64 51.19 279.98Q51.53 280.31 51.53 280.97L51.53 282.73L50.97 282.73L50.97 281.03Q50.97 280.59 50.77 280.36Q50.56 280.14 50.18 280.14Q49.76 280.14 49.52 280.4Q49.27 280.66 49.27 281.15L49.27 282.73L48.71 282.73L48.71 281.03Q48.71 280.59 48.51 280.36Q48.31 280.14 47.92 280.14Q47.5 280.14 47.26 280.4Q47.01 280.66 47.01 281.15L47.01 282.73L46.45 282.73L46.45 279.67L46.98 279.67L46.98 280.13Q47.15 279.89 47.42 279.77Q47.69 279.64 48.04 279.64Q48.4 279.64 48.67 279.79Q48.95 279.93 49.1 280.21Q49.27 279.94 49.58 279.79Q49.89 279.64 50.28 279.64ZM54.17 279.64Q54.61 279.64 54.96 279.84Q55.31 280.04 55.51 280.39Q55.71 280.74 55.71 281.2Q55.71 281.66 55.51 282.02Q55.31 282.37 54.96 282.57Q54.61 282.76 54.17 282.76Q53.84 282.76 53.57 282.64Q53.29 282.51 53.1 282.27L53.1 283.85L52.55 283.85L52.55 279.67L53.08 279.67L53.08 280.16Q53.26 279.9 53.55 279.77Q53.83 279.64 54.17 279.64ZM54.12 282.28Q54.42 282.28 54.65 282.14Q54.88 282.01 55.02 281.76Q55.15 281.52 55.15 281.2Q55.15 280.88 55.02 280.64Q54.88 280.39 54.65 280.26Q54.42 280.13 54.12 280.13Q53.83 280.13 53.6 280.26Q53.37 280.4 53.23 280.64Q53.1 280.88 53.1 281.2Q53.1 281.52 53.23 281.76Q53.36 282.01 53.6 282.14Q53.83 282.28 54.12 282.28ZM57.79 282.76Q57.33 282.76 56.97 282.56Q56.61 282.36 56.4 282Q56.2 281.65 56.2 281.2Q56.2 280.75 56.4 280.4Q56.61 280.04 56.97 279.84Q57.33 279.64 57.79 279.64Q58.24 279.64 58.6 279.84Q58.96 280.04 59.17 280.4Q59.37 280.75 59.37 281.2Q59.37 281.65 59.17 282Q58.96 282.36 58.6 282.56Q58.24 282.76 57.79 282.76ZM57.79 282.28Q58.08 282.28 58.32 282.14Q58.55 282.01 58.68 281.76Q58.81 281.52 58.81 281.2Q58.81 280.88 58.68 280.64Q58.55 280.39 58.32 280.26Q58.08 280.13 57.79 280.13Q57.49 280.13 57.26 280.26Q57.03 280.39 56.89 280.64Q56.76 280.88 56.76 281.2Q56.76 281.52 56.89 281.76Q57.03 282.01 57.26 282.14Q57.49 282.28 57.79 282.28ZM61.77 279.64Q62.35 279.64 62.7 279.98Q63.04 280.32 63.04 280.97L63.04 282.73L62.49 282.73L62.49 281.03Q62.49 280.59 62.27 280.36Q62.06 280.14 61.66 280.14Q61.21 280.14 60.95 280.4Q60.69 280.66 60.69 281.15L60.69 282.73L60.14 282.73L60.14 279.67L60.67 279.67L60.67 280.13Q60.84 279.9 61.12 279.77Q61.41 279.64 61.77 279.64ZM66.84 281.22Q66.84 281.28 66.83 281.38L64.35 281.38Q64.41 281.79 64.71 282.03Q65.01 282.28 65.46 282.28Q66.01 282.28 66.34 281.91L66.65 282.27Q66.44 282.51 66.13 282.64Q65.82 282.76 65.44 282.76Q64.96 282.76 64.58 282.56Q64.21 282.36 64.01 282.01Q63.8 281.65 63.8 281.2Q63.8 280.76 64 280.4Q64.2 280.04 64.55 279.84Q64.9 279.64 65.33 279.64Q65.77 279.64 66.12 279.84Q66.46 280.04 66.65 280.4Q66.84 280.76 66.84 281.22ZM65.33 280.11Q64.94 280.11 64.67 280.35Q64.4 280.59 64.35 280.99L66.31 280.99Q66.27 280.6 66 280.36Q65.73 280.11 65.33 280.11ZM69.24 279.64Q69.82 279.64 70.17 279.98Q70.51 280.32 70.51 280.97L70.51 282.73L69.96 282.73L69.96 281.03Q69.96 280.59 69.74 280.36Q69.53 280.14 69.13 280.14Q68.68 280.14 68.42 280.4Q68.16 280.66 68.16 281.15L68.16 282.73L67.61 282.73L67.61 279.67L68.14 279.67L68.14 280.13Q68.31 279.9 68.59 279.77Q68.88 279.64 69.24 279.64ZM73.25 282.55Q73.13 282.65 72.95 282.71Q72.78 282.76 72.59 282.76Q72.12 282.76 71.87 282.51Q71.62 282.27 71.62 281.81L71.62 280.13L71.1 280.13L71.1 279.67L71.62 279.67L71.62 279L72.17 279L72.17 279.67L73.05 279.67L73.05 280.13L72.17 280.13L72.17 281.78Q72.17 282.03 72.29 282.16Q72.42 282.3 72.65 282.3Q72.9 282.3 73.08 282.15Z" aria-label="component"/></g><g text-align="center" style="font-feature-settings:normal;font-variant-caps:normal;font-variant-ligatures:normal;font-variant-numeric:normal;line-height:125%"><path d="M42.28 289.97Q41.81 289.97 41.44 289.77Q41.08 289.56 40.87 289.21Q40.66 288.86 40.66 288.41Q40.66 287.96 40.87 287.6Q41.08 287.25 41.44 287.05Q41.81 286.85 42.28 286.85Q42.69 286.85 43.02 287.02Q43.34 287.18 43.52 287.5L43.1 287.77Q42.96 287.55 42.74 287.44Q42.53 287.33 42.27 287.33Q41.97 287.33 41.73 287.47Q41.49 287.6 41.36 287.84Q41.22 288.09 41.22 288.41Q41.22 288.73 41.36 288.97Q41.49 289.22 41.73 289.35Q41.97 289.48 42.27 289.48Q42.53 289.48 42.74 289.37Q42.96 289.26 43.1 289.05L43.52 289.31Q43.34 289.63 43.02 289.8Q42.69 289.97 42.28 289.97ZM45.5 289.97Q45.04 289.97 44.68 289.77Q44.32 289.56 44.11 289.21Q43.91 288.86 43.91 288.41Q43.91 287.96 44.11 287.6Q44.32 287.25 44.68 287.05Q45.04 286.85 45.5 286.85Q45.95 286.85 46.31 287.05Q46.67 287.25 46.88 287.6Q47.08 287.96 47.08 288.41Q47.08 288.86 46.88 289.21Q46.67 289.56 46.31 289.77Q45.95 289.97 45.5 289.97ZM45.5 289.48Q45.79 289.48 46.03 289.35Q46.26 289.21 46.39 288.97Q46.52 288.72 46.52 288.41Q46.52 288.09 46.39 287.84Q46.26 287.6 46.03 287.47Q45.79 287.33 45.5 287.33Q45.2 287.33 44.97 287.47Q44.74 287.6 44.6 287.84Q44.47 288.09 44.47 288.41Q44.47 288.72 44.6 288.97Q44.74 289.21 44.97 289.35Q45.2 289.48 45.5 289.48ZM49.16 289.97Q48.7 289.97 48.34 289.77Q47.98 289.56 47.77 289.21Q47.57 288.86 47.57 288.41Q47.57 287.96 47.77 287.6Q47.98 287.25 48.34 287.05Q48.7 286.85 49.16 286.85Q49.61 286.85 49.97 287.05Q50.33 287.25 50.54 287.6Q50.74 287.96 50.74 288.41Q50.74 288.86 50.54 289.21Q50.33 289.56 49.97 289.77Q49.61 289.97 49.16 289.97ZM49.16 289.48Q49.45 289.48 49.69 289.35Q49.92 289.21 50.05 288.97Q50.18 288.72 50.18 288.41Q50.18 288.09 50.05 287.84Q49.92 287.6 49.69 287.47Q49.45 287.33 49.16 287.33Q48.86 287.33 48.63 287.47Q48.4 287.6 48.26 287.84Q48.13 288.09 48.13 288.41Q48.13 288.72 48.26 288.97Q48.4 289.21 48.63 289.35Q48.86 289.48 49.16 289.48ZM52.04 287.39Q52.18 287.13 52.47 286.99Q52.75 286.85 53.15 286.85L53.15 287.39Q53.11 287.38 53.03 287.38Q52.58 287.38 52.32 287.65Q52.06 287.92 52.06 288.41L52.06 289.93L51.51 289.93L51.51 286.88L52.04 286.88L52.04 287.39ZM56.69 285.66L56.69 289.93L56.16 289.93L56.16 289.45Q55.97 289.7 55.69 289.84Q55.41 289.97 55.07 289.97Q54.62 289.97 54.27 289.77Q53.92 289.58 53.72 289.22Q53.52 288.87 53.52 288.41Q53.52 287.94 53.72 287.59Q53.92 287.24 54.27 287.05Q54.62 286.85 55.07 286.85Q55.4 286.85 55.67 286.97Q55.95 287.1 56.13 287.34L56.13 285.66ZM55.11 289.48Q55.4 289.48 55.64 289.35Q55.87 289.21 56.01 288.97Q56.14 288.72 56.14 288.41Q56.14 288.09 56.01 287.84Q55.87 287.6 55.64 287.47Q55.4 287.33 55.11 287.33Q54.82 287.33 54.59 287.47Q54.35 287.6 54.22 287.84Q54.08 288.09 54.08 288.41Q54.08 288.72 54.22 288.97Q54.35 289.21 54.59 289.35Q54.82 289.48 55.11 289.48ZM57.74 286.88L58.29 286.88L58.29 289.93L57.74 289.93ZM58.01 286.29Q57.85 286.29 57.74 286.19Q57.64 286.08 57.64 285.93Q57.64 285.78 57.74 285.68Q57.85 285.57 58.01 285.57Q58.17 285.57 58.28 285.67Q58.39 285.77 58.39 285.92Q58.39 286.08 58.28 286.18Q58.17 286.29 58.01 286.29ZM60.98 286.85Q61.56 286.85 61.9 287.19Q62.24 287.52 62.24 288.18L62.24 289.93L61.69 289.93L61.69 288.24Q61.69 287.79 61.48 287.57Q61.26 287.35 60.87 287.35Q60.42 287.35 60.16 287.61Q59.9 287.87 59.9 288.36L59.9 289.93L59.34 289.93L59.34 286.88L59.87 286.88L59.87 287.34Q60.04 287.1 60.33 286.98Q60.61 286.85 60.98 286.85ZM64.38 286.85Q65.02 286.85 65.35 287.16Q65.69 287.47 65.69 288.09L65.69 289.93L65.17 289.93L65.17 289.53Q65.03 289.74 64.77 289.86Q64.52 289.97 64.16 289.97Q63.65 289.97 63.34 289.72Q63.03 289.47 63.03 289.07Q63.03 288.67 63.33 288.42Q63.62 288.18 64.26 288.18L65.14 288.18L65.14 288.07Q65.14 287.71 64.93 287.52Q64.72 287.33 64.32 287.33Q64.05 287.33 63.79 287.42Q63.53 287.51 63.35 287.66L63.12 287.24Q63.36 287.05 63.69 286.95Q64.01 286.85 64.38 286.85ZM64.26 289.54Q64.57 289.54 64.8 289.4Q65.03 289.26 65.14 289L65.14 288.57L64.28 288.57Q63.58 288.57 63.58 289.05Q63.58 289.28 63.76 289.41Q63.94 289.54 64.26 289.54ZM68.44 289.75Q68.31 289.86 68.14 289.91Q67.96 289.97 67.77 289.97Q67.31 289.97 67.05 289.72Q66.8 289.47 66.8 289.01L66.8 287.33L66.28 287.33L66.28 286.88L66.8 286.88L66.8 286.21L67.35 286.21L67.35 286.88L68.23 286.88L68.23 287.33L67.35 287.33L67.35 288.99Q67.35 289.24 67.48 289.37Q67.6 289.5 67.83 289.5Q68.08 289.5 68.26 289.36ZM71.76 288.42Q71.76 288.49 71.75 288.59L69.27 288.59Q69.32 288.99 69.63 289.24Q69.93 289.48 70.38 289.48Q70.93 289.48 71.26 289.12L71.57 289.47Q71.36 289.71 71.05 289.84Q70.74 289.97 70.36 289.97Q69.88 289.97 69.5 289.77Q69.13 289.57 68.92 289.21Q68.72 288.86 68.72 288.41Q68.72 287.96 68.92 287.6Q69.12 287.25 69.46 287.05Q69.81 286.85 70.25 286.85Q70.69 286.85 71.03 287.05Q71.38 287.25 71.57 287.6Q71.76 287.96 71.76 288.42ZM70.25 287.32Q69.85 287.32 69.59 287.56Q69.32 287.8 69.27 288.19L71.23 288.19Q71.19 287.81 70.92 287.56Q70.65 287.32 70.25 287.32Z" aria-label="coordinate"/></g></g>
  </g>
  <path d="m34.639 265.19v5.7034l43.243 2e-5v-5.7034" fill="none" stroke="#9340a4" stroke-linecap="round" stroke-linejoin="round" stroke-width=".529"/>
  <g transform="translate(-38.416 -2.9481)" fill="none" stroke="#9340a4" stroke-linecap="round" stroke-linejoin="round" stroke-width=".529">
   <path d="m94.676 274.08v3.2096"/>
   <circle cx="94.676" cy="278.06" r=".75117" stroke-dashoffset="72"/>
  </g>
  <g>
   <g fill="#2471dd" stroke-width=".0727px" word-spacing="0px" style="font-feature-settings:normal;font-variant-caps:normal;font-variant-ligatures:normal;font-variant-numeric:normal;line-height:0%" xml:space="preserve"><g text-align="center" style="font-feature-settings:normal;font-variant-caps:normal;font-variant-ligatures:normal;font-variant-numeric:normal;line-height:125%"><path d="M114.84 278.87Q114.34 278.87 114.34 279.41L114.34 279.67L115.23 279.67L115.23 280.13L114.35 280.13L114.35 282.73L113.8 282.73L113.8 280.13L113.28 280.13L113.28 279.67L113.8 279.67L113.8 279.4Q113.8 278.95 114.07 278.68Q114.33 278.42 114.81 278.42Q114.99 278.42 115.15 278.46Q115.32 278.51 115.43 278.59L115.26 279.02Q115.07 278.87 114.84 278.87ZM116.81 279.64Q117.44 279.64 117.78 279.95Q118.12 280.27 118.12 280.88L118.12 282.73L117.59 282.73L117.59 282.32Q117.45 282.54 117.2 282.65Q116.94 282.76 116.59 282.76Q116.08 282.76 115.77 282.51Q115.46 282.27 115.46 281.86Q115.46 281.46 115.75 281.21Q116.05 280.97 116.69 280.97L117.56 280.97L117.56 280.86Q117.56 280.5 117.36 280.31Q117.15 280.12 116.75 280.12Q116.47 280.12 116.22 280.21Q115.96 280.3 115.78 280.45L115.55 280.04Q115.78 279.85 116.11 279.74Q116.44 279.64 116.81 279.64ZM116.68 282.34Q117 282.34 117.23 282.19Q117.46 282.05 117.56 281.79L117.56 281.37L116.71 281.37Q116.01 281.37 116.01 281.84Q116.01 282.07 116.19 282.2Q116.37 282.34 116.68 282.34ZM122.97 279.64Q123.54 279.64 123.88 279.98Q124.22 280.31 124.22 280.97L124.22 282.73L123.66 282.73L123.66 281.03Q123.66 280.59 123.46 280.36Q123.25 280.14 122.87 280.14Q122.45 280.14 122.21 280.4Q121.96 280.66 121.96 281.15L121.96 282.73L121.4 282.73L121.4 281.03Q121.4 280.59 121.2 280.36Q120.99 280.14 120.61 280.14Q120.19 280.14 119.95 280.4Q119.7 280.66 119.7 281.15L119.7 282.73L119.14 282.73L119.14 279.67L119.67 279.67L119.67 280.13Q119.84 279.89 120.11 279.77Q120.38 279.64 120.73 279.64Q121.09 279.64 121.36 279.79Q121.64 279.93 121.79 280.21Q121.96 279.94 122.27 279.79Q122.58 279.64 122.97 279.64ZM125.24 279.67L125.79 279.67L125.79 282.73L125.24 282.73ZM125.51 279.08Q125.35 279.08 125.25 278.98Q125.14 278.88 125.14 278.73Q125.14 278.58 125.25 278.47Q125.35 278.36 125.51 278.36Q125.68 278.36 125.78 278.46Q125.89 278.57 125.89 278.72Q125.89 278.87 125.78 278.98Q125.68 279.08 125.51 279.08ZM126.85 278.45L127.4 278.45L127.4 282.73L126.85 282.73ZM131.16 279.67L129.68 283.03Q129.48 283.5 129.22 283.69Q128.96 283.88 128.59 283.88Q128.36 283.88 128.15 283.81Q127.94 283.74 127.8 283.6L128.04 283.18Q128.28 283.41 128.59 283.41Q128.79 283.41 128.92 283.3Q129.06 283.19 129.17 282.94L129.27 282.72L127.92 279.67L128.49 279.67L129.56 282.12L130.62 279.67Z" aria-label="family"/></g><g text-align="center" style="font-feature-settings:normal;font-variant-caps:normal;font-variant-ligatures:normal;font-variant-numeric:normal;line-height:125%"><path d="M108.24 289.97Q107.77 289.97 107.4 289.77Q107.04 289.56 106.83 289.21Q106.62 288.86 106.62 288.41Q106.62 287.96 106.83 287.6Q107.04 287.25 107.4 287.05Q107.77 286.85 108.24 286.85Q108.65 286.85 108.98 287.02Q109.3 287.18 109.48 287.5L109.06 287.77Q108.92 287.55 108.7 287.44Q108.49 287.33 108.23 287.33Q107.93 287.33 107.69 287.47Q107.45 287.6 107.32 287.84Q107.18 288.09 107.18 288.41Q107.18 288.73 107.32 288.97Q107.45 289.22 107.69 289.35Q107.93 289.48 108.23 289.48Q108.49 289.48 108.7 289.37Q108.92 289.26 109.06 289.05L109.48 289.31Q109.3 289.63 108.98 289.8Q108.65 289.97 108.24 289.97ZM111.46 289.97Q111 289.97 110.64 289.77Q110.28 289.56 110.07 289.21Q109.87 288.86 109.87 288.41Q109.87 287.96 110.07 287.6Q110.28 287.25 110.64 287.05Q111 286.85 111.46 286.85Q111.92 286.85 112.28 287.05Q112.64 287.25 112.84 287.6Q113.04 287.96 113.04 288.41Q113.04 288.86 112.84 289.21Q112.64 289.56 112.28 289.77Q111.92 289.97 111.46 289.97ZM111.46 289.48Q111.75 289.48 111.99 289.35Q112.22 289.21 112.35 288.97Q112.49 288.72 112.49 288.41Q112.49 288.09 112.35 287.84Q112.22 287.6 111.99 287.47Q111.75 287.33 111.46 287.33Q111.17 287.33 110.93 287.47Q110.7 287.6 110.56 287.84Q110.43 288.09 110.43 288.41Q110.43 288.72 110.56 288.97Q110.7 289.21 110.93 289.35Q111.17 289.48 111.46 289.48ZM115.12 289.97Q114.66 289.97 114.3 289.77Q113.94 289.56 113.73 289.21Q113.53 288.86 113.53 288.41Q113.53 287.96 113.73 287.6Q113.94 287.25 114.3 287.05Q114.66 286.85 115.12 286.85Q115.58 286.85 115.94 287.05Q116.3 287.25 116.5 287.6Q116.71 287.96 116.71 288.41Q116.71 288.86 116.5 289.21Q116.3 289.56 115.94 289.77Q115.58 289.97 115.12 289.97ZM115.12 289.48Q115.41 289.48 115.65 289.35Q115.88 289.21 116.01 288.97Q116.15 288.72 116.15 288.41Q116.15 288.09 116.01 287.84Q115.88 287.6 115.65 287.47Q115.41 287.33 115.12 287.33Q114.83 287.33 114.59 287.47Q114.36 287.6 114.22 287.84Q114.09 288.09 114.09 288.41Q114.09 288.72 114.22 288.97Q114.36 289.21 114.59 289.35Q114.83 289.48 115.12 289.48ZM118 287.39Q118.15 287.13 118.43 286.99Q118.71 286.85 119.12 286.85L119.12 287.39Q119.07 287.38 118.99 287.38Q118.54 287.38 118.28 287.65Q118.03 287.92 118.03 288.41L118.03 289.93L117.47 289.93L117.47 286.88L118 286.88L118 287.39ZM122.65 285.66L122.65 289.93L122.12 289.93L122.12 289.45Q121.93 289.7 121.65 289.84Q121.37 289.97 121.03 289.97Q120.59 289.97 120.23 289.77Q119.88 289.58 119.68 289.22Q119.48 288.87 119.48 288.41Q119.48 287.94 119.68 287.59Q119.88 287.24 120.23 287.05Q120.59 286.85 121.03 286.85Q121.36 286.85 121.63 286.97Q121.91 287.1 122.1 287.34L122.1 285.66ZM121.08 289.48Q121.36 289.48 121.6 289.35Q121.84 289.21 121.97 288.97Q122.1 288.72 122.1 288.41Q122.1 288.09 121.97 287.84Q121.84 287.6 121.6 287.47Q121.36 287.33 121.08 287.33Q120.78 287.33 120.55 287.47Q120.31 287.6 120.18 287.84Q120.04 288.09 120.04 288.41Q120.04 288.72 120.18 288.97Q120.31 289.21 120.55 289.35Q120.78 289.48 121.08 289.48ZM123.7 286.88L124.25 286.88L124.25 289.93L123.7 289.93ZM123.97 286.29Q123.81 286.29 123.71 286.19Q123.6 286.08 123.6 285.93Q123.6 285.78 123.71 285.68Q123.81 285.57 123.97 285.57Q124.14 285.57 124.24 285.67Q124.35 285.77 124.35 285.92Q124.35 286.08 124.24 286.18Q124.14 286.29 123.97 286.29ZM126.94 286.85Q127.52 286.85 127.86 287.19Q128.21 287.52 128.21 288.18L128.21 289.93L127.65 289.93L127.65 288.24Q127.65 287.79 127.44 287.57Q127.23 287.35 126.83 287.35Q126.38 287.35 126.12 287.61Q125.86 287.87 125.86 288.36L125.86 289.93L125.31 289.93L125.31 286.88L125.84 286.88L125.84 287.34Q126 287.1 126.29 286.98Q126.57 286.85 126.94 286.85ZM130.34 286.85Q130.98 286.85 131.32 287.16Q131.65 287.47 131.65 288.09L131.65 289.93L131.13 289.93L131.13 289.53Q130.99 289.74 130.73 289.86Q130.48 289.97 130.13 289.97Q129.61 289.97 129.3 289.72Q129 289.47 129 289.07Q129 288.67 129.29 288.42Q129.58 288.18 130.22 288.18L131.1 288.18L131.1 288.07Q131.1 287.71 130.89 287.52Q130.68 287.33 130.28 287.33Q130.01 287.33 129.75 287.42Q129.49 287.51 129.31 287.66L129.08 287.24Q129.32 287.05 129.65 286.95Q129.98 286.85 130.34 286.85ZM130.22 289.54Q130.54 289.54 130.77 289.4Q131 289.26 131.1 289L131.1 288.57L130.25 288.57Q129.54 288.57 129.54 289.05Q129.54 289.28 129.72 289.41Q129.9 289.54 130.22 289.54ZM134.4 289.75Q134.28 289.86 134.1 289.91Q133.92 289.97 133.73 289.97Q133.27 289.97 133.01 289.72Q132.76 289.47 132.76 289.01L132.76 287.33L132.24 287.33L132.24 286.88L132.76 286.88L132.76 286.21L133.31 286.21L133.31 286.88L134.19 286.88L134.19 287.33L133.31 287.33L133.31 288.99Q133.31 289.24 133.44 289.37Q133.56 289.5 133.79 289.5Q134.05 289.5 134.22 289.36ZM137.72 288.42Q137.72 288.49 137.71 288.59L135.23 288.59Q135.29 288.99 135.59 289.24Q135.89 289.48 136.34 289.48Q136.89 289.48 137.22 289.12L137.53 289.47Q137.32 289.71 137.01 289.84Q136.7 289.97 136.32 289.97Q135.84 289.97 135.46 289.77Q135.09 289.57 134.88 289.21Q134.68 288.86 134.68 288.41Q134.68 287.96 134.88 287.6Q135.08 287.25 135.43 287.05Q135.78 286.85 136.21 286.85Q136.65 286.85 136.99 287.05Q137.34 287.25 137.53 287.6Q137.72 287.96 137.72 288.42ZM136.21 287.32Q135.82 287.32 135.55 287.56Q135.28 287.8 135.23 288.19L137.19 288.19Q137.15 287.81 136.88 287.56Q136.61 287.32 136.21 287.32Z" aria-label="coordinate"/></g></g>
   <path d="m109.46 265.19v5.7034h25.437v-5.7034" fill="none" stroke="#2471dd" stroke-linecap="round" stroke-linejoin="round" stroke-width=".529"/>
   <g transform="translate(-46.184 -2.9481)" fill="none" stroke="#2471dd" stroke-linecap="round" stroke-linejoin="round" stroke-width=".529">
    <path transform="translate(-14.288)" d="m182.64 274.08v3.2096"/>
    <circle cx="168.36" cy="278.06" r=".75117" stroke-dashoffset="72"/>
   </g>
   <path d="m136.47 253.82v-5.7034h43.427v5.7034" fill="none" stroke="#199d4a" stroke-linecap="round" stroke-linejoin="round" stroke-width=".529"/>
   <g transform="matrix(1 0 0 -1 -24.078 521.96)" fill="none" stroke="#199d4a" stroke-linecap="round" stroke-linejoin="round" stroke-width=".529">
    <path d="m182.26 274.08v3.2096"/>
    <circle cx="182.26" cy="278.06" r=".75117" stroke-dashoffset="72"/>
   </g>
   <g fill="#de4c36" stroke-width=".0727px" word-spacing="0px" style="font-feature-settings:normal;font-variant-caps:normal;font-variant-ligatures:normal;font-variant-numeric:normal;line-height:0%" xml:space="preserve"><g text-align="center" style="font-feature-settings:normal;font-variant-caps:normal;font-variant-ligatures:normal;font-variant-numeric:normal;line-height:125%"><path d="M9.25 229.4L7.91 232.46L7.35 232.46L6.01 229.4L6.59 229.4L7.64 231.85L8.71 229.4ZM12.44 230.95Q12.44 231.01 12.43 231.11L9.95 231.11Q10.01 231.52 10.31 231.76Q10.61 232.01 11.06 232.01Q11.61 232.01 11.94 231.64L12.25 232Q12.04 232.24 11.73 232.36Q11.42 232.49 11.04 232.49Q10.56 232.49 10.18 232.29Q9.81 232.09 9.6 231.74Q9.4 231.38 9.4 230.93Q9.4 230.49 9.6 230.13Q9.8 229.77 10.15 229.57Q10.5 229.37 10.93 229.37Q11.37 229.37 11.71 229.57Q12.06 229.77 12.25 230.13Q12.44 230.49 12.44 230.95ZM10.93 229.84Q10.54 229.84 10.27 230.08Q10 230.32 9.95 230.72L11.91 230.72Q11.87 230.33 11.6 230.08Q11.33 229.84 10.93 229.84ZM13.74 229.91Q13.89 229.65 14.17 229.51Q14.45 229.37 14.85 229.37L14.85 229.91Q14.81 229.9 14.73 229.9Q14.28 229.9 14.02 230.17Q13.76 230.44 13.76 230.93L13.76 232.46L13.21 232.46L13.21 229.4L13.74 229.4L13.74 229.91ZM16.43 232.49Q16.06 232.49 15.71 232.39Q15.37 232.29 15.17 232.13L15.4 231.7Q15.6 231.84 15.89 231.93Q16.18 232.01 16.47 232.01Q17.2 232.01 17.2 231.6Q17.2 231.46 17.1 231.38Q17 231.3 16.86 231.26Q16.71 231.22 16.44 231.18Q16.07 231.12 15.84 231.04Q15.6 230.97 15.44 230.79Q15.27 230.61 15.27 230.29Q15.27 229.87 15.61 229.62Q15.96 229.37 16.54 229.37Q16.85 229.37 17.15 229.45Q17.46 229.52 17.66 229.65L17.42 230.09Q17.04 229.85 16.54 229.85Q16.19 229.85 16 229.96Q15.82 230.08 15.82 230.27Q15.82 230.42 15.92 230.5Q16.02 230.59 16.18 230.63Q16.33 230.67 16.61 230.72Q16.97 230.79 17.2 230.86Q17.43 230.93 17.59 231.1Q17.75 231.28 17.75 231.59Q17.75 232 17.4 232.25Q17.04 232.49 16.43 232.49ZM18.44 229.4L19 229.4L19 232.46L18.44 232.46ZM18.72 228.81Q18.56 228.81 18.45 228.71Q18.35 228.61 18.35 228.46Q18.35 228.31 18.45 228.2Q18.56 228.09 18.72 228.09Q18.88 228.09 18.99 228.19Q19.1 228.29 19.1 228.44Q19.1 228.6 18.99 228.71Q18.88 228.81 18.72 228.81ZM21.36 232.49Q20.91 232.49 20.54 232.29Q20.18 232.09 19.98 231.73Q19.77 231.38 19.77 230.93Q19.77 230.48 19.98 230.13Q20.18 229.77 20.54 229.57Q20.91 229.37 21.36 229.37Q21.82 229.37 22.18 229.57Q22.54 229.77 22.74 230.13Q22.95 230.48 22.95 230.93Q22.95 231.38 22.74 231.73Q22.54 232.09 22.18 232.29Q21.82 232.49 21.36 232.49ZM21.36 232.01Q21.66 232.01 21.89 231.87Q22.12 231.74 22.26 231.49Q22.39 231.25 22.39 230.93Q22.39 230.61 22.26 230.37Q22.12 230.12 21.89 229.99Q21.66 229.86 21.36 229.86Q21.07 229.86 20.83 229.99Q20.6 230.12 20.47 230.37Q20.33 230.61 20.33 230.93Q20.33 231.25 20.47 231.49Q20.6 231.74 20.83 231.87Q21.07 232.01 21.36 232.01ZM25.35 229.37Q25.93 229.37 26.27 229.71Q26.61 230.05 26.61 230.7L26.61 232.46L26.06 232.46L26.06 230.76Q26.06 230.32 25.85 230.09Q25.63 229.87 25.24 229.87Q24.79 229.87 24.53 230.13Q24.27 230.39 24.27 230.88L24.27 232.46L23.71 232.46L23.71 229.4L24.24 229.4L24.24 229.86Q24.41 229.63 24.7 229.5Q24.98 229.37 25.35 229.37Z" aria-label="version"/></g><g text-align="center" style="font-feature-settings:normal;font-variant-caps:normal;font-variant-ligatures:normal;font-variant-numeric:normal;line-height:125%"><path d="M2.63 239.7Q2.17 239.7 1.8 239.5Q1.43 239.29 1.23 238.94Q1.02 238.58 1.02 238.14Q1.02 237.69 1.23 237.33Q1.43 236.98 1.8 236.78Q2.17 236.58 2.63 236.58Q3.05 236.58 3.37 236.75Q3.7 236.91 3.88 237.23L3.46 237.5Q3.31 237.28 3.1 237.17Q2.89 237.06 2.63 237.06Q2.33 237.06 2.09 237.2Q1.85 237.33 1.71 237.57Q1.58 237.82 1.58 238.14Q1.58 238.46 1.71 238.7Q1.85 238.95 2.09 239.08Q2.33 239.21 2.63 239.21Q2.89 239.21 3.1 239.1Q3.31 238.99 3.46 238.77L3.88 239.04Q3.7 239.36 3.37 239.53Q3.05 239.7 2.63 239.7ZM5.85 239.7Q5.4 239.7 5.04 239.5Q4.67 239.29 4.47 238.94Q4.26 238.58 4.26 238.14Q4.26 237.69 4.47 237.33Q4.67 236.98 5.04 236.78Q5.4 236.58 5.85 236.58Q6.31 236.58 6.67 236.78Q7.03 236.98 7.24 237.33Q7.44 237.69 7.44 238.14Q7.44 238.58 7.24 238.94Q7.03 239.29 6.67 239.5Q6.31 239.7 5.85 239.7ZM5.85 239.21Q6.15 239.21 6.38 239.08Q6.62 238.94 6.75 238.7Q6.88 238.45 6.88 238.14Q6.88 237.82 6.75 237.57Q6.62 237.33 6.38 237.2Q6.15 237.06 5.85 237.06Q5.56 237.06 5.33 237.2Q5.09 237.33 4.96 237.57Q4.82 237.82 4.82 238.14Q4.82 238.45 4.96 238.7Q5.09 238.94 5.33 239.08Q5.56 239.21 5.85 239.21ZM9.52 239.7Q9.06 239.7 8.7 239.5Q8.33 239.29 8.13 238.94Q7.92 238.58 7.92 238.14Q7.92 237.69 8.13 237.33Q8.33 236.98 8.7 236.78Q9.06 236.58 9.52 236.58Q9.97 236.58 10.33 236.78Q10.69 236.98 10.9 237.33Q11.1 237.69 11.1 238.14Q11.1 238.58 10.9 238.94Q10.69 239.29 10.33 239.5Q9.97 239.7 9.52 239.7ZM9.52 239.21Q9.81 239.21 10.04 239.08Q10.28 238.94 10.41 238.7Q10.54 238.45 10.54 238.14Q10.54 237.82 10.41 237.57Q10.28 237.33 10.04 237.2Q9.81 237.06 9.52 237.06Q9.22 237.06 8.99 237.2Q8.75 237.33 8.62 237.57Q8.48 237.82 8.48 238.14Q8.48 238.45 8.62 238.7Q8.75 238.94 8.99 239.08Q9.22 239.21 9.52 239.21ZM12.4 237.12Q12.54 236.86 12.82 236.72Q13.11 236.58 13.51 236.58L13.51 237.11Q13.46 237.11 13.38 237.11Q12.93 237.11 12.68 237.38Q12.42 237.65 12.42 238.14L12.42 239.66L11.87 239.66L11.87 236.61L12.4 236.61L12.4 237.12ZM17.04 235.39L17.04 239.66L16.51 239.66L16.51 239.18Q16.33 239.43 16.05 239.56Q15.76 239.7 15.42 239.7Q14.98 239.7 14.63 239.5Q14.28 239.31 14.08 238.95Q13.88 238.6 13.88 238.14Q13.88 237.67 14.08 237.32Q14.28 236.97 14.63 236.77Q14.98 236.58 15.42 236.58Q15.75 236.58 16.03 236.7Q16.31 236.83 16.49 237.07L16.49 235.39ZM15.47 239.21Q15.76 239.21 15.99 239.08Q16.23 238.94 16.36 238.7Q16.5 238.45 16.5 238.14Q16.5 237.82 16.36 237.57Q16.23 237.33 15.99 237.2Q15.76 237.06 15.47 237.06Q15.18 237.06 14.94 237.2Q14.71 237.33 14.57 237.57Q14.44 237.82 14.44 238.14Q14.44 238.45 14.57 238.7Q14.71 238.94 14.94 239.08Q15.18 239.21 15.47 239.21ZM18.09 236.61L18.65 236.61L18.65 239.66L18.09 239.66ZM18.37 236.02Q18.21 236.02 18.1 235.92Q18 235.81 18 235.66Q18 235.51 18.1 235.41Q18.21 235.3 18.37 235.3Q18.53 235.3 18.64 235.4Q18.74 235.5 18.74 235.65Q18.74 235.81 18.64 235.91Q18.53 236.02 18.37 236.02ZM21.33 236.58Q21.92 236.58 22.26 236.92Q22.6 237.25 22.6 237.9L22.6 239.66L22.05 239.66L22.05 237.97Q22.05 237.52 21.83 237.3Q21.62 237.07 21.22 237.07Q20.77 237.07 20.51 237.34Q20.26 237.6 20.26 238.09L20.26 239.66L19.7 239.66L19.7 236.61L20.23 236.61L20.23 237.07Q20.4 236.83 20.68 236.71Q20.97 236.58 21.33 236.58ZM24.74 236.58Q25.37 236.58 25.71 236.89Q26.05 237.2 26.05 237.82L26.05 239.66L25.52 239.66L25.52 239.26Q25.39 239.47 25.13 239.58Q24.87 239.7 24.52 239.7Q24.01 239.7 23.7 239.45Q23.39 239.2 23.39 238.8Q23.39 238.39 23.69 238.15Q23.98 237.9 24.62 237.9L25.5 237.9L25.5 237.79Q25.5 237.44 25.29 237.25Q25.08 237.06 24.68 237.06Q24.41 237.06 24.15 237.15Q23.89 237.24 23.71 237.39L23.48 236.97Q23.71 236.78 24.04 236.68Q24.37 236.58 24.74 236.58ZM24.61 239.27Q24.93 239.27 25.16 239.13Q25.39 238.99 25.5 238.73L25.5 238.3L24.64 238.3Q23.94 238.3 23.94 238.77Q23.94 239.01 24.12 239.14Q24.3 239.27 24.61 239.27ZM28.79 239.48Q28.67 239.59 28.49 239.64Q28.31 239.7 28.12 239.7Q27.66 239.7 27.41 239.45Q27.16 239.2 27.16 238.74L27.16 237.06L26.64 237.06L26.64 236.61L27.16 236.61L27.16 235.94L27.71 235.94L27.71 236.61L28.59 236.61L28.59 237.06L27.71 237.06L27.71 238.72Q27.71 238.97 27.83 239.1Q27.96 239.23 28.19 239.23Q28.44 239.23 28.62 239.09ZM32.12 238.15Q32.12 238.22 32.11 238.32L29.63 238.32Q29.68 238.72 29.98 238.97Q30.29 239.21 30.74 239.21Q31.28 239.21 31.62 238.84L31.92 239.2Q31.72 239.44 31.41 239.57Q31.1 239.7 30.72 239.7Q30.23 239.7 29.86 239.5Q29.48 239.3 29.28 238.94Q29.08 238.58 29.08 238.14Q29.08 237.69 29.27 237.33Q29.47 236.98 29.82 236.78Q30.17 236.58 30.61 236.58Q31.05 236.58 31.39 236.78Q31.73 236.98 31.93 237.33Q32.12 237.69 32.12 238.15ZM30.61 237.05Q30.21 237.05 29.94 237.29Q29.67 237.53 29.63 237.92L31.59 237.92Q31.54 237.54 31.27 237.29Q31.01 237.05 30.61 237.05Z" aria-label="coordinate"/></g></g>
   <path d="m0.2645 253.82v-5.7034h32.608v5.7034" fill="none" stroke="#de4c36" stroke-linecap="round" stroke-linejoin="round" stroke-width=".529"/>
  </g>
  <g transform="translate(-177.37 -2.9481)" fill="none" stroke="#de4c36" stroke-linecap="round" stroke-linejoin="round" stroke-width=".529">
   <path transform="translate(13.131)" d="m180.81 250.83v-3.2096"/>
   <circle transform="scale(1,-1)" cx="193.94" cy="-246.85" r=".75117" stroke-dashoffset="72"/>
  </g>
  <g>
   <g fill="#b91d5e" stroke-width=".0727px" word-spacing="0px" style="font-feature-settings:normal;font-variant-caps:normal;font-variant-ligatures:normal;font-variant-numeric:normal;line-height:0%" xml:space="preserve"><g text-align="center" style="font-feature-settings:normal;font-variant-caps:normal;font-variant-ligatures:normal;font-variant-numeric:normal;line-height:125%"><path d="M86.75 229.37Q87.32 229.37 87.66 229.71Q88 230.04 88 230.7L88 232.46L87.45 232.46L87.45 230.76Q87.45 230.32 87.24 230.09Q87.04 229.87 86.66 229.87Q86.24 229.87 85.99 230.13Q85.74 230.39 85.74 230.88L85.74 232.46L85.19 232.46L85.19 230.76Q85.19 230.32 84.98 230.09Q84.78 229.87 84.4 229.87Q83.98 229.87 83.73 230.13Q83.48 230.39 83.48 230.88L83.48 232.46L82.93 232.46L82.93 229.4L83.46 229.4L83.46 229.86Q83.62 229.62 83.89 229.5Q84.17 229.37 84.51 229.37Q84.87 229.37 85.15 229.52Q85.42 229.66 85.57 229.94Q85.75 229.67 86.05 229.52Q86.36 229.37 86.75 229.37ZM90.35 232.49Q89.89 232.49 89.53 232.29Q89.16 232.09 88.96 231.73Q88.75 231.38 88.75 230.93Q88.75 230.48 88.96 230.13Q89.16 229.77 89.53 229.57Q89.89 229.37 90.35 229.37Q90.8 229.37 91.16 229.57Q91.52 229.77 91.73 230.13Q91.93 230.48 91.93 230.93Q91.93 231.38 91.73 231.73Q91.52 232.09 91.16 232.29Q90.8 232.49 90.35 232.49ZM90.35 232.01Q90.64 232.01 90.87 231.87Q91.11 231.74 91.24 231.49Q91.37 231.25 91.37 230.93Q91.37 230.61 91.24 230.37Q91.11 230.12 90.87 229.99Q90.64 229.86 90.35 229.86Q90.05 229.86 89.82 229.99Q89.58 230.12 89.45 230.37Q89.31 230.61 89.31 230.93Q89.31 231.25 89.45 231.49Q89.58 231.74 89.82 231.87Q90.05 232.01 90.35 232.01ZM95.58 228.18L95.58 232.46L95.05 232.46L95.05 231.97Q94.87 232.23 94.58 232.36Q94.3 232.49 93.96 232.49Q93.52 232.49 93.16 232.3Q92.81 232.1 92.61 231.74Q92.42 231.39 92.42 230.93Q92.42 230.47 92.61 230.12Q92.81 229.76 93.16 229.57Q93.52 229.37 93.96 229.37Q94.29 229.37 94.57 229.5Q94.84 229.62 95.03 229.86L95.03 228.18ZM94.01 232.01Q94.29 232.01 94.53 231.87Q94.77 231.74 94.9 231.49Q95.03 231.25 95.03 230.93Q95.03 230.61 94.9 230.37Q94.77 230.12 94.53 229.99Q94.29 229.86 94.01 229.86Q93.71 229.86 93.48 229.99Q93.25 230.12 93.11 230.37Q92.97 230.61 92.97 230.93Q92.97 231.25 93.11 231.49Q93.25 231.74 93.48 231.87Q93.71 232.01 94.01 232.01ZM99.48 229.4L99.48 232.46L98.95 232.46L98.95 232Q98.79 232.23 98.51 232.36Q98.24 232.49 97.91 232.49Q97.3 232.49 96.95 232.15Q96.6 231.82 96.6 231.16L96.6 229.4L97.15 229.4L97.15 231.1Q97.15 231.54 97.37 231.77Q97.58 232 97.98 232Q98.42 232 98.67 231.73Q98.92 231.47 98.92 230.98L98.92 229.4ZM100.53 228.18L101.09 228.18L101.09 232.46L100.53 232.46ZM104.9 230.95Q104.9 231.01 104.89 231.11L102.41 231.11Q102.46 231.52 102.77 231.76Q103.07 232.01 103.52 232.01Q104.07 232.01 104.4 231.64L104.71 232Q104.5 232.24 104.19 232.36Q103.88 232.49 103.5 232.49Q103.02 232.49 102.64 232.29Q102.27 232.09 102.06 231.74Q101.86 231.38 101.86 230.93Q101.86 230.49 102.06 230.13Q102.26 229.77 102.6 229.57Q102.95 229.37 103.39 229.37Q103.83 229.37 104.17 229.57Q104.52 229.77 104.71 230.13Q104.9 230.49 104.9 230.95ZM103.39 229.84Q102.99 229.84 102.73 230.08Q102.46 230.32 102.41 230.72L104.37 230.72Q104.33 230.33 104.06 230.08Q103.79 229.84 103.39 229.84Z" aria-label="module"/></g><g text-align="center" style="font-feature-settings:normal;font-variant-caps:normal;font-variant-ligatures:normal;font-variant-numeric:normal;line-height:125%"><path d="M79.84 239.7Q79.37 239.7 79 239.5Q78.64 239.29 78.43 238.94Q78.22 238.58 78.22 238.14Q78.22 237.69 78.43 237.33Q78.64 236.98 79 236.78Q79.37 236.58 79.84 236.58Q80.25 236.58 80.58 236.75Q80.9 236.91 81.08 237.23L80.66 237.5Q80.52 237.28 80.3 237.17Q80.09 237.06 79.83 237.06Q79.53 237.06 79.29 237.2Q79.05 237.33 78.92 237.57Q78.78 237.82 78.78 238.14Q78.78 238.46 78.92 238.7Q79.05 238.95 79.29 239.08Q79.53 239.21 79.83 239.21Q80.09 239.21 80.3 239.1Q80.52 238.99 80.66 238.77L81.08 239.04Q80.9 239.36 80.58 239.53Q80.25 239.7 79.84 239.7ZM83.06 239.7Q82.6 239.7 82.24 239.5Q81.88 239.29 81.67 238.94Q81.47 238.58 81.47 238.14Q81.47 237.69 81.67 237.33Q81.88 236.98 82.24 236.78Q82.6 236.58 83.06 236.58Q83.51 236.58 83.87 236.78Q84.24 236.98 84.44 237.33Q84.64 237.69 84.64 238.14Q84.64 238.58 84.44 238.94Q84.24 239.29 83.87 239.5Q83.51 239.7 83.06 239.7ZM83.06 239.21Q83.35 239.21 83.59 239.08Q83.82 238.94 83.95 238.7Q84.09 238.45 84.09 238.14Q84.09 237.82 83.95 237.57Q83.82 237.33 83.59 237.2Q83.35 237.06 83.06 237.06Q82.77 237.06 82.53 237.2Q82.3 237.33 82.16 237.57Q82.03 237.82 82.03 238.14Q82.03 238.45 82.16 238.7Q82.3 238.94 82.53 239.08Q82.77 239.21 83.06 239.21ZM86.72 239.7Q86.26 239.7 85.9 239.5Q85.54 239.29 85.33 238.94Q85.13 238.58 85.13 238.14Q85.13 237.69 85.33 237.33Q85.54 236.98 85.9 236.78Q86.26 236.58 86.72 236.58Q87.18 236.58 87.54 236.78Q87.9 236.98 88.1 237.33Q88.3 237.69 88.3 238.14Q88.3 238.58 88.1 238.94Q87.9 239.29 87.54 239.5Q87.18 239.7 86.72 239.7ZM86.72 239.21Q87.01 239.21 87.25 239.08Q87.48 238.94 87.61 238.7Q87.75 238.45 87.75 238.14Q87.75 237.82 87.61 237.57Q87.48 237.33 87.25 237.2Q87.01 237.06 86.72 237.06Q86.43 237.06 86.19 237.2Q85.96 237.33 85.82 237.57Q85.69 237.82 85.69 238.14Q85.69 238.45 85.82 238.7Q85.96 238.94 86.19 239.08Q86.43 239.21 86.72 239.21ZM89.6 237.12Q89.75 236.86 90.03 236.72Q90.31 236.58 90.71 236.58L90.71 237.11Q90.67 237.11 90.59 237.11Q90.14 237.11 89.88 237.38Q89.63 237.65 89.63 238.14L89.63 239.66L89.07 239.66L89.07 236.61L89.6 236.61L89.6 237.12ZM94.25 235.39L94.25 239.66L93.72 239.66L93.72 239.18Q93.53 239.43 93.25 239.56Q92.97 239.7 92.63 239.7Q92.18 239.7 91.83 239.5Q91.48 239.31 91.28 238.95Q91.08 238.6 91.08 238.14Q91.08 237.67 91.28 237.32Q91.48 236.97 91.83 236.77Q92.18 236.58 92.63 236.58Q92.96 236.58 93.23 236.7Q93.51 236.83 93.69 237.07L93.69 235.39ZM92.67 239.21Q92.96 239.21 93.2 239.08Q93.44 238.94 93.57 238.7Q93.7 238.45 93.7 238.14Q93.7 237.82 93.57 237.57Q93.44 237.33 93.2 237.2Q92.96 237.06 92.67 237.06Q92.38 237.06 92.15 237.2Q91.91 237.33 91.78 237.57Q91.64 237.82 91.64 238.14Q91.64 238.45 91.78 238.7Q91.91 238.94 92.15 239.08Q92.38 239.21 92.67 239.21ZM95.3 236.61L95.85 236.61L95.85 239.66L95.3 239.66ZM95.57 236.02Q95.41 236.02 95.31 235.92Q95.2 235.81 95.2 235.66Q95.2 235.51 95.31 235.41Q95.41 235.3 95.57 235.3Q95.74 235.3 95.84 235.4Q95.95 235.5 95.95 235.65Q95.95 235.81 95.84 235.91Q95.74 236.02 95.57 236.02ZM98.54 236.58Q99.12 236.58 99.46 236.92Q99.81 237.25 99.81 237.9L99.81 239.66L99.25 239.66L99.25 237.97Q99.25 237.52 99.04 237.3Q98.83 237.07 98.43 237.07Q97.98 237.07 97.72 237.34Q97.46 237.6 97.46 238.09L97.46 239.66L96.91 239.66L96.91 236.61L97.44 236.61L97.44 237.07Q97.6 236.83 97.89 236.71Q98.17 236.58 98.54 236.58ZM101.94 236.58Q102.58 236.58 102.92 236.89Q103.25 237.2 103.25 237.82L103.25 239.66L102.73 239.66L102.73 239.26Q102.59 239.47 102.33 239.58Q102.08 239.7 101.73 239.7Q101.21 239.7 100.9 239.45Q100.6 239.2 100.6 238.8Q100.6 238.39 100.89 238.15Q101.18 237.9 101.82 237.9L102.7 237.9L102.7 237.79Q102.7 237.44 102.49 237.25Q102.28 237.06 101.88 237.06Q101.61 237.06 101.35 237.15Q101.09 237.24 100.91 237.39L100.68 236.97Q100.92 236.78 101.25 236.68Q101.58 236.58 101.94 236.58ZM101.82 239.27Q102.13 239.27 102.37 239.13Q102.6 238.99 102.7 238.73L102.7 238.3L101.85 238.3Q101.14 238.3 101.14 238.77Q101.14 239.01 101.32 239.14Q101.5 239.27 101.82 239.27ZM106 239.48Q105.88 239.59 105.7 239.64Q105.52 239.7 105.33 239.7Q104.87 239.7 104.61 239.45Q104.36 239.2 104.36 238.74L104.36 237.06L103.84 237.06L103.84 236.61L104.36 236.61L104.36 235.94L104.91 235.94L104.91 236.61L105.79 236.61L105.79 237.06L104.91 237.06L104.91 238.72Q104.91 238.97 105.04 239.1Q105.16 239.23 105.39 239.23Q105.65 239.23 105.82 239.09ZM109.32 238.15Q109.32 238.22 109.31 238.32L106.83 238.32Q106.88 238.72 107.19 238.97Q107.49 239.21 107.94 239.21Q108.49 239.21 108.82 238.84L109.13 239.2Q108.92 239.44 108.61 239.57Q108.3 239.7 107.92 239.7Q107.44 239.7 107.06 239.5Q106.69 239.3 106.48 238.94Q106.28 238.58 106.28 238.14Q106.28 237.69 106.48 237.33Q106.68 236.98 107.03 236.78Q107.37 236.58 107.81 236.58Q108.25 236.58 108.59 236.78Q108.94 236.98 109.13 237.33Q109.32 237.69 109.32 238.15ZM107.81 237.05Q107.41 237.05 107.15 237.29Q106.88 237.53 106.83 237.92L108.79 237.92Q108.75 237.54 108.48 237.29Q108.21 237.05 107.81 237.05Z" aria-label="coordinate"/></g></g>
   <path d="m79.687 253.82v-5.7034h28.172v5.7034" fill="none" stroke="#b91d5e" stroke-linecap="round" stroke-linejoin="round" stroke-width=".529"/>
   <g transform="translate(-64.417 -2.9481)" fill="none" stroke="#b91d5e" stroke-linecap="round" stroke-linejoin="round" stroke-width=".529">
    <path d="m158.19 250.83v-3.2096"/>
    <circle transform="scale(1,-1)" cx="158.19" cy="-246.85" r=".75117" stroke-dashoffset="72"/>
   </g>
   <g fill="#199d4a" stroke-width=".0727px" word-spacing="0px" style="font-feature-settings:normal;font-variant-caps:normal;font-variant-ligatures:normal;font-variant-numeric:normal;line-height:0%" xml:space="preserve"><g text-align="center" style="font-feature-settings:normal;font-variant-caps:normal;font-variant-ligatures:normal;font-variant-numeric:normal;line-height:125%"><path d="M155.21 228.6Q154.71 228.6 154.71 229.14L154.71 229.4L155.6 229.4L155.6 229.86L154.72 229.86L154.72 232.46L154.17 232.46L154.17 229.86L153.65 229.86L153.65 229.4L154.17 229.4L154.17 229.13Q154.17 228.68 154.44 228.41Q154.7 228.14 155.18 228.14Q155.36 228.14 155.53 228.19Q155.69 228.24 155.8 228.32L155.64 228.74Q155.44 228.6 155.21 228.6ZM156.59 229.4L157.14 229.4L157.14 232.46L156.59 232.46ZM156.86 228.81Q156.7 228.81 156.59 228.71Q156.49 228.61 156.49 228.46Q156.49 228.31 156.59 228.2Q156.7 228.09 156.86 228.09Q157.02 228.09 157.13 228.19Q157.24 228.29 157.24 228.44Q157.24 228.6 157.13 228.71Q157.02 228.81 156.86 228.81ZM158.19 228.18L158.75 228.18L158.75 232.46L158.19 232.46ZM162.56 230.95Q162.56 231.01 162.55 231.11L160.07 231.11Q160.13 231.52 160.43 231.76Q160.73 232.01 161.18 232.01Q161.73 232.01 162.06 231.64L162.37 232Q162.16 232.24 161.85 232.36Q161.54 232.49 161.16 232.49Q160.68 232.49 160.3 232.29Q159.93 232.09 159.73 231.74Q159.52 231.38 159.52 230.93Q159.52 230.49 159.72 230.13Q159.92 229.77 160.27 229.57Q160.62 229.37 161.05 229.37Q161.49 229.37 161.83 229.57Q162.18 229.77 162.37 230.13Q162.56 230.49 162.56 230.95ZM161.05 229.84Q160.66 229.84 160.39 230.08Q160.12 230.32 160.07 230.72L162.03 230.72Q161.99 230.33 161.72 230.08Q161.45 229.84 161.05 229.84Z" aria-label="file"/></g><g text-align="center" style="font-feature-settings:normal;font-variant-caps:normal;font-variant-ligatures:normal;font-variant-numeric:normal;line-height:125%"><path d="M144.25 239.7Q143.78 239.7 143.42 239.5Q143.05 239.29 142.84 238.94Q142.64 238.58 142.64 238.14Q142.64 237.69 142.84 237.33Q143.05 236.98 143.42 236.78Q143.78 236.58 144.25 236.58Q144.66 236.58 144.99 236.75Q145.32 236.91 145.49 237.23L145.07 237.5Q144.93 237.28 144.72 237.17Q144.5 237.06 144.24 237.06Q143.94 237.06 143.7 237.2Q143.47 237.33 143.33 237.57Q143.19 237.82 143.19 238.14Q143.19 238.46 143.33 238.7Q143.47 238.95 143.7 239.08Q143.94 239.21 144.24 239.21Q144.5 239.21 144.72 239.1Q144.93 238.99 145.07 238.77L145.49 239.04Q145.32 239.36 144.99 239.53Q144.66 239.7 144.25 239.7ZM147.47 239.7Q147.02 239.7 146.65 239.5Q146.29 239.29 146.09 238.94Q145.88 238.58 145.88 238.14Q145.88 237.69 146.09 237.33Q146.29 236.98 146.65 236.78Q147.02 236.58 147.47 236.58Q147.93 236.58 148.29 236.78Q148.65 236.98 148.85 237.33Q149.06 237.69 149.06 238.14Q149.06 238.58 148.85 238.94Q148.65 239.29 148.29 239.5Q147.93 239.7 147.47 239.7ZM147.47 239.21Q147.77 239.21 148 239.08Q148.23 238.94 148.37 238.7Q148.5 238.45 148.5 238.14Q148.5 237.82 148.37 237.57Q148.23 237.33 148 237.2Q147.77 237.06 147.47 237.06Q147.18 237.06 146.94 237.2Q146.71 237.33 146.58 237.57Q146.44 237.82 146.44 238.14Q146.44 238.45 146.58 238.7Q146.71 238.94 146.94 239.08Q147.18 239.21 147.47 239.21ZM151.13 239.7Q150.68 239.7 150.31 239.5Q149.95 239.29 149.75 238.94Q149.54 238.58 149.54 238.14Q149.54 237.69 149.75 237.33Q149.95 236.98 150.31 236.78Q150.68 236.58 151.13 236.58Q151.59 236.58 151.95 236.78Q152.31 236.98 152.51 237.33Q152.72 237.69 152.72 238.14Q152.72 238.58 152.51 238.94Q152.31 239.29 151.95 239.5Q151.59 239.7 151.13 239.7ZM151.13 239.21Q151.43 239.21 151.66 239.08Q151.89 238.94 152.03 238.7Q152.16 238.45 152.16 238.14Q152.16 237.82 152.03 237.57Q151.89 237.33 151.66 237.2Q151.43 237.06 151.13 237.06Q150.84 237.06 150.61 237.2Q150.37 237.33 150.24 237.57Q150.1 237.82 150.1 238.14Q150.1 238.45 150.24 238.7Q150.37 238.94 150.61 239.08Q150.84 239.21 151.13 239.21ZM154.02 237.12Q154.16 236.86 154.44 236.72Q154.72 236.58 155.13 236.58L155.13 237.11Q155.08 237.11 155 237.11Q154.55 237.11 154.29 237.38Q154.04 237.65 154.04 238.14L154.04 239.66L153.48 239.66L153.48 236.61L154.02 236.61L154.02 237.12ZM158.66 235.39L158.66 239.66L158.13 239.66L158.13 239.18Q157.95 239.43 157.66 239.56Q157.38 239.7 157.04 239.7Q156.6 239.7 156.25 239.5Q155.89 239.31 155.7 238.95Q155.5 238.6 155.5 238.14Q155.5 237.67 155.7 237.32Q155.89 236.97 156.25 236.77Q156.6 236.58 157.04 236.58Q157.37 236.58 157.65 236.7Q157.92 236.83 158.11 237.07L158.11 235.39ZM157.09 239.21Q157.38 239.21 157.61 239.08Q157.85 238.94 157.98 238.7Q158.11 238.45 158.11 238.14Q158.11 237.82 157.98 237.57Q157.85 237.33 157.61 237.2Q157.38 237.06 157.09 237.06Q156.79 237.06 156.56 237.2Q156.33 237.33 156.19 237.57Q156.06 237.82 156.06 238.14Q156.06 238.45 156.19 238.7Q156.33 238.94 156.56 239.08Q156.79 239.21 157.09 239.21ZM159.71 236.61L160.26 236.61L160.26 239.66L159.71 239.66ZM159.99 236.02Q159.83 236.02 159.72 235.92Q159.61 235.81 159.61 235.66Q159.61 235.51 159.72 235.41Q159.83 235.3 159.99 235.3Q160.15 235.3 160.26 235.4Q160.36 235.5 160.36 235.65Q160.36 235.81 160.26 235.91Q160.15 236.02 159.99 236.02ZM162.95 236.58Q163.53 236.58 163.88 236.92Q164.22 237.25 164.22 237.9L164.22 239.66L163.67 239.66L163.67 237.97Q163.67 237.52 163.45 237.3Q163.24 237.07 162.84 237.07Q162.39 237.07 162.13 237.34Q161.87 237.6 161.87 238.09L161.87 239.66L161.32 239.66L161.32 236.61L161.85 236.61L161.85 237.07Q162.02 236.83 162.3 236.71Q162.59 236.58 162.95 236.58ZM166.36 236.58Q166.99 236.58 167.33 236.89Q167.67 237.2 167.67 237.82L167.67 239.66L167.14 239.66L167.14 239.26Q167 239.47 166.75 239.58Q166.49 239.7 166.14 239.7Q165.63 239.7 165.32 239.45Q165.01 239.2 165.01 238.8Q165.01 238.39 165.3 238.15Q165.6 237.9 166.24 237.9L167.11 237.9L167.11 237.79Q167.11 237.44 166.91 237.25Q166.7 237.06 166.29 237.06Q166.02 237.06 165.76 237.15Q165.5 237.24 165.33 237.39L165.09 236.97Q165.33 236.78 165.66 236.68Q165.99 236.58 166.36 236.58ZM166.23 239.27Q166.55 239.27 166.78 239.13Q167.01 238.99 167.11 238.73L167.11 238.3L166.26 238.3Q165.56 238.3 165.56 238.77Q165.56 239.01 165.73 239.14Q165.91 239.27 166.23 239.27ZM170.41 239.48Q170.29 239.59 170.11 239.64Q169.93 239.7 169.74 239.7Q169.28 239.7 169.03 239.45Q168.77 239.2 168.77 238.74L168.77 237.06L168.25 237.06L168.25 236.61L168.77 236.61L168.77 235.94L169.33 235.94L169.33 236.61L170.2 236.61L170.2 237.06L169.33 237.06L169.33 238.72Q169.33 238.97 169.45 239.1Q169.57 239.23 169.8 239.23Q170.06 239.23 170.24 239.09ZM173.74 238.15Q173.74 238.22 173.72 238.32L171.25 238.32Q171.3 238.72 171.6 238.97Q171.9 239.21 172.35 239.21Q172.9 239.21 173.23 238.84L173.54 239.2Q173.33 239.44 173.02 239.57Q172.72 239.7 172.34 239.7Q171.85 239.7 171.48 239.5Q171.1 239.3 170.9 238.94Q170.69 238.58 170.69 238.14Q170.69 237.69 170.89 237.33Q171.09 236.98 171.44 236.78Q171.79 236.58 172.23 236.58Q172.66 236.58 173.01 236.78Q173.35 236.98 173.54 237.33Q173.74 237.69 173.74 238.15ZM172.23 237.05Q171.83 237.05 171.56 237.29Q171.29 237.53 171.25 237.92L173.21 237.92Q173.16 237.54 172.89 237.29Q172.62 237.05 172.23 237.05Z" aria-label="coordinate"/></g></g>
  </g>
 </g>
</svg>