<svg width="130.5mm" height="41.9mm" version="1.1" viewBox="0 0 130.5 41.9" xmlns="http://www.w3.org/2000/svg" xmlns:cc="http://creativecommons.org/ns#" xmlns:dc="http://purl.org/dc/elements/1.1/" xmlns:rdf="http://www.w3.org/1999/02/22-rdf-syntax-ns#">
 <title>Resource ID of the target resource</title>
 <metadata>
  <rdf:RDF>
   <cc:Work rdf:about="">
    <dc:format>image/svg+xml</dc:format>
    <dc:type rdf:resource="http://purl.org/dc/dcmitype/StillImage"/>
    <dc:title>Resource ID of the target resource</dc:title>
    <dc:creator>
     <cc:Agent>
      <dc:title>Sarah White</dc:title>
     </cc:Agent>
    </dc:creator>
    <dc:publisher>
     <cc:Agent>
      <dc:title>OpenDevise Inc.</dc:title>
     </cc:Agent>
    </dc:publisher>
    <dc:subject>
     <rdf:Bag>
      <rdf:li>Antora resource ID</rdf:li>
     </rdf:Bag>
    </dc:subject>
    <cc:license rdf:resource="http://creativecommons.org/licenses/by-sa/4.0/"/>
   </cc:Work>
   <cc:License rdf:about="http://creativecommons.org/licenses/by-sa/4.0/">
    <cc:permits rdf:resource="http://creativecommons.org/ns#Reproduction"/>
    <cc:permits rdf:resource="http://creativecommons.org/ns#Distribution"/>
    <cc:requires rdf:resource="http://creativecommons.org/ns#Notice"/>
    <cc:requires rdf:resource="http://creativecommons.org/ns#Attribution"/>
    <cc:permits rdf:resource="http://creativecommons.org/ns#DerivativeWorks"/>
    <cc:requires rdf:resource="http://creativecommons.org/ns#ShareAlike"/>
   </cc:License>
  </rdf:RDF>
 </metadata>
 <g transform="translate(3.844e-7 -228.09)">
  <rect y="228.09" width="130.5" height="41.9" fill="#fff"/>
  <g>
   <g transform="scale(1 .99998)" fill="#1565c0" stroke-width=".0727px" word-spacing="0px" style="font-feature-settings:normal;font-variant-caps:normal;font-variant-ligatures:normal;font-variant-numeric:normal;line-height:0%" xml:space="preserve"><g stroke-width=".0727px" style="font-feature-settings:normal;font-variant-caps:normal;font-variant-ligatures:normal;font-variant-numeric:normal;line-height:125%"><g fill="#808080"><path d="M3 247.86L1.89 246.39L0.77 247.86L0 247.86L1.51 245.9L0.07 244.03L0.85 244.03L1.9 245.41L2.95 244.03L3.71 244.03L2.26 245.9L3.79 247.86ZM5.21 244.67Q5.39 244.34 5.75 244.16Q6.1 243.99 6.61 243.99L6.61 244.66Q6.55 244.66 6.45 244.66Q5.89 244.66 5.56 244.99Q5.24 245.33 5.24 245.95L5.24 247.86L4.55 247.86L4.55 244.03L5.21 244.03L5.21 244.67ZM10.89 245.96Q10.89 246.04 10.87 246.17L7.76 246.17Q7.83 246.68 8.21 246.99Q8.59 247.3 9.15 247.3Q9.84 247.3 10.26 246.83L10.64 247.28Q10.38 247.58 10 247.74Q9.61 247.9 9.13 247.9Q8.52 247.9 8.05 247.65Q7.58 247.4 7.33 246.96Q7.07 246.51 7.07 245.94Q7.07 245.39 7.32 244.94Q7.57 244.49 8.01 244.24Q8.44 243.99 8.99 243.99Q9.54 243.99 9.97 244.24Q10.4 244.49 10.65 244.94Q10.89 245.39 10.89 245.96ZM8.99 244.58Q8.5 244.58 8.16 244.88Q7.82 245.18 7.76 245.68L10.22 245.68Q10.17 245.19 9.83 244.88Q9.49 244.58 8.99 244.58ZM13.25 243.02Q12.63 243.02 12.63 243.69L12.63 244.03L13.74 244.03L13.74 244.6L12.64 244.6L12.64 247.86L11.95 247.86L11.95 244.6L11.3 244.6L11.3 244.03L11.95 244.03L11.95 243.69Q11.95 243.12 12.28 242.78Q12.62 242.45 13.22 242.45Q13.45 242.45 13.65 242.51Q13.85 242.57 14 242.68L13.79 243.2Q13.55 243.02 13.25 243.02ZM14.73 244.98Q14.52 244.98 14.38 244.84Q14.24 244.7 14.24 244.48Q14.24 244.27 14.38 244.13Q14.52 243.99 14.73 243.99Q14.93 243.99 15.07 244.13Q15.2 244.27 15.2 244.48Q15.2 244.7 15.06 244.84Q14.92 244.98 14.73 244.98ZM14.73 247.9Q14.52 247.9 14.38 247.76Q14.24 247.62 14.24 247.4Q14.24 247.19 14.38 247.05Q14.52 246.91 14.73 246.91Q14.93 246.91 15.07 247.05Q15.2 247.19 15.2 247.4Q15.2 247.62 15.06 247.76Q14.92 247.9 14.73 247.9Z" aria-label="xref:"/></g><path d="M19.45 247.23L19.45 247.86L15.81 247.86L15.81 247.37L17.87 245.38Q18.25 245.02 18.38 244.75Q18.51 244.49 18.51 244.22Q18.51 243.82 18.23 243.6Q17.95 243.38 17.43 243.38Q16.59 243.38 16.14 243.93L15.65 243.51Q15.94 243.15 16.42 242.94Q16.9 242.74 17.5 242.74Q18.29 242.74 18.76 243.12Q19.23 243.5 19.23 244.15Q19.23 244.55 19.06 244.92Q18.88 245.28 18.4 245.74L16.85 247.23ZM20.59 247.9Q20.39 247.9 20.24 247.76Q20.1 247.62 20.1 247.4Q20.1 247.19 20.24 247.05Q20.39 246.91 20.59 246.91Q20.79 246.91 20.93 247.05Q21.07 247.19 21.07 247.4Q21.07 247.62 20.93 247.76Q20.79 247.9 20.59 247.9ZM23.2 244.82Q24.28 244.82 24.79 245.22Q25.3 245.63 25.3 246.34Q25.3 246.79 25.09 247.15Q24.88 247.5 24.45 247.71Q24.02 247.92 23.39 247.92Q22.85 247.92 22.35 247.75Q21.86 247.59 21.53 247.3L21.86 246.73Q22.12 246.98 22.53 247.13Q22.93 247.27 23.38 247.27Q23.95 247.27 24.27 247.03Q24.58 246.79 24.58 246.37Q24.58 245.91 24.23 245.68Q23.89 245.44 23.05 245.44L21.9 245.44L22.17 242.8L25.02 242.8L25.02 243.43L22.77 243.43L22.64 244.82L23.2 244.82ZM29.32 242.75Q30.29 242.75 31.06 243.15Q31.83 243.55 32.26 244.27Q32.69 245 32.69 245.92Q32.69 246.85 32.35 247.37Q32.01 247.9 31.4 247.9Q31.05 247.9 30.82 247.73Q30.6 247.55 30.53 247.22Q30.31 247.55 29.96 247.73Q29.61 247.9 29.16 247.9Q28.65 247.9 28.25 247.66Q27.84 247.43 27.61 247Q27.39 246.58 27.39 246.04Q27.39 245.52 27.61 245.09Q27.84 244.67 28.25 244.44Q28.65 244.2 29.16 244.2Q29.58 244.2 29.92 244.36Q30.26 244.51 30.48 244.82L30.48 244.23L31.11 244.23L31.11 246.83Q31.11 247.1 31.23 247.23Q31.34 247.35 31.52 247.35Q31.84 247.35 32.02 246.98Q32.19 246.61 32.19 245.93Q32.19 245.13 31.83 244.52Q31.47 243.9 30.82 243.56Q30.16 243.22 29.32 243.22Q28.46 243.22 27.81 243.58Q27.16 243.93 26.79 244.57Q26.43 245.21 26.43 246.02Q26.43 246.85 26.79 247.48Q27.15 248.12 27.79 248.48Q28.44 248.84 29.29 248.84Q29.64 248.84 30.01 248.76Q30.38 248.68 30.68 248.52L30.84 248.98Q30.52 249.15 30.1 249.23Q29.69 249.32 29.29 249.32Q28.3 249.32 27.53 248.9Q26.76 248.47 26.33 247.72Q25.9 246.97 25.9 246.02Q25.9 245.08 26.33 244.33Q26.76 243.59 27.54 243.17Q28.32 242.75 29.32 242.75ZM29.26 247.34Q29.61 247.34 29.89 247.18Q30.17 247.02 30.33 246.73Q30.5 246.43 30.5 246.04Q30.5 245.65 30.33 245.36Q30.17 245.07 29.89 244.91Q29.61 244.76 29.26 244.76Q28.71 244.76 28.37 245.11Q28.03 245.46 28.03 246.04Q28.03 246.63 28.37 246.98Q28.72 247.34 29.26 247.34ZM35.74 243.99Q36.47 243.99 36.9 244.41Q37.33 244.84 37.33 245.65L37.33 247.86L36.63 247.86L36.63 245.73Q36.63 245.18 36.37 244.89Q36.1 244.61 35.6 244.61Q35.04 244.61 34.71 244.94Q34.38 245.27 34.38 245.89L34.38 247.86L33.69 247.86L33.69 242.49L34.38 242.49L34.38 244.57Q34.6 244.29 34.95 244.14Q35.3 243.99 35.74 243.99ZM41.93 244.03L40.07 248.24Q39.83 248.83 39.5 249.07Q39.17 249.3 38.71 249.3Q38.43 249.3 38.16 249.21Q37.9 249.12 37.73 248.95L38.02 248.43Q38.32 248.71 38.71 248.71Q38.96 248.71 39.13 248.58Q39.3 248.44 39.44 248.12L39.56 247.85L37.87 244.03L38.59 244.03L39.93 247.09L41.25 244.03ZM44.62 243.99Q45.17 243.99 45.61 244.24Q46.05 244.48 46.3 244.92Q46.55 245.36 46.55 245.94Q46.55 246.52 46.3 246.97Q46.05 247.41 45.61 247.66Q45.17 247.9 44.62 247.9Q44.2 247.9 43.86 247.74Q43.52 247.58 43.28 247.28L43.28 249.26L42.58 249.26L42.58 244.03L43.25 244.03L43.25 244.63Q43.48 244.32 43.83 244.15Q44.19 243.99 44.62 243.99ZM44.56 247.3Q44.93 247.3 45.22 247.13Q45.51 246.96 45.68 246.65Q45.85 246.34 45.85 245.94Q45.85 245.55 45.68 245.24Q45.51 244.93 45.22 244.76Q44.93 244.6 44.56 244.6Q44.2 244.6 43.9 244.77Q43.61 244.94 43.44 245.24Q43.27 245.55 43.27 245.94Q43.27 246.34 43.44 246.65Q43.6 246.96 43.9 247.13Q44.2 247.3 44.56 247.3ZM50.98 245.96Q50.98 246.04 50.96 246.17L47.85 246.17Q47.92 246.68 48.3 246.99Q48.68 247.3 49.24 247.3Q49.93 247.3 50.35 246.83L50.73 247.28Q50.47 247.58 50.08 247.74Q49.7 247.9 49.22 247.9Q48.61 247.9 48.14 247.65Q47.67 247.4 47.42 246.96Q47.16 246.51 47.16 245.94Q47.16 245.39 47.41 244.94Q47.66 244.49 48.1 244.24Q48.53 243.99 49.08 243.99Q49.63 243.99 50.06 244.24Q50.49 244.49 50.74 244.94Q50.98 245.39 50.98 245.96ZM49.08 244.58Q48.58 244.58 48.25 244.88Q47.91 245.18 47.85 245.68L50.31 245.68Q50.25 245.19 49.92 244.88Q49.58 244.58 49.08 244.58ZM52.6 244.67Q52.78 244.34 53.14 244.16Q53.49 243.99 54 243.99L54 244.66Q53.94 244.66 53.84 244.66Q53.28 244.66 52.95 244.99Q52.63 245.33 52.63 245.95L52.63 247.86L51.94 247.86L51.94 244.03L52.6 244.03L52.6 244.67ZM55.09 244.98Q54.89 244.98 54.74 244.84Q54.6 244.7 54.6 244.48Q54.6 244.27 54.74 244.13Q54.89 243.99 55.09 243.99Q55.29 243.99 55.43 244.13Q55.57 244.27 55.57 244.48Q55.57 244.7 55.43 244.84Q55.29 244.98 55.09 244.98ZM55.09 247.9Q54.89 247.9 54.74 247.76Q54.6 247.62 54.6 247.4Q54.6 247.19 54.74 247.05Q54.89 246.91 55.09 246.91Q55.29 246.91 55.43 247.05Q55.57 247.19 55.57 247.4Q55.57 247.62 55.43 247.76Q55.29 247.9 55.09 247.9ZM57.96 243.99Q58.76 243.99 59.18 244.38Q59.6 244.77 59.6 245.55L59.6 247.86L58.94 247.86L58.94 247.35Q58.77 247.62 58.45 247.76Q58.13 247.9 57.69 247.9Q57.04 247.9 56.66 247.59Q56.27 247.28 56.27 246.77Q56.27 246.27 56.64 245.96Q57.01 245.65 57.81 245.65L58.91 245.65L58.91 245.52Q58.91 245.07 58.65 244.83Q58.39 244.59 57.88 244.59Q57.54 244.59 57.22 244.7Q56.89 244.82 56.67 245L56.38 244.48Q56.67 244.24 57.09 244.12Q57.5 243.99 57.96 243.99ZM57.8 247.37Q58.2 247.37 58.49 247.19Q58.78 247.01 58.91 246.69L58.91 246.15L57.84 246.15Q56.96 246.15 56.96 246.75Q56.96 247.03 57.18 247.2Q57.4 247.37 57.8 247.37ZM64.53 242.49L64.53 247.86L63.86 247.86L63.86 247.25Q63.63 247.57 63.28 247.74Q62.92 247.9 62.49 247.9Q61.94 247.9 61.5 247.66Q61.06 247.41 60.81 246.97Q60.56 246.52 60.56 245.94Q60.56 245.36 60.81 244.92Q61.06 244.48 61.5 244.24Q61.94 243.99 62.49 243.99Q62.91 243.99 63.25 244.15Q63.6 244.3 63.83 244.61L63.83 242.49ZM62.55 247.3Q62.91 247.3 63.21 247.13Q63.51 246.96 63.67 246.65Q63.84 246.34 63.84 245.94Q63.84 245.55 63.67 245.24Q63.51 244.93 63.21 244.76Q62.91 244.6 62.55 244.6Q62.18 244.6 61.89 244.76Q61.6 244.93 61.43 245.24Q61.26 245.55 61.26 245.94Q61.26 246.34 61.43 246.65Q61.6 246.96 61.89 247.13Q62.18 247.3 62.55 247.3ZM70.64 243.99Q71.36 243.99 71.78 244.41Q72.2 244.83 72.2 245.65L72.2 247.86L71.51 247.86L71.51 245.73Q71.51 245.18 71.25 244.89Q71 244.61 70.52 244.61Q69.99 244.61 69.68 244.94Q69.37 245.27 69.37 245.89L69.37 247.86L68.68 247.86L68.68 245.73Q68.68 245.18 68.42 244.89Q68.16 244.61 67.69 244.61Q67.16 244.61 66.85 244.94Q66.54 245.27 66.54 245.89L66.54 247.86L65.84 247.86L65.84 244.03L66.51 244.03L66.51 244.6Q66.72 244.3 67.06 244.15Q67.4 243.99 67.83 243.99Q68.28 243.99 68.63 244.17Q68.97 244.35 69.16 244.7Q69.38 244.37 69.76 244.18Q70.15 243.99 70.64 243.99ZM73.48 244.03L74.18 244.03L74.18 247.86L73.48 247.86ZM73.83 243.29Q73.63 243.29 73.49 243.16Q73.36 243.03 73.36 242.84Q73.36 242.65 73.49 242.52Q73.63 242.39 73.83 242.39Q74.03 242.39 74.17 242.51Q74.3 242.64 74.3 242.83Q74.3 243.02 74.17 243.16Q74.03 243.29 73.83 243.29ZM77.55 243.99Q78.28 243.99 78.71 244.41Q79.14 244.84 79.14 245.65L79.14 247.86L78.44 247.86L78.44 245.73Q78.44 245.18 78.18 244.89Q77.91 244.61 77.41 244.61Q76.85 244.61 76.52 244.94Q76.19 245.27 76.19 245.89L76.19 247.86L75.5 247.86L75.5 244.03L76.17 244.03L76.17 244.61Q76.38 244.31 76.73 244.15Q77.09 243.99 77.55 243.99ZM80.59 244.98Q80.39 244.98 80.24 244.84Q80.1 244.7 80.1 244.48Q80.1 244.27 80.24 244.13Q80.39 243.99 80.59 243.99Q80.79 243.99 80.93 244.13Q81.07 244.27 81.07 244.48Q81.07 244.7 80.93 244.84Q80.79 244.98 80.59 244.98ZM80.59 247.9Q80.39 247.9 80.24 247.76Q80.1 247.62 80.1 247.4Q80.1 247.19 80.24 247.05Q80.39 246.91 80.59 246.91Q80.79 246.91 80.93 247.05Q81.07 247.19 81.07 247.4Q81.07 247.62 80.93 247.76Q80.79 247.9 80.59 247.9ZM86.86 243.99Q87.58 243.99 88 244.41Q88.43 244.83 88.43 245.65L88.43 247.86L87.73 247.86L87.73 245.73Q87.73 245.18 87.48 244.89Q87.22 244.61 86.74 244.61Q86.22 244.61 85.9 244.94Q85.59 245.27 85.59 245.89L85.59 247.86L84.9 247.86L84.9 245.73Q84.9 245.18 84.64 244.89Q84.39 244.61 83.91 244.61Q83.38 244.61 83.07 244.94Q82.76 245.27 82.76 245.89L82.76 247.86L82.07 247.86L82.07 244.03L82.73 244.03L82.73 244.6Q82.94 244.3 83.28 244.15Q83.62 243.99 84.05 243.99Q84.5 243.99 84.85 244.17Q85.2 244.35 85.38 244.7Q85.6 244.37 85.99 244.18Q86.37 243.99 86.86 243.99ZM91.37 247.9Q90.8 247.9 90.34 247.65Q89.89 247.4 89.63 246.95Q89.37 246.51 89.37 245.94Q89.37 245.38 89.63 244.93Q89.89 244.49 90.34 244.24Q90.8 243.99 91.37 243.99Q91.94 243.99 92.39 244.24Q92.85 244.49 93.1 244.93Q93.36 245.38 93.36 245.94Q93.36 246.51 93.1 246.95Q92.85 247.4 92.39 247.65Q91.94 247.9 91.37 247.9ZM91.37 247.3Q91.74 247.3 92.03 247.13Q92.32 246.96 92.49 246.65Q92.66 246.34 92.66 245.94Q92.66 245.55 92.49 245.24Q92.32 244.93 92.03 244.76Q91.74 244.6 91.37 244.6Q91 244.6 90.71 244.76Q90.42 244.93 90.25 245.24Q90.08 245.55 90.08 245.94Q90.08 246.34 90.25 246.65Q90.42 246.96 90.71 247.13Q91 247.3 91.37 247.3ZM97.93 242.49L97.93 247.86L97.27 247.86L97.27 247.25Q97.04 247.57 96.68 247.74Q96.33 247.9 95.9 247.9Q95.35 247.9 94.91 247.66Q94.46 247.41 94.22 246.97Q93.97 246.52 93.97 245.94Q93.97 245.36 94.22 244.92Q94.46 244.48 94.91 244.24Q95.35 243.99 95.9 243.99Q96.32 243.99 96.66 244.15Q97.01 244.3 97.24 244.61L97.24 242.49ZM95.96 247.3Q96.32 247.3 96.62 247.13Q96.92 246.96 97.08 246.65Q97.25 246.34 97.25 245.94Q97.25 245.55 97.08 245.24Q96.92 244.93 96.62 244.76Q96.32 244.6 95.96 244.6Q95.59 244.6 95.3 244.76Q95.01 244.93 94.84 245.24Q94.67 245.55 94.67 245.94Q94.67 246.34 94.84 246.65Q95.01 246.96 95.3 247.13Q95.59 247.3 95.96 247.3ZM102.71 245.96Q102.71 246.04 102.7 246.17L99.59 246.17Q99.66 246.68 100.04 246.99Q100.41 247.3 100.98 247.3Q101.67 247.3 102.08 246.83L102.47 247.28Q102.21 247.58 101.82 247.74Q101.43 247.9 100.96 247.9Q100.35 247.9 99.88 247.65Q99.41 247.4 99.15 246.96Q98.9 246.51 98.9 245.94Q98.9 245.39 99.15 244.94Q99.4 244.49 99.83 244.24Q100.27 243.99 100.82 243.99Q101.37 243.99 101.8 244.24Q102.23 244.49 102.47 244.94Q102.71 245.39 102.71 245.96ZM100.82 244.58Q100.32 244.58 99.98 244.88Q99.65 245.18 99.59 245.68L102.05 245.68Q101.99 245.19 101.65 244.88Q101.32 244.58 100.82 244.58ZM104.77 247.9Q104.3 247.9 103.87 247.78Q103.44 247.65 103.19 247.45L103.48 246.9Q103.73 247.09 104.09 247.19Q104.46 247.3 104.82 247.3Q105.74 247.3 105.74 246.78Q105.74 246.61 105.61 246.51Q105.49 246.41 105.31 246.36Q105.12 246.31 104.78 246.25Q104.32 246.18 104.03 246.09Q103.73 245.99 103.52 245.77Q103.31 245.55 103.31 245.14Q103.31 244.62 103.75 244.31Q104.18 243.99 104.91 243.99Q105.29 243.99 105.68 244.09Q106.06 244.18 106.31 244.34L106.01 244.89Q105.54 244.58 104.9 244.58Q104.46 244.58 104.23 244.73Q104 244.87 104 245.11Q104 245.3 104.13 245.41Q104.26 245.52 104.45 245.57Q104.64 245.62 104.99 245.68Q105.45 245.76 105.74 245.85Q106.03 245.94 106.23 246.16Q106.43 246.38 106.43 246.77Q106.43 247.29 105.99 247.6Q105.54 247.9 104.77 247.9ZM107.46 247.9Q107.26 247.9 107.12 247.76Q106.97 247.62 106.97 247.4Q106.97 247.19 107.12 247.05Q107.26 246.91 107.46 246.91Q107.67 246.91 107.8 247.05Q107.94 247.19 107.94 247.4Q107.94 247.62 107.8 247.76Q107.66 247.9 107.46 247.9ZM110.41 243.99Q111.2 243.99 111.62 244.38Q112.05 244.77 112.05 245.55L112.05 247.86L111.39 247.86L111.39 247.35Q111.22 247.62 110.89 247.76Q110.57 247.9 110.13 247.9Q109.49 247.9 109.1 247.59Q108.71 247.28 108.71 246.77Q108.71 246.27 109.08 245.96Q109.45 245.65 110.25 245.65L111.35 245.65L111.35 245.52Q111.35 245.07 111.09 244.83Q110.83 244.59 110.33 244.59Q109.99 244.59 109.66 244.7Q109.34 244.82 109.11 245L108.82 244.48Q109.12 244.24 109.53 244.12Q109.94 243.99 110.41 243.99ZM110.25 247.37Q110.64 247.37 110.93 247.19Q111.22 247.01 111.35 246.69L111.35 246.15L110.28 246.15Q109.4 246.15 109.4 246.75Q109.4 247.03 109.63 247.2Q109.85 247.37 110.25 247.37ZM116.97 242.49L116.97 247.86L116.31 247.86L116.31 247.25Q116.07 247.57 115.72 247.74Q115.37 247.9 114.94 247.9Q114.38 247.9 113.94 247.66Q113.5 247.41 113.25 246.97Q113 246.52 113 245.94Q113 245.36 113.25 244.92Q113.5 244.48 113.94 244.24Q114.38 243.99 114.94 243.99Q115.35 243.99 115.7 244.15Q116.05 244.3 116.28 244.61L116.28 242.49ZM115 247.3Q115.36 247.3 115.66 247.13Q115.95 246.96 116.12 246.65Q116.28 246.34 116.28 245.94Q116.28 245.55 116.12 245.24Q115.95 244.93 115.66 244.76Q115.36 244.6 115 244.6Q114.63 244.6 114.34 244.76Q114.04 244.93 113.87 245.24Q113.7 245.55 113.7 245.94Q113.7 246.34 113.87 246.65Q114.04 246.96 114.34 247.13Q114.63 247.3 115 247.3ZM119.93 247.9Q119.36 247.9 118.9 247.65Q118.45 247.4 118.19 246.95Q117.93 246.51 117.93 245.94Q117.93 245.38 118.19 244.93Q118.45 244.49 118.9 244.24Q119.36 243.99 119.93 243.99Q120.5 243.99 120.95 244.24Q121.4 244.49 121.66 244.93Q121.92 245.38 121.92 245.94Q121.92 246.51 121.66 246.95Q121.4 247.4 120.95 247.65Q120.5 247.9 119.93 247.9ZM119.93 247.3Q120.3 247.3 120.59 247.13Q120.88 246.96 121.05 246.65Q121.21 246.34 121.21 245.94Q121.21 245.55 121.05 245.24Q120.88 244.93 120.59 244.76Q120.3 244.6 119.93 244.6Q119.56 244.6 119.27 244.76Q118.97 244.93 118.8 245.24Q118.63 245.55 118.63 245.94Q118.63 246.34 118.8 246.65Q118.97 246.96 119.27 247.13Q119.56 247.3 119.93 247.3ZM124.55 247.9Q123.96 247.9 123.5 247.65Q123.04 247.4 122.78 246.95Q122.52 246.51 122.52 245.94Q122.52 245.38 122.78 244.93Q123.04 244.49 123.5 244.24Q123.96 243.99 124.55 243.99Q125.07 243.99 125.48 244.2Q125.89 244.41 126.11 244.81L125.58 245.15Q125.4 244.87 125.13 244.74Q124.87 244.6 124.54 244.6Q124.16 244.6 123.86 244.76Q123.56 244.93 123.39 245.24Q123.22 245.55 123.22 245.94Q123.22 246.35 123.39 246.66Q123.56 246.96 123.86 247.13Q124.16 247.3 124.54 247.3Q124.87 247.3 125.13 247.16Q125.4 247.02 125.58 246.75L126.11 247.08Q125.89 247.48 125.48 247.69Q125.07 247.9 124.55 247.9Z" aria-label="2.5@hyper:admin:modes.adoc"/><g fill="#808080"><path d="M127.11 242.49L128.62 242.49L128.62 243.07L127.8 243.07L127.8 248.69L128.62 248.69L128.62 249.26L127.11 249.26ZM128.89 249.26L128.89 248.69L129.71 248.69L129.71 243.07L128.89 243.07L128.89 242.49L130.4 242.49L130.4 249.26Z" aria-label="[]"/></g></g></g>
   <g fill="#1565c0" stroke-width=".0727px" word-spacing="0px" style="font-feature-settings:normal;font-variant-caps:normal;font-variant-ligatures:normal;font-variant-numeric:normal;line-height:0%" xml:space="preserve"><g fill="#1565c0" stroke-width=".0727px" text-align="center" style="font-feature-settings:normal;font-variant-caps:normal;font-variant-ligatures:normal;font-variant-numeric:normal;line-height:125%"><path d="M28.04 266.25Q28.18 265.99 28.46 265.85Q28.74 265.71 29.15 265.71L29.15 266.25Q29.1 266.24 29.02 266.24Q28.57 266.24 28.31 266.51Q28.06 266.78 28.06 267.27L28.06 268.79L27.5 268.79L27.5 265.74L28.04 265.74L28.04 266.25ZM32.56 267.28Q32.56 267.35 32.55 267.45L30.07 267.45Q30.12 267.85 30.42 268.1Q30.73 268.34 31.18 268.34Q31.72 268.34 32.06 267.98L32.36 268.33Q32.16 268.58 31.85 268.7Q31.54 268.83 31.16 268.83Q30.68 268.83 30.3 268.63Q29.93 268.43 29.72 268.07Q29.52 267.72 29.52 267.27Q29.52 266.82 29.72 266.47Q29.91 266.11 30.26 265.91Q30.61 265.71 31.05 265.71Q31.49 265.71 31.83 265.91Q32.17 266.11 32.37 266.47Q32.56 266.82 32.56 267.28ZM31.05 266.18Q30.65 266.18 30.38 266.42Q30.12 266.66 30.07 267.05L32.03 267.05Q31.98 266.67 31.72 266.42Q31.45 266.18 31.05 266.18ZM34.2 268.83Q33.83 268.83 33.48 268.73Q33.14 268.63 32.94 268.47L33.17 268.03Q33.37 268.18 33.66 268.26Q33.95 268.35 34.24 268.35Q34.97 268.35 34.97 267.94Q34.97 267.8 34.87 267.72Q34.77 267.64 34.63 267.6Q34.48 267.56 34.21 267.51Q33.84 267.46 33.61 267.38Q33.37 267.31 33.21 267.13Q33.04 266.95 33.04 266.63Q33.04 266.21 33.38 265.96Q33.73 265.71 34.31 265.71Q34.62 265.71 34.92 265.79Q35.23 265.86 35.43 265.99L35.19 266.43Q34.81 266.18 34.31 266.18Q33.96 266.18 33.77 266.3Q33.59 266.41 33.59 266.6Q33.59 266.75 33.69 266.84Q33.79 266.93 33.95 266.97Q34.1 267.01 34.38 267.06Q34.75 267.12 34.97 267.19Q35.2 267.27 35.36 267.44Q35.52 267.61 35.52 267.92Q35.52 268.34 35.17 268.58Q34.81 268.83 34.2 268.83ZM37.52 268.83Q37.07 268.83 36.71 268.63Q36.34 268.43 36.14 268.07Q35.93 267.72 35.93 267.27Q35.93 266.82 36.14 266.46Q36.34 266.11 36.71 265.91Q37.07 265.71 37.52 265.71Q37.98 265.71 38.34 265.91Q38.7 266.11 38.9 266.46Q39.11 266.82 39.11 267.27Q39.11 267.72 38.9 268.07Q38.7 268.43 38.34 268.63Q37.98 268.83 37.52 268.83ZM37.52 268.34Q37.82 268.34 38.05 268.21Q38.28 268.07 38.42 267.83Q38.55 267.58 38.55 267.27Q38.55 266.95 38.42 266.7Q38.28 266.46 38.05 266.33Q37.82 266.19 37.52 266.19Q37.23 266.19 37 266.33Q36.76 266.46 36.63 266.7Q36.49 266.95 36.49 267.27Q36.49 267.58 36.63 267.83Q36.76 268.07 37 268.21Q37.23 268.34 37.52 268.34ZM42.72 265.74L42.72 268.79L42.2 268.79L42.2 268.33Q42.03 268.57 41.76 268.7Q41.48 268.83 41.16 268.83Q40.55 268.83 40.2 268.49Q39.85 268.15 39.85 267.5L39.85 265.74L40.4 265.74L40.4 267.43Q40.4 267.88 40.61 268.11Q40.83 268.33 41.22 268.33Q41.66 268.33 41.92 268.07Q42.17 267.8 42.17 267.32L42.17 265.74ZM44.31 266.25Q44.45 265.99 44.74 265.85Q45.02 265.71 45.42 265.71L45.42 266.25Q45.38 266.24 45.29 266.24Q44.85 266.24 44.59 266.51Q44.33 266.78 44.33 267.27L44.33 268.79L43.78 268.79L43.78 265.74L44.31 265.74L44.31 266.25ZM47.4 268.83Q46.94 268.83 46.57 268.63Q46.21 268.43 46 268.07Q45.79 267.72 45.79 267.27Q45.79 266.82 46 266.46Q46.21 266.11 46.57 265.91Q46.94 265.71 47.4 265.71Q47.82 265.71 48.15 265.88Q48.47 266.04 48.65 266.36L48.23 266.63Q48.08 266.41 47.87 266.3Q47.66 266.19 47.4 266.19Q47.1 266.19 46.86 266.33Q46.62 266.46 46.49 266.7Q46.35 266.95 46.35 267.27Q46.35 267.59 46.49 267.83Q46.62 268.08 46.86 268.21Q47.1 268.34 47.4 268.34Q47.66 268.34 47.87 268.24Q48.08 268.13 48.23 267.91L48.65 268.17Q48.47 268.49 48.15 268.66Q47.82 268.83 47.4 268.83ZM52.08 267.28Q52.08 267.35 52.07 267.45L49.59 267.45Q49.64 267.85 49.94 268.1Q50.25 268.34 50.7 268.34Q51.24 268.34 51.58 267.98L51.88 268.33Q51.68 268.58 51.37 268.7Q51.06 268.83 50.68 268.83Q50.19 268.83 49.82 268.63Q49.45 268.43 49.24 268.07Q49.04 267.72 49.04 267.27Q49.04 266.82 49.23 266.47Q49.43 266.11 49.78 265.91Q50.13 265.71 50.57 265.71Q51.01 265.71 51.35 265.91Q51.69 266.11 51.89 266.47Q52.08 266.82 52.08 267.28ZM50.57 266.18Q50.17 266.18 49.9 266.42Q49.64 266.66 49.59 267.05L51.55 267.05Q51.5 266.67 51.24 266.42Q50.97 266.18 50.57 266.18ZM54.48 264.76L55.05 264.76L55.05 268.79L54.48 268.79ZM56.26 264.76L57.97 264.76Q58.61 264.76 59.1 265.01Q59.6 265.27 59.87 265.72Q60.14 266.18 60.14 266.78Q60.14 267.37 59.87 267.83Q59.6 268.29 59.1 268.54Q58.61 268.79 57.97 268.79L56.26 268.79ZM57.93 268.29Q58.42 268.29 58.79 268.1Q59.16 267.91 59.37 267.57Q59.57 267.23 59.57 266.78Q59.57 266.33 59.37 265.98Q59.16 265.64 58.79 265.45Q58.42 265.26 57.93 265.26L56.84 265.26L56.84 268.29ZM63.81 268.83Q63.35 268.83 62.99 268.63Q62.62 268.43 62.42 268.07Q62.21 267.72 62.21 267.27Q62.21 266.82 62.42 266.46Q62.62 266.11 62.99 265.91Q63.35 265.71 63.81 265.71Q64.26 265.71 64.62 265.91Q64.98 266.11 65.19 266.46Q65.39 266.82 65.39 267.27Q65.39 267.72 65.19 268.07Q64.98 268.43 64.62 268.63Q64.26 268.83 63.81 268.83ZM63.81 268.34Q64.1 268.34 64.33 268.21Q64.57 268.07 64.7 267.83Q64.83 267.58 64.83 267.27Q64.83 266.95 64.7 266.7Q64.57 266.46 64.33 266.33Q64.1 266.19 63.81 266.19Q63.51 266.19 63.28 266.33Q63.04 266.46 62.91 266.7Q62.77 266.95 62.77 267.27Q62.77 267.58 62.91 267.83Q63.04 268.07 63.28 268.21Q63.51 268.34 63.81 268.34ZM67.28 264.94Q66.78 264.94 66.78 265.47L66.78 265.74L67.67 265.74L67.67 266.19L66.79 266.19L66.79 268.79L66.24 268.79L66.24 266.19L65.72 266.19L65.72 265.74L66.24 265.74L66.24 265.47Q66.24 265.01 66.5 264.75Q66.77 264.48 67.25 264.48Q67.43 264.48 67.59 264.53Q67.75 264.57 67.87 264.66L67.7 265.08Q67.51 264.94 67.28 264.94ZM71.46 268.62Q71.34 268.72 71.16 268.77Q70.98 268.83 70.79 268.83Q70.33 268.83 70.08 268.58Q69.82 268.33 69.82 267.87L69.82 266.19L69.3 266.19L69.3 265.74L69.82 265.74L69.82 265.07L70.38 265.07L70.38 265.74L71.25 265.74L71.25 266.19L70.38 266.19L70.38 267.85Q70.38 268.1 70.5 268.23Q70.62 268.36 70.86 268.36Q71.11 268.36 71.29 268.22ZM73.24 265.71Q73.88 265.71 74.21 266.02Q74.55 266.33 74.55 266.95L74.55 268.79L74.03 268.79L74.03 268.39Q73.89 268.6 73.63 268.72Q73.37 268.83 73.02 268.83Q72.51 268.83 72.2 268.58Q71.89 268.33 71.89 267.93Q71.89 267.53 72.19 267.28Q72.48 267.04 73.12 267.04L74 267.04L74 266.93Q74 266.57 73.79 266.38Q73.58 266.19 73.18 266.19Q72.91 266.19 72.65 266.28Q72.39 266.37 72.21 266.52L71.98 266.1Q72.22 265.91 72.54 265.81Q72.87 265.71 73.24 265.71ZM73.12 268.4Q73.43 268.4 73.66 268.26Q73.89 268.12 74 267.86L74 267.43L73.14 267.43Q72.44 267.43 72.44 267.91Q72.44 268.14 72.62 268.27Q72.8 268.4 73.12 268.4ZM76.11 266.25Q76.25 265.99 76.53 265.85Q76.82 265.71 77.22 265.71L77.22 266.25Q77.17 266.24 77.09 266.24Q76.64 266.24 76.39 266.51Q76.13 266.78 76.13 267.27L76.13 268.79L75.58 268.79L75.58 265.74L76.11 265.74L76.11 266.25ZM80.79 265.74L80.79 268.38Q80.79 269.18 80.4 269.56Q80 269.95 79.21 269.95Q78.78 269.95 78.38 269.83Q77.99 269.71 77.75 269.49L78.02 269.07Q78.23 269.25 78.54 269.36Q78.86 269.46 79.19 269.46Q79.73 269.46 79.98 269.21Q80.24 268.96 80.24 268.44L80.24 268.19Q80.04 268.43 79.76 268.55Q79.47 268.67 79.14 268.67Q78.7 268.67 78.35 268.48Q77.99 268.29 77.79 267.96Q77.59 267.62 77.59 267.19Q77.59 266.75 77.79 266.42Q77.99 266.08 78.35 265.89Q78.7 265.71 79.14 265.71Q79.49 265.71 79.78 265.84Q80.08 265.96 80.27 266.21L80.27 265.74ZM79.2 268.18Q79.5 268.18 79.74 268.06Q79.98 267.93 80.12 267.7Q80.25 267.47 80.25 267.19Q80.25 266.74 79.96 266.47Q79.66 266.19 79.2 266.19Q78.74 266.19 78.44 266.47Q78.15 266.74 78.15 267.19Q78.15 267.47 78.28 267.7Q78.42 267.93 78.66 268.06Q78.9 268.18 79.2 268.18ZM84.61 267.28Q84.61 267.35 84.6 267.45L82.12 267.45Q82.17 267.85 82.47 268.1Q82.78 268.34 83.23 268.34Q83.77 268.34 84.11 267.98L84.41 268.33Q84.21 268.58 83.9 268.7Q83.59 268.83 83.21 268.83Q82.72 268.83 82.35 268.63Q81.98 268.43 81.77 268.07Q81.57 267.72 81.57 267.27Q81.57 266.82 81.77 266.47Q81.96 266.11 82.31 265.91Q82.66 265.71 83.1 265.71Q83.54 265.71 83.88 265.91Q84.22 266.11 84.42 266.47Q84.61 266.82 84.61 267.28ZM83.1 266.18Q82.7 266.18 82.43 266.42Q82.17 266.66 82.12 267.05L84.08 267.05Q84.03 266.67 83.77 266.42Q83.5 266.18 83.1 266.18ZM87.09 268.62Q86.97 268.72 86.79 268.77Q86.62 268.83 86.43 268.83Q85.96 268.83 85.71 268.58Q85.46 268.33 85.46 267.87L85.46 266.19L84.94 266.19L84.94 265.74L85.46 265.74L85.46 265.07L86.01 265.07L86.01 265.74L86.89 265.74L86.89 266.19L86.01 266.19L86.01 267.85Q86.01 268.1 86.13 268.23Q86.26 268.36 86.49 268.36Q86.74 268.36 86.92 268.22ZM89.84 266.25Q89.99 265.99 90.27 265.85Q90.55 265.71 90.96 265.71L90.96 266.25Q90.91 266.24 90.83 266.24Q90.38 266.24 90.12 266.51Q89.87 266.78 89.87 267.27L89.87 268.79L89.31 268.79L89.31 265.74L89.84 265.74L89.84 266.25ZM94.37 267.28Q94.37 267.35 94.36 267.45L91.88 267.45Q91.93 267.85 92.23 268.1Q92.54 268.34 92.99 268.34Q93.53 268.34 93.87 267.98L94.17 268.33Q93.97 268.58 93.66 268.7Q93.35 268.83 92.97 268.83Q92.48 268.83 92.11 268.63Q91.74 268.43 91.53 268.07Q91.33 267.72 91.33 267.27Q91.33 266.82 91.52 266.47Q91.72 266.11 92.07 265.91Q92.42 265.71 92.86 265.71Q93.3 265.71 93.64 265.91Q93.98 266.11 94.18 266.47Q94.37 266.82 94.37 267.28ZM92.86 266.18Q92.46 266.18 92.19 266.42Q91.93 266.66 91.88 267.05L93.84 267.05Q93.79 266.67 93.53 266.42Q93.26 266.18 92.86 266.18ZM96.01 268.83Q95.64 268.83 95.29 268.73Q94.95 268.63 94.75 268.47L94.98 268.03Q95.18 268.18 95.47 268.26Q95.76 268.35 96.05 268.35Q96.78 268.35 96.78 267.94Q96.78 267.8 96.68 267.72Q96.58 267.64 96.44 267.6Q96.29 267.56 96.02 267.51Q95.65 267.46 95.42 267.38Q95.18 267.31 95.02 267.13Q94.85 266.95 94.85 266.63Q94.85 266.21 95.19 265.96Q95.54 265.71 96.12 265.71Q96.43 265.71 96.73 265.79Q97.04 265.86 97.23 265.99L97 266.43Q96.62 266.18 96.12 266.18Q95.76 266.18 95.58 266.3Q95.4 266.41 95.4 266.6Q95.4 266.75 95.5 266.84Q95.6 266.93 95.76 266.97Q95.91 267.01 96.19 267.06Q96.55 267.12 96.78 267.19Q97.01 267.27 97.17 267.44Q97.33 267.61 97.33 267.92Q97.33 268.34 96.98 268.58Q96.62 268.83 96.01 268.83ZM99.33 268.83Q98.88 268.83 98.51 268.63Q98.15 268.43 97.95 268.07Q97.74 267.72 97.74 267.27Q97.74 266.82 97.95 266.46Q98.15 266.11 98.51 265.91Q98.88 265.71 99.33 265.71Q99.79 265.71 100.15 265.91Q100.51 266.11 100.71 266.46Q100.92 266.82 100.92 267.27Q100.92 267.72 100.71 268.07Q100.51 268.43 100.15 268.63Q99.79 268.83 99.33 268.83ZM99.33 268.34Q99.63 268.34 99.86 268.21Q100.09 268.07 100.23 267.83Q100.36 267.58 100.36 267.27Q100.36 266.95 100.23 266.7Q100.09 266.46 99.86 266.33Q99.63 266.19 99.33 266.19Q99.04 266.19 98.81 266.33Q98.57 266.46 98.44 266.7Q98.3 266.95 98.3 267.27Q98.3 267.58 98.44 267.83Q98.57 268.07 98.81 268.21Q99.04 268.34 99.33 268.34ZM104.53 265.74L104.53 268.79L104.01 268.79L104.01 268.33Q103.84 268.57 103.57 268.7Q103.29 268.83 102.97 268.83Q102.36 268.83 102.01 268.49Q101.66 268.15 101.66 267.5L101.66 265.74L102.21 265.74L102.21 267.43Q102.21 267.88 102.42 268.11Q102.64 268.33 103.03 268.33Q103.47 268.33 103.73 268.07Q103.98 267.8 103.98 267.32L103.98 265.74ZM106.12 266.25Q106.26 265.99 106.54 265.85Q106.83 265.71 107.23 265.71L107.23 266.25Q107.18 266.24 107.1 266.24Q106.65 266.24 106.4 266.51Q106.14 266.78 106.14 267.27L106.14 268.79L105.59 268.79L105.59 265.74L106.12 265.74L106.12 266.25ZM109.21 268.83Q108.75 268.83 108.38 268.63Q108.01 268.43 107.81 268.07Q107.6 267.72 107.6 267.27Q107.6 266.82 107.81 266.46Q108.01 266.11 108.38 265.91Q108.75 265.71 109.21 265.71Q109.63 265.71 109.95 265.88Q110.28 266.04 110.46 266.36L110.04 266.63Q109.89 266.41 109.68 266.3Q109.47 266.19 109.21 266.19Q108.91 266.19 108.67 266.33Q108.43 266.46 108.29 266.7Q108.16 266.95 108.16 267.27Q108.16 267.59 108.29 267.83Q108.43 268.08 108.67 268.21Q108.91 268.34 109.21 268.34Q109.47 268.34 109.68 268.24Q109.89 268.13 110.04 267.91L110.46 268.17Q110.28 268.49 109.95 268.66Q109.63 268.83 109.21 268.83ZM113.89 267.28Q113.89 267.35 113.88 267.45L111.4 267.45Q111.45 267.85 111.75 268.1Q112.06 268.34 112.51 268.34Q113.05 268.34 113.39 267.98L113.69 268.33Q113.49 268.58 113.18 268.7Q112.87 268.83 112.49 268.83Q112 268.83 111.63 268.63Q111.25 268.43 111.05 268.07Q110.85 267.72 110.85 267.27Q110.85 266.82 111.04 266.47Q111.24 266.11 111.59 265.91Q111.94 265.71 112.38 265.71Q112.82 265.71 113.16 265.91Q113.5 266.11 113.7 266.47Q113.89 266.82 113.89 267.28ZM112.38 266.18Q111.98 266.18 111.71 266.42Q111.44 266.66 111.4 267.05L113.36 267.05Q113.31 266.67 113.04 266.42Q112.78 266.18 112.38 266.18Z" aria-label="resource ID of target resource"/></g></g>
   <path d="m16.002 251.26v5.7034l109.39 2e-5v-5.7034" fill="none" stroke="#1565c0" stroke-linecap="round" stroke-linejoin="round" stroke-width=".529"/>
   <g transform="translate(-23.98 -16.882)" fill="none" stroke="#1565c0" stroke-linecap="round" stroke-linejoin="round" stroke-width=".529">
    <path d="m94.676 274.08v3.2096"/>
    <circle cx="94.676" cy="278.06" r=".75117" stroke-dashoffset="72"/>
   </g>
   <g transform="scale(1 .99998)" fill="#242424" stroke-width=".0727px" word-spacing="0px" style="font-feature-settings:normal;font-variant-caps:normal;font-variant-ligatures:normal;font-variant-numeric:normal;line-height:0%" xml:space="preserve"><g fill="#808080" stroke-width=".0727px" style="font-feature-settings:normal;font-variant-caps:normal;font-variant-ligatures:normal;font-variant-numeric:normal;line-height:125%"><path d="M0.38 229.9L3.62 229.9L3.62 230.47L0.38 230.47ZM0.38 231.61L3.62 231.61L3.62 232.18L0.38 232.18ZM8.29 233.63Q7.71 233.63 7.18 233.45Q6.65 233.27 6.35 232.99L6.62 232.43Q6.9 232.69 7.36 232.85Q7.81 233.01 8.29 233.01Q8.91 233.01 9.23 232.8Q9.54 232.59 9.54 232.23Q9.54 231.97 9.37 231.81Q9.2 231.65 8.95 231.56Q8.7 231.47 8.24 231.37Q7.67 231.23 7.32 231.09Q6.97 230.95 6.72 230.67Q6.47 230.38 6.47 229.9Q6.47 229.49 6.68 229.17Q6.9 228.84 7.33 228.65Q7.76 228.45 8.41 228.45Q8.86 228.45 9.29 228.57Q9.72 228.68 10.03 228.9L9.8 229.48Q9.48 229.28 9.12 229.17Q8.76 229.07 8.41 229.07Q7.79 229.07 7.49 229.29Q7.18 229.52 7.18 229.87Q7.18 230.13 7.35 230.29Q7.53 230.46 7.78 230.55Q8.04 230.64 8.48 230.74Q9.05 230.87 9.4 231.01Q9.75 231.15 10 231.43Q10.24 231.71 10.24 232.19Q10.24 232.59 10.03 232.92Q9.81 233.25 9.37 233.44Q8.93 233.63 8.29 233.63ZM12.59 229.7Q13.39 229.7 13.81 230.09Q14.24 230.48 14.24 231.26L14.24 233.57L13.58 233.57L13.58 233.07Q13.4 233.33 13.08 233.47Q12.76 233.61 12.32 233.61Q11.68 233.61 11.29 233.3Q10.9 232.99 10.9 232.49Q10.9 231.98 11.27 231.67Q11.64 231.37 12.44 231.37L13.54 231.37L13.54 231.23Q13.54 230.78 13.28 230.54Q13.02 230.3 12.51 230.3Q12.17 230.3 11.85 230.42Q11.52 230.53 11.3 230.72L11.01 230.19Q11.31 229.96 11.72 229.83Q12.13 229.7 12.59 229.7ZM12.44 233.08Q12.83 233.08 13.12 232.9Q13.41 232.73 13.54 232.4L13.54 231.87L12.47 231.87Q11.59 231.87 11.59 232.46Q11.59 232.75 11.81 232.91Q12.04 233.08 12.44 233.08ZM17.68 233.35Q17.53 233.48 17.3 233.55Q17.08 233.61 16.84 233.61Q16.26 233.61 15.94 233.3Q15.62 232.99 15.62 232.41L15.62 230.31L14.97 230.31L14.97 229.74L15.62 229.74L15.62 228.9L16.32 228.9L16.32 229.74L17.42 229.74L17.42 230.31L16.32 230.31L16.32 232.39Q16.32 232.7 16.47 232.86Q16.63 233.03 16.92 233.03Q17.24 233.03 17.46 232.85ZM21.85 231.68Q21.85 231.76 21.83 231.89L18.73 231.89Q18.79 232.39 19.17 232.7Q19.55 233.01 20.11 233.01Q20.8 233.01 21.22 232.54L21.6 232.99Q21.34 233.3 20.96 233.46Q20.57 233.61 20.09 233.61Q19.48 233.61 19.01 233.37Q18.54 233.12 18.29 232.67Q18.03 232.22 18.03 231.66Q18.03 231.1 18.28 230.65Q18.53 230.2 18.97 229.95Q19.4 229.7 19.95 229.7Q20.5 229.7 20.93 229.95Q21.36 230.2 21.61 230.65Q21.85 231.1 21.85 231.68ZM19.95 230.29Q19.46 230.29 19.12 230.59Q18.78 230.9 18.73 231.39L21.18 231.39Q21.13 230.9 20.79 230.6Q20.45 230.29 19.95 230.29ZM22.81 228.21L23.5 228.21L23.5 233.57L22.81 233.57ZM24.83 228.21L25.52 228.21L25.52 233.57L24.83 233.57ZM26.84 229.74L27.54 229.74L27.54 233.57L26.84 233.57ZM27.19 229Q26.99 229 26.86 228.87Q26.72 228.74 26.72 228.55Q26.72 228.37 26.86 228.23Q26.99 228.1 27.19 228.1Q27.39 228.1 27.53 228.22Q27.66 228.35 27.66 228.54Q27.66 228.73 27.53 228.87Q27.39 229 27.19 229ZM31.02 233.35Q30.86 233.48 30.64 233.55Q30.42 233.61 30.18 233.61Q29.6 233.61 29.28 233.3Q28.96 232.99 28.96 232.41L28.96 230.31L28.31 230.31L28.31 229.74L28.96 229.74L28.96 228.9L29.66 228.9L29.66 229.74L30.76 229.74L30.76 230.31L29.66 230.31L29.66 232.39Q29.66 232.7 29.81 232.86Q29.97 233.03 30.26 233.03Q30.57 233.03 30.8 232.85ZM35.19 231.68Q35.19 231.76 35.17 231.89L32.06 231.89Q32.13 232.39 32.51 232.7Q32.89 233.01 33.45 233.01Q34.14 233.01 34.56 232.54L34.94 232.99Q34.68 233.3 34.29 233.46Q33.91 233.61 33.43 233.61Q32.82 233.61 32.35 233.37Q31.88 233.12 31.63 232.67Q31.37 232.22 31.37 231.66Q31.37 231.1 31.62 230.65Q31.87 230.2 32.31 229.95Q32.74 229.7 33.29 229.7Q33.84 229.7 34.27 229.95Q34.7 230.2 34.95 230.65Q35.19 231.1 35.19 231.68ZM33.29 230.29Q32.79 230.29 32.46 230.59Q32.12 230.9 32.06 231.39L34.52 231.39Q34.46 230.9 34.13 230.6Q33.79 230.29 33.29 230.29ZM37.25 233.61Q36.78 233.61 36.34 233.49Q35.91 233.36 35.66 233.17L35.95 232.62Q36.21 232.8 36.57 232.91Q36.93 233.01 37.3 233.01Q38.21 233.01 38.21 232.49Q38.21 232.32 38.09 232.22Q37.96 232.12 37.78 232.07Q37.59 232.02 37.26 231.97Q36.79 231.89 36.5 231.8Q36.21 231.71 36 231.48Q35.79 231.26 35.79 230.85Q35.79 230.33 36.22 230.02Q36.66 229.7 37.39 229.7Q37.77 229.7 38.15 229.8Q38.53 229.89 38.78 230.05L38.48 230.6Q38.01 230.3 37.38 230.3Q36.94 230.3 36.71 230.44Q36.47 230.59 36.47 230.82Q36.47 231.01 36.6 231.12Q36.73 231.23 36.93 231.28Q37.12 231.33 37.46 231.4Q37.93 231.47 38.21 231.57Q38.5 231.66 38.7 231.87Q38.9 232.09 38.9 232.48Q38.9 233 38.46 233.31Q38.01 233.61 37.25 233.61Z" aria-label="= Satellites"/></g></g>
  </g>
 </g>
</svg>