<svg width="219.23mm" height="61.88mm" version="1.1" viewBox="0 0 219.23 61.88" xmlns="http://www.w3.org/2000/svg" xmlns:cc="http://creativecommons.org/ns#" xmlns:dc="http://purl.org/dc/elements/1.1/" xmlns:rdf="http://www.w3.org/1999/02/22-rdf-syntax-ns#">
 <title>AsciiDoc xref macro with Antora resource ID for a page</title>
 <metadata>
  <rdf:RDF>
   <cc:Work rdf:about="">
    <dc:format>image/svg+xml</dc:format>
    <dc:type rdf:resource="http://purl.org/dc/dcmitype/StillImage"/>
    <dc:title>AsciiDoc xref macro with Antora resource ID for a page</dc:title>
    <dc:creator>
     <cc:Agent>
      <dc:title>Sarah White</dc:title>
     </cc:Agent>
    </dc:creator>
    <dc:publisher>
     <cc:Agent>
      <dc:title>OpenDevise Inc.</dc:title>
     </cc:Agent>
    </dc:publisher>
    <dc:subject>
     <rdf:Bag>
      <rdf:li>Antora resource ID</rdf:li>
      <rdf:li>AsciiDoc xref macro</rdf:li>
     </rdf:Bag>
    </dc:subject>
    <cc:license rdf:resource="http://creativecommons.org/licenses/by-sa/4.0/"/>
   </cc:Work>
   <cc:License rdf:about="http://creativecommons.org/licenses/by-sa/4.0/">
    <cc:permits rdf:resource="http://creativecommons.org/ns#Reproduction"/>
    <cc:permits rdf:resource="http://creativecommons.org/ns#Distribution"/>
    <cc:requires rdf:resource="http://creativecommons.org/ns#Notice"/>
    <cc:requires rdf:resource="http://creativecommons.org/ns#Attribution"/>
    <cc:permits rdf:resource="http://creativecommons.org/ns#DerivativeWorks"/>
    <cc:requires rdf:resource="http://creativecommons.org/ns#ShareAlike"/>
   </cc:License>
  </rdf:RDF>
 </metadata>
 <g transform="translate(3.9664e-7 -228.09)">
  <rect y="228.09" width="219.23" height="61.88" fill="#fff"/>
  <g transform="translate(1.7649 13.887)">
   <g transform="scale(1 .99998)" fill="#1565c0" stroke-width=".0727px" word-spacing="0px" style="font-feature-settings:normal;font-variant-caps:normal;font-variant-ligatures:normal;font-variant-numeric:normal;line-height:0%" xml:space="preserve"><g stroke-width=".0727px" style="font-feature-settings:normal;font-variant-caps:normal;font-variant-ligatures:normal;font-variant-numeric:normal;line-height:125%"><g fill="#e40046"><path d="M3 247.86L1.89 246.39L0.77 247.86L0 247.86L1.51 245.9L0.07 244.03L0.85 244.03L1.9 245.41L2.95 244.03L3.71 244.03L2.26 245.9L3.79 247.86ZM5.21 244.67Q5.39 244.34 5.75 244.16Q6.1 243.99 6.61 243.99L6.61 244.66Q6.55 244.66 6.45 244.66Q5.89 244.66 5.56 244.99Q5.24 245.33 5.24 245.95L5.24 247.86L4.55 247.86L4.55 244.03L5.21 244.03L5.21 244.67ZM10.89 245.96Q10.89 246.04 10.87 246.17L7.76 246.17Q7.83 246.68 8.21 246.99Q8.59 247.3 9.15 247.3Q9.84 247.3 10.26 246.83L10.64 247.28Q10.38 247.58 10 247.74Q9.61 247.9 9.13 247.9Q8.52 247.9 8.05 247.65Q7.58 247.4 7.33 246.96Q7.07 246.51 7.07 245.94Q7.07 245.39 7.32 244.94Q7.57 244.49 8.01 244.24Q8.44 243.99 8.99 243.99Q9.54 243.99 9.97 244.24Q10.4 244.49 10.65 244.94Q10.89 245.39 10.89 245.96ZM8.99 244.58Q8.5 244.58 8.16 244.88Q7.82 245.18 7.76 245.68L10.22 245.68Q10.17 245.19 9.83 244.88Q9.49 244.58 8.99 244.58ZM13.25 243.02Q12.63 243.02 12.63 243.69L12.63 244.03L13.74 244.03L13.74 244.6L12.64 244.6L12.64 247.86L11.95 247.86L11.95 244.6L11.3 244.6L11.3 244.03L11.95 244.03L11.95 243.69Q11.95 243.12 12.28 242.78Q12.62 242.45 13.22 242.45Q13.45 242.45 13.65 242.51Q13.85 242.57 14 242.68L13.79 243.2Q13.55 243.02 13.25 243.02ZM14.73 244.98Q14.52 244.98 14.38 244.84Q14.24 244.7 14.24 244.48Q14.24 244.27 14.38 244.13Q14.52 243.99 14.73 243.99Q14.93 243.99 15.07 244.13Q15.2 244.27 15.2 244.48Q15.2 244.7 15.06 244.84Q14.92 244.98 14.73 244.98ZM14.73 247.9Q14.52 247.9 14.38 247.76Q14.24 247.62 14.24 247.4Q14.24 247.19 14.38 247.05Q14.52 246.91 14.73 246.91Q14.93 246.91 15.07 247.05Q15.2 247.19 15.2 247.4Q15.2 247.62 15.06 247.76Q14.92 247.9 14.73 247.9Z" aria-label="xref:"/></g><g fill="#242424"><path d="M19.59 244.03L17.92 247.86L17.21 247.86L15.53 244.03L16.25 244.03L17.57 247.1L18.91 244.03ZM23.6 245.96Q23.6 246.04 23.58 246.17L20.47 246.17Q20.54 246.68 20.92 246.99Q21.3 247.3 21.86 247.3Q22.55 247.3 22.97 246.83L23.35 247.28Q23.09 247.58 22.71 247.74Q22.32 247.9 21.84 247.9Q21.23 247.9 20.76 247.65Q20.29 247.4 20.04 246.96Q19.78 246.51 19.78 245.94Q19.78 245.39 20.03 244.94Q20.28 244.49 20.72 244.24Q21.15 243.99 21.7 243.99Q22.25 243.99 22.68 244.24Q23.11 244.49 23.36 244.94Q23.6 245.39 23.6 245.96ZM21.7 244.58Q21.21 244.58 20.87 244.88Q20.53 245.18 20.47 245.68L22.93 245.68Q22.88 245.19 22.54 244.88Q22.2 244.58 21.7 244.58ZM25.22 244.67Q25.41 244.34 25.76 244.16Q26.11 243.99 26.62 243.99L26.62 244.66Q26.56 244.66 26.46 244.66Q25.9 244.66 25.58 244.99Q25.25 245.33 25.25 245.95L25.25 247.86L24.56 247.86L24.56 244.03L25.22 244.03L25.22 244.67ZM28.6 247.9Q28.13 247.9 27.7 247.78Q27.26 247.65 27.02 247.45L27.31 246.9Q27.56 247.09 27.92 247.19Q28.28 247.3 28.65 247.3Q29.56 247.3 29.56 246.78Q29.56 246.61 29.44 246.51Q29.32 246.41 29.13 246.36Q28.95 246.31 28.61 246.25Q28.15 246.18 27.85 246.09Q27.56 245.99 27.35 245.77Q27.14 245.55 27.14 245.14Q27.14 244.62 27.57 244.31Q28.01 243.99 28.74 243.99Q29.12 243.99 29.5 244.09Q29.89 244.18 30.13 244.34L29.84 244.89Q29.37 244.58 28.73 244.58Q28.29 244.58 28.06 244.73Q27.83 244.87 27.83 245.11Q27.83 245.3 27.96 245.41Q28.09 245.52 28.28 245.57Q28.47 245.62 28.82 245.68Q29.28 245.76 29.57 245.85Q29.85 245.94 30.05 246.16Q30.26 246.38 30.26 246.77Q30.26 247.29 29.81 247.6Q29.37 247.9 28.6 247.9ZM31.12 244.03L31.82 244.03L31.82 247.86L31.12 247.86ZM31.47 243.29Q31.27 243.29 31.14 243.16Q31 243.03 31 242.84Q31 242.65 31.14 242.52Q31.27 242.39 31.47 242.39Q31.67 242.39 31.81 242.51Q31.94 242.64 31.94 242.83Q31.94 243.02 31.81 243.16Q31.67 243.29 31.47 243.29ZM34.78 247.9Q34.21 247.9 33.76 247.65Q33.3 247.4 33.04 246.95Q32.79 246.51 32.79 245.94Q32.79 245.38 33.04 244.93Q33.3 244.49 33.76 244.24Q34.21 243.99 34.78 243.99Q35.35 243.99 35.81 244.24Q36.26 244.49 36.51 244.93Q36.77 245.38 36.77 245.94Q36.77 246.51 36.51 246.95Q36.26 247.4 35.81 247.65Q35.35 247.9 34.78 247.9ZM34.78 247.3Q35.15 247.3 35.44 247.13Q35.74 246.96 35.9 246.65Q36.07 246.34 36.07 245.94Q36.07 245.55 35.9 245.24Q35.74 244.93 35.44 244.76Q35.15 244.6 34.78 244.6Q34.41 244.6 34.12 244.76Q33.83 244.93 33.66 245.24Q33.49 245.55 33.49 245.94Q33.49 246.34 33.66 246.65Q33.83 246.96 34.12 247.13Q34.41 247.3 34.78 247.3ZM39.78 243.99Q40.51 243.99 40.94 244.41Q41.37 244.84 41.37 245.65L41.37 247.86L40.67 247.86L40.67 245.73Q40.67 245.18 40.41 244.89Q40.14 244.61 39.64 244.61Q39.08 244.61 38.75 244.94Q38.43 245.27 38.43 245.89L38.43 247.86L37.73 247.86L37.73 244.03L38.4 244.03L38.4 244.61Q38.61 244.31 38.97 244.15Q39.32 243.99 39.78 243.99ZM45.76 242.75Q46.73 242.75 47.5 243.15Q48.27 243.55 48.7 244.27Q49.13 245 49.13 245.92Q49.13 246.85 48.79 247.37Q48.45 247.9 47.84 247.9Q47.49 247.9 47.26 247.73Q47.04 247.55 46.97 247.22Q46.76 247.55 46.4 247.73Q46.05 247.9 45.6 247.9Q45.09 247.9 44.69 247.66Q44.28 247.43 44.05 247Q43.83 246.58 43.83 246.04Q43.83 245.52 44.05 245.09Q44.28 244.67 44.69 244.44Q45.09 244.2 45.6 244.2Q46.02 244.2 46.36 244.36Q46.7 244.51 46.92 244.82L46.92 244.23L47.55 244.23L47.55 246.83Q47.55 247.1 47.67 247.23Q47.78 247.35 47.96 247.35Q48.28 247.35 48.46 246.98Q48.63 246.61 48.63 245.93Q48.63 245.13 48.27 244.52Q47.91 243.9 47.26 243.56Q46.6 243.22 45.76 243.22Q44.9 243.22 44.25 243.58Q43.6 243.93 43.23 244.57Q42.87 245.21 42.87 246.02Q42.87 246.85 43.23 247.48Q43.59 248.12 44.24 248.48Q44.88 248.84 45.73 248.84Q46.08 248.84 46.45 248.76Q46.82 248.68 47.12 248.52L47.28 248.98Q46.96 249.15 46.55 249.23Q46.13 249.32 45.73 249.32Q44.74 249.32 43.97 248.9Q43.2 248.47 42.77 247.72Q42.34 246.97 42.34 246.02Q42.34 245.08 42.78 244.33Q43.21 243.59 43.98 243.17Q44.76 242.75 45.76 242.75ZM45.7 247.34Q46.05 247.34 46.33 247.18Q46.61 247.02 46.77 246.73Q46.94 246.43 46.94 246.04Q46.94 245.65 46.77 245.36Q46.61 245.07 46.33 244.91Q46.05 244.76 45.7 244.76Q45.15 244.76 44.81 245.11Q44.47 245.46 44.47 246.04Q44.47 246.63 44.81 246.98Q45.16 247.34 45.7 247.34ZM51.8 247.9Q51.22 247.9 50.76 247.65Q50.3 247.4 50.04 246.95Q49.78 246.51 49.78 245.94Q49.78 245.38 50.04 244.93Q50.3 244.49 50.76 244.24Q51.22 243.99 51.8 243.99Q52.32 243.99 52.73 244.2Q53.14 244.41 53.36 244.81L52.84 245.15Q52.65 244.87 52.39 244.74Q52.12 244.6 51.79 244.6Q51.42 244.6 51.12 244.76Q50.82 244.93 50.65 245.24Q50.48 245.55 50.48 245.94Q50.48 246.35 50.65 246.66Q50.82 246.96 51.12 247.13Q51.42 247.3 51.79 247.3Q52.12 247.3 52.39 247.16Q52.65 247.02 52.84 246.75L53.36 247.08Q53.14 247.48 52.73 247.69Q52.32 247.9 51.8 247.9ZM55.84 247.9Q55.27 247.9 54.82 247.65Q54.36 247.4 54.1 246.95Q53.85 246.51 53.85 245.94Q53.85 245.38 54.1 244.93Q54.36 244.49 54.82 244.24Q55.27 243.99 55.84 243.99Q56.41 243.99 56.87 244.24Q57.32 244.49 57.57 244.93Q57.83 245.38 57.83 245.94Q57.83 246.51 57.57 246.95Q57.32 247.4 56.87 247.65Q56.41 247.9 55.84 247.9ZM55.84 247.3Q56.21 247.3 56.5 247.13Q56.8 246.96 56.96 246.65Q57.13 246.34 57.13 245.94Q57.13 245.55 56.96 245.24Q56.8 244.93 56.5 244.76Q56.21 244.6 55.84 244.6Q55.47 244.6 55.18 244.76Q54.89 244.93 54.72 245.24Q54.55 245.55 54.55 245.94Q54.55 246.34 54.72 246.65Q54.89 246.96 55.18 247.13Q55.47 247.3 55.84 247.3ZM63.59 243.99Q64.31 243.99 64.73 244.41Q65.15 244.83 65.15 245.65L65.15 247.86L64.46 247.86L64.46 245.73Q64.46 245.18 64.2 244.89Q63.95 244.61 63.47 244.61Q62.94 244.61 62.63 244.94Q62.32 245.27 62.32 245.89L62.32 247.86L61.63 247.86L61.63 245.73Q61.63 245.18 61.37 244.89Q61.11 244.61 60.64 244.61Q60.11 244.61 59.8 244.94Q59.49 245.27 59.49 245.89L59.49 247.86L58.79 247.86L58.79 244.03L59.46 244.03L59.46 244.6Q59.67 244.3 60.01 244.15Q60.35 243.99 60.78 243.99Q61.23 243.99 61.58 244.17Q61.92 244.35 62.11 244.7Q62.33 244.37 62.71 244.18Q63.1 243.99 63.59 243.99ZM68.47 243.99Q69.02 243.99 69.46 244.24Q69.9 244.48 70.15 244.92Q70.4 245.36 70.4 245.94Q70.4 246.52 70.15 246.97Q69.9 247.41 69.46 247.66Q69.02 247.9 68.47 247.9Q68.05 247.9 67.71 247.74Q67.37 247.58 67.13 247.28L67.13 249.26L66.43 249.26L66.43 244.03L67.1 244.03L67.1 244.63Q67.33 244.32 67.69 244.15Q68.04 243.99 68.47 243.99ZM68.41 247.3Q68.78 247.3 69.07 247.13Q69.36 246.96 69.53 246.65Q69.7 246.34 69.7 245.94Q69.7 245.55 69.53 245.24Q69.36 244.93 69.07 244.76Q68.78 244.6 68.41 244.6Q68.05 244.6 67.75 244.77Q67.46 244.94 67.29 245.24Q67.12 245.55 67.12 245.94Q67.12 246.34 67.29 246.65Q67.45 246.96 67.75 247.13Q68.05 247.3 68.41 247.3ZM73.01 247.9Q72.44 247.9 71.98 247.65Q71.52 247.4 71.27 246.95Q71.01 246.51 71.01 245.94Q71.01 245.38 71.27 244.93Q71.52 244.49 71.98 244.24Q72.44 243.99 73.01 243.99Q73.58 243.99 74.03 244.24Q74.48 244.49 74.74 244.93Q74.99 245.38 74.99 245.94Q74.99 246.51 74.74 246.95Q74.48 247.4 74.03 247.65Q73.58 247.9 73.01 247.9ZM73.01 247.3Q73.38 247.3 73.67 247.13Q73.96 246.96 74.13 246.65Q74.29 246.34 74.29 245.94Q74.29 245.55 74.13 245.24Q73.96 244.93 73.67 244.76Q73.38 244.6 73.01 244.6Q72.64 244.6 72.34 244.76Q72.05 244.93 71.88 245.24Q71.71 245.55 71.71 245.94Q71.71 246.34 71.88 246.65Q72.05 246.96 72.34 247.13Q72.64 247.3 73.01 247.3ZM78 243.99Q78.73 243.99 79.16 244.41Q79.59 244.84 79.59 245.65L79.59 247.86L78.9 247.86L78.9 245.73Q78.9 245.18 78.63 244.89Q78.36 244.61 77.86 244.61Q77.3 244.61 76.98 244.94Q76.65 245.27 76.65 245.89L76.65 247.86L75.96 247.86L75.96 244.03L76.62 244.03L76.62 244.61Q76.83 244.31 77.19 244.15Q77.55 243.99 78 243.99ZM84.36 245.96Q84.36 246.04 84.35 246.17L81.24 246.17Q81.31 246.68 81.69 246.99Q82.07 247.3 82.63 247.3Q83.32 247.3 83.74 246.83L84.12 247.28Q83.86 247.58 83.47 247.74Q83.08 247.9 82.61 247.9Q82 247.9 81.53 247.65Q81.06 247.4 80.8 246.96Q80.55 246.51 80.55 245.94Q80.55 245.39 80.8 244.94Q81.05 244.49 81.48 244.24Q81.92 243.99 82.47 243.99Q83.02 243.99 83.45 244.24Q83.88 244.49 84.12 244.94Q84.36 245.39 84.36 245.96ZM82.47 244.58Q81.97 244.58 81.64 244.88Q81.3 245.18 81.24 245.68L83.7 245.68Q83.64 245.19 83.31 244.88Q82.97 244.58 82.47 244.58ZM87.37 243.99Q88.1 243.99 88.53 244.41Q88.96 244.84 88.96 245.65L88.96 247.86L88.27 247.86L88.27 245.73Q88.27 245.18 88 244.89Q87.73 244.61 87.23 244.61Q86.67 244.61 86.35 244.94Q86.02 245.27 86.02 245.89L86.02 247.86L85.33 247.86L85.33 244.03L85.99 244.03L85.99 244.61Q86.2 244.31 86.56 244.15Q86.92 243.99 87.37 243.99ZM92.4 247.63Q92.25 247.77 92.03 247.83Q91.8 247.9 91.57 247.9Q90.99 247.9 90.67 247.59Q90.35 247.28 90.35 246.7L90.35 244.6L89.7 244.6L89.7 244.03L90.35 244.03L90.35 243.19L91.04 243.19L91.04 244.03L92.14 244.03L92.14 244.6L91.04 244.6L91.04 246.67Q91.04 246.98 91.2 247.15Q91.36 247.32 91.64 247.32Q91.96 247.32 92.19 247.14ZM93.41 244.98Q93.21 244.98 93.06 244.84Q92.92 244.7 92.92 244.48Q92.92 244.27 93.06 244.13Q93.21 243.99 93.41 243.99Q93.61 243.99 93.75 244.13Q93.89 244.27 93.89 244.48Q93.89 244.7 93.75 244.84Q93.6 244.98 93.41 244.98ZM93.41 247.9Q93.21 247.9 93.06 247.76Q92.92 247.62 92.92 247.4Q92.92 247.19 93.06 247.05Q93.21 246.91 93.41 246.91Q93.61 246.91 93.75 247.05Q93.89 247.19 93.89 247.4Q93.89 247.62 93.75 247.76Q93.6 247.9 93.41 247.9ZM99.68 243.99Q100.4 243.99 100.82 244.41Q101.25 244.83 101.25 245.65L101.25 247.86L100.55 247.86L100.55 245.73Q100.55 245.18 100.3 244.89Q100.04 244.61 99.56 244.61Q99.03 244.61 98.72 244.94Q98.41 245.27 98.41 245.89L98.41 247.86L97.72 247.86L97.72 245.73Q97.72 245.18 97.46 244.89Q97.2 244.61 96.73 244.61Q96.2 244.61 95.89 244.94Q95.58 245.27 95.58 245.89L95.58 247.86L94.88 247.86L94.88 244.03L95.55 244.03L95.55 244.6Q95.76 244.3 96.1 244.15Q96.44 243.99 96.87 243.99Q97.32 243.99 97.67 244.17Q98.01 244.35 98.2 244.7Q98.42 244.37 98.81 244.18Q99.19 243.99 99.68 243.99ZM104.19 247.9Q103.62 247.9 103.16 247.65Q102.71 247.4 102.45 246.95Q102.19 246.51 102.19 245.94Q102.19 245.38 102.45 244.93Q102.71 244.49 103.16 244.24Q103.62 243.99 104.19 243.99Q104.76 243.99 105.21 244.24Q105.66 244.49 105.92 244.93Q106.18 245.38 106.18 245.94Q106.18 246.51 105.92 246.95Q105.66 247.4 105.21 247.65Q104.76 247.9 104.19 247.9ZM104.19 247.3Q104.56 247.3 104.85 247.13Q105.14 246.96 105.31 246.65Q105.48 246.34 105.48 245.94Q105.48 245.55 105.31 245.24Q105.14 244.93 104.85 244.76Q104.56 244.6 104.19 244.6Q103.82 244.6 103.53 244.76Q103.23 244.93 103.06 245.24Q102.89 245.55 102.89 245.94Q102.89 246.34 103.06 246.65Q103.23 246.96 103.53 247.13Q103.82 247.3 104.19 247.3ZM110.75 242.49L110.75 247.86L110.09 247.86L110.09 247.25Q109.86 247.57 109.5 247.74Q109.15 247.9 108.72 247.9Q108.17 247.9 107.72 247.66Q107.28 247.41 107.03 246.97Q106.78 246.52 106.78 245.94Q106.78 245.36 107.03 244.92Q107.28 244.48 107.72 244.24Q108.17 243.99 108.72 243.99Q109.13 243.99 109.48 244.15Q109.83 244.3 110.06 244.61L110.06 242.49ZM108.78 247.3Q109.14 247.3 109.44 247.13Q109.73 246.96 109.9 246.65Q110.07 246.34 110.07 245.94Q110.07 245.55 109.9 245.24Q109.73 244.93 109.44 244.76Q109.14 244.6 108.78 244.6Q108.41 244.6 108.12 244.76Q107.83 244.93 107.66 245.24Q107.49 245.55 107.49 245.94Q107.49 246.34 107.66 246.65Q107.83 246.96 108.12 247.13Q108.41 247.3 108.78 247.3ZM115.64 244.03L115.64 247.86L114.98 247.86L114.98 247.28Q114.77 247.58 114.43 247.74Q114.09 247.9 113.68 247.9Q112.92 247.9 112.47 247.48Q112.03 247.06 112.03 246.23L112.03 244.03L112.73 244.03L112.73 246.15Q112.73 246.71 112.99 247Q113.26 247.28 113.76 247.28Q114.31 247.28 114.63 246.95Q114.95 246.62 114.95 246.01L114.95 244.03ZM116.96 242.49L117.66 242.49L117.66 247.86L116.96 247.86ZM122.44 245.96Q122.44 246.04 122.43 246.17L119.32 246.17Q119.39 246.68 119.77 246.99Q120.14 247.3 120.71 247.3Q121.4 247.3 121.81 246.83L122.2 247.28Q121.94 247.58 121.55 247.74Q121.16 247.9 120.69 247.9Q120.08 247.9 119.61 247.65Q119.14 247.4 118.88 246.96Q118.63 246.51 118.63 245.94Q118.63 245.39 118.88 244.94Q119.13 244.49 119.56 244.24Q120 243.99 120.55 243.99Q121.1 243.99 121.53 244.24Q121.96 244.49 122.2 244.94Q122.44 245.39 122.44 245.96ZM120.55 244.58Q120.05 244.58 119.71 244.88Q119.38 245.18 119.32 245.68L121.78 245.68Q121.72 245.19 121.38 244.88Q121.05 244.58 120.55 244.58ZM123.57 244.98Q123.37 244.98 123.22 244.84Q123.08 244.7 123.08 244.48Q123.08 244.27 123.22 244.13Q123.37 243.99 123.57 243.99Q123.77 243.99 123.91 244.13Q124.05 244.27 124.05 244.48Q124.05 244.7 123.91 244.84Q123.77 244.98 123.57 244.98ZM123.57 247.9Q123.37 247.9 123.22 247.76Q123.08 247.62 123.08 247.4Q123.08 247.19 123.22 247.05Q123.37 246.91 123.57 246.91Q123.77 246.91 123.91 247.05Q124.05 247.19 124.05 247.4Q124.05 247.62 123.91 247.76Q123.77 247.9 123.57 247.9ZM126.51 243.02Q125.89 243.02 125.89 243.69L125.89 244.03L127 244.03L127 244.6L125.9 244.6L125.9 247.86L125.21 247.86L125.21 244.6L124.55 244.6L124.55 244.03L125.21 244.03L125.21 243.69Q125.21 243.12 125.54 242.78Q125.87 242.45 126.47 242.45Q126.7 242.45 126.9 242.51Q127.11 242.57 127.25 242.68L127.04 243.2Q126.8 243.02 126.51 243.02ZM128.23 244.03L128.93 244.03L128.93 247.86L128.23 247.86ZM128.58 243.29Q128.38 243.29 128.25 243.16Q128.11 243.03 128.11 242.84Q128.11 242.65 128.25 242.52Q128.38 242.39 128.58 242.39Q128.78 242.39 128.92 242.51Q129.05 242.64 129.05 242.83Q129.05 243.02 128.92 243.16Q128.78 243.29 128.58 243.29ZM130.25 242.49L130.95 242.49L130.95 247.86L130.25 247.86ZM135.73 245.96Q135.73 246.04 135.72 246.17L132.61 246.17Q132.67 246.68 133.05 246.99Q133.43 247.3 134 247.3Q134.68 247.3 135.1 246.83L135.49 247.28Q135.23 247.58 134.84 247.74Q134.45 247.9 133.98 247.9Q133.37 247.9 132.9 247.65Q132.43 247.4 132.17 246.96Q131.91 246.51 131.91 245.94Q131.91 245.39 132.16 244.94Q132.41 244.49 132.85 244.24Q133.29 243.99 133.84 243.99Q134.39 243.99 134.82 244.24Q135.25 244.49 135.49 244.94Q135.73 245.39 135.73 245.96ZM133.84 244.58Q133.34 244.58 133 244.88Q132.67 245.18 132.61 245.68L135.07 245.68Q135.01 245.19 134.67 244.88Q134.34 244.58 133.84 244.58ZM136.86 247.9Q136.66 247.9 136.51 247.76Q136.37 247.62 136.37 247.4Q136.37 247.19 136.51 247.05Q136.66 246.91 136.86 246.91Q137.06 246.91 137.2 247.05Q137.34 247.19 137.34 247.4Q137.34 247.62 137.2 247.76Q137.06 247.9 136.86 247.9ZM139.8 243.99Q140.6 243.99 141.02 244.38Q141.44 244.77 141.44 245.55L141.44 247.86L140.79 247.86L140.79 247.35Q140.61 247.62 140.29 247.76Q139.97 247.9 139.53 247.9Q138.88 247.9 138.5 247.59Q138.11 247.28 138.11 246.77Q138.11 246.27 138.48 245.96Q138.85 245.65 139.65 245.65L140.75 245.65L140.75 245.52Q140.75 245.07 140.49 244.83Q140.23 244.59 139.72 244.59Q139.38 244.59 139.06 244.7Q138.73 244.82 138.51 245L138.22 244.48Q138.52 244.24 138.93 244.12Q139.34 243.99 139.8 243.99ZM139.64 247.37Q140.04 247.37 140.33 247.19Q140.62 247.01 140.75 246.69L140.75 246.15L139.68 246.15Q138.8 246.15 138.8 246.75Q138.8 247.03 139.02 247.2Q139.25 247.37 139.64 247.37ZM146.37 242.49L146.37 247.86L145.7 247.86L145.7 247.25Q145.47 247.57 145.12 247.74Q144.76 247.9 144.34 247.9Q143.78 247.9 143.34 247.66Q142.9 247.41 142.65 246.97Q142.4 246.52 142.4 245.94Q142.4 245.36 142.65 244.92Q142.9 244.48 143.34 244.24Q143.78 243.99 144.34 243.99Q144.75 243.99 145.09 244.15Q145.44 244.3 145.67 244.61L145.67 242.49ZM144.39 247.3Q144.76 247.3 145.05 247.13Q145.35 246.96 145.51 246.65Q145.68 246.34 145.68 245.94Q145.68 245.55 145.51 245.24Q145.35 244.93 145.05 244.76Q144.76 244.6 144.39 244.6Q144.02 244.6 143.73 244.76Q143.44 244.93 143.27 245.24Q143.1 245.55 143.1 245.94Q143.1 246.34 143.27 246.65Q143.44 246.96 143.73 247.13Q144.02 247.3 144.39 247.3ZM149.32 247.9Q148.75 247.9 148.3 247.65Q147.84 247.4 147.59 246.95Q147.33 246.51 147.33 245.94Q147.33 245.38 147.59 244.93Q147.84 244.49 148.3 244.24Q148.75 243.99 149.32 243.99Q149.9 243.99 150.35 244.24Q150.8 244.49 151.06 244.93Q151.31 245.38 151.31 245.94Q151.31 246.51 151.06 246.95Q150.8 247.4 150.35 247.65Q149.9 247.9 149.32 247.9ZM149.32 247.3Q149.69 247.3 149.99 247.13Q150.28 246.96 150.44 246.65Q150.61 246.34 150.61 245.94Q150.61 245.55 150.44 245.24Q150.28 244.93 149.99 244.76Q149.69 244.6 149.32 244.6Q148.96 244.6 148.66 244.76Q148.37 244.93 148.2 245.24Q148.03 245.55 148.03 245.94Q148.03 246.34 148.2 246.65Q148.37 246.96 148.66 247.13Q148.96 247.3 149.32 247.3ZM153.94 247.9Q153.36 247.9 152.9 247.65Q152.44 247.4 152.18 246.95Q151.92 246.51 151.92 245.94Q151.92 245.38 152.18 244.93Q152.44 244.49 152.9 244.24Q153.36 243.99 153.94 243.99Q154.46 243.99 154.87 244.2Q155.28 244.41 155.51 244.81L154.98 245.15Q154.8 244.87 154.53 244.74Q154.26 244.6 153.94 244.6Q153.56 244.6 153.26 244.76Q152.96 244.93 152.79 245.24Q152.62 245.55 152.62 245.94Q152.62 246.35 152.79 246.66Q152.96 246.96 153.26 247.13Q153.56 247.3 153.94 247.3Q154.26 247.3 154.53 247.16Q154.8 247.02 154.98 246.75L155.51 247.08Q155.28 247.48 154.87 247.69Q154.46 247.9 153.94 247.9Z" aria-label="version@component:module:file.adoc"/></g><g fill="#808080"><path d="M159.57 244.63L159.4 246.03L160.4 246.03L160.4 246.56L159.33 246.56L159.17 247.86L158.66 247.86L158.82 246.56L157.45 246.56L157.29 247.86L156.78 247.86L156.94 246.56L155.94 246.56L155.94 246.03L157 246.03L157.18 244.63L156.17 244.63L156.17 244.1L157.25 244.1L157.41 242.8L157.92 242.8L157.76 244.1L159.12 244.1L159.28 242.8L159.79 242.8L159.63 244.1L160.63 244.1L160.63 244.63ZM159.06 244.63L157.7 244.63L157.52 246.03L158.88 246.03ZM162.89 243.02Q162.27 243.02 162.27 243.69L162.27 244.03L163.38 244.03L163.38 244.6L162.28 244.6L162.28 247.86L161.59 247.86L161.59 244.6L160.94 244.6L160.94 244.03L161.59 244.03L161.59 243.69Q161.59 243.12 161.92 242.78Q162.25 242.45 162.85 242.45Q163.08 242.45 163.29 242.51Q163.49 242.57 163.63 242.68L163.42 243.2Q163.18 243.02 162.89 243.02ZM165.28 244.67Q165.46 244.34 165.82 244.16Q166.17 243.99 166.68 243.99L166.68 244.66Q166.62 244.66 166.52 244.66Q165.95 244.66 165.63 244.99Q165.31 245.33 165.31 245.95L165.31 247.86L164.62 247.86L164.62 244.03L165.28 244.03L165.28 244.67ZM168.92 243.99Q169.71 243.99 170.14 244.38Q170.56 244.77 170.56 245.55L170.56 247.86L169.9 247.86L169.9 247.35Q169.73 247.62 169.41 247.76Q169.08 247.9 168.64 247.9Q168 247.9 167.61 247.59Q167.23 247.28 167.23 246.77Q167.23 246.27 167.59 245.96Q167.96 245.65 168.77 245.65L169.86 245.65L169.86 245.52Q169.86 245.07 169.6 244.83Q169.34 244.59 168.84 244.59Q168.5 244.59 168.17 244.7Q167.85 244.82 167.62 245L167.33 244.48Q167.63 244.24 168.04 244.12Q168.45 243.99 168.92 243.99ZM168.76 247.37Q169.16 247.37 169.44 247.19Q169.73 247.01 169.86 246.69L169.86 246.15L168.79 246.15Q167.91 246.15 167.91 246.75Q167.91 247.03 168.14 247.2Q168.36 247.37 168.76 247.37ZM175.53 244.03L175.53 247.34Q175.53 248.34 175.03 248.82Q174.53 249.3 173.54 249.3Q173 249.3 172.51 249.16Q172.02 249.01 171.71 248.73L172.05 248.2Q172.32 248.43 172.71 248.56Q173.1 248.7 173.52 248.7Q174.19 248.7 174.52 248.38Q174.84 248.06 174.84 247.41L174.84 247.11Q174.59 247.4 174.23 247.55Q173.88 247.7 173.46 247.7Q172.91 247.7 172.46 247.46Q172.02 247.23 171.77 246.81Q171.51 246.38 171.51 245.84Q171.51 245.3 171.77 244.88Q172.02 244.45 172.46 244.22Q172.91 243.99 173.46 243.99Q173.89 243.99 174.26 244.15Q174.64 244.31 174.87 244.62L174.87 244.03ZM173.54 247.09Q173.91 247.09 174.21 246.93Q174.51 246.77 174.68 246.49Q174.85 246.2 174.85 245.84Q174.85 245.29 174.48 244.94Q174.12 244.6 173.54 244.6Q172.95 244.6 172.58 244.94Q172.21 245.29 172.21 245.84Q172.21 246.2 172.38 246.49Q172.55 246.77 172.85 246.93Q173.15 247.09 173.54 247.09ZM181.65 243.99Q182.37 243.99 182.79 244.41Q183.22 244.83 183.22 245.65L183.22 247.86L182.52 247.86L182.52 245.73Q182.52 245.18 182.27 244.89Q182.01 244.61 181.53 244.61Q181.01 244.61 180.69 244.94Q180.38 245.27 180.38 245.89L180.38 247.86L179.69 247.86L179.69 245.73Q179.69 245.18 179.43 244.89Q179.18 244.61 178.7 244.61Q178.17 244.61 177.86 244.94Q177.55 245.27 177.55 245.89L177.55 247.86L176.86 247.86L176.86 244.03L177.52 244.03L177.52 244.6Q177.73 244.3 178.07 244.15Q178.41 243.99 178.84 243.99Q179.29 243.99 179.64 244.17Q179.99 244.35 180.17 244.7Q180.39 244.37 180.78 244.18Q181.16 243.99 181.65 243.99ZM187.98 245.96Q187.98 246.04 187.97 246.17L184.86 246.17Q184.92 246.68 185.3 246.99Q185.68 247.3 186.25 247.3Q186.93 247.3 187.35 246.83L187.74 247.28Q187.48 247.58 187.09 247.74Q186.7 247.9 186.23 247.9Q185.62 247.9 185.15 247.65Q184.68 247.4 184.42 246.96Q184.16 246.51 184.16 245.94Q184.16 245.39 184.41 244.94Q184.66 244.49 185.1 244.24Q185.54 243.99 186.09 243.99Q186.64 243.99 187.07 244.24Q187.5 244.49 187.74 244.94Q187.98 245.39 187.98 245.96ZM186.09 244.58Q185.59 244.58 185.25 244.88Q184.92 245.18 184.86 245.68L187.32 245.68Q187.26 245.19 186.92 244.88Q186.59 244.58 186.09 244.58ZM190.99 243.99Q191.72 243.99 192.15 244.41Q192.58 244.84 192.58 245.65L192.58 247.86L191.89 247.86L191.89 245.73Q191.89 245.18 191.62 244.89Q191.35 244.61 190.85 244.61Q190.29 244.61 189.96 244.94Q189.64 245.27 189.64 245.89L189.64 247.86L188.94 247.86L188.94 244.03L189.61 244.03L189.61 244.61Q189.82 244.31 190.18 244.15Q190.53 243.99 190.99 243.99ZM196.02 247.63Q195.87 247.77 195.65 247.83Q195.42 247.9 195.18 247.9Q194.6 247.9 194.29 247.59Q193.97 247.28 193.97 246.7L193.97 244.6L193.32 244.6L193.32 244.03L193.97 244.03L193.97 243.19L194.66 243.19L194.66 244.03L195.76 244.03L195.76 244.6L194.66 244.6L194.66 246.67Q194.66 246.98 194.82 247.15Q194.97 247.32 195.26 247.32Q195.58 247.32 195.8 247.14Z" aria-label="#fragment"/></g><g fill="#e40046"><path d="M196.96 242.49L198.47 242.49L198.47 243.07L197.66 243.07L197.66 248.69L198.47 248.69L198.47 249.26L196.96 249.26Z" aria-label="["/></g><path d="M201.42 247.63Q201.27 247.77 201.05 247.83Q200.82 247.9 200.58 247.9Q200.01 247.9 199.69 247.59Q199.37 247.28 199.37 246.7L199.37 244.6L198.72 244.6L198.72 244.03L199.37 244.03L199.37 243.19L200.06 243.19L200.06 244.03L201.16 244.03L201.16 244.6L200.06 244.6L200.06 246.67Q200.06 246.98 200.22 247.15Q200.37 247.32 200.66 247.32Q200.98 247.32 201.21 247.14ZM205.59 245.96Q205.59 246.04 205.58 246.17L202.47 246.17Q202.54 246.68 202.92 246.99Q203.29 247.3 203.86 247.3Q204.55 247.3 204.96 246.83L205.35 247.28Q205.09 247.58 204.7 247.74Q204.31 247.9 203.84 247.9Q203.23 247.9 202.76 247.65Q202.29 247.4 202.03 246.96Q201.78 246.51 201.78 245.94Q201.78 245.39 202.03 244.94Q202.28 244.49 202.71 244.24Q203.15 243.99 203.7 243.99Q204.25 243.99 204.68 244.24Q205.11 244.49 205.35 244.94Q205.59 245.39 205.59 245.96ZM203.7 244.58Q203.2 244.58 202.86 244.88Q202.53 245.18 202.47 245.68L204.93 245.68Q204.87 245.19 204.53 244.88Q204.2 244.58 203.7 244.58ZM208.89 247.86L207.78 246.39L206.66 247.86L205.89 247.86L207.4 245.9L205.96 244.03L206.74 244.03L207.79 245.41L208.84 244.03L209.6 244.03L208.15 245.9L209.68 247.86ZM212.59 247.63Q212.44 247.77 212.22 247.83Q211.99 247.9 211.75 247.9Q211.18 247.9 210.86 247.59Q210.54 247.28 210.54 246.7L210.54 244.6L209.89 244.6L209.89 244.03L210.54 244.03L210.54 243.19L211.23 243.19L211.23 244.03L212.33 244.03L212.33 244.6L211.23 244.6L211.23 246.67Q211.23 246.98 211.39 247.15Q211.54 247.32 211.83 247.32Q212.15 247.32 212.38 247.14Z" aria-label="text"/><g fill="#e40046"><path d="M212.91 249.26L212.91 248.69L213.73 248.69L213.73 243.07L212.91 243.07L212.91 242.49L214.42 242.49L214.42 249.26Z" aria-label="]"/></g></g></g>
   <g fill="#242424" stroke-width=".0727px" word-spacing="0px" style="font-feature-settings:normal;font-variant-caps:normal;font-variant-ligatures:normal;font-variant-numeric:normal;line-height:0%" xml:space="preserve"><g fill="#242424" stroke-width=".0727px" text-align="center" style="font-feature-settings:normal;font-variant-caps:normal;font-variant-ligatures:normal;font-variant-numeric:normal;line-height:125%"><path d="M48.09 266.25Q48.23 265.99 48.51 265.85Q48.8 265.71 49.2 265.71L49.2 266.25Q49.15 266.24 49.07 266.24Q48.62 266.24 48.37 266.51Q48.11 266.78 48.11 267.27L48.11 268.79L47.56 268.79L47.56 265.74L48.09 265.74L48.09 266.25ZM52.61 267.28Q52.61 267.35 52.6 267.45L50.12 267.45Q50.17 267.85 50.48 268.1Q50.78 268.34 51.23 268.34Q51.78 268.34 52.11 267.98L52.42 268.33Q52.21 268.58 51.9 268.7Q51.59 268.83 51.21 268.83Q50.73 268.83 50.35 268.63Q49.98 268.43 49.77 268.07Q49.57 267.72 49.57 267.27Q49.57 266.82 49.77 266.47Q49.97 266.11 50.31 265.91Q50.66 265.71 51.1 265.71Q51.54 265.71 51.88 265.91Q52.23 266.11 52.42 266.47Q52.61 266.82 52.61 267.28ZM51.1 266.18Q50.7 266.18 50.44 266.42Q50.17 266.66 50.12 267.05L52.08 267.05Q52.03 266.67 51.77 266.42Q51.5 266.18 51.1 266.18ZM54.25 268.83Q53.88 268.83 53.53 268.73Q53.19 268.63 52.99 268.47L53.22 268.03Q53.42 268.18 53.71 268.26Q54 268.35 54.29 268.35Q55.02 268.35 55.02 267.94Q55.02 267.8 54.92 267.72Q54.83 267.64 54.68 267.6Q54.53 267.56 54.26 267.51Q53.89 267.46 53.66 267.38Q53.42 267.31 53.26 267.13Q53.09 266.95 53.09 266.63Q53.09 266.21 53.44 265.96Q53.78 265.71 54.36 265.71Q54.67 265.71 54.97 265.79Q55.28 265.86 55.48 265.99L55.24 266.43Q54.87 266.18 54.36 266.18Q54.01 266.18 53.82 266.3Q53.64 266.41 53.64 266.6Q53.64 266.75 53.74 266.84Q53.85 266.93 54 266.97Q54.15 267.01 54.43 267.06Q54.8 267.12 55.02 267.19Q55.25 267.27 55.41 267.44Q55.57 267.61 55.57 267.92Q55.57 268.34 55.22 268.58Q54.87 268.83 54.25 268.83ZM57.57 268.83Q57.12 268.83 56.76 268.63Q56.39 268.43 56.19 268.07Q55.98 267.72 55.98 267.27Q55.98 266.82 56.19 266.46Q56.39 266.11 56.76 265.91Q57.12 265.71 57.57 265.71Q58.03 265.71 58.39 265.91Q58.75 266.11 58.96 266.46Q59.16 266.82 59.16 267.27Q59.16 267.72 58.96 268.07Q58.75 268.43 58.39 268.63Q58.03 268.83 57.57 268.83ZM57.57 268.34Q57.87 268.34 58.1 268.21Q58.34 268.07 58.47 267.83Q58.6 267.58 58.6 267.27Q58.6 266.95 58.47 266.7Q58.34 266.46 58.1 266.33Q57.87 266.19 57.57 266.19Q57.28 266.19 57.05 266.33Q56.81 266.46 56.68 266.7Q56.54 266.95 56.54 267.27Q56.54 267.58 56.68 267.83Q56.81 268.07 57.05 268.21Q57.28 268.34 57.57 268.34ZM62.77 265.74L62.77 268.79L62.25 268.79L62.25 268.33Q62.08 268.57 61.81 268.7Q61.54 268.83 61.21 268.83Q60.6 268.83 60.25 268.49Q59.9 268.15 59.9 267.5L59.9 265.74L60.45 265.74L60.45 267.43Q60.45 267.88 60.66 268.11Q60.88 268.33 61.28 268.33Q61.71 268.33 61.97 268.07Q62.22 267.8 62.22 267.32L62.22 265.74ZM64.36 266.25Q64.5 265.99 64.79 265.85Q65.07 265.71 65.47 265.71L65.47 266.25Q65.43 266.24 65.35 266.24Q64.9 266.24 64.64 266.51Q64.38 266.78 64.38 267.27L64.38 268.79L63.83 268.79L63.83 265.74L64.36 265.74L64.36 266.25ZM67.46 268.83Q66.99 268.83 66.62 268.63Q66.26 268.43 66.05 268.07Q65.84 267.72 65.84 267.27Q65.84 266.82 66.05 266.46Q66.26 266.11 66.62 265.91Q66.99 265.71 67.46 265.71Q67.87 265.71 68.2 265.88Q68.52 266.04 68.7 266.36L68.28 266.63Q68.14 266.41 67.92 266.3Q67.71 266.19 67.45 266.19Q67.15 266.19 66.91 266.33Q66.67 266.46 66.54 266.7Q66.4 266.95 66.4 267.27Q66.4 267.59 66.54 267.83Q66.67 268.08 66.91 268.21Q67.15 268.34 67.45 268.34Q67.71 268.34 67.92 268.24Q68.14 268.13 68.28 267.91L68.7 268.17Q68.52 268.49 68.2 268.66Q67.87 268.83 67.46 268.83ZM72.13 267.28Q72.13 267.35 72.12 267.45L69.64 267.45Q69.69 267.85 69.99 268.1Q70.3 268.34 70.75 268.34Q71.29 268.34 71.63 267.98L71.93 268.33Q71.73 268.58 71.42 268.7Q71.11 268.83 70.73 268.83Q70.25 268.83 69.87 268.63Q69.5 268.43 69.29 268.07Q69.09 267.72 69.09 267.27Q69.09 266.82 69.29 266.47Q69.48 266.11 69.83 265.91Q70.18 265.71 70.62 265.71Q71.06 265.71 71.4 265.91Q71.74 266.11 71.94 266.47Q72.13 266.82 72.13 267.28ZM70.62 266.18Q70.22 266.18 69.95 266.42Q69.69 266.66 69.64 267.05L71.6 267.05Q71.55 266.67 71.29 266.42Q71.02 266.18 70.62 266.18ZM74.53 264.76L75.11 264.76L75.11 268.79L74.53 268.79ZM76.32 264.76L78.02 264.76Q78.66 264.76 79.15 265.01Q79.65 265.27 79.92 265.72Q80.2 266.18 80.2 266.78Q80.2 267.37 79.92 267.83Q79.65 268.29 79.15 268.54Q78.66 268.79 78.02 268.79L76.32 268.79ZM77.98 268.29Q78.47 268.29 78.84 268.1Q79.22 267.91 79.42 267.57Q79.62 267.23 79.62 266.78Q79.62 266.33 79.42 265.98Q79.22 265.64 78.84 265.45Q78.47 265.26 77.98 265.26L76.89 265.26L76.89 268.29ZM83.86 268.83Q83.4 268.83 83.04 268.63Q82.67 268.43 82.47 268.07Q82.27 267.72 82.27 267.27Q82.27 266.82 82.47 266.46Q82.67 266.11 83.04 265.91Q83.4 265.71 83.86 265.71Q84.31 265.71 84.67 265.91Q85.03 266.11 85.24 266.46Q85.44 266.82 85.44 267.27Q85.44 267.72 85.24 268.07Q85.03 268.43 84.67 268.63Q84.31 268.83 83.86 268.83ZM83.86 268.34Q84.15 268.34 84.38 268.21Q84.62 268.07 84.75 267.83Q84.88 267.58 84.88 267.27Q84.88 266.95 84.75 266.7Q84.62 266.46 84.38 266.33Q84.15 266.19 83.86 266.19Q83.56 266.19 83.33 266.33Q83.1 266.46 82.96 266.7Q82.82 266.95 82.82 267.27Q82.82 267.58 82.96 267.83Q83.1 268.07 83.33 268.21Q83.56 268.34 83.86 268.34ZM87.33 264.94Q86.83 264.94 86.83 265.47L86.83 265.74L87.72 265.74L87.72 266.19L86.84 266.19L86.84 268.79L86.29 268.79L86.29 266.19L85.77 266.19L85.77 265.74L86.29 265.74L86.29 265.47Q86.29 265.01 86.55 264.75Q86.82 264.48 87.3 264.48Q87.48 264.48 87.64 264.53Q87.8 264.57 87.92 264.66L87.75 265.08Q87.56 264.94 87.33 264.94ZM91.51 268.62Q91.39 268.72 91.21 268.77Q91.03 268.83 90.84 268.83Q90.38 268.83 90.13 268.58Q89.87 268.33 89.87 267.87L89.87 266.19L89.36 266.19L89.36 265.74L89.87 265.74L89.87 265.07L90.43 265.07L90.43 265.74L91.3 265.74L91.3 266.19L90.43 266.19L90.43 267.85Q90.43 268.1 90.55 268.23Q90.68 268.36 90.91 268.36Q91.16 268.36 91.34 268.22ZM93.29 265.71Q93.93 265.71 94.26 266.02Q94.6 266.33 94.6 266.95L94.6 268.79L94.08 268.79L94.08 268.39Q93.94 268.6 93.68 268.72Q93.43 268.83 93.07 268.83Q92.56 268.83 92.25 268.58Q91.94 268.33 91.94 267.93Q91.94 267.53 92.24 267.28Q92.53 267.04 93.17 267.04L94.05 267.04L94.05 266.93Q94.05 266.57 93.84 266.38Q93.63 266.19 93.23 266.19Q92.96 266.19 92.7 266.28Q92.44 266.37 92.26 266.52L92.03 266.1Q92.27 265.91 92.6 265.81Q92.92 265.71 93.29 265.71ZM93.17 268.4Q93.48 268.4 93.71 268.26Q93.94 268.12 94.05 267.86L94.05 267.43L93.19 267.43Q92.49 267.43 92.49 267.91Q92.49 268.14 92.67 268.27Q92.85 268.4 93.17 268.4ZM96.16 266.25Q96.3 265.99 96.58 265.85Q96.87 265.71 97.27 265.71L97.27 266.25Q97.22 266.24 97.14 266.24Q96.69 266.24 96.44 266.51Q96.18 266.78 96.18 267.27L96.18 268.79L95.63 268.79L95.63 265.74L96.16 265.74L96.16 266.25ZM100.84 265.74L100.84 268.38Q100.84 269.18 100.45 269.56Q100.05 269.95 99.26 269.95Q98.83 269.95 98.44 269.83Q98.04 269.71 97.8 269.49L98.07 269.07Q98.28 269.25 98.59 269.36Q98.91 269.46 99.24 269.46Q99.78 269.46 100.03 269.21Q100.29 268.96 100.29 268.44L100.29 268.19Q100.1 268.43 99.81 268.55Q99.52 268.67 99.19 268.67Q98.75 268.67 98.4 268.48Q98.04 268.29 97.84 267.96Q97.64 267.62 97.64 267.19Q97.64 266.75 97.84 266.42Q98.04 266.08 98.4 265.89Q98.75 265.71 99.19 265.71Q99.54 265.71 99.83 265.84Q100.13 265.96 100.32 266.21L100.32 265.74ZM99.25 268.18Q99.55 268.18 99.79 268.06Q100.03 267.93 100.17 267.7Q100.3 267.47 100.3 267.19Q100.3 266.74 100.01 266.47Q99.71 266.19 99.25 266.19Q98.79 266.19 98.49 266.47Q98.2 266.74 98.2 267.19Q98.2 267.47 98.33 267.7Q98.47 267.93 98.71 268.06Q98.95 268.18 99.25 268.18ZM104.66 267.28Q104.66 267.35 104.65 267.45L102.17 267.45Q102.22 267.85 102.53 268.1Q102.83 268.34 103.28 268.34Q103.83 268.34 104.16 267.98L104.46 268.33Q104.26 268.58 103.95 268.7Q103.64 268.83 103.26 268.83Q102.78 268.83 102.4 268.63Q102.03 268.43 101.82 268.07Q101.62 267.72 101.62 267.27Q101.62 266.82 101.82 266.47Q102.01 266.11 102.36 265.91Q102.71 265.71 103.15 265.71Q103.59 265.71 103.93 265.91Q104.27 266.11 104.47 266.47Q104.66 266.82 104.66 267.28ZM103.15 266.18Q102.75 266.18 102.48 266.42Q102.22 266.66 102.17 267.05L104.13 267.05Q104.08 266.67 103.82 266.42Q103.55 266.18 103.15 266.18ZM107.15 268.62Q107.02 268.72 106.85 268.77Q106.67 268.83 106.48 268.83Q106.02 268.83 105.76 268.58Q105.51 268.33 105.51 267.87L105.51 266.19L104.99 266.19L104.99 265.74L105.51 265.74L105.51 265.07L106.06 265.07L106.06 265.74L106.94 265.74L106.94 266.19L106.06 266.19L106.06 267.85Q106.06 268.1 106.19 268.23Q106.31 268.36 106.54 268.36Q106.79 268.36 106.97 268.22ZM110.98 265.71Q111.43 265.71 111.78 265.91Q112.13 266.1 112.33 266.45Q112.53 266.81 112.53 267.27Q112.53 267.73 112.33 268.08Q112.13 268.44 111.78 268.63Q111.43 268.83 110.98 268.83Q110.66 268.83 110.38 268.7Q110.11 268.58 109.92 268.33L109.92 269.91L109.36 269.91L109.36 265.74L109.9 265.74L109.9 266.22Q110.08 265.97 110.36 265.84Q110.64 265.71 110.98 265.71ZM110.94 268.34Q111.23 268.34 111.47 268.21Q111.7 268.07 111.84 267.83Q111.97 267.58 111.97 267.27Q111.97 266.95 111.84 266.7Q111.7 266.46 111.47 266.33Q111.23 266.19 110.94 266.19Q110.65 266.19 110.42 266.33Q110.18 266.47 110.05 266.71Q109.91 266.95 109.91 267.27Q109.91 267.58 110.05 267.83Q110.18 268.07 110.41 268.21Q110.65 268.34 110.94 268.34ZM114.38 265.71Q115.01 265.71 115.35 266.02Q115.69 266.33 115.69 266.95L115.69 268.79L115.16 268.79L115.16 268.39Q115.03 268.6 114.77 268.72Q114.51 268.83 114.16 268.83Q113.65 268.83 113.34 268.58Q113.03 268.33 113.03 267.93Q113.03 267.53 113.33 267.28Q113.62 267.04 114.26 267.04L115.14 267.04L115.14 266.93Q115.14 266.57 114.93 266.38Q114.72 266.19 114.32 266.19Q114.05 266.19 113.79 266.28Q113.53 266.37 113.35 266.52L113.12 266.1Q113.35 265.91 113.68 265.81Q114.01 265.71 114.38 265.71ZM114.25 268.4Q114.57 268.4 114.8 268.26Q115.03 268.12 115.14 267.86L115.14 267.43L114.28 267.43Q113.58 267.43 113.58 267.91Q113.58 268.14 113.76 268.27Q113.94 268.4 114.25 268.4ZM119.65 265.74L119.65 268.38Q119.65 269.18 119.26 269.56Q118.86 269.95 118.07 269.95Q117.64 269.95 117.25 269.83Q116.85 269.71 116.61 269.49L116.88 269.07Q117.09 269.25 117.4 269.36Q117.72 269.46 118.05 269.46Q118.59 269.46 118.84 269.21Q119.1 268.96 119.1 268.44L119.1 268.19Q118.91 268.43 118.62 268.55Q118.33 268.67 118 268.67Q117.56 268.67 117.21 268.48Q116.85 268.29 116.65 267.96Q116.45 267.62 116.45 267.19Q116.45 266.75 116.65 266.42Q116.85 266.08 117.21 265.89Q117.56 265.71 118 265.71Q118.35 265.71 118.64 265.84Q118.94 265.96 119.13 266.21L119.13 265.74ZM118.06 268.18Q118.36 268.18 118.6 268.06Q118.84 267.93 118.98 267.7Q119.11 267.47 119.11 267.19Q119.11 266.74 118.82 266.47Q118.53 266.19 118.06 266.19Q117.6 266.19 117.3 266.47Q117.01 266.74 117.01 267.19Q117.01 267.47 117.14 267.7Q117.28 267.93 117.52 268.06Q117.76 268.18 118.06 268.18ZM123.47 267.28Q123.47 267.35 123.46 267.45L120.98 267.45Q121.03 267.85 121.34 268.1Q121.64 268.34 122.09 268.34Q122.64 268.34 122.97 267.98L123.28 268.33Q123.07 268.58 122.76 268.7Q122.45 268.83 122.07 268.83Q121.59 268.83 121.21 268.63Q120.84 268.43 120.63 268.07Q120.43 267.72 120.43 267.27Q120.43 266.82 120.63 266.47Q120.83 266.11 121.17 265.91Q121.52 265.71 121.96 265.71Q122.4 265.71 122.74 265.91Q123.08 266.11 123.28 266.47Q123.47 266.82 123.47 267.28ZM121.96 266.18Q121.56 266.18 121.29 266.42Q121.03 266.66 120.98 267.05L122.94 267.05Q122.89 266.67 122.63 266.42Q122.36 266.18 121.96 266.18Z" aria-label="resource ID of target page"/></g></g>
   <path d="m16.002 251.26v5.7034l139.02 2e-5v-5.7034" fill="none" stroke="#242424" stroke-linecap="round" stroke-linejoin="round" stroke-width=".529"/>
   <g transform="translate(-9.1629 -16.882)" fill="none" stroke="#242424" stroke-linecap="round" stroke-linejoin="round" stroke-width=".529">
    <path d="m94.676 274.08v3.2096"/>
    <circle cx="94.676" cy="278.06" r=".75117" stroke-dashoffset="72"/>
   </g>
   <g fill="#1565c0" stroke-width=".0727px" word-spacing="0px" style="font-feature-settings:normal;font-variant-caps:normal;font-variant-ligatures:normal;font-variant-numeric:normal;line-height:0%" xml:space="preserve"><g text-align="center" style="font-feature-settings:normal;font-variant-caps:normal;font-variant-ligatures:normal;font-variant-numeric:normal;line-height:125%"><path d="M195.56 268.87Q195.1 268.87 194.74 268.67Q194.38 268.47 194.17 268.12Q193.97 267.76 193.97 267.31Q193.97 266.86 194.17 266.51Q194.38 266.15 194.74 265.95Q195.1 265.76 195.56 265.76Q196.02 265.76 196.38 265.95Q196.74 266.15 196.94 266.51Q197.15 266.86 197.15 267.31Q197.15 267.76 196.94 268.12Q196.74 268.47 196.38 268.67Q196.02 268.87 195.56 268.87ZM195.56 268.39Q195.85 268.39 196.09 268.25Q196.32 268.12 196.45 267.87Q196.59 267.63 196.59 267.31Q196.59 267 196.45 266.75Q196.32 266.51 196.09 266.37Q195.85 266.24 195.56 266.24Q195.27 266.24 195.03 266.37Q194.8 266.51 194.66 266.75Q194.53 267 194.53 267.31Q194.53 267.63 194.66 267.87Q194.8 268.12 195.03 268.25Q195.27 268.39 195.56 268.39ZM199.53 265.76Q199.98 265.76 200.33 265.95Q200.68 266.15 200.88 266.5Q201.08 266.85 201.08 267.31Q201.08 267.77 200.88 268.13Q200.68 268.48 200.33 268.68Q199.98 268.87 199.53 268.87Q199.2 268.87 198.93 268.75Q198.66 268.62 198.47 268.38L198.47 269.96L197.91 269.96L197.91 265.78L198.44 265.78L198.44 266.27Q198.63 266.02 198.91 265.89Q199.19 265.76 199.53 265.76ZM199.49 268.39Q199.78 268.39 200.01 268.25Q200.25 268.12 200.38 267.87Q200.52 267.63 200.52 267.31Q200.52 267 200.38 266.75Q200.25 266.51 200.01 266.37Q199.78 266.24 199.49 266.24Q199.2 266.24 198.96 266.38Q198.73 266.51 198.6 266.75Q198.46 267 198.46 267.31Q198.46 267.63 198.59 267.87Q198.72 268.12 198.96 268.25Q199.2 268.39 199.49 268.39ZM203.56 268.66Q203.44 268.76 203.26 268.82Q203.08 268.87 202.89 268.87Q202.43 268.87 202.18 268.63Q201.92 268.38 201.92 267.92L201.92 266.24L201.41 266.24L201.41 265.78L201.92 265.78L201.92 265.12L202.48 265.12L202.48 265.78L203.35 265.78L203.35 266.24L202.48 266.24L202.48 267.89Q202.48 268.14 202.6 268.27Q202.73 268.41 202.96 268.41Q203.21 268.41 203.39 268.26ZM204.23 265.78L204.78 265.78L204.78 268.84L204.23 268.84ZM204.51 265.2Q204.35 265.2 204.24 265.09Q204.13 264.99 204.13 264.84Q204.13 264.69 204.24 264.58Q204.35 264.48 204.51 264.48Q204.67 264.48 204.77 264.58Q204.88 264.68 204.88 264.83Q204.88 264.98 204.77 265.09Q204.67 265.2 204.51 265.2ZM207.15 268.87Q206.69 268.87 206.33 268.67Q205.97 268.47 205.76 268.12Q205.56 267.76 205.56 267.31Q205.56 266.86 205.76 266.51Q205.97 266.15 206.33 265.95Q206.69 265.76 207.15 265.76Q207.6 265.76 207.96 265.95Q208.32 266.15 208.53 266.51Q208.73 266.86 208.73 267.31Q208.73 267.76 208.53 268.12Q208.32 268.47 207.96 268.67Q207.6 268.87 207.15 268.87ZM207.15 268.39Q207.44 268.39 207.67 268.25Q207.91 268.12 208.04 267.87Q208.17 267.63 208.17 267.31Q208.17 267 208.04 266.75Q207.91 266.51 207.67 266.37Q207.44 266.24 207.15 266.24Q206.85 266.24 206.62 266.37Q206.39 266.51 206.25 266.75Q206.12 267 206.12 267.31Q206.12 267.63 206.25 267.87Q206.39 268.12 206.62 268.25Q206.85 268.39 207.15 268.39ZM211.13 265.76Q211.71 265.76 212.06 266.09Q212.4 266.43 212.4 267.08L212.4 268.84L211.85 268.84L211.85 267.15Q211.85 266.7 211.63 266.48Q211.42 266.25 211.02 266.25Q210.57 266.25 210.31 266.51Q210.05 266.78 210.05 267.27L210.05 268.84L209.5 268.84L209.5 265.78L210.03 265.78L210.03 266.25Q210.2 266.01 210.48 265.88Q210.77 265.76 211.13 265.76ZM214.54 265.76Q215.17 265.76 215.51 266.07Q215.85 266.38 215.85 267L215.85 268.84L215.32 268.84L215.32 268.44Q215.18 268.65 214.93 268.76Q214.67 268.87 214.32 268.87Q213.81 268.87 213.5 268.63Q213.19 268.38 213.19 267.98Q213.19 267.57 213.48 267.33Q213.78 267.08 214.42 267.08L215.29 267.08L215.29 266.97Q215.29 266.61 215.08 266.42Q214.88 266.23 214.47 266.23Q214.2 266.23 213.94 266.32Q213.68 266.41 213.51 266.56L213.27 266.15Q213.51 265.96 213.84 265.86Q214.17 265.76 214.54 265.76ZM214.41 268.45Q214.73 268.45 214.96 268.31Q215.19 268.17 215.29 267.91L215.29 267.48L214.44 267.48Q213.74 267.48 213.74 267.95Q213.74 268.18 213.91 268.32Q214.09 268.45 214.41 268.45ZM216.87 264.56L217.43 264.56L217.43 268.84L216.87 268.84Z" aria-label="optional"/></g><g text-align="center" style="font-feature-settings:normal;font-variant-caps:normal;font-variant-ligatures:normal;font-variant-numeric:normal;line-height:125%"><path d="M194.6 271.77L195.15 271.77L195.15 276.05L194.6 276.05ZM196.21 272.99L196.76 272.99L196.76 276.05L196.21 276.05ZM196.48 272.4Q196.32 272.4 196.21 272.3Q196.11 272.19 196.11 272.05Q196.11 271.9 196.21 271.79Q196.32 271.68 196.48 271.68Q196.64 271.68 196.75 271.78Q196.86 271.88 196.86 272.03Q196.86 272.19 196.75 272.3Q196.64 272.4 196.48 272.4ZM199.45 272.96Q200.03 272.96 200.37 273.3Q200.71 273.64 200.71 274.29L200.71 276.05L200.16 276.05L200.16 274.35Q200.16 273.91 199.95 273.68Q199.73 273.46 199.34 273.46Q198.89 273.46 198.63 273.72Q198.37 273.98 198.37 274.47L198.37 276.05L197.81 276.05L197.81 272.99L198.34 272.99L198.34 273.45Q198.51 273.22 198.8 273.09Q199.08 272.96 199.45 272.96ZM202.93 274.62L202.29 275.21L202.29 276.05L201.74 276.05L201.74 271.77L202.29 271.77L202.29 274.51L203.96 272.99L204.63 272.99L203.34 274.25L204.75 276.05L204.07 276.05ZM208.56 275.87Q208.44 275.97 208.26 276.03Q208.08 276.08 207.89 276.08Q207.43 276.08 207.18 275.83Q206.92 275.58 206.92 275.12L206.92 273.45L206.4 273.45L206.4 272.99L206.92 272.99L206.92 272.32L207.48 272.32L207.48 272.99L208.35 272.99L208.35 273.45L207.48 273.45L207.48 275.1Q207.48 275.35 207.6 275.48Q207.72 275.61 207.95 275.61Q208.21 275.61 208.39 275.47ZM211.89 274.54Q211.89 274.6 211.87 274.7L209.4 274.7Q209.45 275.11 209.75 275.35Q210.05 275.6 210.5 275.6Q211.05 275.6 211.38 275.23L211.69 275.58Q211.48 275.83 211.17 275.95Q210.87 276.08 210.48 276.08Q210 276.08 209.63 275.88Q209.25 275.68 209.05 275.33Q208.84 274.97 208.84 274.52Q208.84 274.07 209.04 273.72Q209.24 273.36 209.59 273.16Q209.94 272.96 210.38 272.96Q210.81 272.96 211.16 273.16Q211.5 273.36 211.69 273.72Q211.89 274.07 211.89 274.54ZM210.38 273.43Q209.98 273.43 209.71 273.67Q209.44 273.91 209.4 274.3L211.36 274.3Q211.31 273.92 211.04 273.67Q210.77 273.43 210.38 273.43ZM214.51 276.05L213.63 274.88L212.74 276.05L212.12 276.05L213.33 274.48L212.18 272.99L212.8 272.99L213.64 274.09L214.47 272.99L215.08 272.99L213.93 274.48L215.14 276.05ZM217.47 275.87Q217.34 275.97 217.17 276.03Q216.99 276.08 216.8 276.08Q216.34 276.08 216.08 275.83Q215.83 275.58 215.83 275.12L215.83 273.45L215.31 273.45L215.31 272.99L215.83 272.99L215.83 272.32L216.38 272.32L216.38 272.99L217.26 272.99L217.26 273.45L216.38 273.45L216.38 275.1Q216.38 275.35 216.51 275.48Q216.63 275.61 216.86 275.61Q217.11 275.61 217.29 275.47Z" aria-label="link text"/></g></g>
   <path d="m198.56 251.3v5.7034h14.324v-5.7034" fill="none" stroke="#1565c0" stroke-linecap="round" stroke-linejoin="round" stroke-width=".529"/>
   <g transform="translate(37.36 -16.836)" fill="none" stroke="#1565c0" stroke-linecap="round" stroke-linejoin="round" stroke-width=".529">
    <path transform="translate(-14.288)" d="m182.64 274.08v3.2096"/>
    <circle cx="168.36" cy="278.06" r=".75117" stroke-dashoffset="72"/>
   </g>
   <g fill="#808080" stroke-width=".0727px" word-spacing="0px" style="font-feature-settings:normal;font-variant-caps:normal;font-variant-ligatures:normal;font-variant-numeric:normal;line-height:0%" xml:space="preserve"><g text-align="center" style="font-feature-settings:normal;font-variant-caps:normal;font-variant-ligatures:normal;font-variant-numeric:normal;line-height:125%"><path d="M165.53 218.6Q165.07 218.6 164.71 218.4Q164.35 218.2 164.14 217.85Q163.94 217.49 163.94 217.04Q163.94 216.59 164.14 216.24Q164.35 215.88 164.71 215.68Q165.07 215.49 165.53 215.49Q165.99 215.49 166.35 215.68Q166.71 215.88 166.91 216.24Q167.12 216.59 167.12 217.04Q167.12 217.49 166.91 217.85Q166.71 218.2 166.35 218.4Q165.99 218.6 165.53 218.6ZM165.53 218.12Q165.82 218.12 166.06 217.98Q166.29 217.85 166.42 217.6Q166.56 217.36 166.56 217.04Q166.56 216.72 166.42 216.48Q166.29 216.23 166.06 216.1Q165.82 215.97 165.53 215.97Q165.24 215.97 165 216.1Q164.77 216.23 164.63 216.48Q164.5 216.72 164.5 217.04Q164.5 217.36 164.63 217.6Q164.77 217.85 165 217.98Q165.24 218.12 165.53 218.12ZM169.5 215.49Q169.95 215.49 170.3 215.68Q170.65 215.88 170.85 216.23Q171.05 216.58 171.05 217.04Q171.05 217.5 170.85 217.86Q170.65 218.21 170.3 218.41Q169.95 218.6 169.5 218.6Q169.17 218.6 168.9 218.48Q168.63 218.35 168.44 218.11L168.44 219.69L167.88 219.69L167.88 215.51L168.41 215.51L168.41 216Q168.6 215.74 168.88 215.61Q169.16 215.49 169.5 215.49ZM169.46 218.12Q169.75 218.12 169.98 217.98Q170.22 217.85 170.35 217.6Q170.49 217.36 170.49 217.04Q170.49 216.72 170.35 216.48Q170.22 216.23 169.98 216.1Q169.75 215.97 169.46 215.97Q169.17 215.97 168.93 216.1Q168.7 216.24 168.57 216.48Q168.43 216.72 168.43 217.04Q168.43 217.36 168.56 217.6Q168.69 217.85 168.93 217.98Q169.17 218.12 169.46 218.12ZM173.53 218.39Q173.41 218.49 173.23 218.55Q173.05 218.6 172.86 218.6Q172.4 218.6 172.15 218.36Q171.89 218.11 171.89 217.65L171.89 215.97L171.38 215.97L171.38 215.51L171.89 215.51L171.89 214.85L172.45 214.85L172.45 215.51L173.32 215.51L173.32 215.97L172.45 215.97L172.45 217.62Q172.45 217.87 172.57 218Q172.7 218.14 172.93 218.14Q173.18 218.14 173.36 217.99ZM174.2 215.51L174.75 215.51L174.75 218.57L174.2 218.57ZM174.48 214.93Q174.32 214.93 174.21 214.82Q174.1 214.72 174.1 214.57Q174.1 214.42 174.21 214.31Q174.32 214.21 174.48 214.21Q174.64 214.21 174.74 214.31Q174.85 214.41 174.85 214.56Q174.85 214.71 174.74 214.82Q174.64 214.93 174.48 214.93ZM177.12 218.6Q176.66 218.6 176.3 218.4Q175.94 218.2 175.73 217.85Q175.53 217.49 175.53 217.04Q175.53 216.59 175.73 216.24Q175.94 215.88 176.3 215.68Q176.66 215.49 177.12 215.49Q177.57 215.49 177.93 215.68Q178.29 215.88 178.5 216.24Q178.7 216.59 178.7 217.04Q178.7 217.49 178.5 217.85Q178.29 218.2 177.93 218.4Q177.57 218.6 177.12 218.6ZM177.12 218.12Q177.41 218.12 177.64 217.98Q177.88 217.85 178.01 217.6Q178.14 217.36 178.14 217.04Q178.14 216.72 178.01 216.48Q177.88 216.23 177.64 216.1Q177.41 215.97 177.12 215.97Q176.82 215.97 176.59 216.1Q176.36 216.23 176.22 216.48Q176.09 216.72 176.09 217.04Q176.09 217.36 176.22 217.6Q176.36 217.85 176.59 217.98Q176.82 218.12 177.12 218.12ZM181.1 215.49Q181.68 215.49 182.03 215.82Q182.37 216.16 182.37 216.81L182.37 218.57L181.82 218.57L181.82 216.87Q181.82 216.43 181.6 216.21Q181.39 215.98 180.99 215.98Q180.54 215.98 180.28 216.24Q180.02 216.51 180.02 217L180.02 218.57L179.47 218.57L179.47 215.51L180 215.51L180 215.98Q180.17 215.74 180.45 215.61Q180.74 215.49 181.1 215.49ZM184.51 215.49Q185.14 215.49 185.48 215.8Q185.82 216.11 185.82 216.72L185.82 218.57L185.29 218.57L185.29 218.17Q185.15 218.38 184.9 218.49Q184.64 218.6 184.29 218.6Q183.78 218.6 183.47 218.36Q183.16 218.11 183.16 217.7Q183.16 217.3 183.45 217.06Q183.75 216.81 184.39 216.81L185.26 216.81L185.26 216.7Q185.26 216.34 185.06 216.15Q184.85 215.96 184.44 215.96Q184.17 215.96 183.91 216.05Q183.65 216.14 183.48 216.29L183.24 215.88Q183.48 215.69 183.81 215.59Q184.14 215.49 184.51 215.49ZM184.38 218.18Q184.7 218.18 184.93 218.04Q185.16 217.89 185.26 217.64L185.26 217.21L184.41 217.21Q183.71 217.21 183.71 217.68Q183.71 217.91 183.88 218.04Q184.06 218.18 184.38 218.18ZM186.84 214.29L187.4 214.29L187.4 218.57L186.84 218.57Z" aria-label="optional"/></g><g text-align="center" style="font-feature-settings:normal;font-variant-caps:normal;font-variant-ligatures:normal;font-variant-numeric:normal;line-height:125%"><path d="M162.74 224.26Q162.74 224.33 162.73 224.43L160.25 224.43Q160.3 224.84 160.6 225.08Q160.91 225.33 161.36 225.33Q161.9 225.33 162.24 224.96L162.54 225.31Q162.34 225.56 162.03 225.68Q161.72 225.81 161.34 225.81Q160.85 225.81 160.48 225.61Q160.11 225.41 159.9 225.05Q159.7 224.7 159.7 224.25Q159.7 223.8 159.9 223.45Q160.09 223.09 160.44 222.89Q160.79 222.69 161.23 222.69Q161.67 222.69 162.01 222.89Q162.35 223.09 162.55 223.45Q162.74 223.8 162.74 224.26ZM161.23 223.16Q160.83 223.16 160.56 223.4Q160.3 223.64 160.25 224.03L162.21 224.03Q162.16 223.65 161.9 223.4Q161.63 223.16 161.23 223.16ZM163.51 221.5L164.06 221.5L164.06 225.78L163.51 225.78ZM167.88 224.26Q167.88 224.33 167.86 224.43L165.39 224.43Q165.44 224.84 165.74 225.08Q166.04 225.33 166.49 225.33Q167.04 225.33 167.37 224.96L167.68 225.31Q167.47 225.56 167.16 225.68Q166.86 225.81 166.48 225.81Q165.99 225.81 165.62 225.61Q165.24 225.41 165.04 225.05Q164.83 224.7 164.83 224.25Q164.83 223.8 165.03 223.45Q165.23 223.09 165.58 222.89Q165.93 222.69 166.37 222.69Q166.8 222.69 167.15 222.89Q167.49 223.09 167.68 223.45Q167.88 223.8 167.88 224.26ZM166.37 223.16Q165.97 223.16 165.7 223.4Q165.43 223.64 165.39 224.03L167.35 224.03Q167.3 223.65 167.03 223.4Q166.76 223.16 166.37 223.16ZM172.46 222.69Q173.04 222.69 173.38 223.03Q173.72 223.36 173.72 224.02L173.72 225.78L173.16 225.78L173.16 224.08Q173.16 223.64 172.96 223.41Q172.75 223.19 172.37 223.19Q171.95 223.19 171.7 223.45Q171.46 223.71 171.46 224.2L171.46 225.78L170.9 225.78L170.9 224.08Q170.9 223.64 170.7 223.41Q170.49 223.19 170.11 223.19Q169.69 223.19 169.44 223.45Q169.2 223.71 169.2 224.2L169.2 225.78L168.64 225.78L168.64 222.72L169.17 222.72L169.17 223.18Q169.34 222.94 169.61 222.82Q169.88 222.69 170.23 222.69Q170.59 222.69 170.86 222.84Q171.14 222.98 171.29 223.26Q171.46 222.99 171.77 222.84Q172.08 222.69 172.46 222.69ZM177.51 224.26Q177.51 224.33 177.5 224.43L175.02 224.43Q175.08 224.84 175.38 225.08Q175.68 225.33 176.13 225.33Q176.68 225.33 177.01 224.96L177.32 225.31Q177.11 225.56 176.8 225.68Q176.49 225.81 176.11 225.81Q175.63 225.81 175.26 225.61Q174.88 225.41 174.68 225.05Q174.47 224.7 174.47 224.25Q174.47 223.8 174.67 223.45Q174.87 223.09 175.22 222.89Q175.57 222.69 176 222.69Q176.44 222.69 176.79 222.89Q177.13 223.09 177.32 223.45Q177.51 223.8 177.51 224.26ZM176 223.16Q175.61 223.16 175.34 223.4Q175.07 223.64 175.02 224.03L176.98 224.03Q176.94 223.65 176.67 223.4Q176.4 223.16 176 223.16ZM179.91 222.69Q180.5 222.69 180.84 223.03Q181.18 223.37 181.18 224.02L181.18 225.78L180.63 225.78L180.63 224.08Q180.63 223.64 180.41 223.41Q180.2 223.19 179.8 223.19Q179.35 223.19 179.09 223.45Q178.83 223.71 178.83 224.2L178.83 225.78L178.28 225.78L178.28 222.72L178.81 222.72L178.81 223.18Q178.98 222.94 179.26 222.82Q179.55 222.69 179.91 222.69ZM183.93 225.6Q183.8 225.7 183.63 225.76Q183.45 225.81 183.26 225.81Q182.8 225.81 182.54 225.56Q182.29 225.31 182.29 224.85L182.29 223.18L181.77 223.18L181.77 222.72L182.29 222.72L182.29 222.05L182.84 222.05L182.84 222.72L183.72 222.72L183.72 223.18L182.84 223.18L182.84 224.83Q182.84 225.08 182.97 225.21Q183.09 225.34 183.32 225.34Q183.57 225.34 183.75 225.2ZM186.23 221.74L186.8 221.74L186.8 225.78L186.23 225.78ZM188.01 221.74L189.71 221.74Q190.35 221.74 190.85 221.99Q191.34 222.25 191.62 222.71Q191.89 223.16 191.89 223.76Q191.89 224.35 191.62 224.81Q191.34 225.27 190.85 225.52Q190.35 225.78 189.71 225.78L188.01 225.78ZM189.68 225.27Q190.17 225.27 190.54 225.08Q190.91 224.89 191.11 224.55Q191.32 224.21 191.32 223.76Q191.32 223.31 191.11 222.96Q190.91 222.62 190.54 222.43Q190.17 222.24 189.68 222.24L188.59 222.24L188.59 225.27Z" aria-label="element ID"/></g></g>
   <path d="m155.89 239.94v-5.7034h39.814v5.7034" fill="none" stroke="#808080" stroke-linecap="round" stroke-linejoin="round" stroke-width=".529"/>
   <g transform="translate(17.604 -16.836)" fill="none" stroke="#808080" stroke-linecap="round" stroke-linejoin="round" stroke-width=".529">
    <path d="m158.19 250.83v-3.2096"/>
    <circle transform="scale(1,-1)" cx="158.19" cy="-246.85" r=".75117" stroke-dashoffset="72"/>
   </g>
   <g fill="#e40046" stroke-width=".0727px" word-spacing="0px" style="font-feature-settings:normal;font-variant-caps:normal;font-variant-ligatures:normal;font-variant-numeric:normal;line-height:0%" xml:space="preserve"><g text-align="center" style="font-feature-settings:normal;font-variant-caps:normal;font-variant-ligatures:normal;font-variant-numeric:normal;line-height:125%"><path d="M4.07 218.57L3.18 217.4L2.29 218.57L1.67 218.57L2.88 217.01L1.73 215.51L2.35 215.51L3.19 216.62L4.03 215.51L4.63 215.51L3.48 217.01L4.69 218.57ZM5.83 216.03Q5.97 215.76 6.26 215.62Q6.54 215.49 6.94 215.49L6.94 216.02Q6.9 216.02 6.82 216.02Q6.37 216.02 6.11 216.28Q5.85 216.55 5.85 217.05L5.85 218.57L5.3 218.57L5.3 215.51L5.83 215.51L5.83 216.03ZM10.36 217.06Q10.36 217.12 10.34 217.23L7.87 217.23Q7.92 217.63 8.22 217.87Q8.52 218.12 8.97 218.12Q9.52 218.12 9.85 217.75L10.16 218.11Q9.95 218.35 9.64 218.48Q9.34 218.6 8.95 218.6Q8.47 218.6 8.1 218.41Q7.72 218.21 7.52 217.85Q7.31 217.49 7.31 217.04Q7.31 216.6 7.51 216.24Q7.71 215.88 8.06 215.68Q8.41 215.49 8.85 215.49Q9.28 215.49 9.63 215.68Q9.97 215.88 10.16 216.24Q10.36 216.6 10.36 217.06ZM8.85 215.95Q8.45 215.95 8.18 216.19Q7.91 216.44 7.87 216.83L9.83 216.83Q9.78 216.44 9.51 216.2Q9.24 215.95 8.85 215.95ZM12.24 214.71Q11.74 214.71 11.74 215.25L11.74 215.51L12.63 215.51L12.63 215.97L11.76 215.97L11.76 218.57L11.2 218.57L11.2 215.97L10.68 215.97L10.68 215.51L11.2 215.51L11.2 215.24Q11.2 214.79 11.47 214.52Q11.73 214.26 12.21 214.26Q12.4 214.26 12.56 214.3Q12.72 214.35 12.83 214.44L12.67 214.86Q12.48 214.71 12.24 214.71Z" aria-label="xref"/></g><g text-align="center" style="font-feature-settings:normal;font-variant-caps:normal;font-variant-ligatures:normal;font-variant-numeric:normal;line-height:125%"><path d="M2.06 222.69Q2.63 222.69 2.97 223.03Q3.31 223.36 3.31 224.02L3.31 225.78L2.75 225.78L2.75 224.08Q2.75 223.64 2.55 223.41Q2.35 223.19 1.96 223.19Q1.54 223.19 1.3 223.45Q1.05 223.71 1.05 224.2L1.05 225.78L0.49 225.78L0.49 224.08Q0.49 223.64 0.29 223.41Q0.09 223.19 -0.29 223.19Q-0.72 223.19 -0.96 223.45Q-1.21 223.71 -1.21 224.2L-1.21 225.78L-1.76 225.78L-1.76 222.72L-1.23 222.72L-1.23 223.18Q-1.07 222.94 -0.8 222.82Q-0.53 222.69 -0.18 222.69Q0.18 222.69 0.45 222.84Q0.73 222.98 0.88 223.26Q1.05 222.99 1.36 222.84Q1.67 222.69 2.06 222.69ZM5.44 222.69Q6.08 222.69 6.41 223Q6.75 223.31 6.75 223.93L6.75 225.78L6.22 225.78L6.22 225.37Q6.09 225.59 5.83 225.7Q5.57 225.81 5.22 225.81Q4.71 225.81 4.4 225.56Q4.09 225.31 4.09 224.91Q4.09 224.51 4.39 224.26Q4.68 224.02 5.32 224.02L6.2 224.02L6.2 223.91Q6.2 223.55 5.99 223.36Q5.78 223.17 5.38 223.17Q5.11 223.17 4.85 223.26Q4.59 223.35 4.41 223.5L4.18 223.08Q4.41 222.89 4.74 222.79Q5.07 222.69 5.44 222.69ZM5.31 225.38Q5.63 225.38 5.86 225.24Q6.09 225.1 6.2 224.84L6.2 224.41L5.34 224.41Q4.64 224.41 4.64 224.89Q4.64 225.12 4.82 225.25Q5 225.38 5.31 225.38ZM9.12 225.81Q8.66 225.81 8.29 225.61Q7.93 225.41 7.72 225.05Q7.51 224.7 7.51 224.25Q7.51 223.8 7.72 223.44Q7.93 223.09 8.29 222.89Q8.66 222.69 9.12 222.69Q9.54 222.69 9.87 222.86Q10.19 223.03 10.37 223.34L9.95 223.61Q9.8 223.39 9.59 223.28Q9.38 223.18 9.12 223.18Q8.82 223.18 8.58 223.31Q8.34 223.44 8.21 223.69Q8.07 223.93 8.07 224.25Q8.07 224.57 8.21 224.82Q8.34 225.06 8.58 225.19Q8.82 225.33 9.12 225.33Q9.38 225.33 9.59 225.22Q9.8 225.11 9.95 224.89L10.37 225.15Q10.19 225.47 9.87 225.64Q9.54 225.81 9.12 225.81ZM11.61 223.23Q11.76 222.97 12.04 222.83Q12.32 222.69 12.73 222.69L12.73 223.23Q12.68 223.22 12.6 223.22Q12.15 223.22 11.89 223.49Q11.64 223.76 11.64 224.25L11.64 225.78L11.08 225.78L11.08 222.72L11.61 222.72L11.61 223.23ZM14.69 225.81Q14.23 225.81 13.87 225.61Q13.51 225.41 13.3 225.05Q13.1 224.7 13.1 224.25Q13.1 223.8 13.3 223.44Q13.51 223.09 13.87 222.89Q14.23 222.69 14.69 222.69Q15.14 222.69 15.5 222.89Q15.86 223.09 16.07 223.44Q16.27 223.8 16.27 224.25Q16.27 224.7 16.07 225.05Q15.86 225.41 15.5 225.61Q15.14 225.81 14.69 225.81ZM14.69 225.33Q14.98 225.33 15.22 225.19Q15.45 225.05 15.58 224.81Q15.71 224.56 15.71 224.25Q15.71 223.93 15.58 223.69Q15.45 223.44 15.22 223.31Q14.98 223.18 14.69 223.18Q14.39 223.18 14.16 223.31Q13.93 223.44 13.79 223.69Q13.66 223.93 13.66 224.25Q13.66 224.56 13.79 224.81Q13.93 225.05 14.16 225.19Q14.39 225.33 14.69 225.33Z" aria-label="macro"/></g></g>
   <path d="m-0.21761 239.94v-5.7034h14.943v5.7034" fill="none" stroke="#e40046" stroke-linecap="round" stroke-linejoin="round" stroke-width=".529"/>
   <g transform="translate(-150.94 -16.836)" fill="none" stroke="#e40046" stroke-linecap="round" stroke-linejoin="round" stroke-width=".529">
    <path d="m158.19 250.83v-3.2096"/>
    <circle transform="scale(1,-1)" cx="158.19" cy="-246.85" r=".75117" stroke-dashoffset="72"/>
   </g>
  </g>
 </g>
</svg>